<?xml version="1.0" encoding="UTF-8"?>
<!DOCTYPE svg PUBLIC "-//W3C//DTD SVG 1.1//EN" "http://www.w3.org/Graphics/SVG/1.1/DTD/svg11.dtd">
<svg width="559mm" height="90mm" viewBox="0 0 55900 9000" version="1.1" xmlns="http://www.w3.org/2000/svg" xmlns:xlink="http://www.w3.org/1999/xlink" stroke-width="28.222" stroke-linejoin="round" xml:space="preserve">
 <path fill="rgb(255,255,255)" stroke="none" d="M 27949,8992 L -13,8992 -13,-13 55910,-13 55910,8992 27949,8992 Z"/>
 <path fill="none" stroke="rgb(179,179,179)" stroke-linejoin="round" d="M 28119,8165 L 1726,8165 1726,366 54512,366 54512,8165 28119,8165 Z"/>
 <path fill="none" stroke="rgb(179,179,179)" stroke-linejoin="round" d="M 54512,8164 L 1726,8164"/>
 <path fill="none" stroke="rgb(179,179,179)" stroke-linejoin="round" d="M 54512,6864 L 1726,6864"/>
 <path fill="none" stroke="rgb(179,179,179)" stroke-linejoin="round" d="M 54512,5564 L 1726,5564"/>
 <path fill="none" stroke="rgb(179,179,179)" stroke-linejoin="round" d="M 54512,4265 L 1726,4265"/>
 <path fill="none" stroke="rgb(179,179,179)" stroke-linejoin="round" d="M 54512,2965 L 1726,2965"/>
 <path fill="none" stroke="rgb(179,179,179)" stroke-linejoin="round" d="M 54512,1665 L 1726,1665"/>
 <path fill="none" stroke="rgb(179,179,179)" stroke-linejoin="round" d="M 54512,365 L 1726,365"/>
 <path fill="none" stroke="rgb(179,179,179)" stroke-linejoin="round" d="M 1726,8314 L 1726,8164"/>
 <path fill="none" stroke="rgb(179,179,179)" stroke-linejoin="round" d="M 1726,8314 L 1726,8164"/>
 <path fill="none" stroke="rgb(179,179,179)" stroke-linejoin="round" d="M 7004,8314 L 7004,8164"/>
 <path fill="none" stroke="rgb(179,179,179)" stroke-linejoin="round" d="M 7004,8314 L 7004,8164"/>
 <path fill="none" stroke="rgb(179,179,179)" stroke-linejoin="round" d="M 12283,8314 L 12283,8164"/>
 <path fill="none" stroke="rgb(179,179,179)" stroke-linejoin="round" d="M 12283,8314 L 12283,8164"/>
 <path fill="none" stroke="rgb(179,179,179)" stroke-linejoin="round" d="M 17562,8314 L 17562,8164"/>
 <path fill="none" stroke="rgb(179,179,179)" stroke-linejoin="round" d="M 17562,8314 L 17562,8164"/>
 <path fill="none" stroke="rgb(179,179,179)" stroke-linejoin="round" d="M 22840,8314 L 22840,8164"/>
 <path fill="none" stroke="rgb(179,179,179)" stroke-linejoin="round" d="M 22840,8314 L 22840,8164"/>
 <path fill="none" stroke="rgb(179,179,179)" stroke-linejoin="round" d="M 28118,8314 L 28118,8164"/>
 <path fill="none" stroke="rgb(179,179,179)" stroke-linejoin="round" d="M 28118,8314 L 28118,8164"/>
 <path fill="none" stroke="rgb(179,179,179)" stroke-linejoin="round" d="M 33397,8314 L 33397,8164"/>
 <path fill="none" stroke="rgb(179,179,179)" stroke-linejoin="round" d="M 33397,8314 L 33397,8164"/>
 <path fill="none" stroke="rgb(179,179,179)" stroke-linejoin="round" d="M 38675,8314 L 38675,8164"/>
 <path fill="none" stroke="rgb(179,179,179)" stroke-linejoin="round" d="M 38675,8314 L 38675,8164"/>
 <path fill="none" stroke="rgb(179,179,179)" stroke-linejoin="round" d="M 43954,8314 L 43954,8164"/>
 <path fill="none" stroke="rgb(179,179,179)" stroke-linejoin="round" d="M 43954,8314 L 43954,8164"/>
 <path fill="none" stroke="rgb(179,179,179)" stroke-linejoin="round" d="M 49233,8314 L 49233,8164"/>
 <path fill="none" stroke="rgb(179,179,179)" stroke-linejoin="round" d="M 49233,8314 L 49233,8164"/>
 <path fill="none" stroke="rgb(179,179,179)" stroke-linejoin="round" d="M 54512,8314 L 54512,8164"/>
 <path fill="none" stroke="rgb(179,179,179)" stroke-linejoin="round" d="M 54512,8314 L 54512,8164"/>
 <path fill="none" stroke="rgb(179,179,179)" stroke-linejoin="round" d="M 1726,8164 L 54512,8164"/>
 <path fill="none" stroke="rgb(179,179,179)" stroke-linejoin="round" d="M 1576,8164 L 1726,8164"/>
 <path fill="none" stroke="rgb(179,179,179)" stroke-linejoin="round" d="M 1576,8164 L 1726,8164"/>
 <path fill="none" stroke="rgb(179,179,179)" stroke-linejoin="round" d="M 1576,6864 L 1726,6864"/>
 <path fill="none" stroke="rgb(179,179,179)" stroke-linejoin="round" d="M 1576,6864 L 1726,6864"/>
 <path fill="none" stroke="rgb(179,179,179)" stroke-linejoin="round" d="M 1576,5564 L 1726,5564"/>
 <path fill="none" stroke="rgb(179,179,179)" stroke-linejoin="round" d="M 1576,5564 L 1726,5564"/>
 <path fill="none" stroke="rgb(179,179,179)" stroke-linejoin="round" d="M 1576,4265 L 1726,4265"/>
 <path fill="none" stroke="rgb(179,179,179)" stroke-linejoin="round" d="M 1576,4265 L 1726,4265"/>
 <path fill="none" stroke="rgb(179,179,179)" stroke-linejoin="round" d="M 1576,2965 L 1726,2965"/>
 <path fill="none" stroke="rgb(179,179,179)" stroke-linejoin="round" d="M 1576,2965 L 1726,2965"/>
 <path fill="none" stroke="rgb(179,179,179)" stroke-linejoin="round" d="M 1576,1665 L 1726,1665"/>
 <path fill="none" stroke="rgb(179,179,179)" stroke-linejoin="round" d="M 1576,1665 L 1726,1665"/>
 <path fill="none" stroke="rgb(179,179,179)" stroke-linejoin="round" d="M 1576,365 L 1726,365"/>
 <path fill="none" stroke="rgb(179,179,179)" stroke-linejoin="round" d="M 1576,365 L 1726,365"/>
 <path fill="none" stroke="rgb(179,179,179)" stroke-linejoin="round" d="M 1726,8164 L 1726,365"/>
 <path fill="none" stroke="rgb(0,69,134)" stroke-width="80" stroke-linejoin="round" d="M 1726,8164 L 2253,8164 2781,8164 3309,8164 3837,1665 4365,8164 4893,8164 5421,8164 5948,8164 6476,8164 7004,8164 7532,8164 8060,8164 8588,8164 9116,8164 9644,8164 10171,8164 10699,8164 11227,8164 11755,8164 12283,8164 12811,8164 13339,8164 13867,8164 14394,8164 14922,8164 15450,8164 15978,8164 16506,8164 17034,8164 17562,8164 18089,8164 18617,8164 19145,8164 19673,8164 20201,8164 20729,8164 21257,8164 21785,8164 22312,8164 22840,8164 23368,8164 23896,8164 24424,8164 24952,8164 25480,8164 26008,8164 26535,8164 27063,8164 27591,8164 28118,8164 28646,8164 29174,8164 29702,8164 30229,8164 30757,8164 31285,8164 31813,8164 32341,8164 32869,8164 33397,8164 33925,8164 34452,8164 34980,8164 35508,8164 36036,8164 36564,8164 37092,8164 37620,8164 38148,8164 38675,8164 39203,8164 39731,8164 40259,8164 40787,8164 41315,8164 41843,8164 42370,8164 42898,8164 43426,8164 43954,8164 44482,8164 45010,8164 45538,8164 46066,8164 46593,8164 47121,8164 47649,8164 48177,8164 48705,8164 49233,8164 49761,8164 50289,8164 50816,8164 51344,8164 51872,8164 52400,1665 52928,8164 53456,8164 53984,8164"/>
 <path fill="rgb(0,69,134)" stroke="none" d="M 1601,8039 L 1601,8289 1851,8289 1851,8039 1601,8039 Z"/>
 <path fill="none" stroke="rgb(0,69,134)" stroke-linejoin="round" d="M 1601,8039 L 1601,8289 1851,8289 1851,8039 1601,8039 Z"/>
 <path fill="rgb(0,69,134)" stroke="none" d="M 2128,8039 L 2128,8289 2378,8289 2378,8039 2128,8039 Z"/>
 <path fill="none" stroke="rgb(0,69,134)" stroke-linejoin="round" d="M 2128,8039 L 2128,8289 2378,8289 2378,8039 2128,8039 Z"/>
 <path fill="rgb(0,69,134)" stroke="none" d="M 2656,8039 L 2656,8289 2906,8289 2906,8039 2656,8039 Z"/>
 <path fill="none" stroke="rgb(0,69,134)" stroke-linejoin="round" d="M 2656,8039 L 2656,8289 2906,8289 2906,8039 2656,8039 Z"/>
 <path fill="rgb(0,69,134)" stroke="none" d="M 3184,8039 L 3184,8289 3434,8289 3434,8039 3184,8039 Z"/>
 <path fill="none" stroke="rgb(0,69,134)" stroke-linejoin="round" d="M 3184,8039 L 3184,8289 3434,8289 3434,8039 3184,8039 Z"/>
 <path fill="rgb(0,69,134)" stroke="none" d="M 3712,1540 L 3712,1790 3962,1790 3962,1540 3712,1540 Z"/>
 <path fill="none" stroke="rgb(0,69,134)" stroke-linejoin="round" d="M 3712,1540 L 3712,1790 3962,1790 3962,1540 3712,1540 Z"/>
 <path fill="rgb(0,69,134)" stroke="none" d="M 4240,8039 L 4240,8289 4490,8289 4490,8039 4240,8039 Z"/>
 <path fill="none" stroke="rgb(0,69,134)" stroke-linejoin="round" d="M 4240,8039 L 4240,8289 4490,8289 4490,8039 4240,8039 Z"/>
 <path fill="rgb(0,69,134)" stroke="none" d="M 4768,8039 L 4768,8289 5018,8289 5018,8039 4768,8039 Z"/>
 <path fill="none" stroke="rgb(0,69,134)" stroke-linejoin="round" d="M 4768,8039 L 4768,8289 5018,8289 5018,8039 4768,8039 Z"/>
 <path fill="rgb(0,69,134)" stroke="none" d="M 5296,8039 L 5296,8289 5546,8289 5546,8039 5296,8039 Z"/>
 <path fill="none" stroke="rgb(0,69,134)" stroke-linejoin="round" d="M 5296,8039 L 5296,8289 5546,8289 5546,8039 5296,8039 Z"/>
 <path fill="rgb(0,69,134)" stroke="none" d="M 5823,8039 L 5823,8289 6073,8289 6073,8039 5823,8039 Z"/>
 <path fill="none" stroke="rgb(0,69,134)" stroke-linejoin="round" d="M 5823,8039 L 5823,8289 6073,8289 6073,8039 5823,8039 Z"/>
 <path fill="rgb(0,69,134)" stroke="none" d="M 6351,8039 L 6351,8289 6601,8289 6601,8039 6351,8039 Z"/>
 <path fill="none" stroke="rgb(0,69,134)" stroke-linejoin="round" d="M 6351,8039 L 6351,8289 6601,8289 6601,8039 6351,8039 Z"/>
 <path fill="rgb(0,69,134)" stroke="none" d="M 6879,8039 L 6879,8289 7129,8289 7129,8039 6879,8039 Z"/>
 <path fill="none" stroke="rgb(0,69,134)" stroke-linejoin="round" d="M 6879,8039 L 6879,8289 7129,8289 7129,8039 6879,8039 Z"/>
 <path fill="rgb(0,69,134)" stroke="none" d="M 7407,8039 L 7407,8289 7657,8289 7657,8039 7407,8039 Z"/>
 <path fill="none" stroke="rgb(0,69,134)" stroke-linejoin="round" d="M 7407,8039 L 7407,8289 7657,8289 7657,8039 7407,8039 Z"/>
 <path fill="rgb(0,69,134)" stroke="none" d="M 7935,8039 L 7935,8289 8185,8289 8185,8039 7935,8039 Z"/>
 <path fill="none" stroke="rgb(0,69,134)" stroke-linejoin="round" d="M 7935,8039 L 7935,8289 8185,8289 8185,8039 7935,8039 Z"/>
 <path fill="rgb(0,69,134)" stroke="none" d="M 8463,8039 L 8463,8289 8713,8289 8713,8039 8463,8039 Z"/>
 <path fill="none" stroke="rgb(0,69,134)" stroke-linejoin="round" d="M 8463,8039 L 8463,8289 8713,8289 8713,8039 8463,8039 Z"/>
 <path fill="rgb(0,69,134)" stroke="none" d="M 8991,8039 L 8991,8289 9241,8289 9241,8039 8991,8039 Z"/>
 <path fill="none" stroke="rgb(0,69,134)" stroke-linejoin="round" d="M 8991,8039 L 8991,8289 9241,8289 9241,8039 8991,8039 Z"/>
 <path fill="rgb(0,69,134)" stroke="none" d="M 9519,8039 L 9519,8289 9769,8289 9769,8039 9519,8039 Z"/>
 <path fill="none" stroke="rgb(0,69,134)" stroke-linejoin="round" d="M 9519,8039 L 9519,8289 9769,8289 9769,8039 9519,8039 Z"/>
 <path fill="rgb(0,69,134)" stroke="none" d="M 10046,8039 L 10046,8289 10296,8289 10296,8039 10046,8039 Z"/>
 <path fill="none" stroke="rgb(0,69,134)" stroke-linejoin="round" d="M 10046,8039 L 10046,8289 10296,8289 10296,8039 10046,8039 Z"/>
 <path fill="rgb(0,69,134)" stroke="none" d="M 10574,8039 L 10574,8289 10824,8289 10824,8039 10574,8039 Z"/>
 <path fill="none" stroke="rgb(0,69,134)" stroke-linejoin="round" d="M 10574,8039 L 10574,8289 10824,8289 10824,8039 10574,8039 Z"/>
 <path fill="rgb(0,69,134)" stroke="none" d="M 11102,8039 L 11102,8289 11352,8289 11352,8039 11102,8039 Z"/>
 <path fill="none" stroke="rgb(0,69,134)" stroke-linejoin="round" d="M 11102,8039 L 11102,8289 11352,8289 11352,8039 11102,8039 Z"/>
 <path fill="rgb(0,69,134)" stroke="none" d="M 11630,8039 L 11630,8289 11880,8289 11880,8039 11630,8039 Z"/>
 <path fill="none" stroke="rgb(0,69,134)" stroke-linejoin="round" d="M 11630,8039 L 11630,8289 11880,8289 11880,8039 11630,8039 Z"/>
 <path fill="rgb(0,69,134)" stroke="none" d="M 12158,8039 L 12158,8289 12408,8289 12408,8039 12158,8039 Z"/>
 <path fill="none" stroke="rgb(0,69,134)" stroke-linejoin="round" d="M 12158,8039 L 12158,8289 12408,8289 12408,8039 12158,8039 Z"/>
 <path fill="rgb(0,69,134)" stroke="none" d="M 12686,8039 L 12686,8289 12936,8289 12936,8039 12686,8039 Z"/>
 <path fill="none" stroke="rgb(0,69,134)" stroke-linejoin="round" d="M 12686,8039 L 12686,8289 12936,8289 12936,8039 12686,8039 Z"/>
 <path fill="rgb(0,69,134)" stroke="none" d="M 13214,8039 L 13214,8289 13464,8289 13464,8039 13214,8039 Z"/>
 <path fill="none" stroke="rgb(0,69,134)" stroke-linejoin="round" d="M 13214,8039 L 13214,8289 13464,8289 13464,8039 13214,8039 Z"/>
 <path fill="rgb(0,69,134)" stroke="none" d="M 13742,8039 L 13742,8289 13992,8289 13992,8039 13742,8039 Z"/>
 <path fill="none" stroke="rgb(0,69,134)" stroke-linejoin="round" d="M 13742,8039 L 13742,8289 13992,8289 13992,8039 13742,8039 Z"/>
 <path fill="rgb(0,69,134)" stroke="none" d="M 14269,8039 L 14269,8289 14519,8289 14519,8039 14269,8039 Z"/>
 <path fill="none" stroke="rgb(0,69,134)" stroke-linejoin="round" d="M 14269,8039 L 14269,8289 14519,8289 14519,8039 14269,8039 Z"/>
 <path fill="rgb(0,69,134)" stroke="none" d="M 14797,8039 L 14797,8289 15047,8289 15047,8039 14797,8039 Z"/>
 <path fill="none" stroke="rgb(0,69,134)" stroke-linejoin="round" d="M 14797,8039 L 14797,8289 15047,8289 15047,8039 14797,8039 Z"/>
 <path fill="rgb(0,69,134)" stroke="none" d="M 15325,8039 L 15325,8289 15575,8289 15575,8039 15325,8039 Z"/>
 <path fill="none" stroke="rgb(0,69,134)" stroke-linejoin="round" d="M 15325,8039 L 15325,8289 15575,8289 15575,8039 15325,8039 Z"/>
 <path fill="rgb(0,69,134)" stroke="none" d="M 15853,8039 L 15853,8289 16103,8289 16103,8039 15853,8039 Z"/>
 <path fill="none" stroke="rgb(0,69,134)" stroke-linejoin="round" d="M 15853,8039 L 15853,8289 16103,8289 16103,8039 15853,8039 Z"/>
 <path fill="rgb(0,69,134)" stroke="none" d="M 16381,8039 L 16381,8289 16631,8289 16631,8039 16381,8039 Z"/>
 <path fill="none" stroke="rgb(0,69,134)" stroke-linejoin="round" d="M 16381,8039 L 16381,8289 16631,8289 16631,8039 16381,8039 Z"/>
 <path fill="rgb(0,69,134)" stroke="none" d="M 16909,8039 L 16909,8289 17159,8289 17159,8039 16909,8039 Z"/>
 <path fill="none" stroke="rgb(0,69,134)" stroke-linejoin="round" d="M 16909,8039 L 16909,8289 17159,8289 17159,8039 16909,8039 Z"/>
 <path fill="rgb(0,69,134)" stroke="none" d="M 17437,8039 L 17437,8289 17687,8289 17687,8039 17437,8039 Z"/>
 <path fill="none" stroke="rgb(0,69,134)" stroke-linejoin="round" d="M 17437,8039 L 17437,8289 17687,8289 17687,8039 17437,8039 Z"/>
 <path fill="rgb(0,69,134)" stroke="none" d="M 17964,8039 L 17964,8289 18214,8289 18214,8039 17964,8039 Z"/>
 <path fill="none" stroke="rgb(0,69,134)" stroke-linejoin="round" d="M 17964,8039 L 17964,8289 18214,8289 18214,8039 17964,8039 Z"/>
 <path fill="rgb(0,69,134)" stroke="none" d="M 18492,8039 L 18492,8289 18742,8289 18742,8039 18492,8039 Z"/>
 <path fill="none" stroke="rgb(0,69,134)" stroke-linejoin="round" d="M 18492,8039 L 18492,8289 18742,8289 18742,8039 18492,8039 Z"/>
 <path fill="rgb(0,69,134)" stroke="none" d="M 19020,8039 L 19020,8289 19270,8289 19270,8039 19020,8039 Z"/>
 <path fill="none" stroke="rgb(0,69,134)" stroke-linejoin="round" d="M 19020,8039 L 19020,8289 19270,8289 19270,8039 19020,8039 Z"/>
 <path fill="rgb(0,69,134)" stroke="none" d="M 19548,8039 L 19548,8289 19798,8289 19798,8039 19548,8039 Z"/>
 <path fill="none" stroke="rgb(0,69,134)" stroke-linejoin="round" d="M 19548,8039 L 19548,8289 19798,8289 19798,8039 19548,8039 Z"/>
 <path fill="rgb(0,69,134)" stroke="none" d="M 20076,8039 L 20076,8289 20326,8289 20326,8039 20076,8039 Z"/>
 <path fill="none" stroke="rgb(0,69,134)" stroke-linejoin="round" d="M 20076,8039 L 20076,8289 20326,8289 20326,8039 20076,8039 Z"/>
 <path fill="rgb(0,69,134)" stroke="none" d="M 20604,8039 L 20604,8289 20854,8289 20854,8039 20604,8039 Z"/>
 <path fill="none" stroke="rgb(0,69,134)" stroke-linejoin="round" d="M 20604,8039 L 20604,8289 20854,8289 20854,8039 20604,8039 Z"/>
 <path fill="rgb(0,69,134)" stroke="none" d="M 21132,8039 L 21132,8289 21382,8289 21382,8039 21132,8039 Z"/>
 <path fill="none" stroke="rgb(0,69,134)" stroke-linejoin="round" d="M 21132,8039 L 21132,8289 21382,8289 21382,8039 21132,8039 Z"/>
 <path fill="rgb(0,69,134)" stroke="none" d="M 21660,8039 L 21660,8289 21910,8289 21910,8039 21660,8039 Z"/>
 <path fill="none" stroke="rgb(0,69,134)" stroke-linejoin="round" d="M 21660,8039 L 21660,8289 21910,8289 21910,8039 21660,8039 Z"/>
 <path fill="rgb(0,69,134)" stroke="none" d="M 22187,8039 L 22187,8289 22437,8289 22437,8039 22187,8039 Z"/>
 <path fill="none" stroke="rgb(0,69,134)" stroke-linejoin="round" d="M 22187,8039 L 22187,8289 22437,8289 22437,8039 22187,8039 Z"/>
 <path fill="rgb(0,69,134)" stroke="none" d="M 22715,8039 L 22715,8289 22965,8289 22965,8039 22715,8039 Z"/>
 <path fill="none" stroke="rgb(0,69,134)" stroke-linejoin="round" d="M 22715,8039 L 22715,8289 22965,8289 22965,8039 22715,8039 Z"/>
 <path fill="rgb(0,69,134)" stroke="none" d="M 23243,8039 L 23243,8289 23493,8289 23493,8039 23243,8039 Z"/>
 <path fill="none" stroke="rgb(0,69,134)" stroke-linejoin="round" d="M 23243,8039 L 23243,8289 23493,8289 23493,8039 23243,8039 Z"/>
 <path fill="rgb(0,69,134)" stroke="none" d="M 23771,8039 L 23771,8289 24021,8289 24021,8039 23771,8039 Z"/>
 <path fill="none" stroke="rgb(0,69,134)" stroke-linejoin="round" d="M 23771,8039 L 23771,8289 24021,8289 24021,8039 23771,8039 Z"/>
 <path fill="rgb(0,69,134)" stroke="none" d="M 24299,8039 L 24299,8289 24549,8289 24549,8039 24299,8039 Z"/>
 <path fill="none" stroke="rgb(0,69,134)" stroke-linejoin="round" d="M 24299,8039 L 24299,8289 24549,8289 24549,8039 24299,8039 Z"/>
 <path fill="rgb(0,69,134)" stroke="none" d="M 24827,8039 L 24827,8289 25077,8289 25077,8039 24827,8039 Z"/>
 <path fill="none" stroke="rgb(0,69,134)" stroke-linejoin="round" d="M 24827,8039 L 24827,8289 25077,8289 25077,8039 24827,8039 Z"/>
 <path fill="rgb(0,69,134)" stroke="none" d="M 25355,8039 L 25355,8289 25605,8289 25605,8039 25355,8039 Z"/>
 <path fill="none" stroke="rgb(0,69,134)" stroke-linejoin="round" d="M 25355,8039 L 25355,8289 25605,8289 25605,8039 25355,8039 Z"/>
 <path fill="rgb(0,69,134)" stroke="none" d="M 25883,8039 L 25883,8289 26133,8289 26133,8039 25883,8039 Z"/>
 <path fill="none" stroke="rgb(0,69,134)" stroke-linejoin="round" d="M 25883,8039 L 25883,8289 26133,8289 26133,8039 25883,8039 Z"/>
 <path fill="rgb(0,69,134)" stroke="none" d="M 26410,8039 L 26410,8289 26660,8289 26660,8039 26410,8039 Z"/>
 <path fill="none" stroke="rgb(0,69,134)" stroke-linejoin="round" d="M 26410,8039 L 26410,8289 26660,8289 26660,8039 26410,8039 Z"/>
 <path fill="rgb(0,69,134)" stroke="none" d="M 26938,8039 L 26938,8289 27188,8289 27188,8039 26938,8039 Z"/>
 <path fill="none" stroke="rgb(0,69,134)" stroke-linejoin="round" d="M 26938,8039 L 26938,8289 27188,8289 27188,8039 26938,8039 Z"/>
 <path fill="rgb(0,69,134)" stroke="none" d="M 27466,8039 L 27466,8289 27716,8289 27716,8039 27466,8039 Z"/>
 <path fill="none" stroke="rgb(0,69,134)" stroke-linejoin="round" d="M 27466,8039 L 27466,8289 27716,8289 27716,8039 27466,8039 Z"/>
 <path fill="rgb(0,69,134)" stroke="none" d="M 27993,8039 L 27993,8289 28243,8289 28243,8039 27993,8039 Z"/>
 <path fill="none" stroke="rgb(0,69,134)" stroke-linejoin="round" d="M 27993,8039 L 27993,8289 28243,8289 28243,8039 27993,8039 Z"/>
 <path fill="rgb(0,69,134)" stroke="none" d="M 28521,8039 L 28521,8289 28771,8289 28771,8039 28521,8039 Z"/>
 <path fill="none" stroke="rgb(0,69,134)" stroke-linejoin="round" d="M 28521,8039 L 28521,8289 28771,8289 28771,8039 28521,8039 Z"/>
 <path fill="rgb(0,69,134)" stroke="none" d="M 29049,8039 L 29049,8289 29299,8289 29299,8039 29049,8039 Z"/>
 <path fill="none" stroke="rgb(0,69,134)" stroke-linejoin="round" d="M 29049,8039 L 29049,8289 29299,8289 29299,8039 29049,8039 Z"/>
 <path fill="rgb(0,69,134)" stroke="none" d="M 29577,8039 L 29577,8289 29827,8289 29827,8039 29577,8039 Z"/>
 <path fill="none" stroke="rgb(0,69,134)" stroke-linejoin="round" d="M 29577,8039 L 29577,8289 29827,8289 29827,8039 29577,8039 Z"/>
 <path fill="rgb(0,69,134)" stroke="none" d="M 30104,8039 L 30104,8289 30354,8289 30354,8039 30104,8039 Z"/>
 <path fill="none" stroke="rgb(0,69,134)" stroke-linejoin="round" d="M 30104,8039 L 30104,8289 30354,8289 30354,8039 30104,8039 Z"/>
 <path fill="rgb(0,69,134)" stroke="none" d="M 30632,8039 L 30632,8289 30882,8289 30882,8039 30632,8039 Z"/>
 <path fill="none" stroke="rgb(0,69,134)" stroke-linejoin="round" d="M 30632,8039 L 30632,8289 30882,8289 30882,8039 30632,8039 Z"/>
 <path fill="rgb(0,69,134)" stroke="none" d="M 31160,8039 L 31160,8289 31410,8289 31410,8039 31160,8039 Z"/>
 <path fill="none" stroke="rgb(0,69,134)" stroke-linejoin="round" d="M 31160,8039 L 31160,8289 31410,8289 31410,8039 31160,8039 Z"/>
 <path fill="rgb(0,69,134)" stroke="none" d="M 31688,8039 L 31688,8289 31938,8289 31938,8039 31688,8039 Z"/>
 <path fill="none" stroke="rgb(0,69,134)" stroke-linejoin="round" d="M 31688,8039 L 31688,8289 31938,8289 31938,8039 31688,8039 Z"/>
 <path fill="rgb(0,69,134)" stroke="none" d="M 32216,8039 L 32216,8289 32466,8289 32466,8039 32216,8039 Z"/>
 <path fill="none" stroke="rgb(0,69,134)" stroke-linejoin="round" d="M 32216,8039 L 32216,8289 32466,8289 32466,8039 32216,8039 Z"/>
 <path fill="rgb(0,69,134)" stroke="none" d="M 32744,8039 L 32744,8289 32994,8289 32994,8039 32744,8039 Z"/>
 <path fill="none" stroke="rgb(0,69,134)" stroke-linejoin="round" d="M 32744,8039 L 32744,8289 32994,8289 32994,8039 32744,8039 Z"/>
 <path fill="rgb(0,69,134)" stroke="none" d="M 33272,8039 L 33272,8289 33522,8289 33522,8039 33272,8039 Z"/>
 <path fill="none" stroke="rgb(0,69,134)" stroke-linejoin="round" d="M 33272,8039 L 33272,8289 33522,8289 33522,8039 33272,8039 Z"/>
 <path fill="rgb(0,69,134)" stroke="none" d="M 33800,8039 L 33800,8289 34050,8289 34050,8039 33800,8039 Z"/>
 <path fill="none" stroke="rgb(0,69,134)" stroke-linejoin="round" d="M 33800,8039 L 33800,8289 34050,8289 34050,8039 33800,8039 Z"/>
 <path fill="rgb(0,69,134)" stroke="none" d="M 34327,8039 L 34327,8289 34577,8289 34577,8039 34327,8039 Z"/>
 <path fill="none" stroke="rgb(0,69,134)" stroke-linejoin="round" d="M 34327,8039 L 34327,8289 34577,8289 34577,8039 34327,8039 Z"/>
 <path fill="rgb(0,69,134)" stroke="none" d="M 34855,8039 L 34855,8289 35105,8289 35105,8039 34855,8039 Z"/>
 <path fill="none" stroke="rgb(0,69,134)" stroke-linejoin="round" d="M 34855,8039 L 34855,8289 35105,8289 35105,8039 34855,8039 Z"/>
 <path fill="rgb(0,69,134)" stroke="none" d="M 35383,8039 L 35383,8289 35633,8289 35633,8039 35383,8039 Z"/>
 <path fill="none" stroke="rgb(0,69,134)" stroke-linejoin="round" d="M 35383,8039 L 35383,8289 35633,8289 35633,8039 35383,8039 Z"/>
 <path fill="rgb(0,69,134)" stroke="none" d="M 35911,8039 L 35911,8289 36161,8289 36161,8039 35911,8039 Z"/>
 <path fill="none" stroke="rgb(0,69,134)" stroke-linejoin="round" d="M 35911,8039 L 35911,8289 36161,8289 36161,8039 35911,8039 Z"/>
 <path fill="rgb(0,69,134)" stroke="none" d="M 36439,8039 L 36439,8289 36689,8289 36689,8039 36439,8039 Z"/>
 <path fill="none" stroke="rgb(0,69,134)" stroke-linejoin="round" d="M 36439,8039 L 36439,8289 36689,8289 36689,8039 36439,8039 Z"/>
 <path fill="rgb(0,69,134)" stroke="none" d="M 36967,8039 L 36967,8289 37217,8289 37217,8039 36967,8039 Z"/>
 <path fill="none" stroke="rgb(0,69,134)" stroke-linejoin="round" d="M 36967,8039 L 36967,8289 37217,8289 37217,8039 36967,8039 Z"/>
 <path fill="rgb(0,69,134)" stroke="none" d="M 37495,8039 L 37495,8289 37745,8289 37745,8039 37495,8039 Z"/>
 <path fill="none" stroke="rgb(0,69,134)" stroke-linejoin="round" d="M 37495,8039 L 37495,8289 37745,8289 37745,8039 37495,8039 Z"/>
 <path fill="rgb(0,69,134)" stroke="none" d="M 38023,8039 L 38023,8289 38273,8289 38273,8039 38023,8039 Z"/>
 <path fill="none" stroke="rgb(0,69,134)" stroke-linejoin="round" d="M 38023,8039 L 38023,8289 38273,8289 38273,8039 38023,8039 Z"/>
 <path fill="rgb(0,69,134)" stroke="none" d="M 38550,8039 L 38550,8289 38800,8289 38800,8039 38550,8039 Z"/>
 <path fill="none" stroke="rgb(0,69,134)" stroke-linejoin="round" d="M 38550,8039 L 38550,8289 38800,8289 38800,8039 38550,8039 Z"/>
 <path fill="rgb(0,69,134)" stroke="none" d="M 39078,8039 L 39078,8289 39328,8289 39328,8039 39078,8039 Z"/>
 <path fill="none" stroke="rgb(0,69,134)" stroke-linejoin="round" d="M 39078,8039 L 39078,8289 39328,8289 39328,8039 39078,8039 Z"/>
 <path fill="rgb(0,69,134)" stroke="none" d="M 39606,8039 L 39606,8289 39856,8289 39856,8039 39606,8039 Z"/>
 <path fill="none" stroke="rgb(0,69,134)" stroke-linejoin="round" d="M 39606,8039 L 39606,8289 39856,8289 39856,8039 39606,8039 Z"/>
 <path fill="rgb(0,69,134)" stroke="none" d="M 40134,8039 L 40134,8289 40384,8289 40384,8039 40134,8039 Z"/>
 <path fill="none" stroke="rgb(0,69,134)" stroke-linejoin="round" d="M 40134,8039 L 40134,8289 40384,8289 40384,8039 40134,8039 Z"/>
 <path fill="rgb(0,69,134)" stroke="none" d="M 40662,8039 L 40662,8289 40912,8289 40912,8039 40662,8039 Z"/>
 <path fill="none" stroke="rgb(0,69,134)" stroke-linejoin="round" d="M 40662,8039 L 40662,8289 40912,8289 40912,8039 40662,8039 Z"/>
 <path fill="rgb(0,69,134)" stroke="none" d="M 41190,8039 L 41190,8289 41440,8289 41440,8039 41190,8039 Z"/>
 <path fill="none" stroke="rgb(0,69,134)" stroke-linejoin="round" d="M 41190,8039 L 41190,8289 41440,8289 41440,8039 41190,8039 Z"/>
 <path fill="rgb(0,69,134)" stroke="none" d="M 41718,8039 L 41718,8289 41968,8289 41968,8039 41718,8039 Z"/>
 <path fill="none" stroke="rgb(0,69,134)" stroke-linejoin="round" d="M 41718,8039 L 41718,8289 41968,8289 41968,8039 41718,8039 Z"/>
 <path fill="rgb(0,69,134)" stroke="none" d="M 42245,8039 L 42245,8289 42495,8289 42495,8039 42245,8039 Z"/>
 <path fill="none" stroke="rgb(0,69,134)" stroke-linejoin="round" d="M 42245,8039 L 42245,8289 42495,8289 42495,8039 42245,8039 Z"/>
 <path fill="rgb(0,69,134)" stroke="none" d="M 42773,8039 L 42773,8289 43023,8289 43023,8039 42773,8039 Z"/>
 <path fill="none" stroke="rgb(0,69,134)" stroke-linejoin="round" d="M 42773,8039 L 42773,8289 43023,8289 43023,8039 42773,8039 Z"/>
 <path fill="rgb(0,69,134)" stroke="none" d="M 43301,8039 L 43301,8289 43551,8289 43551,8039 43301,8039 Z"/>
 <path fill="none" stroke="rgb(0,69,134)" stroke-linejoin="round" d="M 43301,8039 L 43301,8289 43551,8289 43551,8039 43301,8039 Z"/>
 <path fill="rgb(0,69,134)" stroke="none" d="M 43829,8039 L 43829,8289 44079,8289 44079,8039 43829,8039 Z"/>
 <path fill="none" stroke="rgb(0,69,134)" stroke-linejoin="round" d="M 43829,8039 L 43829,8289 44079,8289 44079,8039 43829,8039 Z"/>
 <path fill="rgb(0,69,134)" stroke="none" d="M 44357,8039 L 44357,8289 44607,8289 44607,8039 44357,8039 Z"/>
 <path fill="none" stroke="rgb(0,69,134)" stroke-linejoin="round" d="M 44357,8039 L 44357,8289 44607,8289 44607,8039 44357,8039 Z"/>
 <path fill="rgb(0,69,134)" stroke="none" d="M 44885,8039 L 44885,8289 45135,8289 45135,8039 44885,8039 Z"/>
 <path fill="none" stroke="rgb(0,69,134)" stroke-linejoin="round" d="M 44885,8039 L 44885,8289 45135,8289 45135,8039 44885,8039 Z"/>
 <path fill="rgb(0,69,134)" stroke="none" d="M 45413,8039 L 45413,8289 45663,8289 45663,8039 45413,8039 Z"/>
 <path fill="none" stroke="rgb(0,69,134)" stroke-linejoin="round" d="M 45413,8039 L 45413,8289 45663,8289 45663,8039 45413,8039 Z"/>
 <path fill="rgb(0,69,134)" stroke="none" d="M 45941,8039 L 45941,8289 46191,8289 46191,8039 45941,8039 Z"/>
 <path fill="none" stroke="rgb(0,69,134)" stroke-linejoin="round" d="M 45941,8039 L 45941,8289 46191,8289 46191,8039 45941,8039 Z"/>
 <path fill="rgb(0,69,134)" stroke="none" d="M 46468,8039 L 46468,8289 46718,8289 46718,8039 46468,8039 Z"/>
 <path fill="none" stroke="rgb(0,69,134)" stroke-linejoin="round" d="M 46468,8039 L 46468,8289 46718,8289 46718,8039 46468,8039 Z"/>
 <path fill="rgb(0,69,134)" stroke="none" d="M 46996,8039 L 46996,8289 47246,8289 47246,8039 46996,8039 Z"/>
 <path fill="none" stroke="rgb(0,69,134)" stroke-linejoin="round" d="M 46996,8039 L 46996,8289 47246,8289 47246,8039 46996,8039 Z"/>
 <path fill="rgb(0,69,134)" stroke="none" d="M 47524,8039 L 47524,8289 47774,8289 47774,8039 47524,8039 Z"/>
 <path fill="none" stroke="rgb(0,69,134)" stroke-linejoin="round" d="M 47524,8039 L 47524,8289 47774,8289 47774,8039 47524,8039 Z"/>
 <path fill="rgb(0,69,134)" stroke="none" d="M 48052,8039 L 48052,8289 48302,8289 48302,8039 48052,8039 Z"/>
 <path fill="none" stroke="rgb(0,69,134)" stroke-linejoin="round" d="M 48052,8039 L 48052,8289 48302,8289 48302,8039 48052,8039 Z"/>
 <path fill="rgb(0,69,134)" stroke="none" d="M 48580,8039 L 48580,8289 48830,8289 48830,8039 48580,8039 Z"/>
 <path fill="none" stroke="rgb(0,69,134)" stroke-linejoin="round" d="M 48580,8039 L 48580,8289 48830,8289 48830,8039 48580,8039 Z"/>
 <path fill="rgb(0,69,134)" stroke="none" d="M 49108,8039 L 49108,8289 49358,8289 49358,8039 49108,8039 Z"/>
 <path fill="none" stroke="rgb(0,69,134)" stroke-linejoin="round" d="M 49108,8039 L 49108,8289 49358,8289 49358,8039 49108,8039 Z"/>
 <path fill="rgb(0,69,134)" stroke="none" d="M 49636,8039 L 49636,8289 49886,8289 49886,8039 49636,8039 Z"/>
 <path fill="none" stroke="rgb(0,69,134)" stroke-linejoin="round" d="M 49636,8039 L 49636,8289 49886,8289 49886,8039 49636,8039 Z"/>
 <path fill="rgb(0,69,134)" stroke="none" d="M 50164,8039 L 50164,8289 50414,8289 50414,8039 50164,8039 Z"/>
 <path fill="none" stroke="rgb(0,69,134)" stroke-linejoin="round" d="M 50164,8039 L 50164,8289 50414,8289 50414,8039 50164,8039 Z"/>
 <path fill="rgb(0,69,134)" stroke="none" d="M 50691,8039 L 50691,8289 50941,8289 50941,8039 50691,8039 Z"/>
 <path fill="none" stroke="rgb(0,69,134)" stroke-linejoin="round" d="M 50691,8039 L 50691,8289 50941,8289 50941,8039 50691,8039 Z"/>
 <path fill="rgb(0,69,134)" stroke="none" d="M 51219,8039 L 51219,8289 51469,8289 51469,8039 51219,8039 Z"/>
 <path fill="none" stroke="rgb(0,69,134)" stroke-linejoin="round" d="M 51219,8039 L 51219,8289 51469,8289 51469,8039 51219,8039 Z"/>
 <path fill="rgb(0,69,134)" stroke="none" d="M 51747,8039 L 51747,8289 51997,8289 51997,8039 51747,8039 Z"/>
 <path fill="none" stroke="rgb(0,69,134)" stroke-linejoin="round" d="M 51747,8039 L 51747,8289 51997,8289 51997,8039 51747,8039 Z"/>
 <path fill="rgb(0,69,134)" stroke="none" d="M 52275,1540 L 52275,1790 52525,1790 52525,1540 52275,1540 Z"/>
 <path fill="none" stroke="rgb(0,69,134)" stroke-linejoin="round" d="M 52275,1540 L 52275,1790 52525,1790 52525,1540 52275,1540 Z"/>
 <path fill="rgb(0,69,134)" stroke="none" d="M 52803,8039 L 52803,8289 53053,8289 53053,8039 52803,8039 Z"/>
 <path fill="none" stroke="rgb(0,69,134)" stroke-linejoin="round" d="M 52803,8039 L 52803,8289 53053,8289 53053,8039 52803,8039 Z"/>
 <path fill="rgb(0,69,134)" stroke="none" d="M 53331,8039 L 53331,8289 53581,8289 53581,8039 53331,8039 Z"/>
 <path fill="none" stroke="rgb(0,69,134)" stroke-linejoin="round" d="M 53331,8039 L 53331,8289 53581,8289 53581,8039 53331,8039 Z"/>
 <path fill="rgb(0,69,134)" stroke="none" d="M 53859,8039 L 53859,8289 54109,8289 54109,8039 53859,8039 Z"/>
 <path fill="none" stroke="rgb(0,69,134)" stroke-linejoin="round" d="M 53859,8039 L 53859,8289 54109,8289 54109,8039 53859,8039 Z"/>
 <text class="SVGTextShape"><tspan class="TextParagraph" font-family="Liberation Sans, sans-serif" font-size="353px" font-weight="400"><tspan class="TextPosition" x="1633" y="8732"><tspan fill="rgb(0,0,0)" stroke="none" style="white-space: pre">0</tspan></tspan></tspan></text>
 <text class="SVGTextShape"><tspan class="TextParagraph" font-family="Liberation Sans, sans-serif" font-size="353px" font-weight="400"><tspan class="TextPosition" x="6819" y="8732"><tspan fill="rgb(0,0,0)" stroke="none" style="white-space: pre">10</tspan></tspan></tspan></text>
 <text class="SVGTextShape"><tspan class="TextParagraph" font-family="Liberation Sans, sans-serif" font-size="353px" font-weight="400"><tspan class="TextPosition" x="12098" y="8732"><tspan fill="rgb(0,0,0)" stroke="none" style="white-space: pre">20</tspan></tspan></tspan></text>
 <text class="SVGTextShape"><tspan class="TextParagraph" font-family="Liberation Sans, sans-serif" font-size="353px" font-weight="400"><tspan class="TextPosition" x="17377" y="8732"><tspan fill="rgb(0,0,0)" stroke="none" style="white-space: pre">30</tspan></tspan></tspan></text>
 <text class="SVGTextShape"><tspan class="TextParagraph" font-family="Liberation Sans, sans-serif" font-size="353px" font-weight="400"><tspan class="TextPosition" x="22655" y="8732"><tspan fill="rgb(0,0,0)" stroke="none" style="white-space: pre">40</tspan></tspan></tspan></text>
 <text class="SVGTextShape"><tspan class="TextParagraph" font-family="Liberation Sans, sans-serif" font-size="353px" font-weight="400"><tspan class="TextPosition" x="27934" y="8732"><tspan fill="rgb(0,0,0)" stroke="none" style="white-space: pre">50</tspan></tspan></tspan></text>
 <text class="SVGTextShape"><tspan class="TextParagraph" font-family="Liberation Sans, sans-serif" font-size="353px" font-weight="400"><tspan class="TextPosition" x="33213" y="8732"><tspan fill="rgb(0,0,0)" stroke="none" style="white-space: pre">60</tspan></tspan></tspan></text>
 <text class="SVGTextShape"><tspan class="TextParagraph" font-family="Liberation Sans, sans-serif" font-size="353px" font-weight="400"><tspan class="TextPosition" x="38491" y="8732"><tspan fill="rgb(0,0,0)" stroke="none" style="white-space: pre">70</tspan></tspan></tspan></text>
 <text class="SVGTextShape"><tspan class="TextParagraph" font-family="Liberation Sans, sans-serif" font-size="353px" font-weight="400"><tspan class="TextPosition" x="43770" y="8732"><tspan fill="rgb(0,0,0)" stroke="none" style="white-space: pre">80</tspan></tspan></tspan></text>
 <text class="SVGTextShape"><tspan class="TextParagraph" font-family="Liberation Sans, sans-serif" font-size="353px" font-weight="400"><tspan class="TextPosition" x="49049" y="8732"><tspan fill="rgb(0,0,0)" stroke="none" style="white-space: pre">90</tspan></tspan></tspan></text>
 <text class="SVGTextShape"><tspan class="TextParagraph" font-family="Liberation Sans, sans-serif" font-size="353px" font-weight="400"><tspan class="TextPosition" x="54235" y="8732"><tspan fill="rgb(0,0,0)" stroke="none" style="white-space: pre">100</tspan></tspan></tspan></text>
 <text class="SVGTextShape"><tspan class="TextParagraph" font-family="Liberation Sans, sans-serif" font-size="353px" font-weight="400"><tspan class="TextPosition" x="1291" y="8285"><tspan fill="rgb(0,0,0)" stroke="none" style="white-space: pre">0</tspan></tspan></tspan></text>
 <text class="SVGTextShape"><tspan class="TextParagraph" font-family="Liberation Sans, sans-serif" font-size="353px" font-weight="400"><tspan class="TextPosition" x="1106" y="6985"><tspan fill="rgb(0,0,0)" stroke="none" style="white-space: pre">10</tspan></tspan></tspan></text>
 <text class="SVGTextShape"><tspan class="TextParagraph" font-family="Liberation Sans, sans-serif" font-size="353px" font-weight="400"><tspan class="TextPosition" x="1106" y="5685"><tspan fill="rgb(0,0,0)" stroke="none" style="white-space: pre">20</tspan></tspan></tspan></text>
 <text class="SVGTextShape"><tspan class="TextParagraph" font-family="Liberation Sans, sans-serif" font-size="353px" font-weight="400"><tspan class="TextPosition" x="1106" y="4385"><tspan fill="rgb(0,0,0)" stroke="none" style="white-space: pre">30</tspan></tspan></tspan></text>
 <text class="SVGTextShape"><tspan class="TextParagraph" font-family="Liberation Sans, sans-serif" font-size="353px" font-weight="400"><tspan class="TextPosition" x="1106" y="3085"><tspan fill="rgb(0,0,0)" stroke="none" style="white-space: pre">40</tspan></tspan></tspan></text>
 <text class="SVGTextShape"><tspan class="TextParagraph" font-family="Liberation Sans, sans-serif" font-size="353px" font-weight="400"><tspan class="TextPosition" x="1106" y="1785"><tspan fill="rgb(0,0,0)" stroke="none" style="white-space: pre">50</tspan></tspan></tspan></text>
 <text class="SVGTextShape"><tspan class="TextParagraph" font-family="Liberation Sans, sans-serif" font-size="353px" font-weight="400"><tspan class="TextPosition" x="1106" y="485"><tspan fill="rgb(0,0,0)" stroke="none" style="white-space: pre">60</tspan></tspan></tspan></text>
</svg>