<?xml version="1.0" encoding="UTF-8"?>
<!DOCTYPE svg PUBLIC "-//W3C//DTD SVG 1.1//EN" "http://www.w3.org/Graphics/SVG/1.1/DTD/svg11.dtd">
<svg width="100mm" height="100mm" viewBox="0 0 10000 10000" version="1.1" xmlns="http://www.w3.org/2000/svg" xmlns:xlink="http://www.w3.org/1999/xlink" stroke-width="28.222" stroke-linejoin="round" xml:space="preserve">
 <path fill="rgb(255,255,255)" stroke="none" d="M 5010,9798 L 216,9798 216,179 9804,179 9804,9798 5010,9798 Z"/>
 <path fill="none" stroke="rgb(179,179,179)" stroke-linejoin="round" d="M 5008,9796 L 215,9796 215,178 9801,178 9801,9796 5008,9796 Z"/>
 <path fill="none" stroke="rgb(179,179,179)" stroke-linejoin="round" d="M 9801,9795 L 215,9795"/>
 <path fill="none" stroke="rgb(179,179,179)" stroke-linejoin="round" d="M 9801,8833 L 215,8833"/>
 <path fill="none" stroke="rgb(179,179,179)" stroke-linejoin="round" d="M 9801,7871 L 215,7871"/>
 <path fill="none" stroke="rgb(179,179,179)" stroke-linejoin="round" d="M 9801,6909 L 215,6909"/>
 <path fill="none" stroke="rgb(179,179,179)" stroke-linejoin="round" d="M 9801,5947 L 215,5947"/>
 <path fill="none" stroke="rgb(179,179,179)" stroke-linejoin="round" d="M 9801,4986 L 215,4986"/>
 <path fill="none" stroke="rgb(179,179,179)" stroke-linejoin="round" d="M 9801,4024 L 215,4024"/>
 <path fill="none" stroke="rgb(179,179,179)" stroke-linejoin="round" d="M 9801,3062 L 215,3062"/>
 <path fill="none" stroke="rgb(179,179,179)" stroke-linejoin="round" d="M 9801,2100 L 215,2100"/>
 <path fill="none" stroke="rgb(179,179,179)" stroke-linejoin="round" d="M 9801,1138 L 215,1138"/>
 <path fill="none" stroke="rgb(179,179,179)" stroke-linejoin="round" d="M 9801,177 L 215,177"/>
 <path fill="none" stroke="rgb(179,179,179)" stroke-linejoin="round" d="M 215,5130 L 215,4986"/>
 <path fill="none" stroke="rgb(179,179,179)" stroke-linejoin="round" d="M 215,5130 L 215,4986"/>
 <path fill="none" stroke="rgb(179,179,179)" stroke-linejoin="round" d="M 1173,5130 L 1173,4986"/>
 <path fill="none" stroke="rgb(179,179,179)" stroke-linejoin="round" d="M 1173,5130 L 1173,4986"/>
 <path fill="none" stroke="rgb(179,179,179)" stroke-linejoin="round" d="M 2132,5130 L 2132,4986"/>
 <path fill="none" stroke="rgb(179,179,179)" stroke-linejoin="round" d="M 2132,5130 L 2132,4986"/>
 <path fill="none" stroke="rgb(179,179,179)" stroke-linejoin="round" d="M 3090,5130 L 3090,4986"/>
 <path fill="none" stroke="rgb(179,179,179)" stroke-linejoin="round" d="M 3090,5130 L 3090,4986"/>
 <path fill="none" stroke="rgb(179,179,179)" stroke-linejoin="round" d="M 4049,5130 L 4049,4986"/>
 <path fill="none" stroke="rgb(179,179,179)" stroke-linejoin="round" d="M 4049,5130 L 4049,4986"/>
 <path fill="none" stroke="rgb(179,179,179)" stroke-linejoin="round" d="M 5008,5130 L 5008,4986"/>
 <path fill="none" stroke="rgb(179,179,179)" stroke-linejoin="round" d="M 5008,5130 L 5008,4986"/>
 <path fill="none" stroke="rgb(179,179,179)" stroke-linejoin="round" d="M 5966,5130 L 5966,4986"/>
 <path fill="none" stroke="rgb(179,179,179)" stroke-linejoin="round" d="M 5966,5130 L 5966,4986"/>
 <path fill="none" stroke="rgb(179,179,179)" stroke-linejoin="round" d="M 6924,5130 L 6924,4986"/>
 <path fill="none" stroke="rgb(179,179,179)" stroke-linejoin="round" d="M 6924,5130 L 6924,4986"/>
 <path fill="none" stroke="rgb(179,179,179)" stroke-linejoin="round" d="M 7883,5130 L 7883,4986"/>
 <path fill="none" stroke="rgb(179,179,179)" stroke-linejoin="round" d="M 7883,5130 L 7883,4986"/>
 <path fill="none" stroke="rgb(179,179,179)" stroke-linejoin="round" d="M 8842,5130 L 8842,4986"/>
 <path fill="none" stroke="rgb(179,179,179)" stroke-linejoin="round" d="M 8842,5130 L 8842,4986"/>
 <path fill="none" stroke="rgb(179,179,179)" stroke-linejoin="round" d="M 9801,5130 L 9801,4986"/>
 <path fill="none" stroke="rgb(179,179,179)" stroke-linejoin="round" d="M 9801,5130 L 9801,4986"/>
 <path fill="none" stroke="rgb(179,179,179)" stroke-linejoin="round" d="M 215,4986 L 9801,4986"/>
 <path fill="none" stroke="rgb(179,179,179)" stroke-linejoin="round" d="M 4864,9795 L 5008,9795"/>
 <path fill="none" stroke="rgb(179,179,179)" stroke-linejoin="round" d="M 4864,9795 L 5008,9795"/>
 <path fill="none" stroke="rgb(179,179,179)" stroke-linejoin="round" d="M 4864,8833 L 5008,8833"/>
 <path fill="none" stroke="rgb(179,179,179)" stroke-linejoin="round" d="M 4864,8833 L 5008,8833"/>
 <path fill="none" stroke="rgb(179,179,179)" stroke-linejoin="round" d="M 4864,7871 L 5008,7871"/>
 <path fill="none" stroke="rgb(179,179,179)" stroke-linejoin="round" d="M 4864,7871 L 5008,7871"/>
 <path fill="none" stroke="rgb(179,179,179)" stroke-linejoin="round" d="M 4864,6909 L 5008,6909"/>
 <path fill="none" stroke="rgb(179,179,179)" stroke-linejoin="round" d="M 4864,6909 L 5008,6909"/>
 <path fill="none" stroke="rgb(179,179,179)" stroke-linejoin="round" d="M 4864,5947 L 5008,5947"/>
 <path fill="none" stroke="rgb(179,179,179)" stroke-linejoin="round" d="M 4864,5947 L 5008,5947"/>
 <path fill="none" stroke="rgb(179,179,179)" stroke-linejoin="round" d="M 4864,4986 L 5008,4986"/>
 <path fill="none" stroke="rgb(179,179,179)" stroke-linejoin="round" d="M 4864,4986 L 5008,4986"/>
 <path fill="none" stroke="rgb(179,179,179)" stroke-linejoin="round" d="M 4864,4024 L 5008,4024"/>
 <path fill="none" stroke="rgb(179,179,179)" stroke-linejoin="round" d="M 4864,4024 L 5008,4024"/>
 <path fill="none" stroke="rgb(179,179,179)" stroke-linejoin="round" d="M 4864,3062 L 5008,3062"/>
 <path fill="none" stroke="rgb(179,179,179)" stroke-linejoin="round" d="M 4864,3062 L 5008,3062"/>
 <path fill="none" stroke="rgb(179,179,179)" stroke-linejoin="round" d="M 4864,2100 L 5008,2100"/>
 <path fill="none" stroke="rgb(179,179,179)" stroke-linejoin="round" d="M 4864,2100 L 5008,2100"/>
 <path fill="none" stroke="rgb(179,179,179)" stroke-linejoin="round" d="M 4864,1138 L 5008,1138"/>
 <path fill="none" stroke="rgb(179,179,179)" stroke-linejoin="round" d="M 4864,1138 L 5008,1138"/>
 <path fill="none" stroke="rgb(179,179,179)" stroke-linejoin="round" d="M 4864,177 L 5008,177"/>
 <path fill="none" stroke="rgb(179,179,179)" stroke-linejoin="round" d="M 4864,177 L 5008,177"/>
 <path fill="none" stroke="rgb(179,179,179)" stroke-linejoin="round" d="M 5008,9795 L 5008,177"/>
 <path fill="none" stroke="rgb(0,69,134)" stroke-width="77" stroke-linejoin="round" d="M 5008,4986 L 5008,9795 5008,4986 Z"/>
 <path fill="rgb(0,69,134)" stroke="none" d="M 4888,4865 L 4888,5106 5128,5106 5128,4865 4888,4865 Z"/>
 <path fill="none" stroke="rgb(0,69,134)" stroke-linejoin="round" d="M 4888,4865 L 4888,5106 5128,5106 5128,4865 4888,4865 Z"/>
 <path fill="rgb(0,69,134)" stroke="none" d="M 4888,9674 L 4888,9915 5128,9915 5128,9674 4888,9674 Z"/>
 <path fill="none" stroke="rgb(0,69,134)" stroke-linejoin="round" d="M 4888,9674 L 4888,9915 5128,9915 5128,9674 4888,9674 Z"/>
 <path fill="rgb(0,69,134)" stroke="none" d="M 4888,4865 L 4888,5106 5128,5106 5128,4865 4888,4865 Z"/>
 <path fill="none" stroke="rgb(0,69,134)" stroke-linejoin="round" d="M 4888,4865 L 4888,5106 5128,5106 5128,4865 4888,4865 Z"/>
 <text class="SVGTextShape"><tspan class="TextParagraph" font-family="Liberation Sans, sans-serif" font-size="340px" font-weight="400"><tspan class="TextPosition" x="-13" y="5532"><tspan fill="rgb(0,0,0)" stroke="none" style="white-space: pre">-50</tspan></tspan></tspan></text>
 <text class="SVGTextShape"><tspan class="TextParagraph" font-family="Liberation Sans, sans-serif" font-size="340px" font-weight="400"><tspan class="TextPosition" x="945" y="5532"><tspan fill="rgb(0,0,0)" stroke="none" style="white-space: pre">-40</tspan></tspan></tspan></text>
 <text class="SVGTextShape"><tspan class="TextParagraph" font-family="Liberation Sans, sans-serif" font-size="340px" font-weight="400"><tspan class="TextPosition" x="1904" y="5532"><tspan fill="rgb(0,0,0)" stroke="none" style="white-space: pre">-30</tspan></tspan></tspan></text>
 <text class="SVGTextShape"><tspan class="TextParagraph" font-family="Liberation Sans, sans-serif" font-size="340px" font-weight="400"><tspan class="TextPosition" x="2863" y="5532"><tspan fill="rgb(0,0,0)" stroke="none" style="white-space: pre">-20</tspan></tspan></tspan></text>
 <text class="SVGTextShape"><tspan class="TextParagraph" font-family="Liberation Sans, sans-serif" font-size="340px" font-weight="400"><tspan class="TextPosition" x="3821" y="5532"><tspan fill="rgb(0,0,0)" stroke="none" style="white-space: pre">-10</tspan></tspan></tspan></text>
 <text class="SVGTextShape"><tspan class="TextParagraph" font-family="Liberation Sans, sans-serif" font-size="340px" font-weight="400"><tspan class="TextPosition" x="4919" y="5532"><tspan fill="rgb(0,0,0)" stroke="none" style="white-space: pre">0</tspan></tspan></tspan></text>
 <text class="SVGTextShape"><tspan class="TextParagraph" font-family="Liberation Sans, sans-serif" font-size="340px" font-weight="400"><tspan class="TextPosition" x="5789" y="5532"><tspan fill="rgb(0,0,0)" stroke="none" style="white-space: pre">10</tspan></tspan></tspan></text>
 <text class="SVGTextShape"><tspan class="TextParagraph" font-family="Liberation Sans, sans-serif" font-size="340px" font-weight="400"><tspan class="TextPosition" x="6747" y="5532"><tspan fill="rgb(0,0,0)" stroke="none" style="white-space: pre">20</tspan></tspan></tspan></text>
 <text class="SVGTextShape"><tspan class="TextParagraph" font-family="Liberation Sans, sans-serif" font-size="340px" font-weight="400"><tspan class="TextPosition" x="7706" y="5532"><tspan fill="rgb(0,0,0)" stroke="none" style="white-space: pre">30</tspan></tspan></tspan></text>
 <text class="SVGTextShape"><tspan class="TextParagraph" font-family="Liberation Sans, sans-serif" font-size="340px" font-weight="400"><tspan class="TextPosition" x="8665" y="5532"><tspan fill="rgb(0,0,0)" stroke="none" style="white-space: pre">40</tspan></tspan></tspan></text>
 <text class="SVGTextShape"><tspan class="TextParagraph" font-family="Liberation Sans, sans-serif" font-size="340px" font-weight="400"><tspan class="TextPosition" x="9624" y="5532"><tspan fill="rgb(0,0,0)" stroke="none" style="white-space: pre">50</tspan></tspan></tspan></text>
 <text class="SVGTextShape"><tspan class="TextParagraph" font-family="Liberation Sans, sans-serif" font-size="340px" font-weight="400"><tspan class="TextPosition" x="4312" y="9911"><tspan fill="rgb(0,0,0)" stroke="none" style="white-space: pre">-50</tspan></tspan></tspan></text>
 <text class="SVGTextShape"><tspan class="TextParagraph" font-family="Liberation Sans, sans-serif" font-size="340px" font-weight="400"><tspan class="TextPosition" x="4312" y="8949"><tspan fill="rgb(0,0,0)" stroke="none" style="white-space: pre">-40</tspan></tspan></tspan></text>
 <text class="SVGTextShape"><tspan class="TextParagraph" font-family="Liberation Sans, sans-serif" font-size="340px" font-weight="400"><tspan class="TextPosition" x="4312" y="7987"><tspan fill="rgb(0,0,0)" stroke="none" style="white-space: pre">-30</tspan></tspan></tspan></text>
 <text class="SVGTextShape"><tspan class="TextParagraph" font-family="Liberation Sans, sans-serif" font-size="340px" font-weight="400"><tspan class="TextPosition" x="4312" y="7025"><tspan fill="rgb(0,0,0)" stroke="none" style="white-space: pre">-20</tspan></tspan></tspan></text>
 <text class="SVGTextShape"><tspan class="TextParagraph" font-family="Liberation Sans, sans-serif" font-size="340px" font-weight="400"><tspan class="TextPosition" x="4312" y="6063"><tspan fill="rgb(0,0,0)" stroke="none" style="white-space: pre">-10</tspan></tspan></tspan></text>
 <text class="SVGTextShape"><tspan class="TextParagraph" font-family="Liberation Sans, sans-serif" font-size="340px" font-weight="400"><tspan class="TextPosition" x="4591" y="5101"><tspan fill="rgb(0,0,0)" stroke="none" style="white-space: pre">0</tspan></tspan></tspan></text>
 <text class="SVGTextShape"><tspan class="TextParagraph" font-family="Liberation Sans, sans-serif" font-size="340px" font-weight="400"><tspan class="TextPosition" x="4413" y="4140"><tspan fill="rgb(0,0,0)" stroke="none" style="white-space: pre">10</tspan></tspan></tspan></text>
 <text class="SVGTextShape"><tspan class="TextParagraph" font-family="Liberation Sans, sans-serif" font-size="340px" font-weight="400"><tspan class="TextPosition" x="4413" y="3178"><tspan fill="rgb(0,0,0)" stroke="none" style="white-space: pre">20</tspan></tspan></tspan></text>
 <text class="SVGTextShape"><tspan class="TextParagraph" font-family="Liberation Sans, sans-serif" font-size="340px" font-weight="400"><tspan class="TextPosition" x="4413" y="2216"><tspan fill="rgb(0,0,0)" stroke="none" style="white-space: pre">30</tspan></tspan></tspan></text>
 <text class="SVGTextShape"><tspan class="TextParagraph" font-family="Liberation Sans, sans-serif" font-size="340px" font-weight="400"><tspan class="TextPosition" x="4413" y="1254"><tspan fill="rgb(0,0,0)" stroke="none" style="white-space: pre">40</tspan></tspan></tspan></text>
 <text class="SVGTextShape"><tspan class="TextParagraph" font-family="Liberation Sans, sans-serif" font-size="340px" font-weight="400"><tspan class="TextPosition" x="4413" y="293"><tspan fill="rgb(0,0,0)" stroke="none" style="white-space: pre">50</tspan></tspan></tspan></text>
</svg>