<?xml version="1.0" encoding="UTF-8"?>
<!DOCTYPE svg PUBLIC "-//W3C//DTD SVG 1.1//EN" "http://www.w3.org/Graphics/SVG/1.1/DTD/svg11.dtd">
<svg width="100mm" height="100mm" viewBox="0 0 10000 10000" version="1.1" xmlns="http://www.w3.org/2000/svg" xmlns:xlink="http://www.w3.org/1999/xlink" stroke-width="28.222" stroke-linejoin="round" xml:space="preserve">
 <path fill="rgb(255,255,255)" stroke="none" d="M 5009,9798 L 216,9798 216,180 9802,180 9802,9798 5009,9798 Z"/>
 <path fill="none" stroke="rgb(179,179,179)" stroke-linejoin="round" d="M 5008,9796 L 215,9796 215,178 9801,178 9801,9796 5008,9796 Z"/>
 <path fill="none" stroke="rgb(179,179,179)" stroke-linejoin="round" d="M 9801,9795 L 215,9795"/>
 <path fill="none" stroke="rgb(179,179,179)" stroke-linejoin="round" d="M 9801,8832 L 215,8832"/>
 <path fill="none" stroke="rgb(179,179,179)" stroke-linejoin="round" d="M 9801,7870 L 215,7870"/>
 <path fill="none" stroke="rgb(179,179,179)" stroke-linejoin="round" d="M 9801,6909 L 215,6909"/>
 <path fill="none" stroke="rgb(179,179,179)" stroke-linejoin="round" d="M 9801,5947 L 215,5947"/>
 <path fill="none" stroke="rgb(179,179,179)" stroke-linejoin="round" d="M 9801,4986 L 215,4986"/>
 <path fill="none" stroke="rgb(179,179,179)" stroke-linejoin="round" d="M 9801,4024 L 215,4024"/>
 <path fill="none" stroke="rgb(179,179,179)" stroke-linejoin="round" d="M 9801,3062 L 215,3062"/>
 <path fill="none" stroke="rgb(179,179,179)" stroke-linejoin="round" d="M 9801,2101 L 215,2101"/>
 <path fill="none" stroke="rgb(179,179,179)" stroke-linejoin="round" d="M 9801,1139 L 215,1139"/>
 <path fill="none" stroke="rgb(179,179,179)" stroke-linejoin="round" d="M 9801,177 L 215,177"/>
 <path fill="none" stroke="rgb(179,179,179)" stroke-linejoin="round" d="M 215,5130 L 215,4986"/>
 <path fill="none" stroke="rgb(179,179,179)" stroke-linejoin="round" d="M 215,5130 L 215,4986"/>
 <path fill="none" stroke="rgb(179,179,179)" stroke-linejoin="round" d="M 1174,5130 L 1174,4986"/>
 <path fill="none" stroke="rgb(179,179,179)" stroke-linejoin="round" d="M 1174,5130 L 1174,4986"/>
 <path fill="none" stroke="rgb(179,179,179)" stroke-linejoin="round" d="M 2132,5130 L 2132,4986"/>
 <path fill="none" stroke="rgb(179,179,179)" stroke-linejoin="round" d="M 2132,5130 L 2132,4986"/>
 <path fill="none" stroke="rgb(179,179,179)" stroke-linejoin="round" d="M 3091,5130 L 3091,4986"/>
 <path fill="none" stroke="rgb(179,179,179)" stroke-linejoin="round" d="M 3091,5130 L 3091,4986"/>
 <path fill="none" stroke="rgb(179,179,179)" stroke-linejoin="round" d="M 4049,5130 L 4049,4986"/>
 <path fill="none" stroke="rgb(179,179,179)" stroke-linejoin="round" d="M 4049,5130 L 4049,4986"/>
 <path fill="none" stroke="rgb(179,179,179)" stroke-linejoin="round" d="M 5008,5130 L 5008,4986"/>
 <path fill="none" stroke="rgb(179,179,179)" stroke-linejoin="round" d="M 5008,5130 L 5008,4986"/>
 <path fill="none" stroke="rgb(179,179,179)" stroke-linejoin="round" d="M 5966,5130 L 5966,4986"/>
 <path fill="none" stroke="rgb(179,179,179)" stroke-linejoin="round" d="M 5966,5130 L 5966,4986"/>
 <path fill="none" stroke="rgb(179,179,179)" stroke-linejoin="round" d="M 6925,5130 L 6925,4986"/>
 <path fill="none" stroke="rgb(179,179,179)" stroke-linejoin="round" d="M 6925,5130 L 6925,4986"/>
 <path fill="none" stroke="rgb(179,179,179)" stroke-linejoin="round" d="M 7883,5130 L 7883,4986"/>
 <path fill="none" stroke="rgb(179,179,179)" stroke-linejoin="round" d="M 7883,5130 L 7883,4986"/>
 <path fill="none" stroke="rgb(179,179,179)" stroke-linejoin="round" d="M 8842,5130 L 8842,4986"/>
 <path fill="none" stroke="rgb(179,179,179)" stroke-linejoin="round" d="M 8842,5130 L 8842,4986"/>
 <path fill="none" stroke="rgb(179,179,179)" stroke-linejoin="round" d="M 9801,5130 L 9801,4986"/>
 <path fill="none" stroke="rgb(179,179,179)" stroke-linejoin="round" d="M 9801,5130 L 9801,4986"/>
 <path fill="none" stroke="rgb(179,179,179)" stroke-linejoin="round" d="M 215,4986 L 9801,4986"/>
 <path fill="none" stroke="rgb(179,179,179)" stroke-linejoin="round" d="M 4864,9795 L 5008,9795"/>
 <path fill="none" stroke="rgb(179,179,179)" stroke-linejoin="round" d="M 4864,9795 L 5008,9795"/>
 <path fill="none" stroke="rgb(179,179,179)" stroke-linejoin="round" d="M 4864,8832 L 5008,8832"/>
 <path fill="none" stroke="rgb(179,179,179)" stroke-linejoin="round" d="M 4864,8832 L 5008,8832"/>
 <path fill="none" stroke="rgb(179,179,179)" stroke-linejoin="round" d="M 4864,7870 L 5008,7870"/>
 <path fill="none" stroke="rgb(179,179,179)" stroke-linejoin="round" d="M 4864,7870 L 5008,7870"/>
 <path fill="none" stroke="rgb(179,179,179)" stroke-linejoin="round" d="M 4864,6909 L 5008,6909"/>
 <path fill="none" stroke="rgb(179,179,179)" stroke-linejoin="round" d="M 4864,6909 L 5008,6909"/>
 <path fill="none" stroke="rgb(179,179,179)" stroke-linejoin="round" d="M 4864,5947 L 5008,5947"/>
 <path fill="none" stroke="rgb(179,179,179)" stroke-linejoin="round" d="M 4864,5947 L 5008,5947"/>
 <path fill="none" stroke="rgb(179,179,179)" stroke-linejoin="round" d="M 4864,4986 L 5008,4986"/>
 <path fill="none" stroke="rgb(179,179,179)" stroke-linejoin="round" d="M 4864,4986 L 5008,4986"/>
 <path fill="none" stroke="rgb(179,179,179)" stroke-linejoin="round" d="M 4864,4024 L 5008,4024"/>
 <path fill="none" stroke="rgb(179,179,179)" stroke-linejoin="round" d="M 4864,4024 L 5008,4024"/>
 <path fill="none" stroke="rgb(179,179,179)" stroke-linejoin="round" d="M 4864,3062 L 5008,3062"/>
 <path fill="none" stroke="rgb(179,179,179)" stroke-linejoin="round" d="M 4864,3062 L 5008,3062"/>
 <path fill="none" stroke="rgb(179,179,179)" stroke-linejoin="round" d="M 4864,2101 L 5008,2101"/>
 <path fill="none" stroke="rgb(179,179,179)" stroke-linejoin="round" d="M 4864,2101 L 5008,2101"/>
 <path fill="none" stroke="rgb(179,179,179)" stroke-linejoin="round" d="M 4864,1139 L 5008,1139"/>
 <path fill="none" stroke="rgb(179,179,179)" stroke-linejoin="round" d="M 4864,1139 L 5008,1139"/>
 <path fill="none" stroke="rgb(179,179,179)" stroke-linejoin="round" d="M 4864,177 L 5008,177"/>
 <path fill="none" stroke="rgb(179,179,179)" stroke-linejoin="round" d="M 4864,177 L 5008,177"/>
 <path fill="none" stroke="rgb(179,179,179)" stroke-linejoin="round" d="M 5008,9795 L 5008,177"/>
 <path fill="none" stroke="rgb(0,69,134)" stroke-width="77" stroke-linejoin="round" d="M 5008,4986 L 5008,177 5008,4986 Z"/>
 <path fill="rgb(0,69,134)" stroke="none" d="M 4888,4865 L 4888,5106 5128,5106 5128,4865 4888,4865 Z"/>
 <path fill="none" stroke="rgb(0,69,134)" stroke-linejoin="round" d="M 4888,4865 L 4888,5106 5128,5106 5128,4865 4888,4865 Z"/>
 <path fill="rgb(0,69,134)" stroke="none" d="M 4888,57 L 4888,298 5128,298 5128,57 4888,57 Z"/>
 <path fill="none" stroke="rgb(0,69,134)" stroke-linejoin="round" d="M 4888,57 L 4888,298 5128,298 5128,57 4888,57 Z"/>
 <path fill="rgb(0,69,134)" stroke="none" d="M 4888,4865 L 4888,5106 5128,5106 5128,4865 4888,4865 Z"/>
 <path fill="none" stroke="rgb(0,69,134)" stroke-linejoin="round" d="M 4888,4865 L 4888,5106 5128,5106 5128,4865 4888,4865 Z"/>
 <text class="SVGTextShape"><tspan class="TextParagraph" font-family="Liberation Sans, sans-serif" font-size="339px" font-weight="400"><tspan class="TextPosition" x="-13" y="5532"><tspan fill="rgb(0,0,0)" stroke="none" style="white-space: pre">-50</tspan></tspan></tspan></text>
 <text class="SVGTextShape"><tspan class="TextParagraph" font-family="Liberation Sans, sans-serif" font-size="339px" font-weight="400"><tspan class="TextPosition" x="946" y="5532"><tspan fill="rgb(0,0,0)" stroke="none" style="white-space: pre">-40</tspan></tspan></tspan></text>
 <text class="SVGTextShape"><tspan class="TextParagraph" font-family="Liberation Sans, sans-serif" font-size="339px" font-weight="400"><tspan class="TextPosition" x="1905" y="5532"><tspan fill="rgb(0,0,0)" stroke="none" style="white-space: pre">-30</tspan></tspan></tspan></text>
 <text class="SVGTextShape"><tspan class="TextParagraph" font-family="Liberation Sans, sans-serif" font-size="339px" font-weight="400"><tspan class="TextPosition" x="2863" y="5532"><tspan fill="rgb(0,0,0)" stroke="none" style="white-space: pre">-20</tspan></tspan></tspan></text>
 <text class="SVGTextShape"><tspan class="TextParagraph" font-family="Liberation Sans, sans-serif" font-size="339px" font-weight="400"><tspan class="TextPosition" x="3822" y="5532"><tspan fill="rgb(0,0,0)" stroke="none" style="white-space: pre">-10</tspan></tspan></tspan></text>
 <text class="SVGTextShape"><tspan class="TextParagraph" font-family="Liberation Sans, sans-serif" font-size="339px" font-weight="400"><tspan class="TextPosition" x="4919" y="5532"><tspan fill="rgb(0,0,0)" stroke="none" style="white-space: pre">0</tspan></tspan></tspan></text>
 <text class="SVGTextShape"><tspan class="TextParagraph" font-family="Liberation Sans, sans-serif" font-size="339px" font-weight="400"><tspan class="TextPosition" x="5790" y="5532"><tspan fill="rgb(0,0,0)" stroke="none" style="white-space: pre">10</tspan></tspan></tspan></text>
 <text class="SVGTextShape"><tspan class="TextParagraph" font-family="Liberation Sans, sans-serif" font-size="339px" font-weight="400"><tspan class="TextPosition" x="6748" y="5532"><tspan fill="rgb(0,0,0)" stroke="none" style="white-space: pre">20</tspan></tspan></tspan></text>
 <text class="SVGTextShape"><tspan class="TextParagraph" font-family="Liberation Sans, sans-serif" font-size="339px" font-weight="400"><tspan class="TextPosition" x="7707" y="5532"><tspan fill="rgb(0,0,0)" stroke="none" style="white-space: pre">30</tspan></tspan></tspan></text>
 <text class="SVGTextShape"><tspan class="TextParagraph" font-family="Liberation Sans, sans-serif" font-size="339px" font-weight="400"><tspan class="TextPosition" x="8665" y="5532"><tspan fill="rgb(0,0,0)" stroke="none" style="white-space: pre">40</tspan></tspan></tspan></text>
 <text class="SVGTextShape"><tspan class="TextParagraph" font-family="Liberation Sans, sans-serif" font-size="339px" font-weight="400"><tspan class="TextPosition" x="9624" y="5532"><tspan fill="rgb(0,0,0)" stroke="none" style="white-space: pre">50</tspan></tspan></tspan></text>
 <text class="SVGTextShape"><tspan class="TextParagraph" font-family="Liberation Sans, sans-serif" font-size="339px" font-weight="400"><tspan class="TextPosition" x="4312" y="9911"><tspan fill="rgb(0,0,0)" stroke="none" style="white-space: pre">-50</tspan></tspan></tspan></text>
 <text class="SVGTextShape"><tspan class="TextParagraph" font-family="Liberation Sans, sans-serif" font-size="339px" font-weight="400"><tspan class="TextPosition" x="4312" y="8948"><tspan fill="rgb(0,0,0)" stroke="none" style="white-space: pre">-40</tspan></tspan></tspan></text>
 <text class="SVGTextShape"><tspan class="TextParagraph" font-family="Liberation Sans, sans-serif" font-size="339px" font-weight="400"><tspan class="TextPosition" x="4312" y="7986"><tspan fill="rgb(0,0,0)" stroke="none" style="white-space: pre">-30</tspan></tspan></tspan></text>
 <text class="SVGTextShape"><tspan class="TextParagraph" font-family="Liberation Sans, sans-serif" font-size="339px" font-weight="400"><tspan class="TextPosition" x="4312" y="7025"><tspan fill="rgb(0,0,0)" stroke="none" style="white-space: pre">-20</tspan></tspan></tspan></text>
 <text class="SVGTextShape"><tspan class="TextParagraph" font-family="Liberation Sans, sans-serif" font-size="339px" font-weight="400"><tspan class="TextPosition" x="4312" y="6063"><tspan fill="rgb(0,0,0)" stroke="none" style="white-space: pre">-10</tspan></tspan></tspan></text>
 <text class="SVGTextShape"><tspan class="TextParagraph" font-family="Liberation Sans, sans-serif" font-size="339px" font-weight="400"><tspan class="TextPosition" x="4591" y="5101"><tspan fill="rgb(0,0,0)" stroke="none" style="white-space: pre">0</tspan></tspan></tspan></text>
 <text class="SVGTextShape"><tspan class="TextParagraph" font-family="Liberation Sans, sans-serif" font-size="339px" font-weight="400"><tspan class="TextPosition" x="4414" y="4140"><tspan fill="rgb(0,0,0)" stroke="none" style="white-space: pre">10</tspan></tspan></tspan></text>
 <text class="SVGTextShape"><tspan class="TextParagraph" font-family="Liberation Sans, sans-serif" font-size="339px" font-weight="400"><tspan class="TextPosition" x="4414" y="3178"><tspan fill="rgb(0,0,0)" stroke="none" style="white-space: pre">20</tspan></tspan></tspan></text>
 <text class="SVGTextShape"><tspan class="TextParagraph" font-family="Liberation Sans, sans-serif" font-size="339px" font-weight="400"><tspan class="TextPosition" x="4414" y="2217"><tspan fill="rgb(0,0,0)" stroke="none" style="white-space: pre">30</tspan></tspan></tspan></text>
 <text class="SVGTextShape"><tspan class="TextParagraph" font-family="Liberation Sans, sans-serif" font-size="339px" font-weight="400"><tspan class="TextPosition" x="4414" y="1255"><tspan fill="rgb(0,0,0)" stroke="none" style="white-space: pre">40</tspan></tspan></tspan></text>
 <text class="SVGTextShape"><tspan class="TextParagraph" font-family="Liberation Sans, sans-serif" font-size="339px" font-weight="400"><tspan class="TextPosition" x="4414" y="293"><tspan fill="rgb(0,0,0)" stroke="none" style="white-space: pre">50</tspan></tspan></tspan></text>
</svg>