<?xml version="1.0" encoding="UTF-8"?>
<!DOCTYPE svg PUBLIC "-//W3C//DTD SVG 1.1//EN" "http://www.w3.org/Graphics/SVG/1.1/DTD/svg11.dtd">
<svg width="620mm" height="90mm" viewBox="0 0 62000 9000" version="1.1" xmlns="http://www.w3.org/2000/svg" xmlns:xlink="http://www.w3.org/1999/xlink" stroke-width="28.222" stroke-linejoin="round" xml:space="preserve">
 <path fill="rgb(255,255,255)" stroke="none" d="M 30978,8992 L -13,8992 -13,-13 61969,-13 61969,8992 30978,8992 Z"/>
 <path fill="none" stroke="rgb(179,179,179)" stroke-linejoin="round" d="M 31294,8613 L 2138,8613 2138,366 60450,366 60450,8613 31294,8613 Z"/>
 <path fill="none" stroke="rgb(179,179,179)" stroke-linejoin="round" d="M 60450,8612 L 2138,8612"/>
 <path fill="none" stroke="rgb(179,179,179)" stroke-linejoin="round" d="M 60450,7237 L 2138,7237"/>
 <path fill="none" stroke="rgb(179,179,179)" stroke-linejoin="round" d="M 60450,5862 L 2138,5862"/>
 <path fill="none" stroke="rgb(179,179,179)" stroke-linejoin="round" d="M 60450,4489 L 2138,4489"/>
 <path fill="none" stroke="rgb(179,179,179)" stroke-linejoin="round" d="M 60450,3114 L 2138,3114"/>
 <path fill="none" stroke="rgb(179,179,179)" stroke-linejoin="round" d="M 60450,1739 L 2138,1739"/>
 <path fill="none" stroke="rgb(179,179,179)" stroke-linejoin="round" d="M 60450,365 L 2138,365"/>
 <path fill="none" stroke="rgb(179,179,179)" stroke-linejoin="round" d="M 2138,4638 L 2138,4489"/>
 <path fill="none" stroke="rgb(179,179,179)" stroke-linejoin="round" d="M 2138,4638 L 2138,4489"/>
 <path fill="none" stroke="rgb(179,179,179)" stroke-linejoin="round" d="M 7969,4638 L 7969,4489"/>
 <path fill="none" stroke="rgb(179,179,179)" stroke-linejoin="round" d="M 7969,4638 L 7969,4489"/>
 <path fill="none" stroke="rgb(179,179,179)" stroke-linejoin="round" d="M 13800,4638 L 13800,4489"/>
 <path fill="none" stroke="rgb(179,179,179)" stroke-linejoin="round" d="M 13800,4638 L 13800,4489"/>
 <path fill="none" stroke="rgb(179,179,179)" stroke-linejoin="round" d="M 19631,4638 L 19631,4489"/>
 <path fill="none" stroke="rgb(179,179,179)" stroke-linejoin="round" d="M 19631,4638 L 19631,4489"/>
 <path fill="none" stroke="rgb(179,179,179)" stroke-linejoin="round" d="M 25463,4638 L 25463,4489"/>
 <path fill="none" stroke="rgb(179,179,179)" stroke-linejoin="round" d="M 25463,4638 L 25463,4489"/>
 <path fill="none" stroke="rgb(179,179,179)" stroke-linejoin="round" d="M 31293,4638 L 31293,4489"/>
 <path fill="none" stroke="rgb(179,179,179)" stroke-linejoin="round" d="M 31293,4638 L 31293,4489"/>
 <path fill="none" stroke="rgb(179,179,179)" stroke-linejoin="round" d="M 37124,4638 L 37124,4489"/>
 <path fill="none" stroke="rgb(179,179,179)" stroke-linejoin="round" d="M 37124,4638 L 37124,4489"/>
 <path fill="none" stroke="rgb(179,179,179)" stroke-linejoin="round" d="M 42956,4638 L 42956,4489"/>
 <path fill="none" stroke="rgb(179,179,179)" stroke-linejoin="round" d="M 42956,4638 L 42956,4489"/>
 <path fill="none" stroke="rgb(179,179,179)" stroke-linejoin="round" d="M 48787,4638 L 48787,4489"/>
 <path fill="none" stroke="rgb(179,179,179)" stroke-linejoin="round" d="M 48787,4638 L 48787,4489"/>
 <path fill="none" stroke="rgb(179,179,179)" stroke-linejoin="round" d="M 54618,4638 L 54618,4489"/>
 <path fill="none" stroke="rgb(179,179,179)" stroke-linejoin="round" d="M 54618,4638 L 54618,4489"/>
 <path fill="none" stroke="rgb(179,179,179)" stroke-linejoin="round" d="M 60450,4638 L 60450,4489"/>
 <path fill="none" stroke="rgb(179,179,179)" stroke-linejoin="round" d="M 60450,4638 L 60450,4489"/>
 <path fill="none" stroke="rgb(179,179,179)" stroke-linejoin="round" d="M 2138,4489 L 60450,4489"/>
 <path fill="none" stroke="rgb(179,179,179)" stroke-linejoin="round" d="M 1988,8612 L 2138,8612"/>
 <path fill="none" stroke="rgb(179,179,179)" stroke-linejoin="round" d="M 1988,8612 L 2138,8612"/>
 <path fill="none" stroke="rgb(179,179,179)" stroke-linejoin="round" d="M 1988,7237 L 2138,7237"/>
 <path fill="none" stroke="rgb(179,179,179)" stroke-linejoin="round" d="M 1988,7237 L 2138,7237"/>
 <path fill="none" stroke="rgb(179,179,179)" stroke-linejoin="round" d="M 1988,5862 L 2138,5862"/>
 <path fill="none" stroke="rgb(179,179,179)" stroke-linejoin="round" d="M 1988,5862 L 2138,5862"/>
 <path fill="none" stroke="rgb(179,179,179)" stroke-linejoin="round" d="M 1988,4489 L 2138,4489"/>
 <path fill="none" stroke="rgb(179,179,179)" stroke-linejoin="round" d="M 1988,4489 L 2138,4489"/>
 <path fill="none" stroke="rgb(179,179,179)" stroke-linejoin="round" d="M 1988,3114 L 2138,3114"/>
 <path fill="none" stroke="rgb(179,179,179)" stroke-linejoin="round" d="M 1988,3114 L 2138,3114"/>
 <path fill="none" stroke="rgb(179,179,179)" stroke-linejoin="round" d="M 1988,1739 L 2138,1739"/>
 <path fill="none" stroke="rgb(179,179,179)" stroke-linejoin="round" d="M 1988,1739 L 2138,1739"/>
 <path fill="none" stroke="rgb(179,179,179)" stroke-linejoin="round" d="M 1988,365 L 2138,365"/>
 <path fill="none" stroke="rgb(179,179,179)" stroke-linejoin="round" d="M 1988,365 L 2138,365"/>
 <path fill="none" stroke="rgb(179,179,179)" stroke-linejoin="round" d="M 2138,8612 L 2138,365"/>
 <path fill="none" stroke="rgb(0,69,134)" stroke-width="80" stroke-linejoin="round" d="M 2138,4489 L 2721,4489 3304,4489 3887,4489 4470,7237 5053,4489 5636,4489 6219,4489 6803,4489 7386,4489 7969,4489 8552,4489 9135,4489 9718,4489 10301,4489 10884,4489 11468,4489 12051,4489 12634,4489 13217,4489 13800,4489 14383,4489 14966,4489 15549,4489 16133,4489 16716,4489 17299,4489 17882,4489 18465,4489 19048,4489 19631,4489 20215,4489 20798,4489 21381,4489 21964,4489 22547,4489 23130,4488 23713,4489 24296,4489 24880,4489 25463,4489 26046,4489 26629,4489 27212,4489 27795,4488 28378,4489 28961,4489 29545,4489 30128,4489 30711,4489 31293,4489 31876,4489 32459,4488 33042,4489 33626,4489 34209,4489 34792,4489 35375,4489 35958,4489 36541,4489 37124,4489 37707,4489 38291,4489 38874,4489 39457,4489 40040,4489 40623,4489 41206,4489 41789,4489 42372,4489 42956,4489 43539,4489 44122,4489 44705,4489 45288,4489 45871,4489 46454,4489 47038,4489 47621,4489 48204,4489 48787,4489 49370,4489 49953,4489 50536,4489 51119,4489 51703,4489 52286,4489 52869,4489 53452,4489 54035,4489 54618,4489 55201,4489 55784,4489 56368,4489 56951,4488 57534,4488 58117,1739 58700,4489 59283,4489 59866,4489"/>
 <path fill="rgb(0,69,134)" stroke="none" d="M 2013,4364 L 2013,4613 2263,4613 2263,4364 2013,4364 Z"/>
 <path fill="none" stroke="rgb(0,69,134)" stroke-linejoin="round" d="M 2013,4364 L 2013,4613 2263,4613 2263,4364 2013,4364 Z"/>
 <path fill="rgb(0,69,134)" stroke="none" d="M 2596,4364 L 2596,4613 2846,4613 2846,4364 2596,4364 Z"/>
 <path fill="none" stroke="rgb(0,69,134)" stroke-linejoin="round" d="M 2596,4364 L 2596,4613 2846,4613 2846,4364 2596,4364 Z"/>
 <path fill="rgb(0,69,134)" stroke="none" d="M 3179,4364 L 3179,4613 3429,4613 3429,4364 3179,4364 Z"/>
 <path fill="none" stroke="rgb(0,69,134)" stroke-linejoin="round" d="M 3179,4364 L 3179,4613 3429,4613 3429,4364 3179,4364 Z"/>
 <path fill="rgb(0,69,134)" stroke="none" d="M 3762,4364 L 3762,4613 4012,4613 4012,4364 3762,4364 Z"/>
 <path fill="none" stroke="rgb(0,69,134)" stroke-linejoin="round" d="M 3762,4364 L 3762,4613 4012,4613 4012,4364 3762,4364 Z"/>
 <path fill="rgb(0,69,134)" stroke="none" d="M 4345,7112 L 4345,7362 4595,7362 4595,7112 4345,7112 Z"/>
 <path fill="none" stroke="rgb(0,69,134)" stroke-linejoin="round" d="M 4345,7112 L 4345,7362 4595,7362 4595,7112 4345,7112 Z"/>
 <path fill="rgb(0,69,134)" stroke="none" d="M 4928,4364 L 4928,4613 5178,4613 5178,4364 4928,4364 Z"/>
 <path fill="none" stroke="rgb(0,69,134)" stroke-linejoin="round" d="M 4928,4364 L 4928,4613 5178,4613 5178,4364 4928,4364 Z"/>
 <path fill="rgb(0,69,134)" stroke="none" d="M 5511,4364 L 5511,4613 5761,4613 5761,4364 5511,4364 Z"/>
 <path fill="none" stroke="rgb(0,69,134)" stroke-linejoin="round" d="M 5511,4364 L 5511,4613 5761,4613 5761,4364 5511,4364 Z"/>
 <path fill="rgb(0,69,134)" stroke="none" d="M 6094,4364 L 6094,4613 6344,4613 6344,4364 6094,4364 Z"/>
 <path fill="none" stroke="rgb(0,69,134)" stroke-linejoin="round" d="M 6094,4364 L 6094,4613 6344,4613 6344,4364 6094,4364 Z"/>
 <path fill="rgb(0,69,134)" stroke="none" d="M 6678,4364 L 6678,4613 6928,4613 6928,4364 6678,4364 Z"/>
 <path fill="none" stroke="rgb(0,69,134)" stroke-linejoin="round" d="M 6678,4364 L 6678,4613 6928,4613 6928,4364 6678,4364 Z"/>
 <path fill="rgb(0,69,134)" stroke="none" d="M 7261,4364 L 7261,4613 7511,4613 7511,4364 7261,4364 Z"/>
 <path fill="none" stroke="rgb(0,69,134)" stroke-linejoin="round" d="M 7261,4364 L 7261,4613 7511,4613 7511,4364 7261,4364 Z"/>
 <path fill="rgb(0,69,134)" stroke="none" d="M 7844,4364 L 7844,4613 8094,4613 8094,4364 7844,4364 Z"/>
 <path fill="none" stroke="rgb(0,69,134)" stroke-linejoin="round" d="M 7844,4364 L 7844,4613 8094,4613 8094,4364 7844,4364 Z"/>
 <path fill="rgb(0,69,134)" stroke="none" d="M 8427,4364 L 8427,4613 8677,4613 8677,4364 8427,4364 Z"/>
 <path fill="none" stroke="rgb(0,69,134)" stroke-linejoin="round" d="M 8427,4364 L 8427,4613 8677,4613 8677,4364 8427,4364 Z"/>
 <path fill="rgb(0,69,134)" stroke="none" d="M 9010,4364 L 9010,4613 9260,4613 9260,4364 9010,4364 Z"/>
 <path fill="none" stroke="rgb(0,69,134)" stroke-linejoin="round" d="M 9010,4364 L 9010,4613 9260,4613 9260,4364 9010,4364 Z"/>
 <path fill="rgb(0,69,134)" stroke="none" d="M 9593,4364 L 9593,4613 9843,4613 9843,4364 9593,4364 Z"/>
 <path fill="none" stroke="rgb(0,69,134)" stroke-linejoin="round" d="M 9593,4364 L 9593,4613 9843,4613 9843,4364 9593,4364 Z"/>
 <path fill="rgb(0,69,134)" stroke="none" d="M 10176,4364 L 10176,4613 10426,4613 10426,4364 10176,4364 Z"/>
 <path fill="none" stroke="rgb(0,69,134)" stroke-linejoin="round" d="M 10176,4364 L 10176,4613 10426,4613 10426,4364 10176,4364 Z"/>
 <path fill="rgb(0,69,134)" stroke="none" d="M 10759,4364 L 10759,4613 11009,4613 11009,4364 10759,4364 Z"/>
 <path fill="none" stroke="rgb(0,69,134)" stroke-linejoin="round" d="M 10759,4364 L 10759,4613 11009,4613 11009,4364 10759,4364 Z"/>
 <path fill="rgb(0,69,134)" stroke="none" d="M 11343,4364 L 11343,4613 11593,4613 11593,4364 11343,4364 Z"/>
 <path fill="none" stroke="rgb(0,69,134)" stroke-linejoin="round" d="M 11343,4364 L 11343,4613 11593,4613 11593,4364 11343,4364 Z"/>
 <path fill="rgb(0,69,134)" stroke="none" d="M 11926,4364 L 11926,4613 12176,4613 12176,4364 11926,4364 Z"/>
 <path fill="none" stroke="rgb(0,69,134)" stroke-linejoin="round" d="M 11926,4364 L 11926,4613 12176,4613 12176,4364 11926,4364 Z"/>
 <path fill="rgb(0,69,134)" stroke="none" d="M 12509,4364 L 12509,4613 12759,4613 12759,4364 12509,4364 Z"/>
 <path fill="none" stroke="rgb(0,69,134)" stroke-linejoin="round" d="M 12509,4364 L 12509,4613 12759,4613 12759,4364 12509,4364 Z"/>
 <path fill="rgb(0,69,134)" stroke="none" d="M 13092,4364 L 13092,4613 13342,4613 13342,4364 13092,4364 Z"/>
 <path fill="none" stroke="rgb(0,69,134)" stroke-linejoin="round" d="M 13092,4364 L 13092,4613 13342,4613 13342,4364 13092,4364 Z"/>
 <path fill="rgb(0,69,134)" stroke="none" d="M 13675,4364 L 13675,4613 13925,4613 13925,4364 13675,4364 Z"/>
 <path fill="none" stroke="rgb(0,69,134)" stroke-linejoin="round" d="M 13675,4364 L 13675,4613 13925,4613 13925,4364 13675,4364 Z"/>
 <path fill="rgb(0,69,134)" stroke="none" d="M 14258,4364 L 14258,4613 14508,4613 14508,4364 14258,4364 Z"/>
 <path fill="none" stroke="rgb(0,69,134)" stroke-linejoin="round" d="M 14258,4364 L 14258,4613 14508,4613 14508,4364 14258,4364 Z"/>
 <path fill="rgb(0,69,134)" stroke="none" d="M 14841,4364 L 14841,4613 15091,4613 15091,4364 14841,4364 Z"/>
 <path fill="none" stroke="rgb(0,69,134)" stroke-linejoin="round" d="M 14841,4364 L 14841,4613 15091,4613 15091,4364 14841,4364 Z"/>
 <path fill="rgb(0,69,134)" stroke="none" d="M 15424,4364 L 15424,4613 15674,4613 15674,4364 15424,4364 Z"/>
 <path fill="none" stroke="rgb(0,69,134)" stroke-linejoin="round" d="M 15424,4364 L 15424,4613 15674,4613 15674,4364 15424,4364 Z"/>
 <path fill="rgb(0,69,134)" stroke="none" d="M 16008,4364 L 16008,4613 16258,4613 16258,4364 16008,4364 Z"/>
 <path fill="none" stroke="rgb(0,69,134)" stroke-linejoin="round" d="M 16008,4364 L 16008,4613 16258,4613 16258,4364 16008,4364 Z"/>
 <path fill="rgb(0,69,134)" stroke="none" d="M 16591,4364 L 16591,4613 16841,4613 16841,4364 16591,4364 Z"/>
 <path fill="none" stroke="rgb(0,69,134)" stroke-linejoin="round" d="M 16591,4364 L 16591,4613 16841,4613 16841,4364 16591,4364 Z"/>
 <path fill="rgb(0,69,134)" stroke="none" d="M 17174,4364 L 17174,4613 17424,4613 17424,4364 17174,4364 Z"/>
 <path fill="none" stroke="rgb(0,69,134)" stroke-linejoin="round" d="M 17174,4364 L 17174,4613 17424,4613 17424,4364 17174,4364 Z"/>
 <path fill="rgb(0,69,134)" stroke="none" d="M 17757,4364 L 17757,4613 18007,4613 18007,4364 17757,4364 Z"/>
 <path fill="none" stroke="rgb(0,69,134)" stroke-linejoin="round" d="M 17757,4364 L 17757,4613 18007,4613 18007,4364 17757,4364 Z"/>
 <path fill="rgb(0,69,134)" stroke="none" d="M 18340,4364 L 18340,4613 18590,4613 18590,4364 18340,4364 Z"/>
 <path fill="none" stroke="rgb(0,69,134)" stroke-linejoin="round" d="M 18340,4364 L 18340,4613 18590,4613 18590,4364 18340,4364 Z"/>
 <path fill="rgb(0,69,134)" stroke="none" d="M 18923,4364 L 18923,4613 19173,4613 19173,4364 18923,4364 Z"/>
 <path fill="none" stroke="rgb(0,69,134)" stroke-linejoin="round" d="M 18923,4364 L 18923,4613 19173,4613 19173,4364 18923,4364 Z"/>
 <path fill="rgb(0,69,134)" stroke="none" d="M 19506,4364 L 19506,4613 19756,4613 19756,4364 19506,4364 Z"/>
 <path fill="none" stroke="rgb(0,69,134)" stroke-linejoin="round" d="M 19506,4364 L 19506,4613 19756,4613 19756,4364 19506,4364 Z"/>
 <path fill="rgb(0,69,134)" stroke="none" d="M 20090,4364 L 20090,4613 20340,4613 20340,4364 20090,4364 Z"/>
 <path fill="none" stroke="rgb(0,69,134)" stroke-linejoin="round" d="M 20090,4364 L 20090,4613 20340,4613 20340,4364 20090,4364 Z"/>
 <path fill="rgb(0,69,134)" stroke="none" d="M 20673,4364 L 20673,4613 20923,4613 20923,4364 20673,4364 Z"/>
 <path fill="none" stroke="rgb(0,69,134)" stroke-linejoin="round" d="M 20673,4364 L 20673,4613 20923,4613 20923,4364 20673,4364 Z"/>
 <path fill="rgb(0,69,134)" stroke="none" d="M 21256,4364 L 21256,4613 21506,4613 21506,4364 21256,4364 Z"/>
 <path fill="none" stroke="rgb(0,69,134)" stroke-linejoin="round" d="M 21256,4364 L 21256,4613 21506,4613 21506,4364 21256,4364 Z"/>
 <path fill="rgb(0,69,134)" stroke="none" d="M 21839,4364 L 21839,4613 22089,4613 22089,4364 21839,4364 Z"/>
 <path fill="none" stroke="rgb(0,69,134)" stroke-linejoin="round" d="M 21839,4364 L 21839,4613 22089,4613 22089,4364 21839,4364 Z"/>
 <path fill="rgb(0,69,134)" stroke="none" d="M 22422,4364 L 22422,4613 22672,4613 22672,4364 22422,4364 Z"/>
 <path fill="none" stroke="rgb(0,69,134)" stroke-linejoin="round" d="M 22422,4364 L 22422,4613 22672,4613 22672,4364 22422,4364 Z"/>
 <path fill="rgb(0,69,134)" stroke="none" d="M 23005,4363 L 23005,4612 23255,4612 23255,4363 23005,4363 Z"/>
 <path fill="none" stroke="rgb(0,69,134)" stroke-linejoin="round" d="M 23005,4363 L 23005,4612 23255,4612 23255,4363 23005,4363 Z"/>
 <path fill="rgb(0,69,134)" stroke="none" d="M 23588,4364 L 23588,4613 23838,4613 23838,4364 23588,4364 Z"/>
 <path fill="none" stroke="rgb(0,69,134)" stroke-linejoin="round" d="M 23588,4364 L 23588,4613 23838,4613 23838,4364 23588,4364 Z"/>
 <path fill="rgb(0,69,134)" stroke="none" d="M 24171,4364 L 24171,4613 24421,4613 24421,4364 24171,4364 Z"/>
 <path fill="none" stroke="rgb(0,69,134)" stroke-linejoin="round" d="M 24171,4364 L 24171,4613 24421,4613 24421,4364 24171,4364 Z"/>
 <path fill="rgb(0,69,134)" stroke="none" d="M 24755,4364 L 24755,4613 25005,4613 25005,4364 24755,4364 Z"/>
 <path fill="none" stroke="rgb(0,69,134)" stroke-linejoin="round" d="M 24755,4364 L 24755,4613 25005,4613 25005,4364 24755,4364 Z"/>
 <path fill="rgb(0,69,134)" stroke="none" d="M 25338,4364 L 25338,4613 25588,4613 25588,4364 25338,4364 Z"/>
 <path fill="none" stroke="rgb(0,69,134)" stroke-linejoin="round" d="M 25338,4364 L 25338,4613 25588,4613 25588,4364 25338,4364 Z"/>
 <path fill="rgb(0,69,134)" stroke="none" d="M 25921,4364 L 25921,4613 26171,4613 26171,4364 25921,4364 Z"/>
 <path fill="none" stroke="rgb(0,69,134)" stroke-linejoin="round" d="M 25921,4364 L 25921,4613 26171,4613 26171,4364 25921,4364 Z"/>
 <path fill="rgb(0,69,134)" stroke="none" d="M 26504,4364 L 26504,4613 26754,4613 26754,4364 26504,4364 Z"/>
 <path fill="none" stroke="rgb(0,69,134)" stroke-linejoin="round" d="M 26504,4364 L 26504,4613 26754,4613 26754,4364 26504,4364 Z"/>
 <path fill="rgb(0,69,134)" stroke="none" d="M 27087,4364 L 27087,4613 27337,4613 27337,4364 27087,4364 Z"/>
 <path fill="none" stroke="rgb(0,69,134)" stroke-linejoin="round" d="M 27087,4364 L 27087,4613 27337,4613 27337,4364 27087,4364 Z"/>
 <path fill="rgb(0,69,134)" stroke="none" d="M 27670,4363 L 27670,4612 27920,4612 27920,4363 27670,4363 Z"/>
 <path fill="none" stroke="rgb(0,69,134)" stroke-linejoin="round" d="M 27670,4363 L 27670,4612 27920,4612 27920,4363 27670,4363 Z"/>
 <path fill="rgb(0,69,134)" stroke="none" d="M 28253,4364 L 28253,4613 28503,4613 28503,4364 28253,4364 Z"/>
 <path fill="none" stroke="rgb(0,69,134)" stroke-linejoin="round" d="M 28253,4364 L 28253,4613 28503,4613 28503,4364 28253,4364 Z"/>
 <path fill="rgb(0,69,134)" stroke="none" d="M 28836,4364 L 28836,4613 29086,4613 29086,4364 28836,4364 Z"/>
 <path fill="none" stroke="rgb(0,69,134)" stroke-linejoin="round" d="M 28836,4364 L 28836,4613 29086,4613 29086,4364 28836,4364 Z"/>
 <path fill="rgb(0,69,134)" stroke="none" d="M 29420,4364 L 29420,4613 29670,4613 29670,4364 29420,4364 Z"/>
 <path fill="none" stroke="rgb(0,69,134)" stroke-linejoin="round" d="M 29420,4364 L 29420,4613 29670,4613 29670,4364 29420,4364 Z"/>
 <path fill="rgb(0,69,134)" stroke="none" d="M 30003,4364 L 30003,4613 30253,4613 30253,4364 30003,4364 Z"/>
 <path fill="none" stroke="rgb(0,69,134)" stroke-linejoin="round" d="M 30003,4364 L 30003,4613 30253,4613 30253,4364 30003,4364 Z"/>
 <path fill="rgb(0,69,134)" stroke="none" d="M 30586,4364 L 30586,4613 30836,4613 30836,4364 30586,4364 Z"/>
 <path fill="none" stroke="rgb(0,69,134)" stroke-linejoin="round" d="M 30586,4364 L 30586,4613 30836,4613 30836,4364 30586,4364 Z"/>
 <path fill="rgb(0,69,134)" stroke="none" d="M 31168,4364 L 31168,4613 31418,4613 31418,4364 31168,4364 Z"/>
 <path fill="none" stroke="rgb(0,69,134)" stroke-linejoin="round" d="M 31168,4364 L 31168,4613 31418,4613 31418,4364 31168,4364 Z"/>
 <path fill="rgb(0,69,134)" stroke="none" d="M 31751,4364 L 31751,4613 32001,4613 32001,4364 31751,4364 Z"/>
 <path fill="none" stroke="rgb(0,69,134)" stroke-linejoin="round" d="M 31751,4364 L 31751,4613 32001,4613 32001,4364 31751,4364 Z"/>
 <path fill="rgb(0,69,134)" stroke="none" d="M 32334,4363 L 32334,4612 32584,4612 32584,4363 32334,4363 Z"/>
 <path fill="none" stroke="rgb(0,69,134)" stroke-linejoin="round" d="M 32334,4363 L 32334,4612 32584,4612 32584,4363 32334,4363 Z"/>
 <path fill="rgb(0,69,134)" stroke="none" d="M 32917,4364 L 32917,4613 33167,4613 33167,4364 32917,4364 Z"/>
 <path fill="none" stroke="rgb(0,69,134)" stroke-linejoin="round" d="M 32917,4364 L 32917,4613 33167,4613 33167,4364 32917,4364 Z"/>
 <path fill="rgb(0,69,134)" stroke="none" d="M 33501,4364 L 33501,4613 33751,4613 33751,4364 33501,4364 Z"/>
 <path fill="none" stroke="rgb(0,69,134)" stroke-linejoin="round" d="M 33501,4364 L 33501,4613 33751,4613 33751,4364 33501,4364 Z"/>
 <path fill="rgb(0,69,134)" stroke="none" d="M 34084,4364 L 34084,4613 34334,4613 34334,4364 34084,4364 Z"/>
 <path fill="none" stroke="rgb(0,69,134)" stroke-linejoin="round" d="M 34084,4364 L 34084,4613 34334,4613 34334,4364 34084,4364 Z"/>
 <path fill="rgb(0,69,134)" stroke="none" d="M 34667,4364 L 34667,4613 34917,4613 34917,4364 34667,4364 Z"/>
 <path fill="none" stroke="rgb(0,69,134)" stroke-linejoin="round" d="M 34667,4364 L 34667,4613 34917,4613 34917,4364 34667,4364 Z"/>
 <path fill="rgb(0,69,134)" stroke="none" d="M 35250,4364 L 35250,4613 35500,4613 35500,4364 35250,4364 Z"/>
 <path fill="none" stroke="rgb(0,69,134)" stroke-linejoin="round" d="M 35250,4364 L 35250,4613 35500,4613 35500,4364 35250,4364 Z"/>
 <path fill="rgb(0,69,134)" stroke="none" d="M 35833,4364 L 35833,4613 36083,4613 36083,4364 35833,4364 Z"/>
 <path fill="none" stroke="rgb(0,69,134)" stroke-linejoin="round" d="M 35833,4364 L 35833,4613 36083,4613 36083,4364 35833,4364 Z"/>
 <path fill="rgb(0,69,134)" stroke="none" d="M 36416,4364 L 36416,4613 36666,4613 36666,4364 36416,4364 Z"/>
 <path fill="none" stroke="rgb(0,69,134)" stroke-linejoin="round" d="M 36416,4364 L 36416,4613 36666,4613 36666,4364 36416,4364 Z"/>
 <path fill="rgb(0,69,134)" stroke="none" d="M 36999,4364 L 36999,4613 37249,4613 37249,4364 36999,4364 Z"/>
 <path fill="none" stroke="rgb(0,69,134)" stroke-linejoin="round" d="M 36999,4364 L 36999,4613 37249,4613 37249,4364 36999,4364 Z"/>
 <path fill="rgb(0,69,134)" stroke="none" d="M 37582,4364 L 37582,4613 37832,4613 37832,4364 37582,4364 Z"/>
 <path fill="none" stroke="rgb(0,69,134)" stroke-linejoin="round" d="M 37582,4364 L 37582,4613 37832,4613 37832,4364 37582,4364 Z"/>
 <path fill="rgb(0,69,134)" stroke="none" d="M 38166,4364 L 38166,4613 38416,4613 38416,4364 38166,4364 Z"/>
 <path fill="none" stroke="rgb(0,69,134)" stroke-linejoin="round" d="M 38166,4364 L 38166,4613 38416,4613 38416,4364 38166,4364 Z"/>
 <path fill="rgb(0,69,134)" stroke="none" d="M 38749,4364 L 38749,4613 38999,4613 38999,4364 38749,4364 Z"/>
 <path fill="none" stroke="rgb(0,69,134)" stroke-linejoin="round" d="M 38749,4364 L 38749,4613 38999,4613 38999,4364 38749,4364 Z"/>
 <path fill="rgb(0,69,134)" stroke="none" d="M 39332,4364 L 39332,4613 39582,4613 39582,4364 39332,4364 Z"/>
 <path fill="none" stroke="rgb(0,69,134)" stroke-linejoin="round" d="M 39332,4364 L 39332,4613 39582,4613 39582,4364 39332,4364 Z"/>
 <path fill="rgb(0,69,134)" stroke="none" d="M 39915,4364 L 39915,4613 40165,4613 40165,4364 39915,4364 Z"/>
 <path fill="none" stroke="rgb(0,69,134)" stroke-linejoin="round" d="M 39915,4364 L 39915,4613 40165,4613 40165,4364 39915,4364 Z"/>
 <path fill="rgb(0,69,134)" stroke="none" d="M 40498,4364 L 40498,4613 40748,4613 40748,4364 40498,4364 Z"/>
 <path fill="none" stroke="rgb(0,69,134)" stroke-linejoin="round" d="M 40498,4364 L 40498,4613 40748,4613 40748,4364 40498,4364 Z"/>
 <path fill="rgb(0,69,134)" stroke="none" d="M 41081,4364 L 41081,4613 41331,4613 41331,4364 41081,4364 Z"/>
 <path fill="none" stroke="rgb(0,69,134)" stroke-linejoin="round" d="M 41081,4364 L 41081,4613 41331,4613 41331,4364 41081,4364 Z"/>
 <path fill="rgb(0,69,134)" stroke="none" d="M 41664,4364 L 41664,4613 41914,4613 41914,4364 41664,4364 Z"/>
 <path fill="none" stroke="rgb(0,69,134)" stroke-linejoin="round" d="M 41664,4364 L 41664,4613 41914,4613 41914,4364 41664,4364 Z"/>
 <path fill="rgb(0,69,134)" stroke="none" d="M 42247,4364 L 42247,4613 42497,4613 42497,4364 42247,4364 Z"/>
 <path fill="none" stroke="rgb(0,69,134)" stroke-linejoin="round" d="M 42247,4364 L 42247,4613 42497,4613 42497,4364 42247,4364 Z"/>
 <path fill="rgb(0,69,134)" stroke="none" d="M 42831,4364 L 42831,4613 43081,4613 43081,4364 42831,4364 Z"/>
 <path fill="none" stroke="rgb(0,69,134)" stroke-linejoin="round" d="M 42831,4364 L 42831,4613 43081,4613 43081,4364 42831,4364 Z"/>
 <path fill="rgb(0,69,134)" stroke="none" d="M 43414,4364 L 43414,4613 43664,4613 43664,4364 43414,4364 Z"/>
 <path fill="none" stroke="rgb(0,69,134)" stroke-linejoin="round" d="M 43414,4364 L 43414,4613 43664,4613 43664,4364 43414,4364 Z"/>
 <path fill="rgb(0,69,134)" stroke="none" d="M 43997,4364 L 43997,4613 44247,4613 44247,4364 43997,4364 Z"/>
 <path fill="none" stroke="rgb(0,69,134)" stroke-linejoin="round" d="M 43997,4364 L 43997,4613 44247,4613 44247,4364 43997,4364 Z"/>
 <path fill="rgb(0,69,134)" stroke="none" d="M 44580,4364 L 44580,4613 44830,4613 44830,4364 44580,4364 Z"/>
 <path fill="none" stroke="rgb(0,69,134)" stroke-linejoin="round" d="M 44580,4364 L 44580,4613 44830,4613 44830,4364 44580,4364 Z"/>
 <path fill="rgb(0,69,134)" stroke="none" d="M 45163,4364 L 45163,4613 45413,4613 45413,4364 45163,4364 Z"/>
 <path fill="none" stroke="rgb(0,69,134)" stroke-linejoin="round" d="M 45163,4364 L 45163,4613 45413,4613 45413,4364 45163,4364 Z"/>
 <path fill="rgb(0,69,134)" stroke="none" d="M 45746,4364 L 45746,4613 45996,4613 45996,4364 45746,4364 Z"/>
 <path fill="none" stroke="rgb(0,69,134)" stroke-linejoin="round" d="M 45746,4364 L 45746,4613 45996,4613 45996,4364 45746,4364 Z"/>
 <path fill="rgb(0,69,134)" stroke="none" d="M 46329,4364 L 46329,4613 46579,4613 46579,4364 46329,4364 Z"/>
 <path fill="none" stroke="rgb(0,69,134)" stroke-linejoin="round" d="M 46329,4364 L 46329,4613 46579,4613 46579,4364 46329,4364 Z"/>
 <path fill="rgb(0,69,134)" stroke="none" d="M 46913,4364 L 46913,4613 47163,4613 47163,4364 46913,4364 Z"/>
 <path fill="none" stroke="rgb(0,69,134)" stroke-linejoin="round" d="M 46913,4364 L 46913,4613 47163,4613 47163,4364 46913,4364 Z"/>
 <path fill="rgb(0,69,134)" stroke="none" d="M 47496,4364 L 47496,4613 47746,4613 47746,4364 47496,4364 Z"/>
 <path fill="none" stroke="rgb(0,69,134)" stroke-linejoin="round" d="M 47496,4364 L 47496,4613 47746,4613 47746,4364 47496,4364 Z"/>
 <path fill="rgb(0,69,134)" stroke="none" d="M 48079,4364 L 48079,4613 48329,4613 48329,4364 48079,4364 Z"/>
 <path fill="none" stroke="rgb(0,69,134)" stroke-linejoin="round" d="M 48079,4364 L 48079,4613 48329,4613 48329,4364 48079,4364 Z"/>
 <path fill="rgb(0,69,134)" stroke="none" d="M 48662,4364 L 48662,4613 48912,4613 48912,4364 48662,4364 Z"/>
 <path fill="none" stroke="rgb(0,69,134)" stroke-linejoin="round" d="M 48662,4364 L 48662,4613 48912,4613 48912,4364 48662,4364 Z"/>
 <path fill="rgb(0,69,134)" stroke="none" d="M 49245,4364 L 49245,4613 49495,4613 49495,4364 49245,4364 Z"/>
 <path fill="none" stroke="rgb(0,69,134)" stroke-linejoin="round" d="M 49245,4364 L 49245,4613 49495,4613 49495,4364 49245,4364 Z"/>
 <path fill="rgb(0,69,134)" stroke="none" d="M 49828,4364 L 49828,4613 50078,4613 50078,4364 49828,4364 Z"/>
 <path fill="none" stroke="rgb(0,69,134)" stroke-linejoin="round" d="M 49828,4364 L 49828,4613 50078,4613 50078,4364 49828,4364 Z"/>
 <path fill="rgb(0,69,134)" stroke="none" d="M 50411,4364 L 50411,4613 50661,4613 50661,4364 50411,4364 Z"/>
 <path fill="none" stroke="rgb(0,69,134)" stroke-linejoin="round" d="M 50411,4364 L 50411,4613 50661,4613 50661,4364 50411,4364 Z"/>
 <path fill="rgb(0,69,134)" stroke="none" d="M 50994,4364 L 50994,4613 51244,4613 51244,4364 50994,4364 Z"/>
 <path fill="none" stroke="rgb(0,69,134)" stroke-linejoin="round" d="M 50994,4364 L 50994,4613 51244,4613 51244,4364 50994,4364 Z"/>
 <path fill="rgb(0,69,134)" stroke="none" d="M 51578,4364 L 51578,4613 51828,4613 51828,4364 51578,4364 Z"/>
 <path fill="none" stroke="rgb(0,69,134)" stroke-linejoin="round" d="M 51578,4364 L 51578,4613 51828,4613 51828,4364 51578,4364 Z"/>
 <path fill="rgb(0,69,134)" stroke="none" d="M 52161,4364 L 52161,4613 52411,4613 52411,4364 52161,4364 Z"/>
 <path fill="none" stroke="rgb(0,69,134)" stroke-linejoin="round" d="M 52161,4364 L 52161,4613 52411,4613 52411,4364 52161,4364 Z"/>
 <path fill="rgb(0,69,134)" stroke="none" d="M 52744,4364 L 52744,4613 52994,4613 52994,4364 52744,4364 Z"/>
 <path fill="none" stroke="rgb(0,69,134)" stroke-linejoin="round" d="M 52744,4364 L 52744,4613 52994,4613 52994,4364 52744,4364 Z"/>
 <path fill="rgb(0,69,134)" stroke="none" d="M 53327,4364 L 53327,4613 53577,4613 53577,4364 53327,4364 Z"/>
 <path fill="none" stroke="rgb(0,69,134)" stroke-linejoin="round" d="M 53327,4364 L 53327,4613 53577,4613 53577,4364 53327,4364 Z"/>
 <path fill="rgb(0,69,134)" stroke="none" d="M 53910,4364 L 53910,4613 54160,4613 54160,4364 53910,4364 Z"/>
 <path fill="none" stroke="rgb(0,69,134)" stroke-linejoin="round" d="M 53910,4364 L 53910,4613 54160,4613 54160,4364 53910,4364 Z"/>
 <path fill="rgb(0,69,134)" stroke="none" d="M 54493,4364 L 54493,4613 54743,4613 54743,4364 54493,4364 Z"/>
 <path fill="none" stroke="rgb(0,69,134)" stroke-linejoin="round" d="M 54493,4364 L 54493,4613 54743,4613 54743,4364 54493,4364 Z"/>
 <path fill="rgb(0,69,134)" stroke="none" d="M 55076,4364 L 55076,4613 55326,4613 55326,4364 55076,4364 Z"/>
 <path fill="none" stroke="rgb(0,69,134)" stroke-linejoin="round" d="M 55076,4364 L 55076,4613 55326,4613 55326,4364 55076,4364 Z"/>
 <path fill="rgb(0,69,134)" stroke="none" d="M 55659,4364 L 55659,4613 55909,4613 55909,4364 55659,4364 Z"/>
 <path fill="none" stroke="rgb(0,69,134)" stroke-linejoin="round" d="M 55659,4364 L 55659,4613 55909,4613 55909,4364 55659,4364 Z"/>
 <path fill="rgb(0,69,134)" stroke="none" d="M 56243,4364 L 56243,4613 56493,4613 56493,4364 56243,4364 Z"/>
 <path fill="none" stroke="rgb(0,69,134)" stroke-linejoin="round" d="M 56243,4364 L 56243,4613 56493,4613 56493,4364 56243,4364 Z"/>
 <path fill="rgb(0,69,134)" stroke="none" d="M 56826,4363 L 56826,4612 57076,4612 57076,4363 56826,4363 Z"/>
 <path fill="none" stroke="rgb(0,69,134)" stroke-linejoin="round" d="M 56826,4363 L 56826,4612 57076,4612 57076,4363 56826,4363 Z"/>
 <path fill="rgb(0,69,134)" stroke="none" d="M 57409,4363 L 57409,4612 57659,4612 57659,4363 57409,4363 Z"/>
 <path fill="none" stroke="rgb(0,69,134)" stroke-linejoin="round" d="M 57409,4363 L 57409,4612 57659,4612 57659,4363 57409,4363 Z"/>
 <path fill="rgb(0,69,134)" stroke="none" d="M 57992,1614 L 57992,1864 58242,1864 58242,1614 57992,1614 Z"/>
 <path fill="none" stroke="rgb(0,69,134)" stroke-linejoin="round" d="M 57992,1614 L 57992,1864 58242,1864 58242,1614 57992,1614 Z"/>
 <path fill="rgb(0,69,134)" stroke="none" d="M 58575,4364 L 58575,4613 58825,4613 58825,4364 58575,4364 Z"/>
 <path fill="none" stroke="rgb(0,69,134)" stroke-linejoin="round" d="M 58575,4364 L 58575,4613 58825,4613 58825,4364 58575,4364 Z"/>
 <path fill="rgb(0,69,134)" stroke="none" d="M 59158,4364 L 59158,4613 59408,4613 59408,4364 59158,4364 Z"/>
 <path fill="none" stroke="rgb(0,69,134)" stroke-linejoin="round" d="M 59158,4364 L 59158,4613 59408,4613 59408,4364 59158,4364 Z"/>
 <path fill="rgb(0,69,134)" stroke="none" d="M 59741,4364 L 59741,4613 59991,4613 59991,4364 59741,4364 Z"/>
 <path fill="none" stroke="rgb(0,69,134)" stroke-linejoin="round" d="M 59741,4364 L 59741,4613 59991,4613 59991,4364 59741,4364 Z"/>
 <text class="SVGTextShape"><tspan class="TextParagraph" font-family="Liberation Sans, sans-serif" font-size="353px" font-weight="400"><tspan class="TextPosition" x="2045" y="5056"><tspan fill="rgb(0,0,0)" stroke="none" style="white-space: pre">0</tspan></tspan></tspan></text>
 <text class="SVGTextShape"><tspan class="TextParagraph" font-family="Liberation Sans, sans-serif" font-size="353px" font-weight="400"><tspan class="TextPosition" x="7784" y="5056"><tspan fill="rgb(0,0,0)" stroke="none" style="white-space: pre">10</tspan></tspan></tspan></text>
 <text class="SVGTextShape"><tspan class="TextParagraph" font-family="Liberation Sans, sans-serif" font-size="353px" font-weight="400"><tspan class="TextPosition" x="13615" y="5056"><tspan fill="rgb(0,0,0)" stroke="none" style="white-space: pre">20</tspan></tspan></tspan></text>
 <text class="SVGTextShape"><tspan class="TextParagraph" font-family="Liberation Sans, sans-serif" font-size="353px" font-weight="400"><tspan class="TextPosition" x="19446" y="5056"><tspan fill="rgb(0,0,0)" stroke="none" style="white-space: pre">30</tspan></tspan></tspan></text>
 <text class="SVGTextShape"><tspan class="TextParagraph" font-family="Liberation Sans, sans-serif" font-size="353px" font-weight="400"><tspan class="TextPosition" x="25278" y="5056"><tspan fill="rgb(0,0,0)" stroke="none" style="white-space: pre">40</tspan></tspan></tspan></text>
 <text class="SVGTextShape"><tspan class="TextParagraph" font-family="Liberation Sans, sans-serif" font-size="353px" font-weight="400"><tspan class="TextPosition" x="31109" y="5056"><tspan fill="rgb(0,0,0)" stroke="none" style="white-space: pre">50</tspan></tspan></tspan></text>
 <text class="SVGTextShape"><tspan class="TextParagraph" font-family="Liberation Sans, sans-serif" font-size="353px" font-weight="400"><tspan class="TextPosition" x="36940" y="5056"><tspan fill="rgb(0,0,0)" stroke="none" style="white-space: pre">60</tspan></tspan></tspan></text>
 <text class="SVGTextShape"><tspan class="TextParagraph" font-family="Liberation Sans, sans-serif" font-size="353px" font-weight="400"><tspan class="TextPosition" x="42772" y="5056"><tspan fill="rgb(0,0,0)" stroke="none" style="white-space: pre">70</tspan></tspan></tspan></text>
 <text class="SVGTextShape"><tspan class="TextParagraph" font-family="Liberation Sans, sans-serif" font-size="353px" font-weight="400"><tspan class="TextPosition" x="48603" y="5056"><tspan fill="rgb(0,0,0)" stroke="none" style="white-space: pre">80</tspan></tspan></tspan></text>
 <text class="SVGTextShape"><tspan class="TextParagraph" font-family="Liberation Sans, sans-serif" font-size="353px" font-weight="400"><tspan class="TextPosition" x="54434" y="5056"><tspan fill="rgb(0,0,0)" stroke="none" style="white-space: pre">90</tspan></tspan></tspan></text>
 <text class="SVGTextShape"><tspan class="TextParagraph" font-family="Liberation Sans, sans-serif" font-size="353px" font-weight="400"><tspan class="TextPosition" x="60173" y="5056"><tspan fill="rgb(0,0,0)" stroke="none" style="white-space: pre">100</tspan></tspan></tspan></text>
 <text class="SVGTextShape"><tspan class="TextParagraph" font-family="Liberation Sans, sans-serif" font-size="353px" font-weight="400"><tspan class="TextPosition" x="1227" y="8733"><tspan fill="rgb(0,0,0)" stroke="none" style="white-space: pre">-150</tspan></tspan></tspan></text>
 <text class="SVGTextShape"><tspan class="TextParagraph" font-family="Liberation Sans, sans-serif" font-size="353px" font-weight="400"><tspan class="TextPosition" x="1227" y="7358"><tspan fill="rgb(0,0,0)" stroke="none" style="white-space: pre">-100</tspan></tspan></tspan></text>
 <text class="SVGTextShape"><tspan class="TextParagraph" font-family="Liberation Sans, sans-serif" font-size="353px" font-weight="400"><tspan class="TextPosition" x="1412" y="5983"><tspan fill="rgb(0,0,0)" stroke="none" style="white-space: pre">-50</tspan></tspan></tspan></text>
 <text class="SVGTextShape"><tspan class="TextParagraph" font-family="Liberation Sans, sans-serif" font-size="353px" font-weight="400"><tspan class="TextPosition" x="1703" y="4609"><tspan fill="rgb(0,0,0)" stroke="none" style="white-space: pre">0</tspan></tspan></tspan></text>
 <text class="SVGTextShape"><tspan class="TextParagraph" font-family="Liberation Sans, sans-serif" font-size="353px" font-weight="400"><tspan class="TextPosition" x="1518" y="3234"><tspan fill="rgb(0,0,0)" stroke="none" style="white-space: pre">50</tspan></tspan></tspan></text>
 <text class="SVGTextShape"><tspan class="TextParagraph" font-family="Liberation Sans, sans-serif" font-size="353px" font-weight="400"><tspan class="TextPosition" x="1332" y="1859"><tspan fill="rgb(0,0,0)" stroke="none" style="white-space: pre">100</tspan></tspan></tspan></text>
 <text class="SVGTextShape"><tspan class="TextParagraph" font-family="Liberation Sans, sans-serif" font-size="353px" font-weight="400"><tspan class="TextPosition" x="1332" y="485"><tspan fill="rgb(0,0,0)" stroke="none" style="white-space: pre">150</tspan></tspan></tspan></text>
</svg>