<?xml version="1.0" encoding="UTF-8"?>
<!DOCTYPE svg PUBLIC "-//W3C//DTD SVG 1.1//EN" "http://www.w3.org/Graphics/SVG/1.1/DTD/svg11.dtd">
<svg width="628mm" height="90mm" viewBox="0 0 62800 9000" version="1.1" xmlns="http://www.w3.org/2000/svg" xmlns:xlink="http://www.w3.org/1999/xlink" stroke-width="28.222" stroke-linejoin="round" xml:space="preserve">
 <path fill="rgb(255,255,255)" stroke="none" d="M 31359,8991 L -13,8991 -13,-13 62731,-13 62731,8991 31359,8991 Z"/>
 <path fill="none" stroke="rgb(179,179,179)" stroke-linejoin="round" d="M 31583,8612 L 1968,8612 1968,366 61198,366 61198,8612 31583,8612 Z"/>
 <path fill="none" stroke="rgb(179,179,179)" stroke-linejoin="round" d="M 61197,8611 L 1968,8611"/>
 <path fill="none" stroke="rgb(179,179,179)" stroke-linejoin="round" d="M 61197,7236 L 1968,7236"/>
 <path fill="none" stroke="rgb(179,179,179)" stroke-linejoin="round" d="M 61197,5862 L 1968,5862"/>
 <path fill="none" stroke="rgb(179,179,179)" stroke-linejoin="round" d="M 61197,4488 L 1968,4488"/>
 <path fill="none" stroke="rgb(179,179,179)" stroke-linejoin="round" d="M 61197,3114 L 1968,3114"/>
 <path fill="none" stroke="rgb(179,179,179)" stroke-linejoin="round" d="M 61197,1739 L 1968,1739"/>
 <path fill="none" stroke="rgb(179,179,179)" stroke-linejoin="round" d="M 61197,365 L 1968,365"/>
 <path fill="none" stroke="rgb(179,179,179)" stroke-linejoin="round" d="M 1968,4637 L 1968,4488"/>
 <path fill="none" stroke="rgb(179,179,179)" stroke-linejoin="round" d="M 1968,4637 L 1968,4488"/>
 <path fill="none" stroke="rgb(179,179,179)" stroke-linejoin="round" d="M 7891,4637 L 7891,4488"/>
 <path fill="none" stroke="rgb(179,179,179)" stroke-linejoin="round" d="M 7891,4637 L 7891,4488"/>
 <path fill="none" stroke="rgb(179,179,179)" stroke-linejoin="round" d="M 13814,4637 L 13814,4488"/>
 <path fill="none" stroke="rgb(179,179,179)" stroke-linejoin="round" d="M 13814,4637 L 13814,4488"/>
 <path fill="none" stroke="rgb(179,179,179)" stroke-linejoin="round" d="M 19737,4637 L 19737,4488"/>
 <path fill="none" stroke="rgb(179,179,179)" stroke-linejoin="round" d="M 19737,4637 L 19737,4488"/>
 <path fill="none" stroke="rgb(179,179,179)" stroke-linejoin="round" d="M 25660,4637 L 25660,4488"/>
 <path fill="none" stroke="rgb(179,179,179)" stroke-linejoin="round" d="M 25660,4637 L 25660,4488"/>
 <path fill="none" stroke="rgb(179,179,179)" stroke-linejoin="round" d="M 31582,4637 L 31582,4488"/>
 <path fill="none" stroke="rgb(179,179,179)" stroke-linejoin="round" d="M 31582,4637 L 31582,4488"/>
 <path fill="none" stroke="rgb(179,179,179)" stroke-linejoin="round" d="M 37505,4637 L 37505,4488"/>
 <path fill="none" stroke="rgb(179,179,179)" stroke-linejoin="round" d="M 37505,4637 L 37505,4488"/>
 <path fill="none" stroke="rgb(179,179,179)" stroke-linejoin="round" d="M 43428,4637 L 43428,4488"/>
 <path fill="none" stroke="rgb(179,179,179)" stroke-linejoin="round" d="M 43428,4637 L 43428,4488"/>
 <path fill="none" stroke="rgb(179,179,179)" stroke-linejoin="round" d="M 49351,4637 L 49351,4488"/>
 <path fill="none" stroke="rgb(179,179,179)" stroke-linejoin="round" d="M 49351,4637 L 49351,4488"/>
 <path fill="none" stroke="rgb(179,179,179)" stroke-linejoin="round" d="M 55274,4637 L 55274,4488"/>
 <path fill="none" stroke="rgb(179,179,179)" stroke-linejoin="round" d="M 55274,4637 L 55274,4488"/>
 <path fill="none" stroke="rgb(179,179,179)" stroke-linejoin="round" d="M 61197,4637 L 61197,4488"/>
 <path fill="none" stroke="rgb(179,179,179)" stroke-linejoin="round" d="M 61197,4637 L 61197,4488"/>
 <path fill="none" stroke="rgb(179,179,179)" stroke-linejoin="round" d="M 1968,4488 L 61197,4488"/>
 <path fill="none" stroke="rgb(179,179,179)" stroke-linejoin="round" d="M 1818,8611 L 1968,8611"/>
 <path fill="none" stroke="rgb(179,179,179)" stroke-linejoin="round" d="M 1818,8611 L 1968,8611"/>
 <path fill="none" stroke="rgb(179,179,179)" stroke-linejoin="round" d="M 1818,7236 L 1968,7236"/>
 <path fill="none" stroke="rgb(179,179,179)" stroke-linejoin="round" d="M 1818,7236 L 1968,7236"/>
 <path fill="none" stroke="rgb(179,179,179)" stroke-linejoin="round" d="M 1818,5862 L 1968,5862"/>
 <path fill="none" stroke="rgb(179,179,179)" stroke-linejoin="round" d="M 1818,5862 L 1968,5862"/>
 <path fill="none" stroke="rgb(179,179,179)" stroke-linejoin="round" d="M 1818,4488 L 1968,4488"/>
 <path fill="none" stroke="rgb(179,179,179)" stroke-linejoin="round" d="M 1818,4488 L 1968,4488"/>
 <path fill="none" stroke="rgb(179,179,179)" stroke-linejoin="round" d="M 1818,3114 L 1968,3114"/>
 <path fill="none" stroke="rgb(179,179,179)" stroke-linejoin="round" d="M 1818,3114 L 1968,3114"/>
 <path fill="none" stroke="rgb(179,179,179)" stroke-linejoin="round" d="M 1818,1739 L 1968,1739"/>
 <path fill="none" stroke="rgb(179,179,179)" stroke-linejoin="round" d="M 1818,1739 L 1968,1739"/>
 <path fill="none" stroke="rgb(179,179,179)" stroke-linejoin="round" d="M 1818,365 L 1968,365"/>
 <path fill="none" stroke="rgb(179,179,179)" stroke-linejoin="round" d="M 1818,365 L 1968,365"/>
 <path fill="none" stroke="rgb(179,179,179)" stroke-linejoin="round" d="M 1968,8611 L 1968,365"/>
 <path fill="none" stroke="rgb(0,69,134)" stroke-width="80" stroke-linejoin="round" d="M 1968,4488 L 2560,4488 3152,4488 3744,4488 4337,4488 4929,7923 5521,4488 6114,4488 6706,4488 7298,4488 7891,4488 8483,4488 9075,4488 9668,4488 10260,4488 10852,4488 11444,4488 12037,4488 12629,4488 13221,4488 13814,4488 14406,4488 14998,4488 15591,4488 16183,4488 16775,4488 17368,4488 17960,4488 18552,4488 19144,4488 19737,4488 20329,4488 20921,4488 21514,4488 22106,4488 22698,4488 23291,4488 23883,4488 24475,4488 25068,4488 25660,4488 26252,4488 26845,4488 27437,4488 28029,4488 28621,4488 29214,4488 29806,4488 30398,4488 30991,4488 31582,4488 32174,4488 32767,4488 33359,4488 33951,4488 34544,4488 35136,4488 35728,4488 36320,4488 36913,4488 37505,4488 38097,4488 38690,4488 39282,4488 39874,4488 40467,4488 41059,4488 41651,4488 42244,4488 42836,4488 43428,4488 44021,4488 44613,4488 45205,4488 45797,4488 46390,4488 46982,4488 47574,4488 48167,4488 48759,4488 49351,4488 49944,4488 50536,4488 51128,4488 51721,4488 52313,4488 52905,4488 53497,4488 54090,4488 54682,4488 55274,4488 55867,4488 56459,4488 57051,4488 57644,4488 58236,1052 58828,4488 59421,4488 60013,4488 60605,4488"/>
 <path fill="rgb(0,69,134)" stroke="none" d="M 1843,4363 L 1843,4612 2093,4612 2093,4363 1843,4363 Z"/>
 <path fill="none" stroke="rgb(0,69,134)" stroke-linejoin="round" d="M 1843,4363 L 1843,4612 2093,4612 2093,4363 1843,4363 Z"/>
 <path fill="rgb(0,69,134)" stroke="none" d="M 2435,4363 L 2435,4612 2685,4612 2685,4363 2435,4363 Z"/>
 <path fill="none" stroke="rgb(0,69,134)" stroke-linejoin="round" d="M 2435,4363 L 2435,4612 2685,4612 2685,4363 2435,4363 Z"/>
 <path fill="rgb(0,69,134)" stroke="none" d="M 3027,4363 L 3027,4612 3277,4612 3277,4363 3027,4363 Z"/>
 <path fill="none" stroke="rgb(0,69,134)" stroke-linejoin="round" d="M 3027,4363 L 3027,4612 3277,4612 3277,4363 3027,4363 Z"/>
 <path fill="rgb(0,69,134)" stroke="none" d="M 3619,4363 L 3619,4612 3869,4612 3869,4363 3619,4363 Z"/>
 <path fill="none" stroke="rgb(0,69,134)" stroke-linejoin="round" d="M 3619,4363 L 3619,4612 3869,4612 3869,4363 3619,4363 Z"/>
 <path fill="rgb(0,69,134)" stroke="none" d="M 4212,4363 L 4212,4612 4462,4612 4462,4363 4212,4363 Z"/>
 <path fill="none" stroke="rgb(0,69,134)" stroke-linejoin="round" d="M 4212,4363 L 4212,4612 4462,4612 4462,4363 4212,4363 Z"/>
 <path fill="rgb(0,69,134)" stroke="none" d="M 4804,7798 L 4804,8048 5054,8048 5054,7798 4804,7798 Z"/>
 <path fill="none" stroke="rgb(0,69,134)" stroke-linejoin="round" d="M 4804,7798 L 4804,8048 5054,8048 5054,7798 4804,7798 Z"/>
 <path fill="rgb(0,69,134)" stroke="none" d="M 5396,4363 L 5396,4612 5646,4612 5646,4363 5396,4363 Z"/>
 <path fill="none" stroke="rgb(0,69,134)" stroke-linejoin="round" d="M 5396,4363 L 5396,4612 5646,4612 5646,4363 5396,4363 Z"/>
 <path fill="rgb(0,69,134)" stroke="none" d="M 5989,4363 L 5989,4612 6239,4612 6239,4363 5989,4363 Z"/>
 <path fill="none" stroke="rgb(0,69,134)" stroke-linejoin="round" d="M 5989,4363 L 5989,4612 6239,4612 6239,4363 5989,4363 Z"/>
 <path fill="rgb(0,69,134)" stroke="none" d="M 6581,4363 L 6581,4612 6831,4612 6831,4363 6581,4363 Z"/>
 <path fill="none" stroke="rgb(0,69,134)" stroke-linejoin="round" d="M 6581,4363 L 6581,4612 6831,4612 6831,4363 6581,4363 Z"/>
 <path fill="rgb(0,69,134)" stroke="none" d="M 7173,4363 L 7173,4612 7423,4612 7423,4363 7173,4363 Z"/>
 <path fill="none" stroke="rgb(0,69,134)" stroke-linejoin="round" d="M 7173,4363 L 7173,4612 7423,4612 7423,4363 7173,4363 Z"/>
 <path fill="rgb(0,69,134)" stroke="none" d="M 7766,4363 L 7766,4612 8016,4612 8016,4363 7766,4363 Z"/>
 <path fill="none" stroke="rgb(0,69,134)" stroke-linejoin="round" d="M 7766,4363 L 7766,4612 8016,4612 8016,4363 7766,4363 Z"/>
 <path fill="rgb(0,69,134)" stroke="none" d="M 8358,4363 L 8358,4612 8608,4612 8608,4363 8358,4363 Z"/>
 <path fill="none" stroke="rgb(0,69,134)" stroke-linejoin="round" d="M 8358,4363 L 8358,4612 8608,4612 8608,4363 8358,4363 Z"/>
 <path fill="rgb(0,69,134)" stroke="none" d="M 8950,4363 L 8950,4612 9200,4612 9200,4363 8950,4363 Z"/>
 <path fill="none" stroke="rgb(0,69,134)" stroke-linejoin="round" d="M 8950,4363 L 8950,4612 9200,4612 9200,4363 8950,4363 Z"/>
 <path fill="rgb(0,69,134)" stroke="none" d="M 9543,4363 L 9543,4612 9793,4612 9793,4363 9543,4363 Z"/>
 <path fill="none" stroke="rgb(0,69,134)" stroke-linejoin="round" d="M 9543,4363 L 9543,4612 9793,4612 9793,4363 9543,4363 Z"/>
 <path fill="rgb(0,69,134)" stroke="none" d="M 10135,4363 L 10135,4612 10385,4612 10385,4363 10135,4363 Z"/>
 <path fill="none" stroke="rgb(0,69,134)" stroke-linejoin="round" d="M 10135,4363 L 10135,4612 10385,4612 10385,4363 10135,4363 Z"/>
 <path fill="rgb(0,69,134)" stroke="none" d="M 10727,4363 L 10727,4612 10977,4612 10977,4363 10727,4363 Z"/>
 <path fill="none" stroke="rgb(0,69,134)" stroke-linejoin="round" d="M 10727,4363 L 10727,4612 10977,4612 10977,4363 10727,4363 Z"/>
 <path fill="rgb(0,69,134)" stroke="none" d="M 11319,4363 L 11319,4612 11569,4612 11569,4363 11319,4363 Z"/>
 <path fill="none" stroke="rgb(0,69,134)" stroke-linejoin="round" d="M 11319,4363 L 11319,4612 11569,4612 11569,4363 11319,4363 Z"/>
 <path fill="rgb(0,69,134)" stroke="none" d="M 11912,4363 L 11912,4612 12162,4612 12162,4363 11912,4363 Z"/>
 <path fill="none" stroke="rgb(0,69,134)" stroke-linejoin="round" d="M 11912,4363 L 11912,4612 12162,4612 12162,4363 11912,4363 Z"/>
 <path fill="rgb(0,69,134)" stroke="none" d="M 12504,4363 L 12504,4612 12754,4612 12754,4363 12504,4363 Z"/>
 <path fill="none" stroke="rgb(0,69,134)" stroke-linejoin="round" d="M 12504,4363 L 12504,4612 12754,4612 12754,4363 12504,4363 Z"/>
 <path fill="rgb(0,69,134)" stroke="none" d="M 13096,4363 L 13096,4612 13346,4612 13346,4363 13096,4363 Z"/>
 <path fill="none" stroke="rgb(0,69,134)" stroke-linejoin="round" d="M 13096,4363 L 13096,4612 13346,4612 13346,4363 13096,4363 Z"/>
 <path fill="rgb(0,69,134)" stroke="none" d="M 13689,4363 L 13689,4612 13939,4612 13939,4363 13689,4363 Z"/>
 <path fill="none" stroke="rgb(0,69,134)" stroke-linejoin="round" d="M 13689,4363 L 13689,4612 13939,4612 13939,4363 13689,4363 Z"/>
 <path fill="rgb(0,69,134)" stroke="none" d="M 14281,4363 L 14281,4612 14531,4612 14531,4363 14281,4363 Z"/>
 <path fill="none" stroke="rgb(0,69,134)" stroke-linejoin="round" d="M 14281,4363 L 14281,4612 14531,4612 14531,4363 14281,4363 Z"/>
 <path fill="rgb(0,69,134)" stroke="none" d="M 14873,4363 L 14873,4612 15123,4612 15123,4363 14873,4363 Z"/>
 <path fill="none" stroke="rgb(0,69,134)" stroke-linejoin="round" d="M 14873,4363 L 14873,4612 15123,4612 15123,4363 14873,4363 Z"/>
 <path fill="rgb(0,69,134)" stroke="none" d="M 15466,4363 L 15466,4612 15716,4612 15716,4363 15466,4363 Z"/>
 <path fill="none" stroke="rgb(0,69,134)" stroke-linejoin="round" d="M 15466,4363 L 15466,4612 15716,4612 15716,4363 15466,4363 Z"/>
 <path fill="rgb(0,69,134)" stroke="none" d="M 16058,4363 L 16058,4612 16308,4612 16308,4363 16058,4363 Z"/>
 <path fill="none" stroke="rgb(0,69,134)" stroke-linejoin="round" d="M 16058,4363 L 16058,4612 16308,4612 16308,4363 16058,4363 Z"/>
 <path fill="rgb(0,69,134)" stroke="none" d="M 16650,4363 L 16650,4612 16900,4612 16900,4363 16650,4363 Z"/>
 <path fill="none" stroke="rgb(0,69,134)" stroke-linejoin="round" d="M 16650,4363 L 16650,4612 16900,4612 16900,4363 16650,4363 Z"/>
 <path fill="rgb(0,69,134)" stroke="none" d="M 17243,4363 L 17243,4612 17493,4612 17493,4363 17243,4363 Z"/>
 <path fill="none" stroke="rgb(0,69,134)" stroke-linejoin="round" d="M 17243,4363 L 17243,4612 17493,4612 17493,4363 17243,4363 Z"/>
 <path fill="rgb(0,69,134)" stroke="none" d="M 17835,4363 L 17835,4612 18085,4612 18085,4363 17835,4363 Z"/>
 <path fill="none" stroke="rgb(0,69,134)" stroke-linejoin="round" d="M 17835,4363 L 17835,4612 18085,4612 18085,4363 17835,4363 Z"/>
 <path fill="rgb(0,69,134)" stroke="none" d="M 18427,4363 L 18427,4612 18677,4612 18677,4363 18427,4363 Z"/>
 <path fill="none" stroke="rgb(0,69,134)" stroke-linejoin="round" d="M 18427,4363 L 18427,4612 18677,4612 18677,4363 18427,4363 Z"/>
 <path fill="rgb(0,69,134)" stroke="none" d="M 19019,4363 L 19019,4612 19269,4612 19269,4363 19019,4363 Z"/>
 <path fill="none" stroke="rgb(0,69,134)" stroke-linejoin="round" d="M 19019,4363 L 19019,4612 19269,4612 19269,4363 19019,4363 Z"/>
 <path fill="rgb(0,69,134)" stroke="none" d="M 19612,4363 L 19612,4612 19862,4612 19862,4363 19612,4363 Z"/>
 <path fill="none" stroke="rgb(0,69,134)" stroke-linejoin="round" d="M 19612,4363 L 19612,4612 19862,4612 19862,4363 19612,4363 Z"/>
 <path fill="rgb(0,69,134)" stroke="none" d="M 20204,4363 L 20204,4612 20454,4612 20454,4363 20204,4363 Z"/>
 <path fill="none" stroke="rgb(0,69,134)" stroke-linejoin="round" d="M 20204,4363 L 20204,4612 20454,4612 20454,4363 20204,4363 Z"/>
 <path fill="rgb(0,69,134)" stroke="none" d="M 20796,4363 L 20796,4612 21046,4612 21046,4363 20796,4363 Z"/>
 <path fill="none" stroke="rgb(0,69,134)" stroke-linejoin="round" d="M 20796,4363 L 20796,4612 21046,4612 21046,4363 20796,4363 Z"/>
 <path fill="rgb(0,69,134)" stroke="none" d="M 21389,4363 L 21389,4612 21639,4612 21639,4363 21389,4363 Z"/>
 <path fill="none" stroke="rgb(0,69,134)" stroke-linejoin="round" d="M 21389,4363 L 21389,4612 21639,4612 21639,4363 21389,4363 Z"/>
 <path fill="rgb(0,69,134)" stroke="none" d="M 21981,4363 L 21981,4612 22231,4612 22231,4363 21981,4363 Z"/>
 <path fill="none" stroke="rgb(0,69,134)" stroke-linejoin="round" d="M 21981,4363 L 21981,4612 22231,4612 22231,4363 21981,4363 Z"/>
 <path fill="rgb(0,69,134)" stroke="none" d="M 22573,4363 L 22573,4612 22823,4612 22823,4363 22573,4363 Z"/>
 <path fill="none" stroke="rgb(0,69,134)" stroke-linejoin="round" d="M 22573,4363 L 22573,4612 22823,4612 22823,4363 22573,4363 Z"/>
 <path fill="rgb(0,69,134)" stroke="none" d="M 23166,4363 L 23166,4612 23416,4612 23416,4363 23166,4363 Z"/>
 <path fill="none" stroke="rgb(0,69,134)" stroke-linejoin="round" d="M 23166,4363 L 23166,4612 23416,4612 23416,4363 23166,4363 Z"/>
 <path fill="rgb(0,69,134)" stroke="none" d="M 23758,4363 L 23758,4612 24008,4612 24008,4363 23758,4363 Z"/>
 <path fill="none" stroke="rgb(0,69,134)" stroke-linejoin="round" d="M 23758,4363 L 23758,4612 24008,4612 24008,4363 23758,4363 Z"/>
 <path fill="rgb(0,69,134)" stroke="none" d="M 24350,4363 L 24350,4612 24600,4612 24600,4363 24350,4363 Z"/>
 <path fill="none" stroke="rgb(0,69,134)" stroke-linejoin="round" d="M 24350,4363 L 24350,4612 24600,4612 24600,4363 24350,4363 Z"/>
 <path fill="rgb(0,69,134)" stroke="none" d="M 24943,4363 L 24943,4612 25193,4612 25193,4363 24943,4363 Z"/>
 <path fill="none" stroke="rgb(0,69,134)" stroke-linejoin="round" d="M 24943,4363 L 24943,4612 25193,4612 25193,4363 24943,4363 Z"/>
 <path fill="rgb(0,69,134)" stroke="none" d="M 25535,4363 L 25535,4612 25785,4612 25785,4363 25535,4363 Z"/>
 <path fill="none" stroke="rgb(0,69,134)" stroke-linejoin="round" d="M 25535,4363 L 25535,4612 25785,4612 25785,4363 25535,4363 Z"/>
 <path fill="rgb(0,69,134)" stroke="none" d="M 26127,4363 L 26127,4612 26377,4612 26377,4363 26127,4363 Z"/>
 <path fill="none" stroke="rgb(0,69,134)" stroke-linejoin="round" d="M 26127,4363 L 26127,4612 26377,4612 26377,4363 26127,4363 Z"/>
 <path fill="rgb(0,69,134)" stroke="none" d="M 26720,4363 L 26720,4612 26970,4612 26970,4363 26720,4363 Z"/>
 <path fill="none" stroke="rgb(0,69,134)" stroke-linejoin="round" d="M 26720,4363 L 26720,4612 26970,4612 26970,4363 26720,4363 Z"/>
 <path fill="rgb(0,69,134)" stroke="none" d="M 27312,4363 L 27312,4612 27562,4612 27562,4363 27312,4363 Z"/>
 <path fill="none" stroke="rgb(0,69,134)" stroke-linejoin="round" d="M 27312,4363 L 27312,4612 27562,4612 27562,4363 27312,4363 Z"/>
 <path fill="rgb(0,69,134)" stroke="none" d="M 27904,4363 L 27904,4612 28154,4612 28154,4363 27904,4363 Z"/>
 <path fill="none" stroke="rgb(0,69,134)" stroke-linejoin="round" d="M 27904,4363 L 27904,4612 28154,4612 28154,4363 27904,4363 Z"/>
 <path fill="rgb(0,69,134)" stroke="none" d="M 28496,4363 L 28496,4612 28746,4612 28746,4363 28496,4363 Z"/>
 <path fill="none" stroke="rgb(0,69,134)" stroke-linejoin="round" d="M 28496,4363 L 28496,4612 28746,4612 28746,4363 28496,4363 Z"/>
 <path fill="rgb(0,69,134)" stroke="none" d="M 29089,4363 L 29089,4612 29339,4612 29339,4363 29089,4363 Z"/>
 <path fill="none" stroke="rgb(0,69,134)" stroke-linejoin="round" d="M 29089,4363 L 29089,4612 29339,4612 29339,4363 29089,4363 Z"/>
 <path fill="rgb(0,69,134)" stroke="none" d="M 29681,4363 L 29681,4612 29931,4612 29931,4363 29681,4363 Z"/>
 <path fill="none" stroke="rgb(0,69,134)" stroke-linejoin="round" d="M 29681,4363 L 29681,4612 29931,4612 29931,4363 29681,4363 Z"/>
 <path fill="rgb(0,69,134)" stroke="none" d="M 30273,4363 L 30273,4612 30523,4612 30523,4363 30273,4363 Z"/>
 <path fill="none" stroke="rgb(0,69,134)" stroke-linejoin="round" d="M 30273,4363 L 30273,4612 30523,4612 30523,4363 30273,4363 Z"/>
 <path fill="rgb(0,69,134)" stroke="none" d="M 30866,4363 L 30866,4612 31116,4612 31116,4363 30866,4363 Z"/>
 <path fill="none" stroke="rgb(0,69,134)" stroke-linejoin="round" d="M 30866,4363 L 30866,4612 31116,4612 31116,4363 30866,4363 Z"/>
 <path fill="rgb(0,69,134)" stroke="none" d="M 31457,4363 L 31457,4612 31707,4612 31707,4363 31457,4363 Z"/>
 <path fill="none" stroke="rgb(0,69,134)" stroke-linejoin="round" d="M 31457,4363 L 31457,4612 31707,4612 31707,4363 31457,4363 Z"/>
 <path fill="rgb(0,69,134)" stroke="none" d="M 32049,4363 L 32049,4612 32299,4612 32299,4363 32049,4363 Z"/>
 <path fill="none" stroke="rgb(0,69,134)" stroke-linejoin="round" d="M 32049,4363 L 32049,4612 32299,4612 32299,4363 32049,4363 Z"/>
 <path fill="rgb(0,69,134)" stroke="none" d="M 32642,4363 L 32642,4612 32892,4612 32892,4363 32642,4363 Z"/>
 <path fill="none" stroke="rgb(0,69,134)" stroke-linejoin="round" d="M 32642,4363 L 32642,4612 32892,4612 32892,4363 32642,4363 Z"/>
 <path fill="rgb(0,69,134)" stroke="none" d="M 33234,4363 L 33234,4612 33484,4612 33484,4363 33234,4363 Z"/>
 <path fill="none" stroke="rgb(0,69,134)" stroke-linejoin="round" d="M 33234,4363 L 33234,4612 33484,4612 33484,4363 33234,4363 Z"/>
 <path fill="rgb(0,69,134)" stroke="none" d="M 33826,4363 L 33826,4612 34076,4612 34076,4363 33826,4363 Z"/>
 <path fill="none" stroke="rgb(0,69,134)" stroke-linejoin="round" d="M 33826,4363 L 33826,4612 34076,4612 34076,4363 33826,4363 Z"/>
 <path fill="rgb(0,69,134)" stroke="none" d="M 34419,4363 L 34419,4612 34669,4612 34669,4363 34419,4363 Z"/>
 <path fill="none" stroke="rgb(0,69,134)" stroke-linejoin="round" d="M 34419,4363 L 34419,4612 34669,4612 34669,4363 34419,4363 Z"/>
 <path fill="rgb(0,69,134)" stroke="none" d="M 35011,4363 L 35011,4612 35261,4612 35261,4363 35011,4363 Z"/>
 <path fill="none" stroke="rgb(0,69,134)" stroke-linejoin="round" d="M 35011,4363 L 35011,4612 35261,4612 35261,4363 35011,4363 Z"/>
 <path fill="rgb(0,69,134)" stroke="none" d="M 35603,4363 L 35603,4612 35853,4612 35853,4363 35603,4363 Z"/>
 <path fill="none" stroke="rgb(0,69,134)" stroke-linejoin="round" d="M 35603,4363 L 35603,4612 35853,4612 35853,4363 35603,4363 Z"/>
 <path fill="rgb(0,69,134)" stroke="none" d="M 36195,4363 L 36195,4612 36445,4612 36445,4363 36195,4363 Z"/>
 <path fill="none" stroke="rgb(0,69,134)" stroke-linejoin="round" d="M 36195,4363 L 36195,4612 36445,4612 36445,4363 36195,4363 Z"/>
 <path fill="rgb(0,69,134)" stroke="none" d="M 36788,4363 L 36788,4612 37038,4612 37038,4363 36788,4363 Z"/>
 <path fill="none" stroke="rgb(0,69,134)" stroke-linejoin="round" d="M 36788,4363 L 36788,4612 37038,4612 37038,4363 36788,4363 Z"/>
 <path fill="rgb(0,69,134)" stroke="none" d="M 37380,4363 L 37380,4612 37630,4612 37630,4363 37380,4363 Z"/>
 <path fill="none" stroke="rgb(0,69,134)" stroke-linejoin="round" d="M 37380,4363 L 37380,4612 37630,4612 37630,4363 37380,4363 Z"/>
 <path fill="rgb(0,69,134)" stroke="none" d="M 37972,4363 L 37972,4612 38222,4612 38222,4363 37972,4363 Z"/>
 <path fill="none" stroke="rgb(0,69,134)" stroke-linejoin="round" d="M 37972,4363 L 37972,4612 38222,4612 38222,4363 37972,4363 Z"/>
 <path fill="rgb(0,69,134)" stroke="none" d="M 38565,4363 L 38565,4612 38815,4612 38815,4363 38565,4363 Z"/>
 <path fill="none" stroke="rgb(0,69,134)" stroke-linejoin="round" d="M 38565,4363 L 38565,4612 38815,4612 38815,4363 38565,4363 Z"/>
 <path fill="rgb(0,69,134)" stroke="none" d="M 39157,4363 L 39157,4612 39407,4612 39407,4363 39157,4363 Z"/>
 <path fill="none" stroke="rgb(0,69,134)" stroke-linejoin="round" d="M 39157,4363 L 39157,4612 39407,4612 39407,4363 39157,4363 Z"/>
 <path fill="rgb(0,69,134)" stroke="none" d="M 39749,4363 L 39749,4612 39999,4612 39999,4363 39749,4363 Z"/>
 <path fill="none" stroke="rgb(0,69,134)" stroke-linejoin="round" d="M 39749,4363 L 39749,4612 39999,4612 39999,4363 39749,4363 Z"/>
 <path fill="rgb(0,69,134)" stroke="none" d="M 40342,4363 L 40342,4612 40592,4612 40592,4363 40342,4363 Z"/>
 <path fill="none" stroke="rgb(0,69,134)" stroke-linejoin="round" d="M 40342,4363 L 40342,4612 40592,4612 40592,4363 40342,4363 Z"/>
 <path fill="rgb(0,69,134)" stroke="none" d="M 40934,4363 L 40934,4612 41184,4612 41184,4363 40934,4363 Z"/>
 <path fill="none" stroke="rgb(0,69,134)" stroke-linejoin="round" d="M 40934,4363 L 40934,4612 41184,4612 41184,4363 40934,4363 Z"/>
 <path fill="rgb(0,69,134)" stroke="none" d="M 41526,4363 L 41526,4612 41776,4612 41776,4363 41526,4363 Z"/>
 <path fill="none" stroke="rgb(0,69,134)" stroke-linejoin="round" d="M 41526,4363 L 41526,4612 41776,4612 41776,4363 41526,4363 Z"/>
 <path fill="rgb(0,69,134)" stroke="none" d="M 42119,4363 L 42119,4612 42369,4612 42369,4363 42119,4363 Z"/>
 <path fill="none" stroke="rgb(0,69,134)" stroke-linejoin="round" d="M 42119,4363 L 42119,4612 42369,4612 42369,4363 42119,4363 Z"/>
 <path fill="rgb(0,69,134)" stroke="none" d="M 42711,4363 L 42711,4612 42961,4612 42961,4363 42711,4363 Z"/>
 <path fill="none" stroke="rgb(0,69,134)" stroke-linejoin="round" d="M 42711,4363 L 42711,4612 42961,4612 42961,4363 42711,4363 Z"/>
 <path fill="rgb(0,69,134)" stroke="none" d="M 43303,4363 L 43303,4612 43553,4612 43553,4363 43303,4363 Z"/>
 <path fill="none" stroke="rgb(0,69,134)" stroke-linejoin="round" d="M 43303,4363 L 43303,4612 43553,4612 43553,4363 43303,4363 Z"/>
 <path fill="rgb(0,69,134)" stroke="none" d="M 43896,4363 L 43896,4612 44146,4612 44146,4363 43896,4363 Z"/>
 <path fill="none" stroke="rgb(0,69,134)" stroke-linejoin="round" d="M 43896,4363 L 43896,4612 44146,4612 44146,4363 43896,4363 Z"/>
 <path fill="rgb(0,69,134)" stroke="none" d="M 44488,4363 L 44488,4612 44738,4612 44738,4363 44488,4363 Z"/>
 <path fill="none" stroke="rgb(0,69,134)" stroke-linejoin="round" d="M 44488,4363 L 44488,4612 44738,4612 44738,4363 44488,4363 Z"/>
 <path fill="rgb(0,69,134)" stroke="none" d="M 45080,4363 L 45080,4612 45330,4612 45330,4363 45080,4363 Z"/>
 <path fill="none" stroke="rgb(0,69,134)" stroke-linejoin="round" d="M 45080,4363 L 45080,4612 45330,4612 45330,4363 45080,4363 Z"/>
 <path fill="rgb(0,69,134)" stroke="none" d="M 45672,4363 L 45672,4612 45922,4612 45922,4363 45672,4363 Z"/>
 <path fill="none" stroke="rgb(0,69,134)" stroke-linejoin="round" d="M 45672,4363 L 45672,4612 45922,4612 45922,4363 45672,4363 Z"/>
 <path fill="rgb(0,69,134)" stroke="none" d="M 46265,4363 L 46265,4612 46515,4612 46515,4363 46265,4363 Z"/>
 <path fill="none" stroke="rgb(0,69,134)" stroke-linejoin="round" d="M 46265,4363 L 46265,4612 46515,4612 46515,4363 46265,4363 Z"/>
 <path fill="rgb(0,69,134)" stroke="none" d="M 46857,4363 L 46857,4612 47107,4612 47107,4363 46857,4363 Z"/>
 <path fill="none" stroke="rgb(0,69,134)" stroke-linejoin="round" d="M 46857,4363 L 46857,4612 47107,4612 47107,4363 46857,4363 Z"/>
 <path fill="rgb(0,69,134)" stroke="none" d="M 47449,4363 L 47449,4612 47699,4612 47699,4363 47449,4363 Z"/>
 <path fill="none" stroke="rgb(0,69,134)" stroke-linejoin="round" d="M 47449,4363 L 47449,4612 47699,4612 47699,4363 47449,4363 Z"/>
 <path fill="rgb(0,69,134)" stroke="none" d="M 48042,4363 L 48042,4612 48292,4612 48292,4363 48042,4363 Z"/>
 <path fill="none" stroke="rgb(0,69,134)" stroke-linejoin="round" d="M 48042,4363 L 48042,4612 48292,4612 48292,4363 48042,4363 Z"/>
 <path fill="rgb(0,69,134)" stroke="none" d="M 48634,4363 L 48634,4612 48884,4612 48884,4363 48634,4363 Z"/>
 <path fill="none" stroke="rgb(0,69,134)" stroke-linejoin="round" d="M 48634,4363 L 48634,4612 48884,4612 48884,4363 48634,4363 Z"/>
 <path fill="rgb(0,69,134)" stroke="none" d="M 49226,4363 L 49226,4612 49476,4612 49476,4363 49226,4363 Z"/>
 <path fill="none" stroke="rgb(0,69,134)" stroke-linejoin="round" d="M 49226,4363 L 49226,4612 49476,4612 49476,4363 49226,4363 Z"/>
 <path fill="rgb(0,69,134)" stroke="none" d="M 49819,4363 L 49819,4612 50069,4612 50069,4363 49819,4363 Z"/>
 <path fill="none" stroke="rgb(0,69,134)" stroke-linejoin="round" d="M 49819,4363 L 49819,4612 50069,4612 50069,4363 49819,4363 Z"/>
 <path fill="rgb(0,69,134)" stroke="none" d="M 50411,4363 L 50411,4612 50661,4612 50661,4363 50411,4363 Z"/>
 <path fill="none" stroke="rgb(0,69,134)" stroke-linejoin="round" d="M 50411,4363 L 50411,4612 50661,4612 50661,4363 50411,4363 Z"/>
 <path fill="rgb(0,69,134)" stroke="none" d="M 51003,4363 L 51003,4612 51253,4612 51253,4363 51003,4363 Z"/>
 <path fill="none" stroke="rgb(0,69,134)" stroke-linejoin="round" d="M 51003,4363 L 51003,4612 51253,4612 51253,4363 51003,4363 Z"/>
 <path fill="rgb(0,69,134)" stroke="none" d="M 51596,4363 L 51596,4612 51846,4612 51846,4363 51596,4363 Z"/>
 <path fill="none" stroke="rgb(0,69,134)" stroke-linejoin="round" d="M 51596,4363 L 51596,4612 51846,4612 51846,4363 51596,4363 Z"/>
 <path fill="rgb(0,69,134)" stroke="none" d="M 52188,4363 L 52188,4612 52438,4612 52438,4363 52188,4363 Z"/>
 <path fill="none" stroke="rgb(0,69,134)" stroke-linejoin="round" d="M 52188,4363 L 52188,4612 52438,4612 52438,4363 52188,4363 Z"/>
 <path fill="rgb(0,69,134)" stroke="none" d="M 52780,4363 L 52780,4612 53030,4612 53030,4363 52780,4363 Z"/>
 <path fill="none" stroke="rgb(0,69,134)" stroke-linejoin="round" d="M 52780,4363 L 52780,4612 53030,4612 53030,4363 52780,4363 Z"/>
 <path fill="rgb(0,69,134)" stroke="none" d="M 53372,4363 L 53372,4612 53622,4612 53622,4363 53372,4363 Z"/>
 <path fill="none" stroke="rgb(0,69,134)" stroke-linejoin="round" d="M 53372,4363 L 53372,4612 53622,4612 53622,4363 53372,4363 Z"/>
 <path fill="rgb(0,69,134)" stroke="none" d="M 53965,4363 L 53965,4612 54215,4612 54215,4363 53965,4363 Z"/>
 <path fill="none" stroke="rgb(0,69,134)" stroke-linejoin="round" d="M 53965,4363 L 53965,4612 54215,4612 54215,4363 53965,4363 Z"/>
 <path fill="rgb(0,69,134)" stroke="none" d="M 54557,4363 L 54557,4612 54807,4612 54807,4363 54557,4363 Z"/>
 <path fill="none" stroke="rgb(0,69,134)" stroke-linejoin="round" d="M 54557,4363 L 54557,4612 54807,4612 54807,4363 54557,4363 Z"/>
 <path fill="rgb(0,69,134)" stroke="none" d="M 55149,4363 L 55149,4612 55399,4612 55399,4363 55149,4363 Z"/>
 <path fill="none" stroke="rgb(0,69,134)" stroke-linejoin="round" d="M 55149,4363 L 55149,4612 55399,4612 55399,4363 55149,4363 Z"/>
 <path fill="rgb(0,69,134)" stroke="none" d="M 55742,4363 L 55742,4612 55992,4612 55992,4363 55742,4363 Z"/>
 <path fill="none" stroke="rgb(0,69,134)" stroke-linejoin="round" d="M 55742,4363 L 55742,4612 55992,4612 55992,4363 55742,4363 Z"/>
 <path fill="rgb(0,69,134)" stroke="none" d="M 56334,4363 L 56334,4612 56584,4612 56584,4363 56334,4363 Z"/>
 <path fill="none" stroke="rgb(0,69,134)" stroke-linejoin="round" d="M 56334,4363 L 56334,4612 56584,4612 56584,4363 56334,4363 Z"/>
 <path fill="rgb(0,69,134)" stroke="none" d="M 56926,4363 L 56926,4612 57176,4612 57176,4363 56926,4363 Z"/>
 <path fill="none" stroke="rgb(0,69,134)" stroke-linejoin="round" d="M 56926,4363 L 56926,4612 57176,4612 57176,4363 56926,4363 Z"/>
 <path fill="rgb(0,69,134)" stroke="none" d="M 57519,4363 L 57519,4612 57769,4612 57769,4363 57519,4363 Z"/>
 <path fill="none" stroke="rgb(0,69,134)" stroke-linejoin="round" d="M 57519,4363 L 57519,4612 57769,4612 57769,4363 57519,4363 Z"/>
 <path fill="rgb(0,69,134)" stroke="none" d="M 58111,927 L 58111,1177 58361,1177 58361,927 58111,927 Z"/>
 <path fill="none" stroke="rgb(0,69,134)" stroke-linejoin="round" d="M 58111,927 L 58111,1177 58361,1177 58361,927 58111,927 Z"/>
 <path fill="rgb(0,69,134)" stroke="none" d="M 58703,4363 L 58703,4612 58953,4612 58953,4363 58703,4363 Z"/>
 <path fill="none" stroke="rgb(0,69,134)" stroke-linejoin="round" d="M 58703,4363 L 58703,4612 58953,4612 58953,4363 58703,4363 Z"/>
 <path fill="rgb(0,69,134)" stroke="none" d="M 59296,4363 L 59296,4612 59546,4612 59546,4363 59296,4363 Z"/>
 <path fill="none" stroke="rgb(0,69,134)" stroke-linejoin="round" d="M 59296,4363 L 59296,4612 59546,4612 59546,4363 59296,4363 Z"/>
 <path fill="rgb(0,69,134)" stroke="none" d="M 59888,4363 L 59888,4612 60138,4612 60138,4363 59888,4363 Z"/>
 <path fill="none" stroke="rgb(0,69,134)" stroke-linejoin="round" d="M 59888,4363 L 59888,4612 60138,4612 60138,4363 59888,4363 Z"/>
 <path fill="rgb(0,69,134)" stroke="none" d="M 60480,4363 L 60480,4612 60730,4612 60730,4363 60480,4363 Z"/>
 <path fill="none" stroke="rgb(0,69,134)" stroke-linejoin="round" d="M 60480,4363 L 60480,4612 60730,4612 60730,4363 60480,4363 Z"/>
 <text class="SVGTextShape"><tspan class="TextParagraph" font-family="Liberation Sans, sans-serif" font-size="353px" font-weight="400"><tspan class="TextPosition" x="1875" y="5055"><tspan fill="rgb(0,0,0)" stroke="none" style="white-space: pre">0</tspan></tspan></tspan></text>
 <text class="SVGTextShape"><tspan class="TextParagraph" font-family="Liberation Sans, sans-serif" font-size="353px" font-weight="400"><tspan class="TextPosition" x="7706" y="5055"><tspan fill="rgb(0,0,0)" stroke="none" style="white-space: pre">10</tspan></tspan></tspan></text>
 <text class="SVGTextShape"><tspan class="TextParagraph" font-family="Liberation Sans, sans-serif" font-size="353px" font-weight="400"><tspan class="TextPosition" x="13629" y="5055"><tspan fill="rgb(0,0,0)" stroke="none" style="white-space: pre">20</tspan></tspan></tspan></text>
 <text class="SVGTextShape"><tspan class="TextParagraph" font-family="Liberation Sans, sans-serif" font-size="353px" font-weight="400"><tspan class="TextPosition" x="19552" y="5055"><tspan fill="rgb(0,0,0)" stroke="none" style="white-space: pre">30</tspan></tspan></tspan></text>
 <text class="SVGTextShape"><tspan class="TextParagraph" font-family="Liberation Sans, sans-serif" font-size="353px" font-weight="400"><tspan class="TextPosition" x="25475" y="5055"><tspan fill="rgb(0,0,0)" stroke="none" style="white-space: pre">40</tspan></tspan></tspan></text>
 <text class="SVGTextShape"><tspan class="TextParagraph" font-family="Liberation Sans, sans-serif" font-size="353px" font-weight="400"><tspan class="TextPosition" x="31398" y="5055"><tspan fill="rgb(0,0,0)" stroke="none" style="white-space: pre">50</tspan></tspan></tspan></text>
 <text class="SVGTextShape"><tspan class="TextParagraph" font-family="Liberation Sans, sans-serif" font-size="353px" font-weight="400"><tspan class="TextPosition" x="37321" y="5055"><tspan fill="rgb(0,0,0)" stroke="none" style="white-space: pre">60</tspan></tspan></tspan></text>
 <text class="SVGTextShape"><tspan class="TextParagraph" font-family="Liberation Sans, sans-serif" font-size="353px" font-weight="400"><tspan class="TextPosition" x="43244" y="5055"><tspan fill="rgb(0,0,0)" stroke="none" style="white-space: pre">70</tspan></tspan></tspan></text>
 <text class="SVGTextShape"><tspan class="TextParagraph" font-family="Liberation Sans, sans-serif" font-size="353px" font-weight="400"><tspan class="TextPosition" x="49167" y="5055"><tspan fill="rgb(0,0,0)" stroke="none" style="white-space: pre">80</tspan></tspan></tspan></text>
 <text class="SVGTextShape"><tspan class="TextParagraph" font-family="Liberation Sans, sans-serif" font-size="353px" font-weight="400"><tspan class="TextPosition" x="55090" y="5055"><tspan fill="rgb(0,0,0)" stroke="none" style="white-space: pre">90</tspan></tspan></tspan></text>
 <text class="SVGTextShape"><tspan class="TextParagraph" font-family="Liberation Sans, sans-serif" font-size="353px" font-weight="400"><tspan class="TextPosition" x="60920" y="5055"><tspan fill="rgb(0,0,0)" stroke="none" style="white-space: pre">100</tspan></tspan></tspan></text>
 <text class="SVGTextShape"><tspan class="TextParagraph" font-family="Liberation Sans, sans-serif" font-size="353px" font-weight="400"><tspan class="TextPosition" x="1242" y="8732"><tspan fill="rgb(0,0,0)" stroke="none" style="white-space: pre">-60</tspan></tspan></tspan></text>
 <text class="SVGTextShape"><tspan class="TextParagraph" font-family="Liberation Sans, sans-serif" font-size="353px" font-weight="400"><tspan class="TextPosition" x="1242" y="7357"><tspan fill="rgb(0,0,0)" stroke="none" style="white-space: pre">-40</tspan></tspan></tspan></text>
 <text class="SVGTextShape"><tspan class="TextParagraph" font-family="Liberation Sans, sans-serif" font-size="353px" font-weight="400"><tspan class="TextPosition" x="1242" y="5983"><tspan fill="rgb(0,0,0)" stroke="none" style="white-space: pre">-20</tspan></tspan></tspan></text>
 <text class="SVGTextShape"><tspan class="TextParagraph" font-family="Liberation Sans, sans-serif" font-size="353px" font-weight="400"><tspan class="TextPosition" x="1533" y="4608"><tspan fill="rgb(0,0,0)" stroke="none" style="white-space: pre">0</tspan></tspan></tspan></text>
 <text class="SVGTextShape"><tspan class="TextParagraph" font-family="Liberation Sans, sans-serif" font-size="353px" font-weight="400"><tspan class="TextPosition" x="1348" y="3234"><tspan fill="rgb(0,0,0)" stroke="none" style="white-space: pre">20</tspan></tspan></tspan></text>
 <text class="SVGTextShape"><tspan class="TextParagraph" font-family="Liberation Sans, sans-serif" font-size="353px" font-weight="400"><tspan class="TextPosition" x="1348" y="1859"><tspan fill="rgb(0,0,0)" stroke="none" style="white-space: pre">40</tspan></tspan></tspan></text>
 <text class="SVGTextShape"><tspan class="TextParagraph" font-family="Liberation Sans, sans-serif" font-size="353px" font-weight="400"><tspan class="TextPosition" x="1348" y="485"><tspan fill="rgb(0,0,0)" stroke="none" style="white-space: pre">60</tspan></tspan></tspan></text>
</svg>