<?xml version="1.0" encoding="UTF-8"?>
<!DOCTYPE svg PUBLIC "-//W3C//DTD SVG 1.1//EN" "http://www.w3.org/Graphics/SVG/1.1/DTD/svg11.dtd">
<svg width="584mm" height="90mm" viewBox="0 0 58400 9000" version="1.1" xmlns="http://www.w3.org/2000/svg" xmlns:xlink="http://www.w3.org/1999/xlink" stroke-width="28.222" stroke-linejoin="round" xml:space="preserve">
 <path fill="rgb(255,255,255)" stroke="none" d="M 29156,8991 L -13,8991 -13,-13 58324,-13 58324,8991 29156,8991 Z"/>
 <path fill="none" stroke="rgb(179,179,179)" stroke-linejoin="round" d="M 29789,8612 L 2700,8612 2700,366 56878,366 56878,8612 29789,8612 Z"/>
 <path fill="none" stroke="rgb(179,179,179)" stroke-linejoin="round" d="M 56878,8611 L 2700,8611"/>
 <path fill="none" stroke="rgb(179,179,179)" stroke-linejoin="round" d="M 56878,7694 L 2700,7694"/>
 <path fill="none" stroke="rgb(179,179,179)" stroke-linejoin="round" d="M 56878,6778 L 2700,6778"/>
 <path fill="none" stroke="rgb(179,179,179)" stroke-linejoin="round" d="M 56878,5862 L 2700,5862"/>
 <path fill="none" stroke="rgb(179,179,179)" stroke-linejoin="round" d="M 56878,4945 L 2700,4945"/>
 <path fill="none" stroke="rgb(179,179,179)" stroke-linejoin="round" d="M 56878,4030 L 2700,4030"/>
 <path fill="none" stroke="rgb(179,179,179)" stroke-linejoin="round" d="M 56878,3114 L 2700,3114"/>
 <path fill="none" stroke="rgb(179,179,179)" stroke-linejoin="round" d="M 56878,2197 L 2700,2197"/>
 <path fill="none" stroke="rgb(179,179,179)" stroke-linejoin="round" d="M 56878,1281 L 2700,1281"/>
 <path fill="none" stroke="rgb(179,179,179)" stroke-linejoin="round" d="M 56878,364 L 2700,364"/>
 <path fill="none" stroke="rgb(179,179,179)" stroke-linejoin="round" d="M 2700,4180 L 2700,4030"/>
 <path fill="none" stroke="rgb(179,179,179)" stroke-linejoin="round" d="M 2700,4180 L 2700,4030"/>
 <path fill="none" stroke="rgb(179,179,179)" stroke-linejoin="round" d="M 8117,4180 L 8117,4030"/>
 <path fill="none" stroke="rgb(179,179,179)" stroke-linejoin="round" d="M 8117,4180 L 8117,4030"/>
 <path fill="none" stroke="rgb(179,179,179)" stroke-linejoin="round" d="M 13535,4180 L 13535,4030"/>
 <path fill="none" stroke="rgb(179,179,179)" stroke-linejoin="round" d="M 13535,4180 L 13535,4030"/>
 <path fill="none" stroke="rgb(179,179,179)" stroke-linejoin="round" d="M 18953,4180 L 18953,4030"/>
 <path fill="none" stroke="rgb(179,179,179)" stroke-linejoin="round" d="M 18953,4180 L 18953,4030"/>
 <path fill="none" stroke="rgb(179,179,179)" stroke-linejoin="round" d="M 24371,4180 L 24371,4030"/>
 <path fill="none" stroke="rgb(179,179,179)" stroke-linejoin="round" d="M 24371,4180 L 24371,4030"/>
 <path fill="none" stroke="rgb(179,179,179)" stroke-linejoin="round" d="M 29788,4180 L 29788,4030"/>
 <path fill="none" stroke="rgb(179,179,179)" stroke-linejoin="round" d="M 29788,4180 L 29788,4030"/>
 <path fill="none" stroke="rgb(179,179,179)" stroke-linejoin="round" d="M 35206,4180 L 35206,4030"/>
 <path fill="none" stroke="rgb(179,179,179)" stroke-linejoin="round" d="M 35206,4180 L 35206,4030"/>
 <path fill="none" stroke="rgb(179,179,179)" stroke-linejoin="round" d="M 40624,4180 L 40624,4030"/>
 <path fill="none" stroke="rgb(179,179,179)" stroke-linejoin="round" d="M 40624,4180 L 40624,4030"/>
 <path fill="none" stroke="rgb(179,179,179)" stroke-linejoin="round" d="M 46042,4180 L 46042,4030"/>
 <path fill="none" stroke="rgb(179,179,179)" stroke-linejoin="round" d="M 46042,4180 L 46042,4030"/>
 <path fill="none" stroke="rgb(179,179,179)" stroke-linejoin="round" d="M 51460,4180 L 51460,4030"/>
 <path fill="none" stroke="rgb(179,179,179)" stroke-linejoin="round" d="M 51460,4180 L 51460,4030"/>
 <path fill="none" stroke="rgb(179,179,179)" stroke-linejoin="round" d="M 56878,4180 L 56878,4030"/>
 <path fill="none" stroke="rgb(179,179,179)" stroke-linejoin="round" d="M 56878,4180 L 56878,4030"/>
 <path fill="none" stroke="rgb(179,179,179)" stroke-linejoin="round" d="M 2700,4030 L 56878,4030"/>
 <path fill="none" stroke="rgb(179,179,179)" stroke-linejoin="round" d="M 2550,8611 L 2700,8611"/>
 <path fill="none" stroke="rgb(179,179,179)" stroke-linejoin="round" d="M 2550,8611 L 2700,8611"/>
 <path fill="none" stroke="rgb(179,179,179)" stroke-linejoin="round" d="M 2550,7694 L 2700,7694"/>
 <path fill="none" stroke="rgb(179,179,179)" stroke-linejoin="round" d="M 2550,7694 L 2700,7694"/>
 <path fill="none" stroke="rgb(179,179,179)" stroke-linejoin="round" d="M 2550,6778 L 2700,6778"/>
 <path fill="none" stroke="rgb(179,179,179)" stroke-linejoin="round" d="M 2550,6778 L 2700,6778"/>
 <path fill="none" stroke="rgb(179,179,179)" stroke-linejoin="round" d="M 2550,5862 L 2700,5862"/>
 <path fill="none" stroke="rgb(179,179,179)" stroke-linejoin="round" d="M 2550,5862 L 2700,5862"/>
 <path fill="none" stroke="rgb(179,179,179)" stroke-linejoin="round" d="M 2550,4945 L 2700,4945"/>
 <path fill="none" stroke="rgb(179,179,179)" stroke-linejoin="round" d="M 2550,4945 L 2700,4945"/>
 <path fill="none" stroke="rgb(179,179,179)" stroke-linejoin="round" d="M 2550,4030 L 2700,4030"/>
 <path fill="none" stroke="rgb(179,179,179)" stroke-linejoin="round" d="M 2550,4030 L 2700,4030"/>
 <path fill="none" stroke="rgb(179,179,179)" stroke-linejoin="round" d="M 2550,3114 L 2700,3114"/>
 <path fill="none" stroke="rgb(179,179,179)" stroke-linejoin="round" d="M 2550,3114 L 2700,3114"/>
 <path fill="none" stroke="rgb(179,179,179)" stroke-linejoin="round" d="M 2550,2197 L 2700,2197"/>
 <path fill="none" stroke="rgb(179,179,179)" stroke-linejoin="round" d="M 2550,2197 L 2700,2197"/>
 <path fill="none" stroke="rgb(179,179,179)" stroke-linejoin="round" d="M 2550,1281 L 2700,1281"/>
 <path fill="none" stroke="rgb(179,179,179)" stroke-linejoin="round" d="M 2550,1281 L 2700,1281"/>
 <path fill="none" stroke="rgb(179,179,179)" stroke-linejoin="round" d="M 2550,365 L 2700,365"/>
 <path fill="none" stroke="rgb(179,179,179)" stroke-linejoin="round" d="M 2550,365 L 2700,365"/>
 <path fill="none" stroke="rgb(179,179,179)" stroke-linejoin="round" d="M 2700,8611 L 2700,365"/>
 <path fill="none" stroke="rgb(0,69,134)" stroke-width="80" stroke-linejoin="round" d="M 2700,3367 L 3241,3200 3783,3369 4325,4703 4867,7934 5408,4316 5950,4760 6492,2319 7034,3123 7576,4787 8117,2140 8659,4416 9201,5035 9743,3438 10285,3338 10826,1622 11368,3214 11910,4612 12452,5017 12994,5074 13535,4203 14077,3641 14619,3577 15161,2184 15702,3686 16244,4240 16786,4850 17328,3880 17870,3844 18411,4441 18953,4664 19495,3286 20037,2457 20579,5377 21120,2615 21662,3929 22204,5379 22746,4127 23288,3892 23829,2708 24371,3497 24913,5903 25455,3386 25996,4119 26538,4959 27080,4067 27622,4911 28164,4151 28705,4542 29246,3956 29788,5156 30330,3956 30872,4542 31413,4151 31955,4719 32497,4067 33039,4354 33581,4119 34122,3386 34664,5903 35206,3497 35748,2708 36289,3892 36831,4127 37373,4959 37915,3929 38457,2912 38998,5377 39540,2457 40082,3286 40624,4664 41166,4441 41707,3844 42249,3880 42791,4899 43333,4240 43875,4227 44416,2184 44958,3577 45500,3641 46042,4203 46583,5074 47125,5017 47667,4612 48209,3686 48751,1622 49292,3519 49834,3438 50376,5035 50918,4416 51460,2140 52001,4787 52543,3123 53085,2319 53627,5177 54169,4316 54710,7848 55252,4703 55794,3369 56336,3200"/>
 <path fill="rgb(0,69,134)" stroke="none" d="M 2575,3242 L 2575,3492 2825,3492 2825,3242 2575,3242 Z"/>
 <path fill="none" stroke="rgb(0,69,134)" stroke-linejoin="round" d="M 2575,3242 L 2575,3492 2825,3492 2825,3242 2575,3242 Z"/>
 <path fill="rgb(0,69,134)" stroke="none" d="M 3116,3075 L 3116,3325 3366,3325 3366,3075 3116,3075 Z"/>
 <path fill="none" stroke="rgb(0,69,134)" stroke-linejoin="round" d="M 3116,3075 L 3116,3325 3366,3325 3366,3075 3116,3075 Z"/>
 <path fill="rgb(0,69,134)" stroke="none" d="M 3658,3244 L 3658,3494 3908,3494 3908,3244 3658,3244 Z"/>
 <path fill="none" stroke="rgb(0,69,134)" stroke-linejoin="round" d="M 3658,3244 L 3658,3494 3908,3494 3908,3244 3658,3244 Z"/>
 <path fill="rgb(0,69,134)" stroke="none" d="M 4200,4578 L 4200,4828 4450,4828 4450,4578 4200,4578 Z"/>
 <path fill="none" stroke="rgb(0,69,134)" stroke-linejoin="round" d="M 4200,4578 L 4200,4828 4450,4828 4450,4578 4200,4578 Z"/>
 <path fill="rgb(0,69,134)" stroke="none" d="M 4742,7809 L 4742,8059 4992,8059 4992,7809 4742,7809 Z"/>
 <path fill="none" stroke="rgb(0,69,134)" stroke-linejoin="round" d="M 4742,7809 L 4742,8059 4992,8059 4992,7809 4742,7809 Z"/>
 <path fill="rgb(0,69,134)" stroke="none" d="M 5283,4191 L 5283,4441 5533,4441 5533,4191 5283,4191 Z"/>
 <path fill="none" stroke="rgb(0,69,134)" stroke-linejoin="round" d="M 5283,4191 L 5283,4441 5533,4441 5533,4191 5283,4191 Z"/>
 <path fill="rgb(0,69,134)" stroke="none" d="M 5825,4635 L 5825,4885 6075,4885 6075,4635 5825,4635 Z"/>
 <path fill="none" stroke="rgb(0,69,134)" stroke-linejoin="round" d="M 5825,4635 L 5825,4885 6075,4885 6075,4635 5825,4635 Z"/>
 <path fill="rgb(0,69,134)" stroke="none" d="M 6367,2194 L 6367,2444 6617,2444 6617,2194 6367,2194 Z"/>
 <path fill="none" stroke="rgb(0,69,134)" stroke-linejoin="round" d="M 6367,2194 L 6367,2444 6617,2444 6617,2194 6367,2194 Z"/>
 <path fill="rgb(0,69,134)" stroke="none" d="M 6909,2998 L 6909,3248 7159,3248 7159,2998 6909,2998 Z"/>
 <path fill="none" stroke="rgb(0,69,134)" stroke-linejoin="round" d="M 6909,2998 L 6909,3248 7159,3248 7159,2998 6909,2998 Z"/>
 <path fill="rgb(0,69,134)" stroke="none" d="M 7451,4662 L 7451,4912 7701,4912 7701,4662 7451,4662 Z"/>
 <path fill="none" stroke="rgb(0,69,134)" stroke-linejoin="round" d="M 7451,4662 L 7451,4912 7701,4912 7701,4662 7451,4662 Z"/>
 <path fill="rgb(0,69,134)" stroke="none" d="M 7992,2015 L 7992,2265 8242,2265 8242,2015 7992,2015 Z"/>
 <path fill="none" stroke="rgb(0,69,134)" stroke-linejoin="round" d="M 7992,2015 L 7992,2265 8242,2265 8242,2015 7992,2015 Z"/>
 <path fill="rgb(0,69,134)" stroke="none" d="M 8534,4291 L 8534,4540 8784,4540 8784,4291 8534,4291 Z"/>
 <path fill="none" stroke="rgb(0,69,134)" stroke-linejoin="round" d="M 8534,4291 L 8534,4540 8784,4540 8784,4291 8534,4291 Z"/>
 <path fill="rgb(0,69,134)" stroke="none" d="M 9076,4910 L 9076,5160 9326,5160 9326,4910 9076,4910 Z"/>
 <path fill="none" stroke="rgb(0,69,134)" stroke-linejoin="round" d="M 9076,4910 L 9076,5160 9326,5160 9326,4910 9076,4910 Z"/>
 <path fill="rgb(0,69,134)" stroke="none" d="M 9618,3313 L 9618,3563 9868,3563 9868,3313 9618,3313 Z"/>
 <path fill="none" stroke="rgb(0,69,134)" stroke-linejoin="round" d="M 9618,3313 L 9618,3563 9868,3563 9868,3313 9618,3313 Z"/>
 <path fill="rgb(0,69,134)" stroke="none" d="M 10160,3213 L 10160,3463 10410,3463 10410,3213 10160,3213 Z"/>
 <path fill="none" stroke="rgb(0,69,134)" stroke-linejoin="round" d="M 10160,3213 L 10160,3463 10410,3463 10410,3213 10160,3213 Z"/>
 <path fill="rgb(0,69,134)" stroke="none" d="M 10701,1497 L 10701,1747 10951,1747 10951,1497 10701,1497 Z"/>
 <path fill="none" stroke="rgb(0,69,134)" stroke-linejoin="round" d="M 10701,1497 L 10701,1747 10951,1747 10951,1497 10701,1497 Z"/>
 <path fill="rgb(0,69,134)" stroke="none" d="M 11243,3089 L 11243,3339 11493,3339 11493,3089 11243,3089 Z"/>
 <path fill="none" stroke="rgb(0,69,134)" stroke-linejoin="round" d="M 11243,3089 L 11243,3339 11493,3339 11493,3089 11243,3089 Z"/>
 <path fill="rgb(0,69,134)" stroke="none" d="M 11785,4488 L 11785,4737 12035,4737 12035,4488 11785,4488 Z"/>
 <path fill="none" stroke="rgb(0,69,134)" stroke-linejoin="round" d="M 11785,4488 L 11785,4737 12035,4737 12035,4488 11785,4488 Z"/>
 <path fill="rgb(0,69,134)" stroke="none" d="M 12327,4892 L 12327,5142 12577,5142 12577,4892 12327,4892 Z"/>
 <path fill="none" stroke="rgb(0,69,134)" stroke-linejoin="round" d="M 12327,4892 L 12327,5142 12577,5142 12577,4892 12327,4892 Z"/>
 <path fill="rgb(0,69,134)" stroke="none" d="M 12869,4949 L 12869,5199 13119,5199 13119,4949 12869,4949 Z"/>
 <path fill="none" stroke="rgb(0,69,134)" stroke-linejoin="round" d="M 12869,4949 L 12869,5199 13119,5199 13119,4949 12869,4949 Z"/>
 <path fill="rgb(0,69,134)" stroke="none" d="M 13410,4078 L 13410,4328 13660,4328 13660,4078 13410,4078 Z"/>
 <path fill="none" stroke="rgb(0,69,134)" stroke-linejoin="round" d="M 13410,4078 L 13410,4328 13660,4328 13660,4078 13410,4078 Z"/>
 <path fill="rgb(0,69,134)" stroke="none" d="M 13952,3516 L 13952,3766 14202,3766 14202,3516 13952,3516 Z"/>
 <path fill="none" stroke="rgb(0,69,134)" stroke-linejoin="round" d="M 13952,3516 L 13952,3766 14202,3766 14202,3516 13952,3516 Z"/>
 <path fill="rgb(0,69,134)" stroke="none" d="M 14494,3452 L 14494,3702 14744,3702 14744,3452 14494,3452 Z"/>
 <path fill="none" stroke="rgb(0,69,134)" stroke-linejoin="round" d="M 14494,3452 L 14494,3702 14744,3702 14744,3452 14494,3452 Z"/>
 <path fill="rgb(0,69,134)" stroke="none" d="M 15036,2059 L 15036,2309 15286,2309 15286,2059 15036,2059 Z"/>
 <path fill="none" stroke="rgb(0,69,134)" stroke-linejoin="round" d="M 15036,2059 L 15036,2309 15286,2309 15286,2059 15036,2059 Z"/>
 <path fill="rgb(0,69,134)" stroke="none" d="M 15577,3561 L 15577,3811 15827,3811 15827,3561 15577,3561 Z"/>
 <path fill="none" stroke="rgb(0,69,134)" stroke-linejoin="round" d="M 15577,3561 L 15577,3811 15827,3811 15827,3561 15577,3561 Z"/>
 <path fill="rgb(0,69,134)" stroke="none" d="M 16119,4115 L 16119,4365 16369,4365 16369,4115 16119,4115 Z"/>
 <path fill="none" stroke="rgb(0,69,134)" stroke-linejoin="round" d="M 16119,4115 L 16119,4365 16369,4365 16369,4115 16119,4115 Z"/>
 <path fill="rgb(0,69,134)" stroke="none" d="M 16661,4725 L 16661,4975 16911,4975 16911,4725 16661,4725 Z"/>
 <path fill="none" stroke="rgb(0,69,134)" stroke-linejoin="round" d="M 16661,4725 L 16661,4975 16911,4975 16911,4725 16661,4725 Z"/>
 <path fill="rgb(0,69,134)" stroke="none" d="M 17203,3755 L 17203,4005 17453,4005 17453,3755 17203,3755 Z"/>
 <path fill="none" stroke="rgb(0,69,134)" stroke-linejoin="round" d="M 17203,3755 L 17203,4005 17453,4005 17453,3755 17203,3755 Z"/>
 <path fill="rgb(0,69,134)" stroke="none" d="M 17745,3719 L 17745,3969 17995,3969 17995,3719 17745,3719 Z"/>
 <path fill="none" stroke="rgb(0,69,134)" stroke-linejoin="round" d="M 17745,3719 L 17745,3969 17995,3969 17995,3719 17745,3719 Z"/>
 <path fill="rgb(0,69,134)" stroke="none" d="M 18286,4316 L 18286,4565 18536,4565 18536,4316 18286,4316 Z"/>
 <path fill="none" stroke="rgb(0,69,134)" stroke-linejoin="round" d="M 18286,4316 L 18286,4565 18536,4565 18536,4316 18286,4316 Z"/>
 <path fill="rgb(0,69,134)" stroke="none" d="M 18828,4539 L 18828,4789 19078,4789 19078,4539 18828,4539 Z"/>
 <path fill="none" stroke="rgb(0,69,134)" stroke-linejoin="round" d="M 18828,4539 L 18828,4789 19078,4789 19078,4539 18828,4539 Z"/>
 <path fill="rgb(0,69,134)" stroke="none" d="M 19370,3161 L 19370,3411 19620,3411 19620,3161 19370,3161 Z"/>
 <path fill="none" stroke="rgb(0,69,134)" stroke-linejoin="round" d="M 19370,3161 L 19370,3411 19620,3411 19620,3161 19370,3161 Z"/>
 <path fill="rgb(0,69,134)" stroke="none" d="M 19912,2332 L 19912,2582 20162,2582 20162,2332 19912,2332 Z"/>
 <path fill="none" stroke="rgb(0,69,134)" stroke-linejoin="round" d="M 19912,2332 L 19912,2582 20162,2582 20162,2332 19912,2332 Z"/>
 <path fill="rgb(0,69,134)" stroke="none" d="M 20454,5252 L 20454,5502 20704,5502 20704,5252 20454,5252 Z"/>
 <path fill="none" stroke="rgb(0,69,134)" stroke-linejoin="round" d="M 20454,5252 L 20454,5502 20704,5502 20704,5252 20454,5252 Z"/>
 <path fill="rgb(0,69,134)" stroke="none" d="M 20995,2490 L 20995,2740 21245,2740 21245,2490 20995,2490 Z"/>
 <path fill="none" stroke="rgb(0,69,134)" stroke-linejoin="round" d="M 20995,2490 L 20995,2740 21245,2740 21245,2490 20995,2490 Z"/>
 <path fill="rgb(0,69,134)" stroke="none" d="M 21537,3804 L 21537,4054 21787,4054 21787,3804 21537,3804 Z"/>
 <path fill="none" stroke="rgb(0,69,134)" stroke-linejoin="round" d="M 21537,3804 L 21537,4054 21787,4054 21787,3804 21537,3804 Z"/>
 <path fill="rgb(0,69,134)" stroke="none" d="M 22079,5254 L 22079,5504 22329,5504 22329,5254 22079,5254 Z"/>
 <path fill="none" stroke="rgb(0,69,134)" stroke-linejoin="round" d="M 22079,5254 L 22079,5504 22329,5504 22329,5254 22079,5254 Z"/>
 <path fill="rgb(0,69,134)" stroke="none" d="M 22621,4002 L 22621,4252 22871,4252 22871,4002 22621,4002 Z"/>
 <path fill="none" stroke="rgb(0,69,134)" stroke-linejoin="round" d="M 22621,4002 L 22621,4252 22871,4252 22871,4002 22621,4002 Z"/>
 <path fill="rgb(0,69,134)" stroke="none" d="M 23163,3767 L 23163,4017 23413,4017 23413,3767 23163,3767 Z"/>
 <path fill="none" stroke="rgb(0,69,134)" stroke-linejoin="round" d="M 23163,3767 L 23163,4017 23413,4017 23413,3767 23163,3767 Z"/>
 <path fill="rgb(0,69,134)" stroke="none" d="M 23704,2583 L 23704,2833 23954,2833 23954,2583 23704,2583 Z"/>
 <path fill="none" stroke="rgb(0,69,134)" stroke-linejoin="round" d="M 23704,2583 L 23704,2833 23954,2833 23954,2583 23704,2583 Z"/>
 <path fill="rgb(0,69,134)" stroke="none" d="M 24246,3372 L 24246,3622 24496,3622 24496,3372 24246,3372 Z"/>
 <path fill="none" stroke="rgb(0,69,134)" stroke-linejoin="round" d="M 24246,3372 L 24246,3622 24496,3622 24496,3372 24246,3372 Z"/>
 <path fill="rgb(0,69,134)" stroke="none" d="M 24788,5778 L 24788,6028 25038,6028 25038,5778 24788,5778 Z"/>
 <path fill="none" stroke="rgb(0,69,134)" stroke-linejoin="round" d="M 24788,5778 L 24788,6028 25038,6028 25038,5778 24788,5778 Z"/>
 <path fill="rgb(0,69,134)" stroke="none" d="M 25330,3261 L 25330,3511 25580,3511 25580,3261 25330,3261 Z"/>
 <path fill="none" stroke="rgb(0,69,134)" stroke-linejoin="round" d="M 25330,3261 L 25330,3511 25580,3511 25580,3261 25330,3261 Z"/>
 <path fill="rgb(0,69,134)" stroke="none" d="M 25871,3994 L 25871,4244 26121,4244 26121,3994 25871,3994 Z"/>
 <path fill="none" stroke="rgb(0,69,134)" stroke-linejoin="round" d="M 25871,3994 L 25871,4244 26121,4244 26121,3994 25871,3994 Z"/>
 <path fill="rgb(0,69,134)" stroke="none" d="M 26413,4834 L 26413,5084 26663,5084 26663,4834 26413,4834 Z"/>
 <path fill="none" stroke="rgb(0,69,134)" stroke-linejoin="round" d="M 26413,4834 L 26413,5084 26663,5084 26663,4834 26413,4834 Z"/>
 <path fill="rgb(0,69,134)" stroke="none" d="M 26955,3942 L 26955,4192 27205,4192 27205,3942 26955,3942 Z"/>
 <path fill="none" stroke="rgb(0,69,134)" stroke-linejoin="round" d="M 26955,3942 L 26955,4192 27205,4192 27205,3942 26955,3942 Z"/>
 <path fill="rgb(0,69,134)" stroke="none" d="M 27497,4786 L 27497,5036 27747,5036 27747,4786 27497,4786 Z"/>
 <path fill="none" stroke="rgb(0,69,134)" stroke-linejoin="round" d="M 27497,4786 L 27497,5036 27747,5036 27747,4786 27497,4786 Z"/>
 <path fill="rgb(0,69,134)" stroke="none" d="M 28039,4026 L 28039,4276 28289,4276 28289,4026 28039,4026 Z"/>
 <path fill="none" stroke="rgb(0,69,134)" stroke-linejoin="round" d="M 28039,4026 L 28039,4276 28289,4276 28289,4026 28039,4026 Z"/>
 <path fill="rgb(0,69,134)" stroke="none" d="M 28580,4418 L 28580,4667 28830,4667 28830,4418 28580,4418 Z"/>
 <path fill="none" stroke="rgb(0,69,134)" stroke-linejoin="round" d="M 28580,4418 L 28580,4667 28830,4667 28830,4418 28580,4418 Z"/>
 <path fill="rgb(0,69,134)" stroke="none" d="M 29122,3831 L 29122,4081 29371,4081 29371,3831 29122,3831 Z"/>
 <path fill="none" stroke="rgb(0,69,134)" stroke-linejoin="round" d="M 29122,3831 L 29122,4081 29371,4081 29371,3831 29122,3831 Z"/>
 <path fill="rgb(0,69,134)" stroke="none" d="M 29663,5031 L 29663,5281 29913,5281 29913,5031 29663,5031 Z"/>
 <path fill="none" stroke="rgb(0,69,134)" stroke-linejoin="round" d="M 29663,5031 L 29663,5281 29913,5281 29913,5031 29663,5031 Z"/>
 <path fill="rgb(0,69,134)" stroke="none" d="M 30205,3831 L 30205,4081 30455,4081 30455,3831 30205,3831 Z"/>
 <path fill="none" stroke="rgb(0,69,134)" stroke-linejoin="round" d="M 30205,3831 L 30205,4081 30455,4081 30455,3831 30205,3831 Z"/>
 <path fill="rgb(0,69,134)" stroke="none" d="M 30747,4418 L 30747,4667 30997,4667 30997,4418 30747,4418 Z"/>
 <path fill="none" stroke="rgb(0,69,134)" stroke-linejoin="round" d="M 30747,4418 L 30747,4667 30997,4667 30997,4418 30747,4418 Z"/>
 <path fill="rgb(0,69,134)" stroke="none" d="M 31288,4026 L 31288,4276 31538,4276 31538,4026 31288,4026 Z"/>
 <path fill="none" stroke="rgb(0,69,134)" stroke-linejoin="round" d="M 31288,4026 L 31288,4276 31538,4276 31538,4026 31288,4026 Z"/>
 <path fill="rgb(0,69,134)" stroke="none" d="M 31830,4594 L 31830,4844 32080,4844 32080,4594 31830,4594 Z"/>
 <path fill="none" stroke="rgb(0,69,134)" stroke-linejoin="round" d="M 31830,4594 L 31830,4844 32080,4844 32080,4594 31830,4594 Z"/>
 <path fill="rgb(0,69,134)" stroke="none" d="M 32372,3942 L 32372,4192 32622,4192 32622,3942 32372,3942 Z"/>
 <path fill="none" stroke="rgb(0,69,134)" stroke-linejoin="round" d="M 32372,3942 L 32372,4192 32622,4192 32622,3942 32372,3942 Z"/>
 <path fill="rgb(0,69,134)" stroke="none" d="M 32914,4229 L 32914,4479 33164,4479 33164,4229 32914,4229 Z"/>
 <path fill="none" stroke="rgb(0,69,134)" stroke-linejoin="round" d="M 32914,4229 L 32914,4479 33164,4479 33164,4229 32914,4229 Z"/>
 <path fill="rgb(0,69,134)" stroke="none" d="M 33456,3994 L 33456,4244 33706,4244 33706,3994 33456,3994 Z"/>
 <path fill="none" stroke="rgb(0,69,134)" stroke-linejoin="round" d="M 33456,3994 L 33456,4244 33706,4244 33706,3994 33456,3994 Z"/>
 <path fill="rgb(0,69,134)" stroke="none" d="M 33997,3261 L 33997,3511 34247,3511 34247,3261 33997,3261 Z"/>
 <path fill="none" stroke="rgb(0,69,134)" stroke-linejoin="round" d="M 33997,3261 L 33997,3511 34247,3511 34247,3261 33997,3261 Z"/>
 <path fill="rgb(0,69,134)" stroke="none" d="M 34539,5778 L 34539,6028 34789,6028 34789,5778 34539,5778 Z"/>
 <path fill="none" stroke="rgb(0,69,134)" stroke-linejoin="round" d="M 34539,5778 L 34539,6028 34789,6028 34789,5778 34539,5778 Z"/>
 <path fill="rgb(0,69,134)" stroke="none" d="M 35081,3372 L 35081,3622 35331,3622 35331,3372 35081,3372 Z"/>
 <path fill="none" stroke="rgb(0,69,134)" stroke-linejoin="round" d="M 35081,3372 L 35081,3622 35331,3622 35331,3372 35081,3372 Z"/>
 <path fill="rgb(0,69,134)" stroke="none" d="M 35623,2583 L 35623,2833 35873,2833 35873,2583 35623,2583 Z"/>
 <path fill="none" stroke="rgb(0,69,134)" stroke-linejoin="round" d="M 35623,2583 L 35623,2833 35873,2833 35873,2583 35623,2583 Z"/>
 <path fill="rgb(0,69,134)" stroke="none" d="M 36164,3767 L 36164,4017 36414,4017 36414,3767 36164,3767 Z"/>
 <path fill="none" stroke="rgb(0,69,134)" stroke-linejoin="round" d="M 36164,3767 L 36164,4017 36414,4017 36414,3767 36164,3767 Z"/>
 <path fill="rgb(0,69,134)" stroke="none" d="M 36706,4002 L 36706,4252 36956,4252 36956,4002 36706,4002 Z"/>
 <path fill="none" stroke="rgb(0,69,134)" stroke-linejoin="round" d="M 36706,4002 L 36706,4252 36956,4252 36956,4002 36706,4002 Z"/>
 <path fill="rgb(0,69,134)" stroke="none" d="M 37248,4834 L 37248,5084 37498,5084 37498,4834 37248,4834 Z"/>
 <path fill="none" stroke="rgb(0,69,134)" stroke-linejoin="round" d="M 37248,4834 L 37248,5084 37498,5084 37498,4834 37248,4834 Z"/>
 <path fill="rgb(0,69,134)" stroke="none" d="M 37790,3804 L 37790,4054 38040,4054 38040,3804 37790,3804 Z"/>
 <path fill="none" stroke="rgb(0,69,134)" stroke-linejoin="round" d="M 37790,3804 L 37790,4054 38040,4054 38040,3804 37790,3804 Z"/>
 <path fill="rgb(0,69,134)" stroke="none" d="M 38332,2787 L 38332,3037 38582,3037 38582,2787 38332,2787 Z"/>
 <path fill="none" stroke="rgb(0,69,134)" stroke-linejoin="round" d="M 38332,2787 L 38332,3037 38582,3037 38582,2787 38332,2787 Z"/>
 <path fill="rgb(0,69,134)" stroke="none" d="M 38873,5252 L 38873,5502 39123,5502 39123,5252 38873,5252 Z"/>
 <path fill="none" stroke="rgb(0,69,134)" stroke-linejoin="round" d="M 38873,5252 L 38873,5502 39123,5502 39123,5252 38873,5252 Z"/>
 <path fill="rgb(0,69,134)" stroke="none" d="M 39415,2332 L 39415,2582 39665,2582 39665,2332 39415,2332 Z"/>
 <path fill="none" stroke="rgb(0,69,134)" stroke-linejoin="round" d="M 39415,2332 L 39415,2582 39665,2582 39665,2332 39415,2332 Z"/>
 <path fill="rgb(0,69,134)" stroke="none" d="M 39957,3161 L 39957,3411 40207,3411 40207,3161 39957,3161 Z"/>
 <path fill="none" stroke="rgb(0,69,134)" stroke-linejoin="round" d="M 39957,3161 L 39957,3411 40207,3411 40207,3161 39957,3161 Z"/>
 <path fill="rgb(0,69,134)" stroke="none" d="M 40499,4539 L 40499,4789 40749,4789 40749,4539 40499,4539 Z"/>
 <path fill="none" stroke="rgb(0,69,134)" stroke-linejoin="round" d="M 40499,4539 L 40499,4789 40749,4789 40749,4539 40499,4539 Z"/>
 <path fill="rgb(0,69,134)" stroke="none" d="M 41041,4316 L 41041,4565 41291,4565 41291,4316 41041,4316 Z"/>
 <path fill="none" stroke="rgb(0,69,134)" stroke-linejoin="round" d="M 41041,4316 L 41041,4565 41291,4565 41291,4316 41041,4316 Z"/>
 <path fill="rgb(0,69,134)" stroke="none" d="M 41582,3719 L 41582,3969 41832,3969 41832,3719 41582,3719 Z"/>
 <path fill="none" stroke="rgb(0,69,134)" stroke-linejoin="round" d="M 41582,3719 L 41582,3969 41832,3969 41832,3719 41582,3719 Z"/>
 <path fill="rgb(0,69,134)" stroke="none" d="M 42124,3755 L 42124,4005 42374,4005 42374,3755 42124,3755 Z"/>
 <path fill="none" stroke="rgb(0,69,134)" stroke-linejoin="round" d="M 42124,3755 L 42124,4005 42374,4005 42374,3755 42124,3755 Z"/>
 <path fill="rgb(0,69,134)" stroke="none" d="M 42666,4774 L 42666,5024 42916,5024 42916,4774 42666,4774 Z"/>
 <path fill="none" stroke="rgb(0,69,134)" stroke-linejoin="round" d="M 42666,4774 L 42666,5024 42916,5024 42916,4774 42666,4774 Z"/>
 <path fill="rgb(0,69,134)" stroke="none" d="M 43208,4115 L 43208,4365 43458,4365 43458,4115 43208,4115 Z"/>
 <path fill="none" stroke="rgb(0,69,134)" stroke-linejoin="round" d="M 43208,4115 L 43208,4365 43458,4365 43458,4115 43208,4115 Z"/>
 <path fill="rgb(0,69,134)" stroke="none" d="M 43750,4102 L 43750,4352 44000,4352 44000,4102 43750,4102 Z"/>
 <path fill="none" stroke="rgb(0,69,134)" stroke-linejoin="round" d="M 43750,4102 L 43750,4352 44000,4352 44000,4102 43750,4102 Z"/>
 <path fill="rgb(0,69,134)" stroke="none" d="M 44291,2059 L 44291,2309 44541,2309 44541,2059 44291,2059 Z"/>
 <path fill="none" stroke="rgb(0,69,134)" stroke-linejoin="round" d="M 44291,2059 L 44291,2309 44541,2309 44541,2059 44291,2059 Z"/>
 <path fill="rgb(0,69,134)" stroke="none" d="M 44833,3452 L 44833,3702 45083,3702 45083,3452 44833,3452 Z"/>
 <path fill="none" stroke="rgb(0,69,134)" stroke-linejoin="round" d="M 44833,3452 L 44833,3702 45083,3702 45083,3452 44833,3452 Z"/>
 <path fill="rgb(0,69,134)" stroke="none" d="M 45375,3516 L 45375,3766 45625,3766 45625,3516 45375,3516 Z"/>
 <path fill="none" stroke="rgb(0,69,134)" stroke-linejoin="round" d="M 45375,3516 L 45375,3766 45625,3766 45625,3516 45375,3516 Z"/>
 <path fill="rgb(0,69,134)" stroke="none" d="M 45917,4078 L 45917,4328 46167,4328 46167,4078 45917,4078 Z"/>
 <path fill="none" stroke="rgb(0,69,134)" stroke-linejoin="round" d="M 45917,4078 L 45917,4328 46167,4328 46167,4078 45917,4078 Z"/>
 <path fill="rgb(0,69,134)" stroke="none" d="M 46458,4949 L 46458,5199 46708,5199 46708,4949 46458,4949 Z"/>
 <path fill="none" stroke="rgb(0,69,134)" stroke-linejoin="round" d="M 46458,4949 L 46458,5199 46708,5199 46708,4949 46458,4949 Z"/>
 <path fill="rgb(0,69,134)" stroke="none" d="M 47000,4892 L 47000,5142 47250,5142 47250,4892 47000,4892 Z"/>
 <path fill="none" stroke="rgb(0,69,134)" stroke-linejoin="round" d="M 47000,4892 L 47000,5142 47250,5142 47250,4892 47000,4892 Z"/>
 <path fill="rgb(0,69,134)" stroke="none" d="M 47542,4488 L 47542,4737 47792,4737 47792,4488 47542,4488 Z"/>
 <path fill="none" stroke="rgb(0,69,134)" stroke-linejoin="round" d="M 47542,4488 L 47542,4737 47792,4737 47792,4488 47542,4488 Z"/>
 <path fill="rgb(0,69,134)" stroke="none" d="M 48084,3561 L 48084,3811 48334,3811 48334,3561 48084,3561 Z"/>
 <path fill="none" stroke="rgb(0,69,134)" stroke-linejoin="round" d="M 48084,3561 L 48084,3811 48334,3811 48334,3561 48084,3561 Z"/>
 <path fill="rgb(0,69,134)" stroke="none" d="M 48626,1497 L 48626,1747 48876,1747 48876,1497 48626,1497 Z"/>
 <path fill="none" stroke="rgb(0,69,134)" stroke-linejoin="round" d="M 48626,1497 L 48626,1747 48876,1747 48876,1497 48626,1497 Z"/>
 <path fill="rgb(0,69,134)" stroke="none" d="M 49167,3394 L 49167,3644 49417,3644 49417,3394 49167,3394 Z"/>
 <path fill="none" stroke="rgb(0,69,134)" stroke-linejoin="round" d="M 49167,3394 L 49167,3644 49417,3644 49417,3394 49167,3394 Z"/>
 <path fill="rgb(0,69,134)" stroke="none" d="M 49709,3313 L 49709,3563 49959,3563 49959,3313 49709,3313 Z"/>
 <path fill="none" stroke="rgb(0,69,134)" stroke-linejoin="round" d="M 49709,3313 L 49709,3563 49959,3563 49959,3313 49709,3313 Z"/>
 <path fill="rgb(0,69,134)" stroke="none" d="M 50251,4910 L 50251,5160 50501,5160 50501,4910 50251,4910 Z"/>
 <path fill="none" stroke="rgb(0,69,134)" stroke-linejoin="round" d="M 50251,4910 L 50251,5160 50501,5160 50501,4910 50251,4910 Z"/>
 <path fill="rgb(0,69,134)" stroke="none" d="M 50793,4291 L 50793,4540 51043,4540 51043,4291 50793,4291 Z"/>
 <path fill="none" stroke="rgb(0,69,134)" stroke-linejoin="round" d="M 50793,4291 L 50793,4540 51043,4540 51043,4291 50793,4291 Z"/>
 <path fill="rgb(0,69,134)" stroke="none" d="M 51335,2015 L 51335,2265 51585,2265 51585,2015 51335,2015 Z"/>
 <path fill="none" stroke="rgb(0,69,134)" stroke-linejoin="round" d="M 51335,2015 L 51335,2265 51585,2265 51585,2015 51335,2015 Z"/>
 <path fill="rgb(0,69,134)" stroke="none" d="M 51876,4662 L 51876,4912 52126,4912 52126,4662 51876,4662 Z"/>
 <path fill="none" stroke="rgb(0,69,134)" stroke-linejoin="round" d="M 51876,4662 L 51876,4912 52126,4912 52126,4662 51876,4662 Z"/>
 <path fill="rgb(0,69,134)" stroke="none" d="M 52418,2998 L 52418,3248 52668,3248 52668,2998 52418,2998 Z"/>
 <path fill="none" stroke="rgb(0,69,134)" stroke-linejoin="round" d="M 52418,2998 L 52418,3248 52668,3248 52668,2998 52418,2998 Z"/>
 <path fill="rgb(0,69,134)" stroke="none" d="M 52960,2194 L 52960,2444 53210,2444 53210,2194 52960,2194 Z"/>
 <path fill="none" stroke="rgb(0,69,134)" stroke-linejoin="round" d="M 52960,2194 L 52960,2444 53210,2444 53210,2194 52960,2194 Z"/>
 <path fill="rgb(0,69,134)" stroke="none" d="M 53502,5052 L 53502,5302 53752,5302 53752,5052 53502,5052 Z"/>
 <path fill="none" stroke="rgb(0,69,134)" stroke-linejoin="round" d="M 53502,5052 L 53502,5302 53752,5302 53752,5052 53502,5052 Z"/>
 <path fill="rgb(0,69,134)" stroke="none" d="M 54044,4191 L 54044,4441 54294,4441 54294,4191 54044,4191 Z"/>
 <path fill="none" stroke="rgb(0,69,134)" stroke-linejoin="round" d="M 54044,4191 L 54044,4441 54294,4441 54294,4191 54044,4191 Z"/>
 <path fill="rgb(0,69,134)" stroke="none" d="M 54585,7723 L 54585,7973 54835,7973 54835,7723 54585,7723 Z"/>
 <path fill="none" stroke="rgb(0,69,134)" stroke-linejoin="round" d="M 54585,7723 L 54585,7973 54835,7973 54835,7723 54585,7723 Z"/>
 <path fill="rgb(0,69,134)" stroke="none" d="M 55127,4578 L 55127,4828 55377,4828 55377,4578 55127,4578 Z"/>
 <path fill="none" stroke="rgb(0,69,134)" stroke-linejoin="round" d="M 55127,4578 L 55127,4828 55377,4828 55377,4578 55127,4578 Z"/>
 <path fill="rgb(0,69,134)" stroke="none" d="M 55669,3244 L 55669,3494 55919,3494 55919,3244 55669,3244 Z"/>
 <path fill="none" stroke="rgb(0,69,134)" stroke-linejoin="round" d="M 55669,3244 L 55669,3494 55919,3494 55919,3244 55669,3244 Z"/>
 <path fill="rgb(0,69,134)" stroke="none" d="M 56211,3075 L 56211,3325 56461,3325 56461,3075 56211,3075 Z"/>
 <path fill="none" stroke="rgb(0,69,134)" stroke-linejoin="round" d="M 56211,3075 L 56211,3325 56461,3325 56461,3075 56211,3075 Z"/>
 <text class="SVGTextShape"><tspan class="TextParagraph" font-family="Liberation Sans, sans-serif" font-size="353px" font-weight="400"><tspan class="TextPosition" x="2607" y="4597"><tspan fill="rgb(0,0,0)" stroke="none" style="white-space: pre">0</tspan></tspan></tspan></text>
 <text class="SVGTextShape"><tspan class="TextParagraph" font-family="Liberation Sans, sans-serif" font-size="353px" font-weight="400"><tspan class="TextPosition" x="7932" y="4597"><tspan fill="rgb(0,0,0)" stroke="none" style="white-space: pre">10</tspan></tspan></tspan></text>
 <text class="SVGTextShape"><tspan class="TextParagraph" font-family="Liberation Sans, sans-serif" font-size="353px" font-weight="400"><tspan class="TextPosition" x="13350" y="4597"><tspan fill="rgb(0,0,0)" stroke="none" style="white-space: pre">20</tspan></tspan></tspan></text>
 <text class="SVGTextShape"><tspan class="TextParagraph" font-family="Liberation Sans, sans-serif" font-size="353px" font-weight="400"><tspan class="TextPosition" x="18768" y="4597"><tspan fill="rgb(0,0,0)" stroke="none" style="white-space: pre">30</tspan></tspan></tspan></text>
 <text class="SVGTextShape"><tspan class="TextParagraph" font-family="Liberation Sans, sans-serif" font-size="353px" font-weight="400"><tspan class="TextPosition" x="24186" y="4597"><tspan fill="rgb(0,0,0)" stroke="none" style="white-space: pre">40</tspan></tspan></tspan></text>
 <text class="SVGTextShape"><tspan class="TextParagraph" font-family="Liberation Sans, sans-serif" font-size="353px" font-weight="400"><tspan class="TextPosition" x="29604" y="4597"><tspan fill="rgb(0,0,0)" stroke="none" style="white-space: pre">50</tspan></tspan></tspan></text>
 <text class="SVGTextShape"><tspan class="TextParagraph" font-family="Liberation Sans, sans-serif" font-size="353px" font-weight="400"><tspan class="TextPosition" x="35022" y="4597"><tspan fill="rgb(0,0,0)" stroke="none" style="white-space: pre">60</tspan></tspan></tspan></text>
 <text class="SVGTextShape"><tspan class="TextParagraph" font-family="Liberation Sans, sans-serif" font-size="353px" font-weight="400"><tspan class="TextPosition" x="40440" y="4597"><tspan fill="rgb(0,0,0)" stroke="none" style="white-space: pre">70</tspan></tspan></tspan></text>
 <text class="SVGTextShape"><tspan class="TextParagraph" font-family="Liberation Sans, sans-serif" font-size="353px" font-weight="400"><tspan class="TextPosition" x="45858" y="4597"><tspan fill="rgb(0,0,0)" stroke="none" style="white-space: pre">80</tspan></tspan></tspan></text>
 <text class="SVGTextShape"><tspan class="TextParagraph" font-family="Liberation Sans, sans-serif" font-size="353px" font-weight="400"><tspan class="TextPosition" x="51276" y="4597"><tspan fill="rgb(0,0,0)" stroke="none" style="white-space: pre">90</tspan></tspan></tspan></text>
 <text class="SVGTextShape"><tspan class="TextParagraph" font-family="Liberation Sans, sans-serif" font-size="353px" font-weight="400"><tspan class="TextPosition" x="56601" y="4597"><tspan fill="rgb(0,0,0)" stroke="none" style="white-space: pre">100</tspan></tspan></tspan></text>
 <text class="SVGTextShape"><tspan class="TextParagraph" font-family="Liberation Sans, sans-serif" font-size="353px" font-weight="400"><tspan class="TextPosition" x="1154" y="8732"><tspan fill="rgb(0,0,0)" stroke="none" style="white-space: pre">-2.5E-14</tspan></tspan></tspan></text>
 <text class="SVGTextShape"><tspan class="TextParagraph" font-family="Liberation Sans, sans-serif" font-size="353px" font-weight="400"><tspan class="TextPosition" x="1445" y="7815"><tspan fill="rgb(0,0,0)" stroke="none" style="white-space: pre">-2E-14</tspan></tspan></tspan></text>
 <text class="SVGTextShape"><tspan class="TextParagraph" font-family="Liberation Sans, sans-serif" font-size="353px" font-weight="400"><tspan class="TextPosition" x="1154" y="6899"><tspan fill="rgb(0,0,0)" stroke="none" style="white-space: pre">-1.5E-14</tspan></tspan></tspan></text>
 <text class="SVGTextShape"><tspan class="TextParagraph" font-family="Liberation Sans, sans-serif" font-size="353px" font-weight="400"><tspan class="TextPosition" x="1445" y="5983"><tspan fill="rgb(0,0,0)" stroke="none" style="white-space: pre">-1E-14</tspan></tspan></tspan></text>
 <text class="SVGTextShape"><tspan class="TextParagraph" font-family="Liberation Sans, sans-serif" font-size="353px" font-weight="400"><tspan class="TextPosition" x="1445" y="5066"><tspan fill="rgb(0,0,0)" stroke="none" style="white-space: pre">-5E-15</tspan></tspan></tspan></text>
 <text class="SVGTextShape"><tspan class="TextParagraph" font-family="Liberation Sans, sans-serif" font-size="353px" font-weight="400"><tspan class="TextPosition" x="2265" y="4150"><tspan fill="rgb(0,0,0)" stroke="none" style="white-space: pre">0</tspan></tspan></tspan></text>
 <text class="SVGTextShape"><tspan class="TextParagraph" font-family="Liberation Sans, sans-serif" font-size="353px" font-weight="400"><tspan class="TextPosition" x="1550" y="3234"><tspan fill="rgb(0,0,0)" stroke="none" style="white-space: pre">5E-15</tspan></tspan></tspan></text>
 <text class="SVGTextShape"><tspan class="TextParagraph" font-family="Liberation Sans, sans-serif" font-size="353px" font-weight="400"><tspan class="TextPosition" x="1550" y="2317"><tspan fill="rgb(0,0,0)" stroke="none" style="white-space: pre">1E-14</tspan></tspan></tspan></text>
 <text class="SVGTextShape"><tspan class="TextParagraph" font-family="Liberation Sans, sans-serif" font-size="353px" font-weight="400"><tspan class="TextPosition" x="1259" y="1401"><tspan fill="rgb(0,0,0)" stroke="none" style="white-space: pre">1.5E-14</tspan></tspan></tspan></text>
 <text class="SVGTextShape"><tspan class="TextParagraph" font-family="Liberation Sans, sans-serif" font-size="353px" font-weight="400"><tspan class="TextPosition" x="1550" y="485"><tspan fill="rgb(0,0,0)" stroke="none" style="white-space: pre">2E-14</tspan></tspan></tspan></text>
</svg>