<?xml version="1.0" encoding="UTF-8"?>
<!DOCTYPE svg PUBLIC "-//W3C//DTD SVG 1.1//EN" "http://www.w3.org/Graphics/SVG/1.1/DTD/svg11.dtd">
<svg width="629mm" height="90mm" viewBox="0 0 62900 9000" version="1.1" xmlns="http://www.w3.org/2000/svg" xmlns:xlink="http://www.w3.org/1999/xlink" stroke-width="28.222" stroke-linejoin="round" xml:space="preserve">
 <path fill="rgb(255,255,255)" stroke="none" d="M 31409,8992 L -13,8992 -13,-13 62831,-13 62831,8992 31409,8992 Z"/>
 <path fill="none" stroke="rgb(179,179,179)" stroke-linejoin="round" d="M 31672,8165 L 2050,8165 2050,366 61295,366 61295,8165 31672,8165 Z"/>
 <path fill="none" stroke="rgb(179,179,179)" stroke-linejoin="round" d="M 61295,8164 L 2050,8164"/>
 <path fill="none" stroke="rgb(179,179,179)" stroke-linejoin="round" d="M 61295,6864 L 2050,6864"/>
 <path fill="none" stroke="rgb(179,179,179)" stroke-linejoin="round" d="M 61295,5564 L 2050,5564"/>
 <path fill="none" stroke="rgb(179,179,179)" stroke-linejoin="round" d="M 61295,4265 L 2050,4265"/>
 <path fill="none" stroke="rgb(179,179,179)" stroke-linejoin="round" d="M 61295,2965 L 2050,2965"/>
 <path fill="none" stroke="rgb(179,179,179)" stroke-linejoin="round" d="M 61295,1665 L 2050,1665"/>
 <path fill="none" stroke="rgb(179,179,179)" stroke-linejoin="round" d="M 61295,365 L 2050,365"/>
 <path fill="none" stroke="rgb(179,179,179)" stroke-linejoin="round" d="M 2050,8314 L 2050,8164"/>
 <path fill="none" stroke="rgb(179,179,179)" stroke-linejoin="round" d="M 2050,8314 L 2050,8164"/>
 <path fill="none" stroke="rgb(179,179,179)" stroke-linejoin="round" d="M 7974,8314 L 7974,8164"/>
 <path fill="none" stroke="rgb(179,179,179)" stroke-linejoin="round" d="M 7974,8314 L 7974,8164"/>
 <path fill="none" stroke="rgb(179,179,179)" stroke-linejoin="round" d="M 13899,8314 L 13899,8164"/>
 <path fill="none" stroke="rgb(179,179,179)" stroke-linejoin="round" d="M 13899,8314 L 13899,8164"/>
 <path fill="none" stroke="rgb(179,179,179)" stroke-linejoin="round" d="M 19823,8314 L 19823,8164"/>
 <path fill="none" stroke="rgb(179,179,179)" stroke-linejoin="round" d="M 19823,8314 L 19823,8164"/>
 <path fill="none" stroke="rgb(179,179,179)" stroke-linejoin="round" d="M 25748,8314 L 25748,8164"/>
 <path fill="none" stroke="rgb(179,179,179)" stroke-linejoin="round" d="M 25748,8314 L 25748,8164"/>
 <path fill="none" stroke="rgb(179,179,179)" stroke-linejoin="round" d="M 31672,8314 L 31672,8164"/>
 <path fill="none" stroke="rgb(179,179,179)" stroke-linejoin="round" d="M 31672,8314 L 31672,8164"/>
 <path fill="none" stroke="rgb(179,179,179)" stroke-linejoin="round" d="M 37596,8314 L 37596,8164"/>
 <path fill="none" stroke="rgb(179,179,179)" stroke-linejoin="round" d="M 37596,8314 L 37596,8164"/>
 <path fill="none" stroke="rgb(179,179,179)" stroke-linejoin="round" d="M 43521,8314 L 43521,8164"/>
 <path fill="none" stroke="rgb(179,179,179)" stroke-linejoin="round" d="M 43521,8314 L 43521,8164"/>
 <path fill="none" stroke="rgb(179,179,179)" stroke-linejoin="round" d="M 49445,8314 L 49445,8164"/>
 <path fill="none" stroke="rgb(179,179,179)" stroke-linejoin="round" d="M 49445,8314 L 49445,8164"/>
 <path fill="none" stroke="rgb(179,179,179)" stroke-linejoin="round" d="M 55370,8314 L 55370,8164"/>
 <path fill="none" stroke="rgb(179,179,179)" stroke-linejoin="round" d="M 55370,8314 L 55370,8164"/>
 <path fill="none" stroke="rgb(179,179,179)" stroke-linejoin="round" d="M 61295,8314 L 61295,8164"/>
 <path fill="none" stroke="rgb(179,179,179)" stroke-linejoin="round" d="M 61295,8314 L 61295,8164"/>
 <path fill="none" stroke="rgb(179,179,179)" stroke-linejoin="round" d="M 2050,8164 L 61295,8164"/>
 <path fill="none" stroke="rgb(179,179,179)" stroke-linejoin="round" d="M 1900,8164 L 2050,8164"/>
 <path fill="none" stroke="rgb(179,179,179)" stroke-linejoin="round" d="M 1900,8164 L 2050,8164"/>
 <path fill="none" stroke="rgb(179,179,179)" stroke-linejoin="round" d="M 1900,6864 L 2050,6864"/>
 <path fill="none" stroke="rgb(179,179,179)" stroke-linejoin="round" d="M 1900,6864 L 2050,6864"/>
 <path fill="none" stroke="rgb(179,179,179)" stroke-linejoin="round" d="M 1900,5564 L 2050,5564"/>
 <path fill="none" stroke="rgb(179,179,179)" stroke-linejoin="round" d="M 1900,5564 L 2050,5564"/>
 <path fill="none" stroke="rgb(179,179,179)" stroke-linejoin="round" d="M 1900,4265 L 2050,4265"/>
 <path fill="none" stroke="rgb(179,179,179)" stroke-linejoin="round" d="M 1900,4265 L 2050,4265"/>
 <path fill="none" stroke="rgb(179,179,179)" stroke-linejoin="round" d="M 1900,2965 L 2050,2965"/>
 <path fill="none" stroke="rgb(179,179,179)" stroke-linejoin="round" d="M 1900,2965 L 2050,2965"/>
 <path fill="none" stroke="rgb(179,179,179)" stroke-linejoin="round" d="M 1900,1665 L 2050,1665"/>
 <path fill="none" stroke="rgb(179,179,179)" stroke-linejoin="round" d="M 1900,1665 L 2050,1665"/>
 <path fill="none" stroke="rgb(179,179,179)" stroke-linejoin="round" d="M 1900,365 L 2050,365"/>
 <path fill="none" stroke="rgb(179,179,179)" stroke-linejoin="round" d="M 1900,365 L 2050,365"/>
 <path fill="none" stroke="rgb(179,179,179)" stroke-linejoin="round" d="M 2050,8164 L 2050,365"/>
 <path fill="none" stroke="rgb(0,69,134)" stroke-width="80" stroke-linejoin="round" d="M 2050,1665 L 2642,8164 3234,8164 3827,8164 4419,8164 5012,8164 5604,8164 6197,8164 6789,8164 7382,8164 7974,8164 8567,8164 9159,8164 9751,8164 10344,8164 10936,8164 11529,8164 12121,8164 12714,8164 13306,8164 13899,8164 14491,8164 15084,8164 15676,8164 16269,8164 16861,8164 17453,8164 18046,8164 18638,8164 19231,8164 19823,8164 20416,8164 21008,8164 21601,8164 22193,8164 22786,8164 23378,8164 23971,8164 24563,8164 25155,8164 25748,8164 26340,8164 26933,8164 27525,8164 28118,8164 28710,8164 29303,8164 29895,8164 30488,8164 31080,8164 31672,8164 32264,8164 32856,8164 33449,8164 34041,8164 34634,8164 35226,8164 35819,8164 36411,8164 37004,8164 37596,8164 38189,8164 38781,8164 39373,8164 39966,8164 40558,8164 41151,8164 41743,8164 42336,8164 42928,8164 43521,8164 44113,8164 44706,8164 45298,8164 45891,8164 46483,8164 47075,8164 47668,8164 48260,8164 48853,8164 49445,8164 50038,8164 50630,8164 51223,8164 51815,8164 52408,8164 53000,8164 53593,8164 54185,8164 54777,8164 55370,8164 55962,8164 56555,8164 57147,8164 57740,8164 58332,8164 58925,8164 59517,8164 60110,8164 60702,8164"/>
 <path fill="rgb(0,69,134)" stroke="none" d="M 1925,1540 L 1925,1790 2175,1790 2175,1540 1925,1540 Z"/>
 <path fill="none" stroke="rgb(0,69,134)" stroke-linejoin="round" d="M 1925,1540 L 1925,1790 2175,1790 2175,1540 1925,1540 Z"/>
 <path fill="rgb(0,69,134)" stroke="none" d="M 2517,8039 L 2517,8289 2767,8289 2767,8039 2517,8039 Z"/>
 <path fill="none" stroke="rgb(0,69,134)" stroke-linejoin="round" d="M 2517,8039 L 2517,8289 2767,8289 2767,8039 2517,8039 Z"/>
 <path fill="rgb(0,69,134)" stroke="none" d="M 3109,8039 L 3109,8289 3359,8289 3359,8039 3109,8039 Z"/>
 <path fill="none" stroke="rgb(0,69,134)" stroke-linejoin="round" d="M 3109,8039 L 3109,8289 3359,8289 3359,8039 3109,8039 Z"/>
 <path fill="rgb(0,69,134)" stroke="none" d="M 3702,8039 L 3702,8289 3952,8289 3952,8039 3702,8039 Z"/>
 <path fill="none" stroke="rgb(0,69,134)" stroke-linejoin="round" d="M 3702,8039 L 3702,8289 3952,8289 3952,8039 3702,8039 Z"/>
 <path fill="rgb(0,69,134)" stroke="none" d="M 4294,8039 L 4294,8289 4544,8289 4544,8039 4294,8039 Z"/>
 <path fill="none" stroke="rgb(0,69,134)" stroke-linejoin="round" d="M 4294,8039 L 4294,8289 4544,8289 4544,8039 4294,8039 Z"/>
 <path fill="rgb(0,69,134)" stroke="none" d="M 4887,8039 L 4887,8289 5137,8289 5137,8039 4887,8039 Z"/>
 <path fill="none" stroke="rgb(0,69,134)" stroke-linejoin="round" d="M 4887,8039 L 4887,8289 5137,8289 5137,8039 4887,8039 Z"/>
 <path fill="rgb(0,69,134)" stroke="none" d="M 5479,8039 L 5479,8289 5729,8289 5729,8039 5479,8039 Z"/>
 <path fill="none" stroke="rgb(0,69,134)" stroke-linejoin="round" d="M 5479,8039 L 5479,8289 5729,8289 5729,8039 5479,8039 Z"/>
 <path fill="rgb(0,69,134)" stroke="none" d="M 6072,8039 L 6072,8289 6322,8289 6322,8039 6072,8039 Z"/>
 <path fill="none" stroke="rgb(0,69,134)" stroke-linejoin="round" d="M 6072,8039 L 6072,8289 6322,8289 6322,8039 6072,8039 Z"/>
 <path fill="rgb(0,69,134)" stroke="none" d="M 6664,8039 L 6664,8289 6914,8289 6914,8039 6664,8039 Z"/>
 <path fill="none" stroke="rgb(0,69,134)" stroke-linejoin="round" d="M 6664,8039 L 6664,8289 6914,8289 6914,8039 6664,8039 Z"/>
 <path fill="rgb(0,69,134)" stroke="none" d="M 7257,8039 L 7257,8289 7507,8289 7507,8039 7257,8039 Z"/>
 <path fill="none" stroke="rgb(0,69,134)" stroke-linejoin="round" d="M 7257,8039 L 7257,8289 7507,8289 7507,8039 7257,8039 Z"/>
 <path fill="rgb(0,69,134)" stroke="none" d="M 7849,8039 L 7849,8289 8099,8289 8099,8039 7849,8039 Z"/>
 <path fill="none" stroke="rgb(0,69,134)" stroke-linejoin="round" d="M 7849,8039 L 7849,8289 8099,8289 8099,8039 7849,8039 Z"/>
 <path fill="rgb(0,69,134)" stroke="none" d="M 8442,8039 L 8442,8289 8692,8289 8692,8039 8442,8039 Z"/>
 <path fill="none" stroke="rgb(0,69,134)" stroke-linejoin="round" d="M 8442,8039 L 8442,8289 8692,8289 8692,8039 8442,8039 Z"/>
 <path fill="rgb(0,69,134)" stroke="none" d="M 9034,8039 L 9034,8289 9284,8289 9284,8039 9034,8039 Z"/>
 <path fill="none" stroke="rgb(0,69,134)" stroke-linejoin="round" d="M 9034,8039 L 9034,8289 9284,8289 9284,8039 9034,8039 Z"/>
 <path fill="rgb(0,69,134)" stroke="none" d="M 9626,8039 L 9626,8289 9876,8289 9876,8039 9626,8039 Z"/>
 <path fill="none" stroke="rgb(0,69,134)" stroke-linejoin="round" d="M 9626,8039 L 9626,8289 9876,8289 9876,8039 9626,8039 Z"/>
 <path fill="rgb(0,69,134)" stroke="none" d="M 10219,8039 L 10219,8289 10469,8289 10469,8039 10219,8039 Z"/>
 <path fill="none" stroke="rgb(0,69,134)" stroke-linejoin="round" d="M 10219,8039 L 10219,8289 10469,8289 10469,8039 10219,8039 Z"/>
 <path fill="rgb(0,69,134)" stroke="none" d="M 10811,8039 L 10811,8289 11061,8289 11061,8039 10811,8039 Z"/>
 <path fill="none" stroke="rgb(0,69,134)" stroke-linejoin="round" d="M 10811,8039 L 10811,8289 11061,8289 11061,8039 10811,8039 Z"/>
 <path fill="rgb(0,69,134)" stroke="none" d="M 11404,8039 L 11404,8289 11654,8289 11654,8039 11404,8039 Z"/>
 <path fill="none" stroke="rgb(0,69,134)" stroke-linejoin="round" d="M 11404,8039 L 11404,8289 11654,8289 11654,8039 11404,8039 Z"/>
 <path fill="rgb(0,69,134)" stroke="none" d="M 11996,8039 L 11996,8289 12246,8289 12246,8039 11996,8039 Z"/>
 <path fill="none" stroke="rgb(0,69,134)" stroke-linejoin="round" d="M 11996,8039 L 11996,8289 12246,8289 12246,8039 11996,8039 Z"/>
 <path fill="rgb(0,69,134)" stroke="none" d="M 12589,8039 L 12589,8289 12839,8289 12839,8039 12589,8039 Z"/>
 <path fill="none" stroke="rgb(0,69,134)" stroke-linejoin="round" d="M 12589,8039 L 12589,8289 12839,8289 12839,8039 12589,8039 Z"/>
 <path fill="rgb(0,69,134)" stroke="none" d="M 13181,8039 L 13181,8289 13431,8289 13431,8039 13181,8039 Z"/>
 <path fill="none" stroke="rgb(0,69,134)" stroke-linejoin="round" d="M 13181,8039 L 13181,8289 13431,8289 13431,8039 13181,8039 Z"/>
 <path fill="rgb(0,69,134)" stroke="none" d="M 13774,8039 L 13774,8289 14024,8289 14024,8039 13774,8039 Z"/>
 <path fill="none" stroke="rgb(0,69,134)" stroke-linejoin="round" d="M 13774,8039 L 13774,8289 14024,8289 14024,8039 13774,8039 Z"/>
 <path fill="rgb(0,69,134)" stroke="none" d="M 14366,8039 L 14366,8289 14616,8289 14616,8039 14366,8039 Z"/>
 <path fill="none" stroke="rgb(0,69,134)" stroke-linejoin="round" d="M 14366,8039 L 14366,8289 14616,8289 14616,8039 14366,8039 Z"/>
 <path fill="rgb(0,69,134)" stroke="none" d="M 14959,8039 L 14959,8289 15209,8289 15209,8039 14959,8039 Z"/>
 <path fill="none" stroke="rgb(0,69,134)" stroke-linejoin="round" d="M 14959,8039 L 14959,8289 15209,8289 15209,8039 14959,8039 Z"/>
 <path fill="rgb(0,69,134)" stroke="none" d="M 15551,8039 L 15551,8289 15801,8289 15801,8039 15551,8039 Z"/>
 <path fill="none" stroke="rgb(0,69,134)" stroke-linejoin="round" d="M 15551,8039 L 15551,8289 15801,8289 15801,8039 15551,8039 Z"/>
 <path fill="rgb(0,69,134)" stroke="none" d="M 16144,8039 L 16144,8289 16394,8289 16394,8039 16144,8039 Z"/>
 <path fill="none" stroke="rgb(0,69,134)" stroke-linejoin="round" d="M 16144,8039 L 16144,8289 16394,8289 16394,8039 16144,8039 Z"/>
 <path fill="rgb(0,69,134)" stroke="none" d="M 16736,8039 L 16736,8289 16986,8289 16986,8039 16736,8039 Z"/>
 <path fill="none" stroke="rgb(0,69,134)" stroke-linejoin="round" d="M 16736,8039 L 16736,8289 16986,8289 16986,8039 16736,8039 Z"/>
 <path fill="rgb(0,69,134)" stroke="none" d="M 17328,8039 L 17328,8289 17578,8289 17578,8039 17328,8039 Z"/>
 <path fill="none" stroke="rgb(0,69,134)" stroke-linejoin="round" d="M 17328,8039 L 17328,8289 17578,8289 17578,8039 17328,8039 Z"/>
 <path fill="rgb(0,69,134)" stroke="none" d="M 17921,8039 L 17921,8289 18171,8289 18171,8039 17921,8039 Z"/>
 <path fill="none" stroke="rgb(0,69,134)" stroke-linejoin="round" d="M 17921,8039 L 17921,8289 18171,8289 18171,8039 17921,8039 Z"/>
 <path fill="rgb(0,69,134)" stroke="none" d="M 18513,8039 L 18513,8289 18763,8289 18763,8039 18513,8039 Z"/>
 <path fill="none" stroke="rgb(0,69,134)" stroke-linejoin="round" d="M 18513,8039 L 18513,8289 18763,8289 18763,8039 18513,8039 Z"/>
 <path fill="rgb(0,69,134)" stroke="none" d="M 19106,8039 L 19106,8289 19356,8289 19356,8039 19106,8039 Z"/>
 <path fill="none" stroke="rgb(0,69,134)" stroke-linejoin="round" d="M 19106,8039 L 19106,8289 19356,8289 19356,8039 19106,8039 Z"/>
 <path fill="rgb(0,69,134)" stroke="none" d="M 19698,8039 L 19698,8289 19948,8289 19948,8039 19698,8039 Z"/>
 <path fill="none" stroke="rgb(0,69,134)" stroke-linejoin="round" d="M 19698,8039 L 19698,8289 19948,8289 19948,8039 19698,8039 Z"/>
 <path fill="rgb(0,69,134)" stroke="none" d="M 20291,8039 L 20291,8289 20541,8289 20541,8039 20291,8039 Z"/>
 <path fill="none" stroke="rgb(0,69,134)" stroke-linejoin="round" d="M 20291,8039 L 20291,8289 20541,8289 20541,8039 20291,8039 Z"/>
 <path fill="rgb(0,69,134)" stroke="none" d="M 20883,8039 L 20883,8289 21133,8289 21133,8039 20883,8039 Z"/>
 <path fill="none" stroke="rgb(0,69,134)" stroke-linejoin="round" d="M 20883,8039 L 20883,8289 21133,8289 21133,8039 20883,8039 Z"/>
 <path fill="rgb(0,69,134)" stroke="none" d="M 21476,8039 L 21476,8289 21726,8289 21726,8039 21476,8039 Z"/>
 <path fill="none" stroke="rgb(0,69,134)" stroke-linejoin="round" d="M 21476,8039 L 21476,8289 21726,8289 21726,8039 21476,8039 Z"/>
 <path fill="rgb(0,69,134)" stroke="none" d="M 22068,8039 L 22068,8289 22318,8289 22318,8039 22068,8039 Z"/>
 <path fill="none" stroke="rgb(0,69,134)" stroke-linejoin="round" d="M 22068,8039 L 22068,8289 22318,8289 22318,8039 22068,8039 Z"/>
 <path fill="rgb(0,69,134)" stroke="none" d="M 22661,8039 L 22661,8289 22911,8289 22911,8039 22661,8039 Z"/>
 <path fill="none" stroke="rgb(0,69,134)" stroke-linejoin="round" d="M 22661,8039 L 22661,8289 22911,8289 22911,8039 22661,8039 Z"/>
 <path fill="rgb(0,69,134)" stroke="none" d="M 23253,8039 L 23253,8289 23503,8289 23503,8039 23253,8039 Z"/>
 <path fill="none" stroke="rgb(0,69,134)" stroke-linejoin="round" d="M 23253,8039 L 23253,8289 23503,8289 23503,8039 23253,8039 Z"/>
 <path fill="rgb(0,69,134)" stroke="none" d="M 23846,8039 L 23846,8289 24096,8289 24096,8039 23846,8039 Z"/>
 <path fill="none" stroke="rgb(0,69,134)" stroke-linejoin="round" d="M 23846,8039 L 23846,8289 24096,8289 24096,8039 23846,8039 Z"/>
 <path fill="rgb(0,69,134)" stroke="none" d="M 24438,8039 L 24438,8289 24688,8289 24688,8039 24438,8039 Z"/>
 <path fill="none" stroke="rgb(0,69,134)" stroke-linejoin="round" d="M 24438,8039 L 24438,8289 24688,8289 24688,8039 24438,8039 Z"/>
 <path fill="rgb(0,69,134)" stroke="none" d="M 25030,8039 L 25030,8289 25280,8289 25280,8039 25030,8039 Z"/>
 <path fill="none" stroke="rgb(0,69,134)" stroke-linejoin="round" d="M 25030,8039 L 25030,8289 25280,8289 25280,8039 25030,8039 Z"/>
 <path fill="rgb(0,69,134)" stroke="none" d="M 25623,8039 L 25623,8289 25873,8289 25873,8039 25623,8039 Z"/>
 <path fill="none" stroke="rgb(0,69,134)" stroke-linejoin="round" d="M 25623,8039 L 25623,8289 25873,8289 25873,8039 25623,8039 Z"/>
 <path fill="rgb(0,69,134)" stroke="none" d="M 26215,8039 L 26215,8289 26465,8289 26465,8039 26215,8039 Z"/>
 <path fill="none" stroke="rgb(0,69,134)" stroke-linejoin="round" d="M 26215,8039 L 26215,8289 26465,8289 26465,8039 26215,8039 Z"/>
 <path fill="rgb(0,69,134)" stroke="none" d="M 26808,8039 L 26808,8289 27058,8289 27058,8039 26808,8039 Z"/>
 <path fill="none" stroke="rgb(0,69,134)" stroke-linejoin="round" d="M 26808,8039 L 26808,8289 27058,8289 27058,8039 26808,8039 Z"/>
 <path fill="rgb(0,69,134)" stroke="none" d="M 27400,8039 L 27400,8289 27650,8289 27650,8039 27400,8039 Z"/>
 <path fill="none" stroke="rgb(0,69,134)" stroke-linejoin="round" d="M 27400,8039 L 27400,8289 27650,8289 27650,8039 27400,8039 Z"/>
 <path fill="rgb(0,69,134)" stroke="none" d="M 27993,8039 L 27993,8289 28243,8289 28243,8039 27993,8039 Z"/>
 <path fill="none" stroke="rgb(0,69,134)" stroke-linejoin="round" d="M 27993,8039 L 27993,8289 28243,8289 28243,8039 27993,8039 Z"/>
 <path fill="rgb(0,69,134)" stroke="none" d="M 28585,8039 L 28585,8289 28835,8289 28835,8039 28585,8039 Z"/>
 <path fill="none" stroke="rgb(0,69,134)" stroke-linejoin="round" d="M 28585,8039 L 28585,8289 28835,8289 28835,8039 28585,8039 Z"/>
 <path fill="rgb(0,69,134)" stroke="none" d="M 29178,8039 L 29178,8289 29428,8289 29428,8039 29178,8039 Z"/>
 <path fill="none" stroke="rgb(0,69,134)" stroke-linejoin="round" d="M 29178,8039 L 29178,8289 29428,8289 29428,8039 29178,8039 Z"/>
 <path fill="rgb(0,69,134)" stroke="none" d="M 29770,8039 L 29770,8289 30020,8289 30020,8039 29770,8039 Z"/>
 <path fill="none" stroke="rgb(0,69,134)" stroke-linejoin="round" d="M 29770,8039 L 29770,8289 30020,8289 30020,8039 29770,8039 Z"/>
 <path fill="rgb(0,69,134)" stroke="none" d="M 30363,8039 L 30363,8289 30613,8289 30613,8039 30363,8039 Z"/>
 <path fill="none" stroke="rgb(0,69,134)" stroke-linejoin="round" d="M 30363,8039 L 30363,8289 30613,8289 30613,8039 30363,8039 Z"/>
 <path fill="rgb(0,69,134)" stroke="none" d="M 30955,8039 L 30955,8289 31205,8289 31205,8039 30955,8039 Z"/>
 <path fill="none" stroke="rgb(0,69,134)" stroke-linejoin="round" d="M 30955,8039 L 30955,8289 31205,8289 31205,8039 30955,8039 Z"/>
 <path fill="rgb(0,69,134)" stroke="none" d="M 31547,8039 L 31547,8289 31797,8289 31797,8039 31547,8039 Z"/>
 <path fill="none" stroke="rgb(0,69,134)" stroke-linejoin="round" d="M 31547,8039 L 31547,8289 31797,8289 31797,8039 31547,8039 Z"/>
 <path fill="rgb(0,69,134)" stroke="none" d="M 32139,8039 L 32139,8289 32389,8289 32389,8039 32139,8039 Z"/>
 <path fill="none" stroke="rgb(0,69,134)" stroke-linejoin="round" d="M 32139,8039 L 32139,8289 32389,8289 32389,8039 32139,8039 Z"/>
 <path fill="rgb(0,69,134)" stroke="none" d="M 32731,8039 L 32731,8289 32981,8289 32981,8039 32731,8039 Z"/>
 <path fill="none" stroke="rgb(0,69,134)" stroke-linejoin="round" d="M 32731,8039 L 32731,8289 32981,8289 32981,8039 32731,8039 Z"/>
 <path fill="rgb(0,69,134)" stroke="none" d="M 33324,8039 L 33324,8289 33574,8289 33574,8039 33324,8039 Z"/>
 <path fill="none" stroke="rgb(0,69,134)" stroke-linejoin="round" d="M 33324,8039 L 33324,8289 33574,8289 33574,8039 33324,8039 Z"/>
 <path fill="rgb(0,69,134)" stroke="none" d="M 33916,8039 L 33916,8289 34166,8289 34166,8039 33916,8039 Z"/>
 <path fill="none" stroke="rgb(0,69,134)" stroke-linejoin="round" d="M 33916,8039 L 33916,8289 34166,8289 34166,8039 33916,8039 Z"/>
 <path fill="rgb(0,69,134)" stroke="none" d="M 34509,8039 L 34509,8289 34759,8289 34759,8039 34509,8039 Z"/>
 <path fill="none" stroke="rgb(0,69,134)" stroke-linejoin="round" d="M 34509,8039 L 34509,8289 34759,8289 34759,8039 34509,8039 Z"/>
 <path fill="rgb(0,69,134)" stroke="none" d="M 35101,8039 L 35101,8289 35351,8289 35351,8039 35101,8039 Z"/>
 <path fill="none" stroke="rgb(0,69,134)" stroke-linejoin="round" d="M 35101,8039 L 35101,8289 35351,8289 35351,8039 35101,8039 Z"/>
 <path fill="rgb(0,69,134)" stroke="none" d="M 35694,8039 L 35694,8289 35944,8289 35944,8039 35694,8039 Z"/>
 <path fill="none" stroke="rgb(0,69,134)" stroke-linejoin="round" d="M 35694,8039 L 35694,8289 35944,8289 35944,8039 35694,8039 Z"/>
 <path fill="rgb(0,69,134)" stroke="none" d="M 36286,8039 L 36286,8289 36536,8289 36536,8039 36286,8039 Z"/>
 <path fill="none" stroke="rgb(0,69,134)" stroke-linejoin="round" d="M 36286,8039 L 36286,8289 36536,8289 36536,8039 36286,8039 Z"/>
 <path fill="rgb(0,69,134)" stroke="none" d="M 36879,8039 L 36879,8289 37129,8289 37129,8039 36879,8039 Z"/>
 <path fill="none" stroke="rgb(0,69,134)" stroke-linejoin="round" d="M 36879,8039 L 36879,8289 37129,8289 37129,8039 36879,8039 Z"/>
 <path fill="rgb(0,69,134)" stroke="none" d="M 37471,8039 L 37471,8289 37721,8289 37721,8039 37471,8039 Z"/>
 <path fill="none" stroke="rgb(0,69,134)" stroke-linejoin="round" d="M 37471,8039 L 37471,8289 37721,8289 37721,8039 37471,8039 Z"/>
 <path fill="rgb(0,69,134)" stroke="none" d="M 38064,8039 L 38064,8289 38314,8289 38314,8039 38064,8039 Z"/>
 <path fill="none" stroke="rgb(0,69,134)" stroke-linejoin="round" d="M 38064,8039 L 38064,8289 38314,8289 38314,8039 38064,8039 Z"/>
 <path fill="rgb(0,69,134)" stroke="none" d="M 38656,8039 L 38656,8289 38906,8289 38906,8039 38656,8039 Z"/>
 <path fill="none" stroke="rgb(0,69,134)" stroke-linejoin="round" d="M 38656,8039 L 38656,8289 38906,8289 38906,8039 38656,8039 Z"/>
 <path fill="rgb(0,69,134)" stroke="none" d="M 39248,8039 L 39248,8289 39498,8289 39498,8039 39248,8039 Z"/>
 <path fill="none" stroke="rgb(0,69,134)" stroke-linejoin="round" d="M 39248,8039 L 39248,8289 39498,8289 39498,8039 39248,8039 Z"/>
 <path fill="rgb(0,69,134)" stroke="none" d="M 39841,8039 L 39841,8289 40091,8289 40091,8039 39841,8039 Z"/>
 <path fill="none" stroke="rgb(0,69,134)" stroke-linejoin="round" d="M 39841,8039 L 39841,8289 40091,8289 40091,8039 39841,8039 Z"/>
 <path fill="rgb(0,69,134)" stroke="none" d="M 40433,8039 L 40433,8289 40683,8289 40683,8039 40433,8039 Z"/>
 <path fill="none" stroke="rgb(0,69,134)" stroke-linejoin="round" d="M 40433,8039 L 40433,8289 40683,8289 40683,8039 40433,8039 Z"/>
 <path fill="rgb(0,69,134)" stroke="none" d="M 41026,8039 L 41026,8289 41276,8289 41276,8039 41026,8039 Z"/>
 <path fill="none" stroke="rgb(0,69,134)" stroke-linejoin="round" d="M 41026,8039 L 41026,8289 41276,8289 41276,8039 41026,8039 Z"/>
 <path fill="rgb(0,69,134)" stroke="none" d="M 41618,8039 L 41618,8289 41868,8289 41868,8039 41618,8039 Z"/>
 <path fill="none" stroke="rgb(0,69,134)" stroke-linejoin="round" d="M 41618,8039 L 41618,8289 41868,8289 41868,8039 41618,8039 Z"/>
 <path fill="rgb(0,69,134)" stroke="none" d="M 42211,8039 L 42211,8289 42461,8289 42461,8039 42211,8039 Z"/>
 <path fill="none" stroke="rgb(0,69,134)" stroke-linejoin="round" d="M 42211,8039 L 42211,8289 42461,8289 42461,8039 42211,8039 Z"/>
 <path fill="rgb(0,69,134)" stroke="none" d="M 42803,8039 L 42803,8289 43053,8289 43053,8039 42803,8039 Z"/>
 <path fill="none" stroke="rgb(0,69,134)" stroke-linejoin="round" d="M 42803,8039 L 42803,8289 43053,8289 43053,8039 42803,8039 Z"/>
 <path fill="rgb(0,69,134)" stroke="none" d="M 43396,8039 L 43396,8289 43646,8289 43646,8039 43396,8039 Z"/>
 <path fill="none" stroke="rgb(0,69,134)" stroke-linejoin="round" d="M 43396,8039 L 43396,8289 43646,8289 43646,8039 43396,8039 Z"/>
 <path fill="rgb(0,69,134)" stroke="none" d="M 43988,8039 L 43988,8289 44238,8289 44238,8039 43988,8039 Z"/>
 <path fill="none" stroke="rgb(0,69,134)" stroke-linejoin="round" d="M 43988,8039 L 43988,8289 44238,8289 44238,8039 43988,8039 Z"/>
 <path fill="rgb(0,69,134)" stroke="none" d="M 44581,8039 L 44581,8289 44831,8289 44831,8039 44581,8039 Z"/>
 <path fill="none" stroke="rgb(0,69,134)" stroke-linejoin="round" d="M 44581,8039 L 44581,8289 44831,8289 44831,8039 44581,8039 Z"/>
 <path fill="rgb(0,69,134)" stroke="none" d="M 45173,8039 L 45173,8289 45423,8289 45423,8039 45173,8039 Z"/>
 <path fill="none" stroke="rgb(0,69,134)" stroke-linejoin="round" d="M 45173,8039 L 45173,8289 45423,8289 45423,8039 45173,8039 Z"/>
 <path fill="rgb(0,69,134)" stroke="none" d="M 45766,8039 L 45766,8289 46016,8289 46016,8039 45766,8039 Z"/>
 <path fill="none" stroke="rgb(0,69,134)" stroke-linejoin="round" d="M 45766,8039 L 45766,8289 46016,8289 46016,8039 45766,8039 Z"/>
 <path fill="rgb(0,69,134)" stroke="none" d="M 46358,8039 L 46358,8289 46608,8289 46608,8039 46358,8039 Z"/>
 <path fill="none" stroke="rgb(0,69,134)" stroke-linejoin="round" d="M 46358,8039 L 46358,8289 46608,8289 46608,8039 46358,8039 Z"/>
 <path fill="rgb(0,69,134)" stroke="none" d="M 46950,8039 L 46950,8289 47200,8289 47200,8039 46950,8039 Z"/>
 <path fill="none" stroke="rgb(0,69,134)" stroke-linejoin="round" d="M 46950,8039 L 46950,8289 47200,8289 47200,8039 46950,8039 Z"/>
 <path fill="rgb(0,69,134)" stroke="none" d="M 47543,8039 L 47543,8289 47793,8289 47793,8039 47543,8039 Z"/>
 <path fill="none" stroke="rgb(0,69,134)" stroke-linejoin="round" d="M 47543,8039 L 47543,8289 47793,8289 47793,8039 47543,8039 Z"/>
 <path fill="rgb(0,69,134)" stroke="none" d="M 48135,8039 L 48135,8289 48385,8289 48385,8039 48135,8039 Z"/>
 <path fill="none" stroke="rgb(0,69,134)" stroke-linejoin="round" d="M 48135,8039 L 48135,8289 48385,8289 48385,8039 48135,8039 Z"/>
 <path fill="rgb(0,69,134)" stroke="none" d="M 48728,8039 L 48728,8289 48978,8289 48978,8039 48728,8039 Z"/>
 <path fill="none" stroke="rgb(0,69,134)" stroke-linejoin="round" d="M 48728,8039 L 48728,8289 48978,8289 48978,8039 48728,8039 Z"/>
 <path fill="rgb(0,69,134)" stroke="none" d="M 49320,8039 L 49320,8289 49570,8289 49570,8039 49320,8039 Z"/>
 <path fill="none" stroke="rgb(0,69,134)" stroke-linejoin="round" d="M 49320,8039 L 49320,8289 49570,8289 49570,8039 49320,8039 Z"/>
 <path fill="rgb(0,69,134)" stroke="none" d="M 49913,8039 L 49913,8289 50163,8289 50163,8039 49913,8039 Z"/>
 <path fill="none" stroke="rgb(0,69,134)" stroke-linejoin="round" d="M 49913,8039 L 49913,8289 50163,8289 50163,8039 49913,8039 Z"/>
 <path fill="rgb(0,69,134)" stroke="none" d="M 50505,8039 L 50505,8289 50755,8289 50755,8039 50505,8039 Z"/>
 <path fill="none" stroke="rgb(0,69,134)" stroke-linejoin="round" d="M 50505,8039 L 50505,8289 50755,8289 50755,8039 50505,8039 Z"/>
 <path fill="rgb(0,69,134)" stroke="none" d="M 51098,8039 L 51098,8289 51348,8289 51348,8039 51098,8039 Z"/>
 <path fill="none" stroke="rgb(0,69,134)" stroke-linejoin="round" d="M 51098,8039 L 51098,8289 51348,8289 51348,8039 51098,8039 Z"/>
 <path fill="rgb(0,69,134)" stroke="none" d="M 51690,8039 L 51690,8289 51940,8289 51940,8039 51690,8039 Z"/>
 <path fill="none" stroke="rgb(0,69,134)" stroke-linejoin="round" d="M 51690,8039 L 51690,8289 51940,8289 51940,8039 51690,8039 Z"/>
 <path fill="rgb(0,69,134)" stroke="none" d="M 52283,8039 L 52283,8289 52533,8289 52533,8039 52283,8039 Z"/>
 <path fill="none" stroke="rgb(0,69,134)" stroke-linejoin="round" d="M 52283,8039 L 52283,8289 52533,8289 52533,8039 52283,8039 Z"/>
 <path fill="rgb(0,69,134)" stroke="none" d="M 52875,8039 L 52875,8289 53125,8289 53125,8039 52875,8039 Z"/>
 <path fill="none" stroke="rgb(0,69,134)" stroke-linejoin="round" d="M 52875,8039 L 52875,8289 53125,8289 53125,8039 52875,8039 Z"/>
 <path fill="rgb(0,69,134)" stroke="none" d="M 53468,8039 L 53468,8289 53718,8289 53718,8039 53468,8039 Z"/>
 <path fill="none" stroke="rgb(0,69,134)" stroke-linejoin="round" d="M 53468,8039 L 53468,8289 53718,8289 53718,8039 53468,8039 Z"/>
 <path fill="rgb(0,69,134)" stroke="none" d="M 54060,8039 L 54060,8289 54310,8289 54310,8039 54060,8039 Z"/>
 <path fill="none" stroke="rgb(0,69,134)" stroke-linejoin="round" d="M 54060,8039 L 54060,8289 54310,8289 54310,8039 54060,8039 Z"/>
 <path fill="rgb(0,69,134)" stroke="none" d="M 54652,8039 L 54652,8289 54902,8289 54902,8039 54652,8039 Z"/>
 <path fill="none" stroke="rgb(0,69,134)" stroke-linejoin="round" d="M 54652,8039 L 54652,8289 54902,8289 54902,8039 54652,8039 Z"/>
 <path fill="rgb(0,69,134)" stroke="none" d="M 55245,8039 L 55245,8289 55495,8289 55495,8039 55245,8039 Z"/>
 <path fill="none" stroke="rgb(0,69,134)" stroke-linejoin="round" d="M 55245,8039 L 55245,8289 55495,8289 55495,8039 55245,8039 Z"/>
 <path fill="rgb(0,69,134)" stroke="none" d="M 55837,8039 L 55837,8289 56087,8289 56087,8039 55837,8039 Z"/>
 <path fill="none" stroke="rgb(0,69,134)" stroke-linejoin="round" d="M 55837,8039 L 55837,8289 56087,8289 56087,8039 55837,8039 Z"/>
 <path fill="rgb(0,69,134)" stroke="none" d="M 56430,8039 L 56430,8289 56680,8289 56680,8039 56430,8039 Z"/>
 <path fill="none" stroke="rgb(0,69,134)" stroke-linejoin="round" d="M 56430,8039 L 56430,8289 56680,8289 56680,8039 56430,8039 Z"/>
 <path fill="rgb(0,69,134)" stroke="none" d="M 57022,8039 L 57022,8289 57272,8289 57272,8039 57022,8039 Z"/>
 <path fill="none" stroke="rgb(0,69,134)" stroke-linejoin="round" d="M 57022,8039 L 57022,8289 57272,8289 57272,8039 57022,8039 Z"/>
 <path fill="rgb(0,69,134)" stroke="none" d="M 57615,8039 L 57615,8289 57865,8289 57865,8039 57615,8039 Z"/>
 <path fill="none" stroke="rgb(0,69,134)" stroke-linejoin="round" d="M 57615,8039 L 57615,8289 57865,8289 57865,8039 57615,8039 Z"/>
 <path fill="rgb(0,69,134)" stroke="none" d="M 58207,8039 L 58207,8289 58457,8289 58457,8039 58207,8039 Z"/>
 <path fill="none" stroke="rgb(0,69,134)" stroke-linejoin="round" d="M 58207,8039 L 58207,8289 58457,8289 58457,8039 58207,8039 Z"/>
 <path fill="rgb(0,69,134)" stroke="none" d="M 58800,8039 L 58800,8289 59050,8289 59050,8039 58800,8039 Z"/>
 <path fill="none" stroke="rgb(0,69,134)" stroke-linejoin="round" d="M 58800,8039 L 58800,8289 59050,8289 59050,8039 58800,8039 Z"/>
 <path fill="rgb(0,69,134)" stroke="none" d="M 59392,8039 L 59392,8289 59642,8289 59642,8039 59392,8039 Z"/>
 <path fill="none" stroke="rgb(0,69,134)" stroke-linejoin="round" d="M 59392,8039 L 59392,8289 59642,8289 59642,8039 59392,8039 Z"/>
 <path fill="rgb(0,69,134)" stroke="none" d="M 59985,8039 L 59985,8289 60235,8289 60235,8039 59985,8039 Z"/>
 <path fill="none" stroke="rgb(0,69,134)" stroke-linejoin="round" d="M 59985,8039 L 59985,8289 60235,8289 60235,8039 59985,8039 Z"/>
 <path fill="rgb(0,69,134)" stroke="none" d="M 60577,8039 L 60577,8289 60827,8289 60827,8039 60577,8039 Z"/>
 <path fill="none" stroke="rgb(0,69,134)" stroke-linejoin="round" d="M 60577,8039 L 60577,8289 60827,8289 60827,8039 60577,8039 Z"/>
 <text class="SVGTextShape"><tspan class="TextParagraph" font-family="Liberation Sans, sans-serif" font-size="353px" font-weight="400"><tspan class="TextPosition" x="1957" y="8732"><tspan fill="rgb(0,0,0)" stroke="none" style="white-space: pre">0</tspan></tspan></tspan></text>
 <text class="SVGTextShape"><tspan class="TextParagraph" font-family="Liberation Sans, sans-serif" font-size="353px" font-weight="400"><tspan class="TextPosition" x="7789" y="8732"><tspan fill="rgb(0,0,0)" stroke="none" style="white-space: pre">10</tspan></tspan></tspan></text>
 <text class="SVGTextShape"><tspan class="TextParagraph" font-family="Liberation Sans, sans-serif" font-size="353px" font-weight="400"><tspan class="TextPosition" x="13714" y="8732"><tspan fill="rgb(0,0,0)" stroke="none" style="white-space: pre">20</tspan></tspan></tspan></text>
 <text class="SVGTextShape"><tspan class="TextParagraph" font-family="Liberation Sans, sans-serif" font-size="353px" font-weight="400"><tspan class="TextPosition" x="19638" y="8732"><tspan fill="rgb(0,0,0)" stroke="none" style="white-space: pre">30</tspan></tspan></tspan></text>
 <text class="SVGTextShape"><tspan class="TextParagraph" font-family="Liberation Sans, sans-serif" font-size="353px" font-weight="400"><tspan class="TextPosition" x="25563" y="8732"><tspan fill="rgb(0,0,0)" stroke="none" style="white-space: pre">40</tspan></tspan></tspan></text>
 <text class="SVGTextShape"><tspan class="TextParagraph" font-family="Liberation Sans, sans-serif" font-size="353px" font-weight="400"><tspan class="TextPosition" x="31488" y="8732"><tspan fill="rgb(0,0,0)" stroke="none" style="white-space: pre">50</tspan></tspan></tspan></text>
 <text class="SVGTextShape"><tspan class="TextParagraph" font-family="Liberation Sans, sans-serif" font-size="353px" font-weight="400"><tspan class="TextPosition" x="37412" y="8732"><tspan fill="rgb(0,0,0)" stroke="none" style="white-space: pre">60</tspan></tspan></tspan></text>
 <text class="SVGTextShape"><tspan class="TextParagraph" font-family="Liberation Sans, sans-serif" font-size="353px" font-weight="400"><tspan class="TextPosition" x="43337" y="8732"><tspan fill="rgb(0,0,0)" stroke="none" style="white-space: pre">70</tspan></tspan></tspan></text>
 <text class="SVGTextShape"><tspan class="TextParagraph" font-family="Liberation Sans, sans-serif" font-size="353px" font-weight="400"><tspan class="TextPosition" x="49261" y="8732"><tspan fill="rgb(0,0,0)" stroke="none" style="white-space: pre">80</tspan></tspan></tspan></text>
 <text class="SVGTextShape"><tspan class="TextParagraph" font-family="Liberation Sans, sans-serif" font-size="353px" font-weight="400"><tspan class="TextPosition" x="55186" y="8732"><tspan fill="rgb(0,0,0)" stroke="none" style="white-space: pre">90</tspan></tspan></tspan></text>
 <text class="SVGTextShape"><tspan class="TextParagraph" font-family="Liberation Sans, sans-serif" font-size="353px" font-weight="400"><tspan class="TextPosition" x="61018" y="8732"><tspan fill="rgb(0,0,0)" stroke="none" style="white-space: pre">100</tspan></tspan></tspan></text>
 <text class="SVGTextShape"><tspan class="TextParagraph" font-family="Liberation Sans, sans-serif" font-size="353px" font-weight="400"><tspan class="TextPosition" x="1615" y="8285"><tspan fill="rgb(0,0,0)" stroke="none" style="white-space: pre">0</tspan></tspan></tspan></text>
 <text class="SVGTextShape"><tspan class="TextParagraph" font-family="Liberation Sans, sans-serif" font-size="353px" font-weight="400"><tspan class="TextPosition" x="1430" y="6985"><tspan fill="rgb(0,0,0)" stroke="none" style="white-space: pre">20</tspan></tspan></tspan></text>
 <text class="SVGTextShape"><tspan class="TextParagraph" font-family="Liberation Sans, sans-serif" font-size="353px" font-weight="400"><tspan class="TextPosition" x="1430" y="5685"><tspan fill="rgb(0,0,0)" stroke="none" style="white-space: pre">40</tspan></tspan></tspan></text>
 <text class="SVGTextShape"><tspan class="TextParagraph" font-family="Liberation Sans, sans-serif" font-size="353px" font-weight="400"><tspan class="TextPosition" x="1430" y="4385"><tspan fill="rgb(0,0,0)" stroke="none" style="white-space: pre">60</tspan></tspan></tspan></text>
 <text class="SVGTextShape"><tspan class="TextParagraph" font-family="Liberation Sans, sans-serif" font-size="353px" font-weight="400"><tspan class="TextPosition" x="1430" y="3085"><tspan fill="rgb(0,0,0)" stroke="none" style="white-space: pre">80</tspan></tspan></tspan></text>
 <text class="SVGTextShape"><tspan class="TextParagraph" font-family="Liberation Sans, sans-serif" font-size="353px" font-weight="400"><tspan class="TextPosition" x="1244" y="1785"><tspan fill="rgb(0,0,0)" stroke="none" style="white-space: pre">100</tspan></tspan></tspan></text>
 <text class="SVGTextShape"><tspan class="TextParagraph" font-family="Liberation Sans, sans-serif" font-size="353px" font-weight="400"><tspan class="TextPosition" x="1244" y="485"><tspan fill="rgb(0,0,0)" stroke="none" style="white-space: pre">120</tspan></tspan></tspan></text>
</svg>