<?xml version="1.0" encoding="UTF-8"?>
<!DOCTYPE svg PUBLIC "-//W3C//DTD SVG 1.1//EN" "http://www.w3.org/Graphics/SVG/1.1/DTD/svg11.dtd">
<svg width="558mm" height="90mm" viewBox="0 0 55800 9000" version="1.1" xmlns="http://www.w3.org/2000/svg" xmlns:xlink="http://www.w3.org/1999/xlink" stroke-width="28.222" stroke-linejoin="round" xml:space="preserve">
 <path fill="rgb(255,255,255)" stroke="none" d="M 27888,8986 L -13,8986 -13,-13 55788,-13 55788,8986 27888,8986 Z"/>
 <path fill="none" stroke="rgb(179,179,179)" stroke-linejoin="round" d="M 28111,8607 L 1830,8607 1830,366 54392,366 54392,8607 28111,8607 Z"/>
 <path fill="none" stroke="rgb(179,179,179)" stroke-linejoin="round" d="M 54392,8606 L 1830,8606"/>
 <path fill="none" stroke="rgb(179,179,179)" stroke-linejoin="round" d="M 54392,7232 L 1830,7232"/>
 <path fill="none" stroke="rgb(179,179,179)" stroke-linejoin="round" d="M 54392,5858 L 1830,5858"/>
 <path fill="none" stroke="rgb(179,179,179)" stroke-linejoin="round" d="M 54392,4486 L 1830,4486"/>
 <path fill="none" stroke="rgb(179,179,179)" stroke-linejoin="round" d="M 54392,3112 L 1830,3112"/>
 <path fill="none" stroke="rgb(179,179,179)" stroke-linejoin="round" d="M 54392,1738 L 1830,1738"/>
 <path fill="none" stroke="rgb(179,179,179)" stroke-linejoin="round" d="M 54392,365 L 1830,365"/>
 <path fill="none" stroke="rgb(179,179,179)" stroke-linejoin="round" d="M 1830,4635 L 1830,4486"/>
 <path fill="none" stroke="rgb(179,179,179)" stroke-linejoin="round" d="M 1830,4635 L 1830,4486"/>
 <path fill="none" stroke="rgb(179,179,179)" stroke-linejoin="round" d="M 7086,4635 L 7086,4486"/>
 <path fill="none" stroke="rgb(179,179,179)" stroke-linejoin="round" d="M 7086,4635 L 7086,4486"/>
 <path fill="none" stroke="rgb(179,179,179)" stroke-linejoin="round" d="M 12342,4635 L 12342,4486"/>
 <path fill="none" stroke="rgb(179,179,179)" stroke-linejoin="round" d="M 12342,4635 L 12342,4486"/>
 <path fill="none" stroke="rgb(179,179,179)" stroke-linejoin="round" d="M 17598,4635 L 17598,4486"/>
 <path fill="none" stroke="rgb(179,179,179)" stroke-linejoin="round" d="M 17598,4635 L 17598,4486"/>
 <path fill="none" stroke="rgb(179,179,179)" stroke-linejoin="round" d="M 22855,4635 L 22855,4486"/>
 <path fill="none" stroke="rgb(179,179,179)" stroke-linejoin="round" d="M 22855,4635 L 22855,4486"/>
 <path fill="none" stroke="rgb(179,179,179)" stroke-linejoin="round" d="M 28110,4635 L 28110,4486"/>
 <path fill="none" stroke="rgb(179,179,179)" stroke-linejoin="round" d="M 28110,4635 L 28110,4486"/>
 <path fill="none" stroke="rgb(179,179,179)" stroke-linejoin="round" d="M 33366,4635 L 33366,4486"/>
 <path fill="none" stroke="rgb(179,179,179)" stroke-linejoin="round" d="M 33366,4635 L 33366,4486"/>
 <path fill="none" stroke="rgb(179,179,179)" stroke-linejoin="round" d="M 38623,4635 L 38623,4486"/>
 <path fill="none" stroke="rgb(179,179,179)" stroke-linejoin="round" d="M 38623,4635 L 38623,4486"/>
 <path fill="none" stroke="rgb(179,179,179)" stroke-linejoin="round" d="M 43879,4635 L 43879,4486"/>
 <path fill="none" stroke="rgb(179,179,179)" stroke-linejoin="round" d="M 43879,4635 L 43879,4486"/>
 <path fill="none" stroke="rgb(179,179,179)" stroke-linejoin="round" d="M 49135,4635 L 49135,4486"/>
 <path fill="none" stroke="rgb(179,179,179)" stroke-linejoin="round" d="M 49135,4635 L 49135,4486"/>
 <path fill="none" stroke="rgb(179,179,179)" stroke-linejoin="round" d="M 54392,4635 L 54392,4486"/>
 <path fill="none" stroke="rgb(179,179,179)" stroke-linejoin="round" d="M 54392,4635 L 54392,4486"/>
 <path fill="none" stroke="rgb(179,179,179)" stroke-linejoin="round" d="M 1830,4486 L 54392,4486"/>
 <path fill="none" stroke="rgb(179,179,179)" stroke-linejoin="round" d="M 1680,8606 L 1830,8606"/>
 <path fill="none" stroke="rgb(179,179,179)" stroke-linejoin="round" d="M 1680,8606 L 1830,8606"/>
 <path fill="none" stroke="rgb(179,179,179)" stroke-linejoin="round" d="M 1680,7232 L 1830,7232"/>
 <path fill="none" stroke="rgb(179,179,179)" stroke-linejoin="round" d="M 1680,7232 L 1830,7232"/>
 <path fill="none" stroke="rgb(179,179,179)" stroke-linejoin="round" d="M 1680,5858 L 1830,5858"/>
 <path fill="none" stroke="rgb(179,179,179)" stroke-linejoin="round" d="M 1680,5858 L 1830,5858"/>
 <path fill="none" stroke="rgb(179,179,179)" stroke-linejoin="round" d="M 1680,4486 L 1830,4486"/>
 <path fill="none" stroke="rgb(179,179,179)" stroke-linejoin="round" d="M 1680,4486 L 1830,4486"/>
 <path fill="none" stroke="rgb(179,179,179)" stroke-linejoin="round" d="M 1680,3112 L 1830,3112"/>
 <path fill="none" stroke="rgb(179,179,179)" stroke-linejoin="round" d="M 1680,3112 L 1830,3112"/>
 <path fill="none" stroke="rgb(179,179,179)" stroke-linejoin="round" d="M 1680,1738 L 1830,1738"/>
 <path fill="none" stroke="rgb(179,179,179)" stroke-linejoin="round" d="M 1680,1738 L 1830,1738"/>
 <path fill="none" stroke="rgb(179,179,179)" stroke-linejoin="round" d="M 1680,365 L 1830,365"/>
 <path fill="none" stroke="rgb(179,179,179)" stroke-linejoin="round" d="M 1680,365 L 1830,365"/>
 <path fill="none" stroke="rgb(179,179,179)" stroke-linejoin="round" d="M 1830,8606 L 1830,365"/>
 <path fill="none" stroke="rgb(0,69,134)" stroke-width="80" stroke-linejoin="round" d="M 2355,4486 L 2881,4486 3406,4486 3932,4486 4458,1051 4983,4486 5509,4486 6035,4486 6560,4486 7086,4486 7611,4486 8137,4486 8663,4486 9188,4486 9714,4486 10240,4486 10765,4486 11291,4486 11816,4486 12342,4486 12868,4486 13393,4486 13919,4486 14445,4486 14970,4486 15496,4486 16022,4486 16547,4486 17073,4486 17598,4486 18124,4486 18650,4486 19175,4486 19701,4486 20227,4486 20752,4486 21278,4486 21803,4486 22329,4486 22855,4486 23380,4486 23906,4486 24432,4486 24957,4486 25483,4486 26008,4486 26534,4486 27060,4486 27585,4486 28110,4486 28636,4486 29161,4486 29687,4486 30213,4486 30738,4486 31264,4486 31789,4486 32315,4486 32841,4486 33366,4486 33892,4486 34418,4486 34943,4486 35469,4486 35994,4486 36520,4486 37046,4486 37571,4486 38097,4486 38623,4486 39148,4486 39674,4486 40199,4486 40725,4486 41251,4486 41776,4486 42302,4486 42828,4486 43353,4486 43879,4486 44405,4486 44930,4486 45456,4486 45981,4486 46507,4486 47033,4486 47558,4486 48084,4486 48610,4486 49135,4486 49661,4486 50186,4486 50712,4486 51238,4486 51763,4486 52289,4486 52815,7919 53340,4486 53866,4486 54392,4486"/>
 <path fill="rgb(0,69,134)" stroke="none" d="M 2230,4361 L 2230,4610 2480,4610 2480,4361 2230,4361 Z"/>
 <path fill="none" stroke="rgb(0,69,134)" stroke-linejoin="round" d="M 2230,4361 L 2230,4610 2480,4610 2480,4361 2230,4361 Z"/>
 <path fill="rgb(0,69,134)" stroke="none" d="M 2756,4361 L 2756,4610 3006,4610 3006,4361 2756,4361 Z"/>
 <path fill="none" stroke="rgb(0,69,134)" stroke-linejoin="round" d="M 2756,4361 L 2756,4610 3006,4610 3006,4361 2756,4361 Z"/>
 <path fill="rgb(0,69,134)" stroke="none" d="M 3281,4361 L 3281,4610 3531,4610 3531,4361 3281,4361 Z"/>
 <path fill="none" stroke="rgb(0,69,134)" stroke-linejoin="round" d="M 3281,4361 L 3281,4610 3531,4610 3531,4361 3281,4361 Z"/>
 <path fill="rgb(0,69,134)" stroke="none" d="M 3807,4361 L 3807,4610 4057,4610 4057,4361 3807,4361 Z"/>
 <path fill="none" stroke="rgb(0,69,134)" stroke-linejoin="round" d="M 3807,4361 L 3807,4610 4057,4610 4057,4361 3807,4361 Z"/>
 <path fill="rgb(0,69,134)" stroke="none" d="M 4333,926 L 4333,1176 4583,1176 4583,926 4333,926 Z"/>
 <path fill="none" stroke="rgb(0,69,134)" stroke-linejoin="round" d="M 4333,926 L 4333,1176 4583,1176 4583,926 4333,926 Z"/>
 <path fill="rgb(0,69,134)" stroke="none" d="M 4858,4361 L 4858,4610 5108,4610 5108,4361 4858,4361 Z"/>
 <path fill="none" stroke="rgb(0,69,134)" stroke-linejoin="round" d="M 4858,4361 L 4858,4610 5108,4610 5108,4361 4858,4361 Z"/>
 <path fill="rgb(0,69,134)" stroke="none" d="M 5384,4361 L 5384,4610 5634,4610 5634,4361 5384,4361 Z"/>
 <path fill="none" stroke="rgb(0,69,134)" stroke-linejoin="round" d="M 5384,4361 L 5384,4610 5634,4610 5634,4361 5384,4361 Z"/>
 <path fill="rgb(0,69,134)" stroke="none" d="M 5910,4361 L 5910,4610 6160,4610 6160,4361 5910,4361 Z"/>
 <path fill="none" stroke="rgb(0,69,134)" stroke-linejoin="round" d="M 5910,4361 L 5910,4610 6160,4610 6160,4361 5910,4361 Z"/>
 <path fill="rgb(0,69,134)" stroke="none" d="M 6435,4361 L 6435,4610 6685,4610 6685,4361 6435,4361 Z"/>
 <path fill="none" stroke="rgb(0,69,134)" stroke-linejoin="round" d="M 6435,4361 L 6435,4610 6685,4610 6685,4361 6435,4361 Z"/>
 <path fill="rgb(0,69,134)" stroke="none" d="M 6961,4361 L 6961,4610 7211,4610 7211,4361 6961,4361 Z"/>
 <path fill="none" stroke="rgb(0,69,134)" stroke-linejoin="round" d="M 6961,4361 L 6961,4610 7211,4610 7211,4361 6961,4361 Z"/>
 <path fill="rgb(0,69,134)" stroke="none" d="M 7486,4361 L 7486,4610 7736,4610 7736,4361 7486,4361 Z"/>
 <path fill="none" stroke="rgb(0,69,134)" stroke-linejoin="round" d="M 7486,4361 L 7486,4610 7736,4610 7736,4361 7486,4361 Z"/>
 <path fill="rgb(0,69,134)" stroke="none" d="M 8012,4361 L 8012,4610 8262,4610 8262,4361 8012,4361 Z"/>
 <path fill="none" stroke="rgb(0,69,134)" stroke-linejoin="round" d="M 8012,4361 L 8012,4610 8262,4610 8262,4361 8012,4361 Z"/>
 <path fill="rgb(0,69,134)" stroke="none" d="M 8538,4361 L 8538,4610 8788,4610 8788,4361 8538,4361 Z"/>
 <path fill="none" stroke="rgb(0,69,134)" stroke-linejoin="round" d="M 8538,4361 L 8538,4610 8788,4610 8788,4361 8538,4361 Z"/>
 <path fill="rgb(0,69,134)" stroke="none" d="M 9063,4361 L 9063,4610 9313,4610 9313,4361 9063,4361 Z"/>
 <path fill="none" stroke="rgb(0,69,134)" stroke-linejoin="round" d="M 9063,4361 L 9063,4610 9313,4610 9313,4361 9063,4361 Z"/>
 <path fill="rgb(0,69,134)" stroke="none" d="M 9589,4361 L 9589,4610 9839,4610 9839,4361 9589,4361 Z"/>
 <path fill="none" stroke="rgb(0,69,134)" stroke-linejoin="round" d="M 9589,4361 L 9589,4610 9839,4610 9839,4361 9589,4361 Z"/>
 <path fill="rgb(0,69,134)" stroke="none" d="M 10115,4361 L 10115,4610 10365,4610 10365,4361 10115,4361 Z"/>
 <path fill="none" stroke="rgb(0,69,134)" stroke-linejoin="round" d="M 10115,4361 L 10115,4610 10365,4610 10365,4361 10115,4361 Z"/>
 <path fill="rgb(0,69,134)" stroke="none" d="M 10640,4361 L 10640,4610 10890,4610 10890,4361 10640,4361 Z"/>
 <path fill="none" stroke="rgb(0,69,134)" stroke-linejoin="round" d="M 10640,4361 L 10640,4610 10890,4610 10890,4361 10640,4361 Z"/>
 <path fill="rgb(0,69,134)" stroke="none" d="M 11166,4361 L 11166,4610 11416,4610 11416,4361 11166,4361 Z"/>
 <path fill="none" stroke="rgb(0,69,134)" stroke-linejoin="round" d="M 11166,4361 L 11166,4610 11416,4610 11416,4361 11166,4361 Z"/>
 <path fill="rgb(0,69,134)" stroke="none" d="M 11691,4361 L 11691,4610 11941,4610 11941,4361 11691,4361 Z"/>
 <path fill="none" stroke="rgb(0,69,134)" stroke-linejoin="round" d="M 11691,4361 L 11691,4610 11941,4610 11941,4361 11691,4361 Z"/>
 <path fill="rgb(0,69,134)" stroke="none" d="M 12217,4361 L 12217,4610 12467,4610 12467,4361 12217,4361 Z"/>
 <path fill="none" stroke="rgb(0,69,134)" stroke-linejoin="round" d="M 12217,4361 L 12217,4610 12467,4610 12467,4361 12217,4361 Z"/>
 <path fill="rgb(0,69,134)" stroke="none" d="M 12743,4361 L 12743,4610 12993,4610 12993,4361 12743,4361 Z"/>
 <path fill="none" stroke="rgb(0,69,134)" stroke-linejoin="round" d="M 12743,4361 L 12743,4610 12993,4610 12993,4361 12743,4361 Z"/>
 <path fill="rgb(0,69,134)" stroke="none" d="M 13268,4361 L 13268,4610 13518,4610 13518,4361 13268,4361 Z"/>
 <path fill="none" stroke="rgb(0,69,134)" stroke-linejoin="round" d="M 13268,4361 L 13268,4610 13518,4610 13518,4361 13268,4361 Z"/>
 <path fill="rgb(0,69,134)" stroke="none" d="M 13794,4361 L 13794,4610 14044,4610 14044,4361 13794,4361 Z"/>
 <path fill="none" stroke="rgb(0,69,134)" stroke-linejoin="round" d="M 13794,4361 L 13794,4610 14044,4610 14044,4361 13794,4361 Z"/>
 <path fill="rgb(0,69,134)" stroke="none" d="M 14320,4361 L 14320,4610 14570,4610 14570,4361 14320,4361 Z"/>
 <path fill="none" stroke="rgb(0,69,134)" stroke-linejoin="round" d="M 14320,4361 L 14320,4610 14570,4610 14570,4361 14320,4361 Z"/>
 <path fill="rgb(0,69,134)" stroke="none" d="M 14845,4361 L 14845,4610 15095,4610 15095,4361 14845,4361 Z"/>
 <path fill="none" stroke="rgb(0,69,134)" stroke-linejoin="round" d="M 14845,4361 L 14845,4610 15095,4610 15095,4361 14845,4361 Z"/>
 <path fill="rgb(0,69,134)" stroke="none" d="M 15371,4361 L 15371,4610 15621,4610 15621,4361 15371,4361 Z"/>
 <path fill="none" stroke="rgb(0,69,134)" stroke-linejoin="round" d="M 15371,4361 L 15371,4610 15621,4610 15621,4361 15371,4361 Z"/>
 <path fill="rgb(0,69,134)" stroke="none" d="M 15897,4361 L 15897,4610 16147,4610 16147,4361 15897,4361 Z"/>
 <path fill="none" stroke="rgb(0,69,134)" stroke-linejoin="round" d="M 15897,4361 L 15897,4610 16147,4610 16147,4361 15897,4361 Z"/>
 <path fill="rgb(0,69,134)" stroke="none" d="M 16422,4361 L 16422,4610 16672,4610 16672,4361 16422,4361 Z"/>
 <path fill="none" stroke="rgb(0,69,134)" stroke-linejoin="round" d="M 16422,4361 L 16422,4610 16672,4610 16672,4361 16422,4361 Z"/>
 <path fill="rgb(0,69,134)" stroke="none" d="M 16948,4361 L 16948,4610 17198,4610 17198,4361 16948,4361 Z"/>
 <path fill="none" stroke="rgb(0,69,134)" stroke-linejoin="round" d="M 16948,4361 L 16948,4610 17198,4610 17198,4361 16948,4361 Z"/>
 <path fill="rgb(0,69,134)" stroke="none" d="M 17473,4361 L 17473,4610 17723,4610 17723,4361 17473,4361 Z"/>
 <path fill="none" stroke="rgb(0,69,134)" stroke-linejoin="round" d="M 17473,4361 L 17473,4610 17723,4610 17723,4361 17473,4361 Z"/>
 <path fill="rgb(0,69,134)" stroke="none" d="M 17999,4361 L 17999,4610 18249,4610 18249,4361 17999,4361 Z"/>
 <path fill="none" stroke="rgb(0,69,134)" stroke-linejoin="round" d="M 17999,4361 L 17999,4610 18249,4610 18249,4361 17999,4361 Z"/>
 <path fill="rgb(0,69,134)" stroke="none" d="M 18525,4361 L 18525,4610 18775,4610 18775,4361 18525,4361 Z"/>
 <path fill="none" stroke="rgb(0,69,134)" stroke-linejoin="round" d="M 18525,4361 L 18525,4610 18775,4610 18775,4361 18525,4361 Z"/>
 <path fill="rgb(0,69,134)" stroke="none" d="M 19050,4361 L 19050,4610 19300,4610 19300,4361 19050,4361 Z"/>
 <path fill="none" stroke="rgb(0,69,134)" stroke-linejoin="round" d="M 19050,4361 L 19050,4610 19300,4610 19300,4361 19050,4361 Z"/>
 <path fill="rgb(0,69,134)" stroke="none" d="M 19576,4361 L 19576,4610 19826,4610 19826,4361 19576,4361 Z"/>
 <path fill="none" stroke="rgb(0,69,134)" stroke-linejoin="round" d="M 19576,4361 L 19576,4610 19826,4610 19826,4361 19576,4361 Z"/>
 <path fill="rgb(0,69,134)" stroke="none" d="M 20102,4361 L 20102,4610 20352,4610 20352,4361 20102,4361 Z"/>
 <path fill="none" stroke="rgb(0,69,134)" stroke-linejoin="round" d="M 20102,4361 L 20102,4610 20352,4610 20352,4361 20102,4361 Z"/>
 <path fill="rgb(0,69,134)" stroke="none" d="M 20627,4361 L 20627,4610 20877,4610 20877,4361 20627,4361 Z"/>
 <path fill="none" stroke="rgb(0,69,134)" stroke-linejoin="round" d="M 20627,4361 L 20627,4610 20877,4610 20877,4361 20627,4361 Z"/>
 <path fill="rgb(0,69,134)" stroke="none" d="M 21153,4361 L 21153,4610 21403,4610 21403,4361 21153,4361 Z"/>
 <path fill="none" stroke="rgb(0,69,134)" stroke-linejoin="round" d="M 21153,4361 L 21153,4610 21403,4610 21403,4361 21153,4361 Z"/>
 <path fill="rgb(0,69,134)" stroke="none" d="M 21678,4361 L 21678,4610 21928,4610 21928,4361 21678,4361 Z"/>
 <path fill="none" stroke="rgb(0,69,134)" stroke-linejoin="round" d="M 21678,4361 L 21678,4610 21928,4610 21928,4361 21678,4361 Z"/>
 <path fill="rgb(0,69,134)" stroke="none" d="M 22204,4361 L 22204,4610 22454,4610 22454,4361 22204,4361 Z"/>
 <path fill="none" stroke="rgb(0,69,134)" stroke-linejoin="round" d="M 22204,4361 L 22204,4610 22454,4610 22454,4361 22204,4361 Z"/>
 <path fill="rgb(0,69,134)" stroke="none" d="M 22730,4361 L 22730,4610 22980,4610 22980,4361 22730,4361 Z"/>
 <path fill="none" stroke="rgb(0,69,134)" stroke-linejoin="round" d="M 22730,4361 L 22730,4610 22980,4610 22980,4361 22730,4361 Z"/>
 <path fill="rgb(0,69,134)" stroke="none" d="M 23255,4361 L 23255,4610 23505,4610 23505,4361 23255,4361 Z"/>
 <path fill="none" stroke="rgb(0,69,134)" stroke-linejoin="round" d="M 23255,4361 L 23255,4610 23505,4610 23505,4361 23255,4361 Z"/>
 <path fill="rgb(0,69,134)" stroke="none" d="M 23781,4361 L 23781,4610 24031,4610 24031,4361 23781,4361 Z"/>
 <path fill="none" stroke="rgb(0,69,134)" stroke-linejoin="round" d="M 23781,4361 L 23781,4610 24031,4610 24031,4361 23781,4361 Z"/>
 <path fill="rgb(0,69,134)" stroke="none" d="M 24307,4361 L 24307,4610 24557,4610 24557,4361 24307,4361 Z"/>
 <path fill="none" stroke="rgb(0,69,134)" stroke-linejoin="round" d="M 24307,4361 L 24307,4610 24557,4610 24557,4361 24307,4361 Z"/>
 <path fill="rgb(0,69,134)" stroke="none" d="M 24832,4361 L 24832,4610 25082,4610 25082,4361 24832,4361 Z"/>
 <path fill="none" stroke="rgb(0,69,134)" stroke-linejoin="round" d="M 24832,4361 L 24832,4610 25082,4610 25082,4361 24832,4361 Z"/>
 <path fill="rgb(0,69,134)" stroke="none" d="M 25358,4361 L 25358,4610 25608,4610 25608,4361 25358,4361 Z"/>
 <path fill="none" stroke="rgb(0,69,134)" stroke-linejoin="round" d="M 25358,4361 L 25358,4610 25608,4610 25608,4361 25358,4361 Z"/>
 <path fill="rgb(0,69,134)" stroke="none" d="M 25883,4361 L 25883,4610 26133,4610 26133,4361 25883,4361 Z"/>
 <path fill="none" stroke="rgb(0,69,134)" stroke-linejoin="round" d="M 25883,4361 L 25883,4610 26133,4610 26133,4361 25883,4361 Z"/>
 <path fill="rgb(0,69,134)" stroke="none" d="M 26409,4361 L 26409,4610 26659,4610 26659,4361 26409,4361 Z"/>
 <path fill="none" stroke="rgb(0,69,134)" stroke-linejoin="round" d="M 26409,4361 L 26409,4610 26659,4610 26659,4361 26409,4361 Z"/>
 <path fill="rgb(0,69,134)" stroke="none" d="M 26935,4361 L 26935,4610 27185,4610 27185,4361 26935,4361 Z"/>
 <path fill="none" stroke="rgb(0,69,134)" stroke-linejoin="round" d="M 26935,4361 L 26935,4610 27185,4610 27185,4361 26935,4361 Z"/>
 <path fill="rgb(0,69,134)" stroke="none" d="M 27460,4361 L 27460,4610 27710,4610 27710,4361 27460,4361 Z"/>
 <path fill="none" stroke="rgb(0,69,134)" stroke-linejoin="round" d="M 27460,4361 L 27460,4610 27710,4610 27710,4361 27460,4361 Z"/>
 <path fill="rgb(0,69,134)" stroke="none" d="M 27985,4361 L 27985,4610 28235,4610 28235,4361 27985,4361 Z"/>
 <path fill="none" stroke="rgb(0,69,134)" stroke-linejoin="round" d="M 27985,4361 L 27985,4610 28235,4610 28235,4361 27985,4361 Z"/>
 <path fill="rgb(0,69,134)" stroke="none" d="M 28511,4361 L 28511,4610 28761,4610 28761,4361 28511,4361 Z"/>
 <path fill="none" stroke="rgb(0,69,134)" stroke-linejoin="round" d="M 28511,4361 L 28511,4610 28761,4610 28761,4361 28511,4361 Z"/>
 <path fill="rgb(0,69,134)" stroke="none" d="M 29036,4361 L 29036,4610 29286,4610 29286,4361 29036,4361 Z"/>
 <path fill="none" stroke="rgb(0,69,134)" stroke-linejoin="round" d="M 29036,4361 L 29036,4610 29286,4610 29286,4361 29036,4361 Z"/>
 <path fill="rgb(0,69,134)" stroke="none" d="M 29562,4361 L 29562,4610 29812,4610 29812,4361 29562,4361 Z"/>
 <path fill="none" stroke="rgb(0,69,134)" stroke-linejoin="round" d="M 29562,4361 L 29562,4610 29812,4610 29812,4361 29562,4361 Z"/>
 <path fill="rgb(0,69,134)" stroke="none" d="M 30088,4361 L 30088,4610 30338,4610 30338,4361 30088,4361 Z"/>
 <path fill="none" stroke="rgb(0,69,134)" stroke-linejoin="round" d="M 30088,4361 L 30088,4610 30338,4610 30338,4361 30088,4361 Z"/>
 <path fill="rgb(0,69,134)" stroke="none" d="M 30613,4361 L 30613,4610 30863,4610 30863,4361 30613,4361 Z"/>
 <path fill="none" stroke="rgb(0,69,134)" stroke-linejoin="round" d="M 30613,4361 L 30613,4610 30863,4610 30863,4361 30613,4361 Z"/>
 <path fill="rgb(0,69,134)" stroke="none" d="M 31139,4361 L 31139,4610 31389,4610 31389,4361 31139,4361 Z"/>
 <path fill="none" stroke="rgb(0,69,134)" stroke-linejoin="round" d="M 31139,4361 L 31139,4610 31389,4610 31389,4361 31139,4361 Z"/>
 <path fill="rgb(0,69,134)" stroke="none" d="M 31664,4361 L 31664,4610 31914,4610 31914,4361 31664,4361 Z"/>
 <path fill="none" stroke="rgb(0,69,134)" stroke-linejoin="round" d="M 31664,4361 L 31664,4610 31914,4610 31914,4361 31664,4361 Z"/>
 <path fill="rgb(0,69,134)" stroke="none" d="M 32190,4361 L 32190,4610 32440,4610 32440,4361 32190,4361 Z"/>
 <path fill="none" stroke="rgb(0,69,134)" stroke-linejoin="round" d="M 32190,4361 L 32190,4610 32440,4610 32440,4361 32190,4361 Z"/>
 <path fill="rgb(0,69,134)" stroke="none" d="M 32716,4361 L 32716,4610 32966,4610 32966,4361 32716,4361 Z"/>
 <path fill="none" stroke="rgb(0,69,134)" stroke-linejoin="round" d="M 32716,4361 L 32716,4610 32966,4610 32966,4361 32716,4361 Z"/>
 <path fill="rgb(0,69,134)" stroke="none" d="M 33241,4361 L 33241,4610 33491,4610 33491,4361 33241,4361 Z"/>
 <path fill="none" stroke="rgb(0,69,134)" stroke-linejoin="round" d="M 33241,4361 L 33241,4610 33491,4610 33491,4361 33241,4361 Z"/>
 <path fill="rgb(0,69,134)" stroke="none" d="M 33767,4361 L 33767,4610 34017,4610 34017,4361 33767,4361 Z"/>
 <path fill="none" stroke="rgb(0,69,134)" stroke-linejoin="round" d="M 33767,4361 L 33767,4610 34017,4610 34017,4361 33767,4361 Z"/>
 <path fill="rgb(0,69,134)" stroke="none" d="M 34293,4361 L 34293,4610 34543,4610 34543,4361 34293,4361 Z"/>
 <path fill="none" stroke="rgb(0,69,134)" stroke-linejoin="round" d="M 34293,4361 L 34293,4610 34543,4610 34543,4361 34293,4361 Z"/>
 <path fill="rgb(0,69,134)" stroke="none" d="M 34818,4361 L 34818,4610 35068,4610 35068,4361 34818,4361 Z"/>
 <path fill="none" stroke="rgb(0,69,134)" stroke-linejoin="round" d="M 34818,4361 L 34818,4610 35068,4610 35068,4361 34818,4361 Z"/>
 <path fill="rgb(0,69,134)" stroke="none" d="M 35344,4361 L 35344,4610 35594,4610 35594,4361 35344,4361 Z"/>
 <path fill="none" stroke="rgb(0,69,134)" stroke-linejoin="round" d="M 35344,4361 L 35344,4610 35594,4610 35594,4361 35344,4361 Z"/>
 <path fill="rgb(0,69,134)" stroke="none" d="M 35869,4361 L 35869,4610 36119,4610 36119,4361 35869,4361 Z"/>
 <path fill="none" stroke="rgb(0,69,134)" stroke-linejoin="round" d="M 35869,4361 L 35869,4610 36119,4610 36119,4361 35869,4361 Z"/>
 <path fill="rgb(0,69,134)" stroke="none" d="M 36395,4361 L 36395,4610 36645,4610 36645,4361 36395,4361 Z"/>
 <path fill="none" stroke="rgb(0,69,134)" stroke-linejoin="round" d="M 36395,4361 L 36395,4610 36645,4610 36645,4361 36395,4361 Z"/>
 <path fill="rgb(0,69,134)" stroke="none" d="M 36921,4361 L 36921,4610 37171,4610 37171,4361 36921,4361 Z"/>
 <path fill="none" stroke="rgb(0,69,134)" stroke-linejoin="round" d="M 36921,4361 L 36921,4610 37171,4610 37171,4361 36921,4361 Z"/>
 <path fill="rgb(0,69,134)" stroke="none" d="M 37446,4361 L 37446,4610 37696,4610 37696,4361 37446,4361 Z"/>
 <path fill="none" stroke="rgb(0,69,134)" stroke-linejoin="round" d="M 37446,4361 L 37446,4610 37696,4610 37696,4361 37446,4361 Z"/>
 <path fill="rgb(0,69,134)" stroke="none" d="M 37972,4361 L 37972,4610 38222,4610 38222,4361 37972,4361 Z"/>
 <path fill="none" stroke="rgb(0,69,134)" stroke-linejoin="round" d="M 37972,4361 L 37972,4610 38222,4610 38222,4361 37972,4361 Z"/>
 <path fill="rgb(0,69,134)" stroke="none" d="M 38498,4361 L 38498,4610 38748,4610 38748,4361 38498,4361 Z"/>
 <path fill="none" stroke="rgb(0,69,134)" stroke-linejoin="round" d="M 38498,4361 L 38498,4610 38748,4610 38748,4361 38498,4361 Z"/>
 <path fill="rgb(0,69,134)" stroke="none" d="M 39023,4361 L 39023,4610 39273,4610 39273,4361 39023,4361 Z"/>
 <path fill="none" stroke="rgb(0,69,134)" stroke-linejoin="round" d="M 39023,4361 L 39023,4610 39273,4610 39273,4361 39023,4361 Z"/>
 <path fill="rgb(0,69,134)" stroke="none" d="M 39549,4361 L 39549,4610 39799,4610 39799,4361 39549,4361 Z"/>
 <path fill="none" stroke="rgb(0,69,134)" stroke-linejoin="round" d="M 39549,4361 L 39549,4610 39799,4610 39799,4361 39549,4361 Z"/>
 <path fill="rgb(0,69,134)" stroke="none" d="M 40074,4361 L 40074,4610 40324,4610 40324,4361 40074,4361 Z"/>
 <path fill="none" stroke="rgb(0,69,134)" stroke-linejoin="round" d="M 40074,4361 L 40074,4610 40324,4610 40324,4361 40074,4361 Z"/>
 <path fill="rgb(0,69,134)" stroke="none" d="M 40600,4361 L 40600,4610 40850,4610 40850,4361 40600,4361 Z"/>
 <path fill="none" stroke="rgb(0,69,134)" stroke-linejoin="round" d="M 40600,4361 L 40600,4610 40850,4610 40850,4361 40600,4361 Z"/>
 <path fill="rgb(0,69,134)" stroke="none" d="M 41126,4361 L 41126,4610 41376,4610 41376,4361 41126,4361 Z"/>
 <path fill="none" stroke="rgb(0,69,134)" stroke-linejoin="round" d="M 41126,4361 L 41126,4610 41376,4610 41376,4361 41126,4361 Z"/>
 <path fill="rgb(0,69,134)" stroke="none" d="M 41651,4361 L 41651,4610 41901,4610 41901,4361 41651,4361 Z"/>
 <path fill="none" stroke="rgb(0,69,134)" stroke-linejoin="round" d="M 41651,4361 L 41651,4610 41901,4610 41901,4361 41651,4361 Z"/>
 <path fill="rgb(0,69,134)" stroke="none" d="M 42177,4361 L 42177,4610 42427,4610 42427,4361 42177,4361 Z"/>
 <path fill="none" stroke="rgb(0,69,134)" stroke-linejoin="round" d="M 42177,4361 L 42177,4610 42427,4610 42427,4361 42177,4361 Z"/>
 <path fill="rgb(0,69,134)" stroke="none" d="M 42703,4361 L 42703,4610 42953,4610 42953,4361 42703,4361 Z"/>
 <path fill="none" stroke="rgb(0,69,134)" stroke-linejoin="round" d="M 42703,4361 L 42703,4610 42953,4610 42953,4361 42703,4361 Z"/>
 <path fill="rgb(0,69,134)" stroke="none" d="M 43228,4361 L 43228,4610 43478,4610 43478,4361 43228,4361 Z"/>
 <path fill="none" stroke="rgb(0,69,134)" stroke-linejoin="round" d="M 43228,4361 L 43228,4610 43478,4610 43478,4361 43228,4361 Z"/>
 <path fill="rgb(0,69,134)" stroke="none" d="M 43754,4361 L 43754,4610 44004,4610 44004,4361 43754,4361 Z"/>
 <path fill="none" stroke="rgb(0,69,134)" stroke-linejoin="round" d="M 43754,4361 L 43754,4610 44004,4610 44004,4361 43754,4361 Z"/>
 <path fill="rgb(0,69,134)" stroke="none" d="M 44280,4361 L 44280,4610 44530,4610 44530,4361 44280,4361 Z"/>
 <path fill="none" stroke="rgb(0,69,134)" stroke-linejoin="round" d="M 44280,4361 L 44280,4610 44530,4610 44530,4361 44280,4361 Z"/>
 <path fill="rgb(0,69,134)" stroke="none" d="M 44805,4361 L 44805,4610 45055,4610 45055,4361 44805,4361 Z"/>
 <path fill="none" stroke="rgb(0,69,134)" stroke-linejoin="round" d="M 44805,4361 L 44805,4610 45055,4610 45055,4361 44805,4361 Z"/>
 <path fill="rgb(0,69,134)" stroke="none" d="M 45331,4361 L 45331,4610 45581,4610 45581,4361 45331,4361 Z"/>
 <path fill="none" stroke="rgb(0,69,134)" stroke-linejoin="round" d="M 45331,4361 L 45331,4610 45581,4610 45581,4361 45331,4361 Z"/>
 <path fill="rgb(0,69,134)" stroke="none" d="M 45856,4361 L 45856,4610 46106,4610 46106,4361 45856,4361 Z"/>
 <path fill="none" stroke="rgb(0,69,134)" stroke-linejoin="round" d="M 45856,4361 L 45856,4610 46106,4610 46106,4361 45856,4361 Z"/>
 <path fill="rgb(0,69,134)" stroke="none" d="M 46382,4361 L 46382,4610 46632,4610 46632,4361 46382,4361 Z"/>
 <path fill="none" stroke="rgb(0,69,134)" stroke-linejoin="round" d="M 46382,4361 L 46382,4610 46632,4610 46632,4361 46382,4361 Z"/>
 <path fill="rgb(0,69,134)" stroke="none" d="M 46908,4361 L 46908,4610 47158,4610 47158,4361 46908,4361 Z"/>
 <path fill="none" stroke="rgb(0,69,134)" stroke-linejoin="round" d="M 46908,4361 L 46908,4610 47158,4610 47158,4361 46908,4361 Z"/>
 <path fill="rgb(0,69,134)" stroke="none" d="M 47433,4361 L 47433,4610 47683,4610 47683,4361 47433,4361 Z"/>
 <path fill="none" stroke="rgb(0,69,134)" stroke-linejoin="round" d="M 47433,4361 L 47433,4610 47683,4610 47683,4361 47433,4361 Z"/>
 <path fill="rgb(0,69,134)" stroke="none" d="M 47959,4361 L 47959,4610 48209,4610 48209,4361 47959,4361 Z"/>
 <path fill="none" stroke="rgb(0,69,134)" stroke-linejoin="round" d="M 47959,4361 L 47959,4610 48209,4610 48209,4361 47959,4361 Z"/>
 <path fill="rgb(0,69,134)" stroke="none" d="M 48485,4361 L 48485,4610 48735,4610 48735,4361 48485,4361 Z"/>
 <path fill="none" stroke="rgb(0,69,134)" stroke-linejoin="round" d="M 48485,4361 L 48485,4610 48735,4610 48735,4361 48485,4361 Z"/>
 <path fill="rgb(0,69,134)" stroke="none" d="M 49010,4361 L 49010,4610 49260,4610 49260,4361 49010,4361 Z"/>
 <path fill="none" stroke="rgb(0,69,134)" stroke-linejoin="round" d="M 49010,4361 L 49010,4610 49260,4610 49260,4361 49010,4361 Z"/>
 <path fill="rgb(0,69,134)" stroke="none" d="M 49536,4361 L 49536,4610 49786,4610 49786,4361 49536,4361 Z"/>
 <path fill="none" stroke="rgb(0,69,134)" stroke-linejoin="round" d="M 49536,4361 L 49536,4610 49786,4610 49786,4361 49536,4361 Z"/>
 <path fill="rgb(0,69,134)" stroke="none" d="M 50061,4361 L 50061,4610 50311,4610 50311,4361 50061,4361 Z"/>
 <path fill="none" stroke="rgb(0,69,134)" stroke-linejoin="round" d="M 50061,4361 L 50061,4610 50311,4610 50311,4361 50061,4361 Z"/>
 <path fill="rgb(0,69,134)" stroke="none" d="M 50587,4361 L 50587,4610 50837,4610 50837,4361 50587,4361 Z"/>
 <path fill="none" stroke="rgb(0,69,134)" stroke-linejoin="round" d="M 50587,4361 L 50587,4610 50837,4610 50837,4361 50587,4361 Z"/>
 <path fill="rgb(0,69,134)" stroke="none" d="M 51113,4361 L 51113,4610 51363,4610 51363,4361 51113,4361 Z"/>
 <path fill="none" stroke="rgb(0,69,134)" stroke-linejoin="round" d="M 51113,4361 L 51113,4610 51363,4610 51363,4361 51113,4361 Z"/>
 <path fill="rgb(0,69,134)" stroke="none" d="M 51638,4361 L 51638,4610 51888,4610 51888,4361 51638,4361 Z"/>
 <path fill="none" stroke="rgb(0,69,134)" stroke-linejoin="round" d="M 51638,4361 L 51638,4610 51888,4610 51888,4361 51638,4361 Z"/>
 <path fill="rgb(0,69,134)" stroke="none" d="M 52164,4361 L 52164,4610 52414,4610 52414,4361 52164,4361 Z"/>
 <path fill="none" stroke="rgb(0,69,134)" stroke-linejoin="round" d="M 52164,4361 L 52164,4610 52414,4610 52414,4361 52164,4361 Z"/>
 <path fill="rgb(0,69,134)" stroke="none" d="M 52690,7794 L 52690,8044 52940,8044 52940,7794 52690,7794 Z"/>
 <path fill="none" stroke="rgb(0,69,134)" stroke-linejoin="round" d="M 52690,7794 L 52690,8044 52940,8044 52940,7794 52690,7794 Z"/>
 <path fill="rgb(0,69,134)" stroke="none" d="M 53215,4361 L 53215,4610 53465,4610 53465,4361 53215,4361 Z"/>
 <path fill="none" stroke="rgb(0,69,134)" stroke-linejoin="round" d="M 53215,4361 L 53215,4610 53465,4610 53465,4361 53215,4361 Z"/>
 <path fill="rgb(0,69,134)" stroke="none" d="M 53741,4361 L 53741,4610 53991,4610 53991,4361 53741,4361 Z"/>
 <path fill="none" stroke="rgb(0,69,134)" stroke-linejoin="round" d="M 53741,4361 L 53741,4610 53991,4610 53991,4361 53741,4361 Z"/>
 <path fill="rgb(0,69,134)" stroke="none" d="M 54267,4361 L 54267,4610 54517,4610 54517,4361 54267,4361 Z"/>
 <path fill="none" stroke="rgb(0,69,134)" stroke-linejoin="round" d="M 54267,4361 L 54267,4610 54517,4610 54517,4361 54267,4361 Z"/>
 <text class="SVGTextShape"><tspan class="TextParagraph" font-family="Liberation Sans, sans-serif" font-size="353px" font-weight="400"><tspan class="TextPosition" x="1737" y="5053"><tspan fill="rgb(0,0,0)" stroke="none" style="white-space: pre">0</tspan></tspan></tspan></text>
 <text class="SVGTextShape"><tspan class="TextParagraph" font-family="Liberation Sans, sans-serif" font-size="353px" font-weight="400"><tspan class="TextPosition" x="6901" y="5053"><tspan fill="rgb(0,0,0)" stroke="none" style="white-space: pre">10</tspan></tspan></tspan></text>
 <text class="SVGTextShape"><tspan class="TextParagraph" font-family="Liberation Sans, sans-serif" font-size="353px" font-weight="400"><tspan class="TextPosition" x="12157" y="5053"><tspan fill="rgb(0,0,0)" stroke="none" style="white-space: pre">20</tspan></tspan></tspan></text>
 <text class="SVGTextShape"><tspan class="TextParagraph" font-family="Liberation Sans, sans-serif" font-size="353px" font-weight="400"><tspan class="TextPosition" x="17413" y="5053"><tspan fill="rgb(0,0,0)" stroke="none" style="white-space: pre">30</tspan></tspan></tspan></text>
 <text class="SVGTextShape"><tspan class="TextParagraph" font-family="Liberation Sans, sans-serif" font-size="353px" font-weight="400"><tspan class="TextPosition" x="22670" y="5053"><tspan fill="rgb(0,0,0)" stroke="none" style="white-space: pre">40</tspan></tspan></tspan></text>
 <text class="SVGTextShape"><tspan class="TextParagraph" font-family="Liberation Sans, sans-serif" font-size="353px" font-weight="400"><tspan class="TextPosition" x="27926" y="5053"><tspan fill="rgb(0,0,0)" stroke="none" style="white-space: pre">50</tspan></tspan></tspan></text>
 <text class="SVGTextShape"><tspan class="TextParagraph" font-family="Liberation Sans, sans-serif" font-size="353px" font-weight="400"><tspan class="TextPosition" x="33182" y="5053"><tspan fill="rgb(0,0,0)" stroke="none" style="white-space: pre">60</tspan></tspan></tspan></text>
 <text class="SVGTextShape"><tspan class="TextParagraph" font-family="Liberation Sans, sans-serif" font-size="353px" font-weight="400"><tspan class="TextPosition" x="38439" y="5053"><tspan fill="rgb(0,0,0)" stroke="none" style="white-space: pre">70</tspan></tspan></tspan></text>
 <text class="SVGTextShape"><tspan class="TextParagraph" font-family="Liberation Sans, sans-serif" font-size="353px" font-weight="400"><tspan class="TextPosition" x="43695" y="5053"><tspan fill="rgb(0,0,0)" stroke="none" style="white-space: pre">80</tspan></tspan></tspan></text>
 <text class="SVGTextShape"><tspan class="TextParagraph" font-family="Liberation Sans, sans-serif" font-size="353px" font-weight="400"><tspan class="TextPosition" x="48951" y="5053"><tspan fill="rgb(0,0,0)" stroke="none" style="white-space: pre">90</tspan></tspan></tspan></text>
 <text class="SVGTextShape"><tspan class="TextParagraph" font-family="Liberation Sans, sans-serif" font-size="353px" font-weight="400"><tspan class="TextPosition" x="54115" y="5053"><tspan fill="rgb(0,0,0)" stroke="none" style="white-space: pre">100</tspan></tspan></tspan></text>
 <text class="SVGTextShape"><tspan class="TextParagraph" font-family="Liberation Sans, sans-serif" font-size="353px" font-weight="400"><tspan class="TextPosition" x="1104" y="8727"><tspan fill="rgb(0,0,0)" stroke="none" style="white-space: pre">-60</tspan></tspan></tspan></text>
 <text class="SVGTextShape"><tspan class="TextParagraph" font-family="Liberation Sans, sans-serif" font-size="353px" font-weight="400"><tspan class="TextPosition" x="1104" y="7353"><tspan fill="rgb(0,0,0)" stroke="none" style="white-space: pre">-40</tspan></tspan></tspan></text>
 <text class="SVGTextShape"><tspan class="TextParagraph" font-family="Liberation Sans, sans-serif" font-size="353px" font-weight="400"><tspan class="TextPosition" x="1104" y="5979"><tspan fill="rgb(0,0,0)" stroke="none" style="white-space: pre">-20</tspan></tspan></tspan></text>
 <text class="SVGTextShape"><tspan class="TextParagraph" font-family="Liberation Sans, sans-serif" font-size="353px" font-weight="400"><tspan class="TextPosition" x="1395" y="4606"><tspan fill="rgb(0,0,0)" stroke="none" style="white-space: pre">0</tspan></tspan></tspan></text>
 <text class="SVGTextShape"><tspan class="TextParagraph" font-family="Liberation Sans, sans-serif" font-size="353px" font-weight="400"><tspan class="TextPosition" x="1210" y="3232"><tspan fill="rgb(0,0,0)" stroke="none" style="white-space: pre">20</tspan></tspan></tspan></text>
 <text class="SVGTextShape"><tspan class="TextParagraph" font-family="Liberation Sans, sans-serif" font-size="353px" font-weight="400"><tspan class="TextPosition" x="1210" y="1858"><tspan fill="rgb(0,0,0)" stroke="none" style="white-space: pre">40</tspan></tspan></tspan></text>
 <text class="SVGTextShape"><tspan class="TextParagraph" font-family="Liberation Sans, sans-serif" font-size="353px" font-weight="400"><tspan class="TextPosition" x="1210" y="485"><tspan fill="rgb(0,0,0)" stroke="none" style="white-space: pre">60</tspan></tspan></tspan></text>
</svg>