<?xml version="1.0" encoding="UTF-8"?>
<!DOCTYPE svg PUBLIC "-//W3C//DTD SVG 1.1//EN" "http://www.w3.org/Graphics/SVG/1.1/DTD/svg11.dtd">
<svg width="585mm" height="90mm" viewBox="0 0 58500 9000" version="1.1" xmlns="http://www.w3.org/2000/svg" xmlns:xlink="http://www.w3.org/1999/xlink" stroke-width="28.222" stroke-linejoin="round" xml:space="preserve">
 <path fill="rgb(255,255,255)" stroke="none" d="M 29206,8991 L -13,8991 -13,-13 58424,-13 58424,8991 29206,8991 Z"/>
 <path fill="none" stroke="rgb(179,179,179)" stroke-linejoin="round" d="M 29975,7627 L 2873,7627 2873,1618 57077,1618 57077,7627 29975,7627 Z"/>
 <path fill="none" stroke="rgb(179,179,179)" stroke-linejoin="round" d="M 57076,7626 L 2873,7626"/>
 <path fill="none" stroke="rgb(179,179,179)" stroke-linejoin="round" d="M 57076,6624 L 2873,6624"/>
 <path fill="none" stroke="rgb(179,179,179)" stroke-linejoin="round" d="M 57076,5622 L 2873,5622"/>
 <path fill="none" stroke="rgb(179,179,179)" stroke-linejoin="round" d="M 57076,4621 L 2873,4621"/>
 <path fill="none" stroke="rgb(179,179,179)" stroke-linejoin="round" d="M 57076,3620 L 2873,3620"/>
 <path fill="none" stroke="rgb(179,179,179)" stroke-linejoin="round" d="M 57076,2618 L 2873,2618"/>
 <path fill="none" stroke="rgb(179,179,179)" stroke-linejoin="round" d="M 57076,1617 L 2873,1617"/>
 <path fill="none" stroke="rgb(179,179,179)" stroke-linejoin="round" d="M 2873,4771 L 2873,4621"/>
 <path fill="none" stroke="rgb(179,179,179)" stroke-linejoin="round" d="M 2873,4771 L 2873,4621"/>
 <path fill="none" stroke="rgb(179,179,179)" stroke-linejoin="round" d="M 8293,4771 L 8293,4621"/>
 <path fill="none" stroke="rgb(179,179,179)" stroke-linejoin="round" d="M 8293,4771 L 8293,4621"/>
 <path fill="none" stroke="rgb(179,179,179)" stroke-linejoin="round" d="M 13714,4771 L 13714,4621"/>
 <path fill="none" stroke="rgb(179,179,179)" stroke-linejoin="round" d="M 13714,4771 L 13714,4621"/>
 <path fill="none" stroke="rgb(179,179,179)" stroke-linejoin="round" d="M 19134,4771 L 19134,4621"/>
 <path fill="none" stroke="rgb(179,179,179)" stroke-linejoin="round" d="M 19134,4771 L 19134,4621"/>
 <path fill="none" stroke="rgb(179,179,179)" stroke-linejoin="round" d="M 24555,4771 L 24555,4621"/>
 <path fill="none" stroke="rgb(179,179,179)" stroke-linejoin="round" d="M 24555,4771 L 24555,4621"/>
 <path fill="none" stroke="rgb(179,179,179)" stroke-linejoin="round" d="M 29974,4771 L 29974,4621"/>
 <path fill="none" stroke="rgb(179,179,179)" stroke-linejoin="round" d="M 29974,4771 L 29974,4621"/>
 <path fill="none" stroke="rgb(179,179,179)" stroke-linejoin="round" d="M 35394,4771 L 35394,4621"/>
 <path fill="none" stroke="rgb(179,179,179)" stroke-linejoin="round" d="M 35394,4771 L 35394,4621"/>
 <path fill="none" stroke="rgb(179,179,179)" stroke-linejoin="round" d="M 40815,4771 L 40815,4621"/>
 <path fill="none" stroke="rgb(179,179,179)" stroke-linejoin="round" d="M 40815,4771 L 40815,4621"/>
 <path fill="none" stroke="rgb(179,179,179)" stroke-linejoin="round" d="M 46236,4771 L 46236,4621"/>
 <path fill="none" stroke="rgb(179,179,179)" stroke-linejoin="round" d="M 46236,4771 L 46236,4621"/>
 <path fill="none" stroke="rgb(179,179,179)" stroke-linejoin="round" d="M 51656,4771 L 51656,4621"/>
 <path fill="none" stroke="rgb(179,179,179)" stroke-linejoin="round" d="M 51656,4771 L 51656,4621"/>
 <path fill="none" stroke="rgb(179,179,179)" stroke-linejoin="round" d="M 57076,4771 L 57076,4621"/>
 <path fill="none" stroke="rgb(179,179,179)" stroke-linejoin="round" d="M 57076,4771 L 57076,4621"/>
 <path fill="none" stroke="rgb(179,179,179)" stroke-linejoin="round" d="M 2873,4621 L 57076,4621"/>
 <path fill="none" stroke="rgb(179,179,179)" stroke-linejoin="round" d="M 2723,7626 L 2873,7626"/>
 <path fill="none" stroke="rgb(179,179,179)" stroke-linejoin="round" d="M 2723,7626 L 2873,7626"/>
 <path fill="none" stroke="rgb(179,179,179)" stroke-linejoin="round" d="M 2723,6624 L 2873,6624"/>
 <path fill="none" stroke="rgb(179,179,179)" stroke-linejoin="round" d="M 2723,6624 L 2873,6624"/>
 <path fill="none" stroke="rgb(179,179,179)" stroke-linejoin="round" d="M 2723,5622 L 2873,5622"/>
 <path fill="none" stroke="rgb(179,179,179)" stroke-linejoin="round" d="M 2723,5622 L 2873,5622"/>
 <path fill="none" stroke="rgb(179,179,179)" stroke-linejoin="round" d="M 2723,4621 L 2873,4621"/>
 <path fill="none" stroke="rgb(179,179,179)" stroke-linejoin="round" d="M 2723,4621 L 2873,4621"/>
 <path fill="none" stroke="rgb(179,179,179)" stroke-linejoin="round" d="M 2723,3620 L 2873,3620"/>
 <path fill="none" stroke="rgb(179,179,179)" stroke-linejoin="round" d="M 2723,3620 L 2873,3620"/>
 <path fill="none" stroke="rgb(179,179,179)" stroke-linejoin="round" d="M 2723,2618 L 2873,2618"/>
 <path fill="none" stroke="rgb(179,179,179)" stroke-linejoin="round" d="M 2723,2618 L 2873,2618"/>
 <path fill="none" stroke="rgb(179,179,179)" stroke-linejoin="round" d="M 2723,1617 L 2873,1617"/>
 <path fill="none" stroke="rgb(179,179,179)" stroke-linejoin="round" d="M 2723,1617 L 2873,1617"/>
 <path fill="none" stroke="rgb(179,179,179)" stroke-linejoin="round" d="M 2873,7626 L 2873,1617"/>
 <path fill="none" stroke="rgb(0,69,134)" stroke-width="80" stroke-linejoin="round" d="M 2873,4621 L 3415,4123 3957,3656 4499,3250 5041,2930 5583,2716 6125,2622 6667,2654 7209,2809 7751,3078 8293,3444 8835,3884 9377,4370 9919,4872 10461,5358 11003,5798 11545,6164 12087,6433 12629,6588 13171,6620 13714,6526 14256,6312 14798,5992 15340,5586 15882,5119 16424,4621 16966,4123 17508,3656 18050,3250 18592,2930 19134,2716 19676,2622 20218,2654 20760,2809 21302,3078 21844,3444 22386,3884 22928,4370 23470,4872 24012,5358 24555,5798 25097,6164 25639,6433 26181,6588 26723,6620 27265,6526 27807,6312 28349,5992 28891,5586 29432,5119 29974,4621 30516,4123 31058,3656 31600,3250 32142,2930 32684,2716 33226,2622 33768,2654 34310,2809 34852,3078 35395,3444 35937,3884 36479,4370 37021,4872 37563,5358 38105,5798 38647,6164 39189,6433 39731,6588 40273,6620 40815,6526 41357,6312 41899,5992 42441,5586 42983,5119 43525,4621 44067,4123 44609,3656 45151,3250 45693,2930 46236,2716 46778,2622 47320,2654 47862,2809 48404,3078 48946,3444 49488,3884 50030,4370 50572,4872 51114,5358 51656,5798 52198,6164 52740,6433 53282,6588 53824,6620 54366,6526 54908,6312 55450,5992 55992,5586 56534,5119"/>
 <path fill="rgb(0,69,134)" stroke="none" d="M 2748,4496 L 2748,4746 2998,4746 2998,4496 2748,4496 Z"/>
 <path fill="none" stroke="rgb(0,69,134)" stroke-linejoin="round" d="M 2748,4496 L 2748,4746 2998,4746 2998,4496 2748,4496 Z"/>
 <path fill="rgb(0,69,134)" stroke="none" d="M 3290,3998 L 3290,4248 3540,4248 3540,3998 3290,3998 Z"/>
 <path fill="none" stroke="rgb(0,69,134)" stroke-linejoin="round" d="M 3290,3998 L 3290,4248 3540,4248 3540,3998 3290,3998 Z"/>
 <path fill="rgb(0,69,134)" stroke="none" d="M 3832,3531 L 3832,3781 4082,3781 4082,3531 3832,3531 Z"/>
 <path fill="none" stroke="rgb(0,69,134)" stroke-linejoin="round" d="M 3832,3531 L 3832,3781 4082,3781 4082,3531 3832,3531 Z"/>
 <path fill="rgb(0,69,134)" stroke="none" d="M 4374,3125 L 4374,3375 4624,3375 4624,3125 4374,3125 Z"/>
 <path fill="none" stroke="rgb(0,69,134)" stroke-linejoin="round" d="M 4374,3125 L 4374,3375 4624,3375 4624,3125 4374,3125 Z"/>
 <path fill="rgb(0,69,134)" stroke="none" d="M 4916,2805 L 4916,3055 5166,3055 5166,2805 4916,2805 Z"/>
 <path fill="none" stroke="rgb(0,69,134)" stroke-linejoin="round" d="M 4916,2805 L 4916,3055 5166,3055 5166,2805 4916,2805 Z"/>
 <path fill="rgb(0,69,134)" stroke="none" d="M 5458,2591 L 5458,2841 5708,2841 5708,2591 5458,2591 Z"/>
 <path fill="none" stroke="rgb(0,69,134)" stroke-linejoin="round" d="M 5458,2591 L 5458,2841 5708,2841 5708,2591 5458,2591 Z"/>
 <path fill="rgb(0,69,134)" stroke="none" d="M 6000,2497 L 6000,2747 6250,2747 6250,2497 6000,2497 Z"/>
 <path fill="none" stroke="rgb(0,69,134)" stroke-linejoin="round" d="M 6000,2497 L 6000,2747 6250,2747 6250,2497 6000,2497 Z"/>
 <path fill="rgb(0,69,134)" stroke="none" d="M 6542,2529 L 6542,2779 6792,2779 6792,2529 6542,2529 Z"/>
 <path fill="none" stroke="rgb(0,69,134)" stroke-linejoin="round" d="M 6542,2529 L 6542,2779 6792,2779 6792,2529 6542,2529 Z"/>
 <path fill="rgb(0,69,134)" stroke="none" d="M 7084,2684 L 7084,2934 7334,2934 7334,2684 7084,2684 Z"/>
 <path fill="none" stroke="rgb(0,69,134)" stroke-linejoin="round" d="M 7084,2684 L 7084,2934 7334,2934 7334,2684 7084,2684 Z"/>
 <path fill="rgb(0,69,134)" stroke="none" d="M 7626,2953 L 7626,3203 7876,3203 7876,2953 7626,2953 Z"/>
 <path fill="none" stroke="rgb(0,69,134)" stroke-linejoin="round" d="M 7626,2953 L 7626,3203 7876,3203 7876,2953 7626,2953 Z"/>
 <path fill="rgb(0,69,134)" stroke="none" d="M 8168,3319 L 8168,3569 8418,3569 8418,3319 8168,3319 Z"/>
 <path fill="none" stroke="rgb(0,69,134)" stroke-linejoin="round" d="M 8168,3319 L 8168,3569 8418,3569 8418,3319 8168,3319 Z"/>
 <path fill="rgb(0,69,134)" stroke="none" d="M 8710,3759 L 8710,4009 8960,4009 8960,3759 8710,3759 Z"/>
 <path fill="none" stroke="rgb(0,69,134)" stroke-linejoin="round" d="M 8710,3759 L 8710,4009 8960,4009 8960,3759 8710,3759 Z"/>
 <path fill="rgb(0,69,134)" stroke="none" d="M 9252,4245 L 9252,4494 9502,4494 9502,4245 9252,4245 Z"/>
 <path fill="none" stroke="rgb(0,69,134)" stroke-linejoin="round" d="M 9252,4245 L 9252,4494 9502,4494 9502,4245 9252,4245 Z"/>
 <path fill="rgb(0,69,134)" stroke="none" d="M 9794,4747 L 9794,4997 10044,4997 10044,4747 9794,4747 Z"/>
 <path fill="none" stroke="rgb(0,69,134)" stroke-linejoin="round" d="M 9794,4747 L 9794,4997 10044,4997 10044,4747 9794,4747 Z"/>
 <path fill="rgb(0,69,134)" stroke="none" d="M 10336,5233 L 10336,5483 10586,5483 10586,5233 10336,5233 Z"/>
 <path fill="none" stroke="rgb(0,69,134)" stroke-linejoin="round" d="M 10336,5233 L 10336,5483 10586,5483 10586,5233 10336,5233 Z"/>
 <path fill="rgb(0,69,134)" stroke="none" d="M 10878,5673 L 10878,5923 11128,5923 11128,5673 10878,5673 Z"/>
 <path fill="none" stroke="rgb(0,69,134)" stroke-linejoin="round" d="M 10878,5673 L 10878,5923 11128,5923 11128,5673 10878,5673 Z"/>
 <path fill="rgb(0,69,134)" stroke="none" d="M 11420,6039 L 11420,6289 11670,6289 11670,6039 11420,6039 Z"/>
 <path fill="none" stroke="rgb(0,69,134)" stroke-linejoin="round" d="M 11420,6039 L 11420,6289 11670,6289 11670,6039 11420,6039 Z"/>
 <path fill="rgb(0,69,134)" stroke="none" d="M 11962,6308 L 11962,6558 12212,6558 12212,6308 11962,6308 Z"/>
 <path fill="none" stroke="rgb(0,69,134)" stroke-linejoin="round" d="M 11962,6308 L 11962,6558 12212,6558 12212,6308 11962,6308 Z"/>
 <path fill="rgb(0,69,134)" stroke="none" d="M 12504,6463 L 12504,6713 12754,6713 12754,6463 12504,6463 Z"/>
 <path fill="none" stroke="rgb(0,69,134)" stroke-linejoin="round" d="M 12504,6463 L 12504,6713 12754,6713 12754,6463 12504,6463 Z"/>
 <path fill="rgb(0,69,134)" stroke="none" d="M 13046,6495 L 13046,6745 13296,6745 13296,6495 13046,6495 Z"/>
 <path fill="none" stroke="rgb(0,69,134)" stroke-linejoin="round" d="M 13046,6495 L 13046,6745 13296,6745 13296,6495 13046,6495 Z"/>
 <path fill="rgb(0,69,134)" stroke="none" d="M 13589,6401 L 13589,6651 13839,6651 13839,6401 13589,6401 Z"/>
 <path fill="none" stroke="rgb(0,69,134)" stroke-linejoin="round" d="M 13589,6401 L 13589,6651 13839,6651 13839,6401 13589,6401 Z"/>
 <path fill="rgb(0,69,134)" stroke="none" d="M 14131,6187 L 14131,6437 14381,6437 14381,6187 14131,6187 Z"/>
 <path fill="none" stroke="rgb(0,69,134)" stroke-linejoin="round" d="M 14131,6187 L 14131,6437 14381,6437 14381,6187 14131,6187 Z"/>
 <path fill="rgb(0,69,134)" stroke="none" d="M 14673,5867 L 14673,6117 14923,6117 14923,5867 14673,5867 Z"/>
 <path fill="none" stroke="rgb(0,69,134)" stroke-linejoin="round" d="M 14673,5867 L 14673,6117 14923,6117 14923,5867 14673,5867 Z"/>
 <path fill="rgb(0,69,134)" stroke="none" d="M 15215,5461 L 15215,5711 15465,5711 15465,5461 15215,5461 Z"/>
 <path fill="none" stroke="rgb(0,69,134)" stroke-linejoin="round" d="M 15215,5461 L 15215,5711 15465,5711 15465,5461 15215,5461 Z"/>
 <path fill="rgb(0,69,134)" stroke="none" d="M 15757,4994 L 15757,5244 16007,5244 16007,4994 15757,4994 Z"/>
 <path fill="none" stroke="rgb(0,69,134)" stroke-linejoin="round" d="M 15757,4994 L 15757,5244 16007,5244 16007,4994 15757,4994 Z"/>
 <path fill="rgb(0,69,134)" stroke="none" d="M 16299,4496 L 16299,4746 16549,4746 16549,4496 16299,4496 Z"/>
 <path fill="none" stroke="rgb(0,69,134)" stroke-linejoin="round" d="M 16299,4496 L 16299,4746 16549,4746 16549,4496 16299,4496 Z"/>
 <path fill="rgb(0,69,134)" stroke="none" d="M 16841,3998 L 16841,4248 17091,4248 17091,3998 16841,3998 Z"/>
 <path fill="none" stroke="rgb(0,69,134)" stroke-linejoin="round" d="M 16841,3998 L 16841,4248 17091,4248 17091,3998 16841,3998 Z"/>
 <path fill="rgb(0,69,134)" stroke="none" d="M 17383,3531 L 17383,3781 17633,3781 17633,3531 17383,3531 Z"/>
 <path fill="none" stroke="rgb(0,69,134)" stroke-linejoin="round" d="M 17383,3531 L 17383,3781 17633,3781 17633,3531 17383,3531 Z"/>
 <path fill="rgb(0,69,134)" stroke="none" d="M 17925,3125 L 17925,3375 18175,3375 18175,3125 17925,3125 Z"/>
 <path fill="none" stroke="rgb(0,69,134)" stroke-linejoin="round" d="M 17925,3125 L 17925,3375 18175,3375 18175,3125 17925,3125 Z"/>
 <path fill="rgb(0,69,134)" stroke="none" d="M 18467,2805 L 18467,3055 18717,3055 18717,2805 18467,2805 Z"/>
 <path fill="none" stroke="rgb(0,69,134)" stroke-linejoin="round" d="M 18467,2805 L 18467,3055 18717,3055 18717,2805 18467,2805 Z"/>
 <path fill="rgb(0,69,134)" stroke="none" d="M 19009,2591 L 19009,2841 19259,2841 19259,2591 19009,2591 Z"/>
 <path fill="none" stroke="rgb(0,69,134)" stroke-linejoin="round" d="M 19009,2591 L 19009,2841 19259,2841 19259,2591 19009,2591 Z"/>
 <path fill="rgb(0,69,134)" stroke="none" d="M 19551,2497 L 19551,2747 19801,2747 19801,2497 19551,2497 Z"/>
 <path fill="none" stroke="rgb(0,69,134)" stroke-linejoin="round" d="M 19551,2497 L 19551,2747 19801,2747 19801,2497 19551,2497 Z"/>
 <path fill="rgb(0,69,134)" stroke="none" d="M 20093,2529 L 20093,2779 20343,2779 20343,2529 20093,2529 Z"/>
 <path fill="none" stroke="rgb(0,69,134)" stroke-linejoin="round" d="M 20093,2529 L 20093,2779 20343,2779 20343,2529 20093,2529 Z"/>
 <path fill="rgb(0,69,134)" stroke="none" d="M 20635,2684 L 20635,2934 20885,2934 20885,2684 20635,2684 Z"/>
 <path fill="none" stroke="rgb(0,69,134)" stroke-linejoin="round" d="M 20635,2684 L 20635,2934 20885,2934 20885,2684 20635,2684 Z"/>
 <path fill="rgb(0,69,134)" stroke="none" d="M 21177,2953 L 21177,3203 21427,3203 21427,2953 21177,2953 Z"/>
 <path fill="none" stroke="rgb(0,69,134)" stroke-linejoin="round" d="M 21177,2953 L 21177,3203 21427,3203 21427,2953 21177,2953 Z"/>
 <path fill="rgb(0,69,134)" stroke="none" d="M 21719,3319 L 21719,3569 21969,3569 21969,3319 21719,3319 Z"/>
 <path fill="none" stroke="rgb(0,69,134)" stroke-linejoin="round" d="M 21719,3319 L 21719,3569 21969,3569 21969,3319 21719,3319 Z"/>
 <path fill="rgb(0,69,134)" stroke="none" d="M 22261,3759 L 22261,4009 22511,4009 22511,3759 22261,3759 Z"/>
 <path fill="none" stroke="rgb(0,69,134)" stroke-linejoin="round" d="M 22261,3759 L 22261,4009 22511,4009 22511,3759 22261,3759 Z"/>
 <path fill="rgb(0,69,134)" stroke="none" d="M 22803,4245 L 22803,4494 23053,4494 23053,4245 22803,4245 Z"/>
 <path fill="none" stroke="rgb(0,69,134)" stroke-linejoin="round" d="M 22803,4245 L 22803,4494 23053,4494 23053,4245 22803,4245 Z"/>
 <path fill="rgb(0,69,134)" stroke="none" d="M 23345,4747 L 23345,4997 23595,4997 23595,4747 23345,4747 Z"/>
 <path fill="none" stroke="rgb(0,69,134)" stroke-linejoin="round" d="M 23345,4747 L 23345,4997 23595,4997 23595,4747 23345,4747 Z"/>
 <path fill="rgb(0,69,134)" stroke="none" d="M 23887,5233 L 23887,5483 24137,5483 24137,5233 23887,5233 Z"/>
 <path fill="none" stroke="rgb(0,69,134)" stroke-linejoin="round" d="M 23887,5233 L 23887,5483 24137,5483 24137,5233 23887,5233 Z"/>
 <path fill="rgb(0,69,134)" stroke="none" d="M 24430,5673 L 24430,5923 24680,5923 24680,5673 24430,5673 Z"/>
 <path fill="none" stroke="rgb(0,69,134)" stroke-linejoin="round" d="M 24430,5673 L 24430,5923 24680,5923 24680,5673 24430,5673 Z"/>
 <path fill="rgb(0,69,134)" stroke="none" d="M 24972,6039 L 24972,6289 25222,6289 25222,6039 24972,6039 Z"/>
 <path fill="none" stroke="rgb(0,69,134)" stroke-linejoin="round" d="M 24972,6039 L 24972,6289 25222,6289 25222,6039 24972,6039 Z"/>
 <path fill="rgb(0,69,134)" stroke="none" d="M 25514,6308 L 25514,6558 25764,6558 25764,6308 25514,6308 Z"/>
 <path fill="none" stroke="rgb(0,69,134)" stroke-linejoin="round" d="M 25514,6308 L 25514,6558 25764,6558 25764,6308 25514,6308 Z"/>
 <path fill="rgb(0,69,134)" stroke="none" d="M 26056,6463 L 26056,6713 26306,6713 26306,6463 26056,6463 Z"/>
 <path fill="none" stroke="rgb(0,69,134)" stroke-linejoin="round" d="M 26056,6463 L 26056,6713 26306,6713 26306,6463 26056,6463 Z"/>
 <path fill="rgb(0,69,134)" stroke="none" d="M 26598,6495 L 26598,6745 26848,6745 26848,6495 26598,6495 Z"/>
 <path fill="none" stroke="rgb(0,69,134)" stroke-linejoin="round" d="M 26598,6495 L 26598,6745 26848,6745 26848,6495 26598,6495 Z"/>
 <path fill="rgb(0,69,134)" stroke="none" d="M 27140,6401 L 27140,6651 27390,6651 27390,6401 27140,6401 Z"/>
 <path fill="none" stroke="rgb(0,69,134)" stroke-linejoin="round" d="M 27140,6401 L 27140,6651 27390,6651 27390,6401 27140,6401 Z"/>
 <path fill="rgb(0,69,134)" stroke="none" d="M 27682,6187 L 27682,6437 27932,6437 27932,6187 27682,6187 Z"/>
 <path fill="none" stroke="rgb(0,69,134)" stroke-linejoin="round" d="M 27682,6187 L 27682,6437 27932,6437 27932,6187 27682,6187 Z"/>
 <path fill="rgb(0,69,134)" stroke="none" d="M 28224,5867 L 28224,6117 28474,6117 28474,5867 28224,5867 Z"/>
 <path fill="none" stroke="rgb(0,69,134)" stroke-linejoin="round" d="M 28224,5867 L 28224,6117 28474,6117 28474,5867 28224,5867 Z"/>
 <path fill="rgb(0,69,134)" stroke="none" d="M 28766,5461 L 28766,5711 29016,5711 29016,5461 28766,5461 Z"/>
 <path fill="none" stroke="rgb(0,69,134)" stroke-linejoin="round" d="M 28766,5461 L 28766,5711 29016,5711 29016,5461 28766,5461 Z"/>
 <path fill="rgb(0,69,134)" stroke="none" d="M 29307,4994 L 29307,5244 29557,5244 29557,4994 29307,4994 Z"/>
 <path fill="none" stroke="rgb(0,69,134)" stroke-linejoin="round" d="M 29307,4994 L 29307,5244 29557,5244 29557,4994 29307,4994 Z"/>
 <path fill="rgb(0,69,134)" stroke="none" d="M 29849,4496 L 29849,4746 30099,4746 30099,4496 29849,4496 Z"/>
 <path fill="none" stroke="rgb(0,69,134)" stroke-linejoin="round" d="M 29849,4496 L 29849,4746 30099,4746 30099,4496 29849,4496 Z"/>
 <path fill="rgb(0,69,134)" stroke="none" d="M 30391,3998 L 30391,4248 30641,4248 30641,3998 30391,3998 Z"/>
 <path fill="none" stroke="rgb(0,69,134)" stroke-linejoin="round" d="M 30391,3998 L 30391,4248 30641,4248 30641,3998 30391,3998 Z"/>
 <path fill="rgb(0,69,134)" stroke="none" d="M 30933,3531 L 30933,3781 31183,3781 31183,3531 30933,3531 Z"/>
 <path fill="none" stroke="rgb(0,69,134)" stroke-linejoin="round" d="M 30933,3531 L 30933,3781 31183,3781 31183,3531 30933,3531 Z"/>
 <path fill="rgb(0,69,134)" stroke="none" d="M 31475,3125 L 31475,3375 31725,3375 31725,3125 31475,3125 Z"/>
 <path fill="none" stroke="rgb(0,69,134)" stroke-linejoin="round" d="M 31475,3125 L 31475,3375 31725,3375 31725,3125 31475,3125 Z"/>
 <path fill="rgb(0,69,134)" stroke="none" d="M 32017,2805 L 32017,3055 32267,3055 32267,2805 32017,2805 Z"/>
 <path fill="none" stroke="rgb(0,69,134)" stroke-linejoin="round" d="M 32017,2805 L 32017,3055 32267,3055 32267,2805 32017,2805 Z"/>
 <path fill="rgb(0,69,134)" stroke="none" d="M 32559,2591 L 32559,2841 32809,2841 32809,2591 32559,2591 Z"/>
 <path fill="none" stroke="rgb(0,69,134)" stroke-linejoin="round" d="M 32559,2591 L 32559,2841 32809,2841 32809,2591 32559,2591 Z"/>
 <path fill="rgb(0,69,134)" stroke="none" d="M 33101,2497 L 33101,2747 33351,2747 33351,2497 33101,2497 Z"/>
 <path fill="none" stroke="rgb(0,69,134)" stroke-linejoin="round" d="M 33101,2497 L 33101,2747 33351,2747 33351,2497 33101,2497 Z"/>
 <path fill="rgb(0,69,134)" stroke="none" d="M 33643,2529 L 33643,2779 33893,2779 33893,2529 33643,2529 Z"/>
 <path fill="none" stroke="rgb(0,69,134)" stroke-linejoin="round" d="M 33643,2529 L 33643,2779 33893,2779 33893,2529 33643,2529 Z"/>
 <path fill="rgb(0,69,134)" stroke="none" d="M 34185,2684 L 34185,2934 34435,2934 34435,2684 34185,2684 Z"/>
 <path fill="none" stroke="rgb(0,69,134)" stroke-linejoin="round" d="M 34185,2684 L 34185,2934 34435,2934 34435,2684 34185,2684 Z"/>
 <path fill="rgb(0,69,134)" stroke="none" d="M 34727,2953 L 34727,3203 34977,3203 34977,2953 34727,2953 Z"/>
 <path fill="none" stroke="rgb(0,69,134)" stroke-linejoin="round" d="M 34727,2953 L 34727,3203 34977,3203 34977,2953 34727,2953 Z"/>
 <path fill="rgb(0,69,134)" stroke="none" d="M 35270,3319 L 35270,3569 35520,3569 35520,3319 35270,3319 Z"/>
 <path fill="none" stroke="rgb(0,69,134)" stroke-linejoin="round" d="M 35270,3319 L 35270,3569 35520,3569 35520,3319 35270,3319 Z"/>
 <path fill="rgb(0,69,134)" stroke="none" d="M 35812,3759 L 35812,4009 36062,4009 36062,3759 35812,3759 Z"/>
 <path fill="none" stroke="rgb(0,69,134)" stroke-linejoin="round" d="M 35812,3759 L 35812,4009 36062,4009 36062,3759 35812,3759 Z"/>
 <path fill="rgb(0,69,134)" stroke="none" d="M 36354,4245 L 36354,4494 36604,4494 36604,4245 36354,4245 Z"/>
 <path fill="none" stroke="rgb(0,69,134)" stroke-linejoin="round" d="M 36354,4245 L 36354,4494 36604,4494 36604,4245 36354,4245 Z"/>
 <path fill="rgb(0,69,134)" stroke="none" d="M 36896,4747 L 36896,4997 37146,4997 37146,4747 36896,4747 Z"/>
 <path fill="none" stroke="rgb(0,69,134)" stroke-linejoin="round" d="M 36896,4747 L 36896,4997 37146,4997 37146,4747 36896,4747 Z"/>
 <path fill="rgb(0,69,134)" stroke="none" d="M 37438,5233 L 37438,5483 37688,5483 37688,5233 37438,5233 Z"/>
 <path fill="none" stroke="rgb(0,69,134)" stroke-linejoin="round" d="M 37438,5233 L 37438,5483 37688,5483 37688,5233 37438,5233 Z"/>
 <path fill="rgb(0,69,134)" stroke="none" d="M 37980,5673 L 37980,5923 38230,5923 38230,5673 37980,5673 Z"/>
 <path fill="none" stroke="rgb(0,69,134)" stroke-linejoin="round" d="M 37980,5673 L 37980,5923 38230,5923 38230,5673 37980,5673 Z"/>
 <path fill="rgb(0,69,134)" stroke="none" d="M 38522,6039 L 38522,6289 38772,6289 38772,6039 38522,6039 Z"/>
 <path fill="none" stroke="rgb(0,69,134)" stroke-linejoin="round" d="M 38522,6039 L 38522,6289 38772,6289 38772,6039 38522,6039 Z"/>
 <path fill="rgb(0,69,134)" stroke="none" d="M 39064,6308 L 39064,6558 39314,6558 39314,6308 39064,6308 Z"/>
 <path fill="none" stroke="rgb(0,69,134)" stroke-linejoin="round" d="M 39064,6308 L 39064,6558 39314,6558 39314,6308 39064,6308 Z"/>
 <path fill="rgb(0,69,134)" stroke="none" d="M 39606,6463 L 39606,6713 39856,6713 39856,6463 39606,6463 Z"/>
 <path fill="none" stroke="rgb(0,69,134)" stroke-linejoin="round" d="M 39606,6463 L 39606,6713 39856,6713 39856,6463 39606,6463 Z"/>
 <path fill="rgb(0,69,134)" stroke="none" d="M 40148,6495 L 40148,6745 40398,6745 40398,6495 40148,6495 Z"/>
 <path fill="none" stroke="rgb(0,69,134)" stroke-linejoin="round" d="M 40148,6495 L 40148,6745 40398,6745 40398,6495 40148,6495 Z"/>
 <path fill="rgb(0,69,134)" stroke="none" d="M 40690,6401 L 40690,6651 40940,6651 40940,6401 40690,6401 Z"/>
 <path fill="none" stroke="rgb(0,69,134)" stroke-linejoin="round" d="M 40690,6401 L 40690,6651 40940,6651 40940,6401 40690,6401 Z"/>
 <path fill="rgb(0,69,134)" stroke="none" d="M 41232,6187 L 41232,6437 41482,6437 41482,6187 41232,6187 Z"/>
 <path fill="none" stroke="rgb(0,69,134)" stroke-linejoin="round" d="M 41232,6187 L 41232,6437 41482,6437 41482,6187 41232,6187 Z"/>
 <path fill="rgb(0,69,134)" stroke="none" d="M 41774,5867 L 41774,6117 42024,6117 42024,5867 41774,5867 Z"/>
 <path fill="none" stroke="rgb(0,69,134)" stroke-linejoin="round" d="M 41774,5867 L 41774,6117 42024,6117 42024,5867 41774,5867 Z"/>
 <path fill="rgb(0,69,134)" stroke="none" d="M 42316,5461 L 42316,5711 42566,5711 42566,5461 42316,5461 Z"/>
 <path fill="none" stroke="rgb(0,69,134)" stroke-linejoin="round" d="M 42316,5461 L 42316,5711 42566,5711 42566,5461 42316,5461 Z"/>
 <path fill="rgb(0,69,134)" stroke="none" d="M 42858,4994 L 42858,5244 43108,5244 43108,4994 42858,4994 Z"/>
 <path fill="none" stroke="rgb(0,69,134)" stroke-linejoin="round" d="M 42858,4994 L 42858,5244 43108,5244 43108,4994 42858,4994 Z"/>
 <path fill="rgb(0,69,134)" stroke="none" d="M 43400,4496 L 43400,4746 43650,4746 43650,4496 43400,4496 Z"/>
 <path fill="none" stroke="rgb(0,69,134)" stroke-linejoin="round" d="M 43400,4496 L 43400,4746 43650,4746 43650,4496 43400,4496 Z"/>
 <path fill="rgb(0,69,134)" stroke="none" d="M 43942,3998 L 43942,4248 44192,4248 44192,3998 43942,3998 Z"/>
 <path fill="none" stroke="rgb(0,69,134)" stroke-linejoin="round" d="M 43942,3998 L 43942,4248 44192,4248 44192,3998 43942,3998 Z"/>
 <path fill="rgb(0,69,134)" stroke="none" d="M 44484,3531 L 44484,3781 44734,3781 44734,3531 44484,3531 Z"/>
 <path fill="none" stroke="rgb(0,69,134)" stroke-linejoin="round" d="M 44484,3531 L 44484,3781 44734,3781 44734,3531 44484,3531 Z"/>
 <path fill="rgb(0,69,134)" stroke="none" d="M 45026,3125 L 45026,3375 45276,3375 45276,3125 45026,3125 Z"/>
 <path fill="none" stroke="rgb(0,69,134)" stroke-linejoin="round" d="M 45026,3125 L 45026,3375 45276,3375 45276,3125 45026,3125 Z"/>
 <path fill="rgb(0,69,134)" stroke="none" d="M 45568,2805 L 45568,3055 45818,3055 45818,2805 45568,2805 Z"/>
 <path fill="none" stroke="rgb(0,69,134)" stroke-linejoin="round" d="M 45568,2805 L 45568,3055 45818,3055 45818,2805 45568,2805 Z"/>
 <path fill="rgb(0,69,134)" stroke="none" d="M 46111,2591 L 46111,2841 46361,2841 46361,2591 46111,2591 Z"/>
 <path fill="none" stroke="rgb(0,69,134)" stroke-linejoin="round" d="M 46111,2591 L 46111,2841 46361,2841 46361,2591 46111,2591 Z"/>
 <path fill="rgb(0,69,134)" stroke="none" d="M 46653,2497 L 46653,2747 46903,2747 46903,2497 46653,2497 Z"/>
 <path fill="none" stroke="rgb(0,69,134)" stroke-linejoin="round" d="M 46653,2497 L 46653,2747 46903,2747 46903,2497 46653,2497 Z"/>
 <path fill="rgb(0,69,134)" stroke="none" d="M 47195,2529 L 47195,2779 47445,2779 47445,2529 47195,2529 Z"/>
 <path fill="none" stroke="rgb(0,69,134)" stroke-linejoin="round" d="M 47195,2529 L 47195,2779 47445,2779 47445,2529 47195,2529 Z"/>
 <path fill="rgb(0,69,134)" stroke="none" d="M 47737,2684 L 47737,2934 47987,2934 47987,2684 47737,2684 Z"/>
 <path fill="none" stroke="rgb(0,69,134)" stroke-linejoin="round" d="M 47737,2684 L 47737,2934 47987,2934 47987,2684 47737,2684 Z"/>
 <path fill="rgb(0,69,134)" stroke="none" d="M 48279,2953 L 48279,3203 48529,3203 48529,2953 48279,2953 Z"/>
 <path fill="none" stroke="rgb(0,69,134)" stroke-linejoin="round" d="M 48279,2953 L 48279,3203 48529,3203 48529,2953 48279,2953 Z"/>
 <path fill="rgb(0,69,134)" stroke="none" d="M 48821,3319 L 48821,3569 49071,3569 49071,3319 48821,3319 Z"/>
 <path fill="none" stroke="rgb(0,69,134)" stroke-linejoin="round" d="M 48821,3319 L 48821,3569 49071,3569 49071,3319 48821,3319 Z"/>
 <path fill="rgb(0,69,134)" stroke="none" d="M 49363,3759 L 49363,4009 49613,4009 49613,3759 49363,3759 Z"/>
 <path fill="none" stroke="rgb(0,69,134)" stroke-linejoin="round" d="M 49363,3759 L 49363,4009 49613,4009 49613,3759 49363,3759 Z"/>
 <path fill="rgb(0,69,134)" stroke="none" d="M 49905,4245 L 49905,4494 50155,4494 50155,4245 49905,4245 Z"/>
 <path fill="none" stroke="rgb(0,69,134)" stroke-linejoin="round" d="M 49905,4245 L 49905,4494 50155,4494 50155,4245 49905,4245 Z"/>
 <path fill="rgb(0,69,134)" stroke="none" d="M 50447,4747 L 50447,4997 50697,4997 50697,4747 50447,4747 Z"/>
 <path fill="none" stroke="rgb(0,69,134)" stroke-linejoin="round" d="M 50447,4747 L 50447,4997 50697,4997 50697,4747 50447,4747 Z"/>
 <path fill="rgb(0,69,134)" stroke="none" d="M 50989,5233 L 50989,5483 51239,5483 51239,5233 50989,5233 Z"/>
 <path fill="none" stroke="rgb(0,69,134)" stroke-linejoin="round" d="M 50989,5233 L 50989,5483 51239,5483 51239,5233 50989,5233 Z"/>
 <path fill="rgb(0,69,134)" stroke="none" d="M 51531,5673 L 51531,5923 51781,5923 51781,5673 51531,5673 Z"/>
 <path fill="none" stroke="rgb(0,69,134)" stroke-linejoin="round" d="M 51531,5673 L 51531,5923 51781,5923 51781,5673 51531,5673 Z"/>
 <path fill="rgb(0,69,134)" stroke="none" d="M 52073,6039 L 52073,6289 52323,6289 52323,6039 52073,6039 Z"/>
 <path fill="none" stroke="rgb(0,69,134)" stroke-linejoin="round" d="M 52073,6039 L 52073,6289 52323,6289 52323,6039 52073,6039 Z"/>
 <path fill="rgb(0,69,134)" stroke="none" d="M 52615,6308 L 52615,6558 52865,6558 52865,6308 52615,6308 Z"/>
 <path fill="none" stroke="rgb(0,69,134)" stroke-linejoin="round" d="M 52615,6308 L 52615,6558 52865,6558 52865,6308 52615,6308 Z"/>
 <path fill="rgb(0,69,134)" stroke="none" d="M 53157,6463 L 53157,6713 53407,6713 53407,6463 53157,6463 Z"/>
 <path fill="none" stroke="rgb(0,69,134)" stroke-linejoin="round" d="M 53157,6463 L 53157,6713 53407,6713 53407,6463 53157,6463 Z"/>
 <path fill="rgb(0,69,134)" stroke="none" d="M 53699,6495 L 53699,6745 53949,6745 53949,6495 53699,6495 Z"/>
 <path fill="none" stroke="rgb(0,69,134)" stroke-linejoin="round" d="M 53699,6495 L 53699,6745 53949,6745 53949,6495 53699,6495 Z"/>
 <path fill="rgb(0,69,134)" stroke="none" d="M 54241,6401 L 54241,6651 54491,6651 54491,6401 54241,6401 Z"/>
 <path fill="none" stroke="rgb(0,69,134)" stroke-linejoin="round" d="M 54241,6401 L 54241,6651 54491,6651 54491,6401 54241,6401 Z"/>
 <path fill="rgb(0,69,134)" stroke="none" d="M 54783,6187 L 54783,6437 55033,6437 55033,6187 54783,6187 Z"/>
 <path fill="none" stroke="rgb(0,69,134)" stroke-linejoin="round" d="M 54783,6187 L 54783,6437 55033,6437 55033,6187 54783,6187 Z"/>
 <path fill="rgb(0,69,134)" stroke="none" d="M 55325,5867 L 55325,6117 55575,6117 55575,5867 55325,5867 Z"/>
 <path fill="none" stroke="rgb(0,69,134)" stroke-linejoin="round" d="M 55325,5867 L 55325,6117 55575,6117 55575,5867 55325,5867 Z"/>
 <path fill="rgb(0,69,134)" stroke="none" d="M 55867,5461 L 55867,5711 56117,5711 56117,5461 55867,5461 Z"/>
 <path fill="none" stroke="rgb(0,69,134)" stroke-linejoin="round" d="M 55867,5461 L 55867,5711 56117,5711 56117,5461 55867,5461 Z"/>
 <path fill="rgb(0,69,134)" stroke="none" d="M 56409,4994 L 56409,5244 56659,5244 56659,4994 56409,4994 Z"/>
 <path fill="none" stroke="rgb(0,69,134)" stroke-linejoin="round" d="M 56409,4994 L 56409,5244 56659,5244 56659,4994 56409,4994 Z"/>
 <text class="SVGTextShape"><tspan class="TextParagraph" font-family="Liberation Sans, sans-serif" font-size="353px" font-weight="400"><tspan class="TextPosition" x="2780" y="5189"><tspan fill="rgb(0,0,0)" stroke="none" style="white-space: pre">0</tspan></tspan></tspan></text>
 <text class="SVGTextShape"><tspan class="TextParagraph" font-family="Liberation Sans, sans-serif" font-size="353px" font-weight="400"><tspan class="TextPosition" x="8108" y="5189"><tspan fill="rgb(0,0,0)" stroke="none" style="white-space: pre">10</tspan></tspan></tspan></text>
 <text class="SVGTextShape"><tspan class="TextParagraph" font-family="Liberation Sans, sans-serif" font-size="353px" font-weight="400"><tspan class="TextPosition" x="13529" y="5189"><tspan fill="rgb(0,0,0)" stroke="none" style="white-space: pre">20</tspan></tspan></tspan></text>
 <text class="SVGTextShape"><tspan class="TextParagraph" font-family="Liberation Sans, sans-serif" font-size="353px" font-weight="400"><tspan class="TextPosition" x="18949" y="5189"><tspan fill="rgb(0,0,0)" stroke="none" style="white-space: pre">30</tspan></tspan></tspan></text>
 <text class="SVGTextShape"><tspan class="TextParagraph" font-family="Liberation Sans, sans-serif" font-size="353px" font-weight="400"><tspan class="TextPosition" x="24370" y="5189"><tspan fill="rgb(0,0,0)" stroke="none" style="white-space: pre">40</tspan></tspan></tspan></text>
 <text class="SVGTextShape"><tspan class="TextParagraph" font-family="Liberation Sans, sans-serif" font-size="353px" font-weight="400"><tspan class="TextPosition" x="29790" y="5189"><tspan fill="rgb(0,0,0)" stroke="none" style="white-space: pre">50</tspan></tspan></tspan></text>
 <text class="SVGTextShape"><tspan class="TextParagraph" font-family="Liberation Sans, sans-serif" font-size="353px" font-weight="400"><tspan class="TextPosition" x="35210" y="5189"><tspan fill="rgb(0,0,0)" stroke="none" style="white-space: pre">60</tspan></tspan></tspan></text>
 <text class="SVGTextShape"><tspan class="TextParagraph" font-family="Liberation Sans, sans-serif" font-size="353px" font-weight="400"><tspan class="TextPosition" x="40631" y="5189"><tspan fill="rgb(0,0,0)" stroke="none" style="white-space: pre">70</tspan></tspan></tspan></text>
 <text class="SVGTextShape"><tspan class="TextParagraph" font-family="Liberation Sans, sans-serif" font-size="353px" font-weight="400"><tspan class="TextPosition" x="46052" y="5189"><tspan fill="rgb(0,0,0)" stroke="none" style="white-space: pre">80</tspan></tspan></tspan></text>
 <text class="SVGTextShape"><tspan class="TextParagraph" font-family="Liberation Sans, sans-serif" font-size="353px" font-weight="400"><tspan class="TextPosition" x="51472" y="5189"><tspan fill="rgb(0,0,0)" stroke="none" style="white-space: pre">90</tspan></tspan></tspan></text>
 <text class="SVGTextShape"><tspan class="TextParagraph" font-family="Liberation Sans, sans-serif" font-size="353px" font-weight="400"><tspan class="TextPosition" x="56799" y="5189"><tspan fill="rgb(0,0,0)" stroke="none" style="white-space: pre">100</tspan></tspan></tspan></text>
 <text class="SVGTextShape"><tspan class="TextParagraph" font-family="Liberation Sans, sans-serif" font-size="353px" font-weight="400"><tspan class="TextPosition" x="2041" y="7747"><tspan fill="rgb(0,0,0)" stroke="none" style="white-space: pre">-1.5</tspan></tspan></tspan></text>
 <text class="SVGTextShape"><tspan class="TextParagraph" font-family="Liberation Sans, sans-serif" font-size="353px" font-weight="400"><tspan class="TextPosition" x="2332" y="6745"><tspan fill="rgb(0,0,0)" stroke="none" style="white-space: pre">-1</tspan></tspan></tspan></text>
 <text class="SVGTextShape"><tspan class="TextParagraph" font-family="Liberation Sans, sans-serif" font-size="353px" font-weight="400"><tspan class="TextPosition" x="2041" y="5743"><tspan fill="rgb(0,0,0)" stroke="none" style="white-space: pre">-0.5</tspan></tspan></tspan></text>
 <text class="SVGTextShape"><tspan class="TextParagraph" font-family="Liberation Sans, sans-serif" font-size="353px" font-weight="400"><tspan class="TextPosition" x="2438" y="4742"><tspan fill="rgb(0,0,0)" stroke="none" style="white-space: pre">0</tspan></tspan></tspan></text>
 <text class="SVGTextShape"><tspan class="TextParagraph" font-family="Liberation Sans, sans-serif" font-size="353px" font-weight="400"><tspan class="TextPosition" x="2147" y="3740"><tspan fill="rgb(0,0,0)" stroke="none" style="white-space: pre">0.5</tspan></tspan></tspan></text>
 <text class="SVGTextShape"><tspan class="TextParagraph" font-family="Liberation Sans, sans-serif" font-size="353px" font-weight="400"><tspan class="TextPosition" x="2438" y="2738"><tspan fill="rgb(0,0,0)" stroke="none" style="white-space: pre">1</tspan></tspan></tspan></text>
 <text class="SVGTextShape"><tspan class="TextParagraph" font-family="Liberation Sans, sans-serif" font-size="353px" font-weight="400"><tspan class="TextPosition" x="2147" y="1737"><tspan fill="rgb(0,0,0)" stroke="none" style="white-space: pre">1.5</tspan></tspan></tspan></text>
</svg>