<?xml version="1.0" encoding="UTF-8"?>
<!DOCTYPE svg PUBLIC "-//W3C//DTD SVG 1.1//EN" "http://www.w3.org/Graphics/SVG/1.1/DTD/svg11.dtd">
<svg width="642mm" height="90mm" viewBox="0 0 64200 9000" version="1.1" xmlns="http://www.w3.org/2000/svg" xmlns:xlink="http://www.w3.org/1999/xlink" stroke-width="28.222" stroke-linejoin="round" xml:space="preserve">
 <path fill="rgb(255,255,255)" stroke="none" d="M 32063,8992 L -13,8992 -13,-13 64139,-13 64139,8992 32063,8992 Z"/>
 <path fill="none" stroke="rgb(179,179,179)" stroke-linejoin="round" d="M 32287,8613 L 1997,8613 1997,366 62577,366 62577,8613 32287,8613 Z"/>
 <path fill="none" stroke="rgb(179,179,179)" stroke-linejoin="round" d="M 62576,8612 L 1997,8612"/>
 <path fill="none" stroke="rgb(179,179,179)" stroke-linejoin="round" d="M 62576,7237 L 1997,7237"/>
 <path fill="none" stroke="rgb(179,179,179)" stroke-linejoin="round" d="M 62576,5862 L 1997,5862"/>
 <path fill="none" stroke="rgb(179,179,179)" stroke-linejoin="round" d="M 62576,4489 L 1997,4489"/>
 <path fill="none" stroke="rgb(179,179,179)" stroke-linejoin="round" d="M 62576,3114 L 1997,3114"/>
 <path fill="none" stroke="rgb(179,179,179)" stroke-linejoin="round" d="M 62576,1739 L 1997,1739"/>
 <path fill="none" stroke="rgb(179,179,179)" stroke-linejoin="round" d="M 62576,365 L 1997,365"/>
 <path fill="none" stroke="rgb(179,179,179)" stroke-linejoin="round" d="M 1997,4638 L 1997,4489"/>
 <path fill="none" stroke="rgb(179,179,179)" stroke-linejoin="round" d="M 1997,4638 L 1997,4489"/>
 <path fill="none" stroke="rgb(179,179,179)" stroke-linejoin="round" d="M 8055,4638 L 8055,4489"/>
 <path fill="none" stroke="rgb(179,179,179)" stroke-linejoin="round" d="M 8055,4638 L 8055,4489"/>
 <path fill="none" stroke="rgb(179,179,179)" stroke-linejoin="round" d="M 14113,4638 L 14113,4489"/>
 <path fill="none" stroke="rgb(179,179,179)" stroke-linejoin="round" d="M 14113,4638 L 14113,4489"/>
 <path fill="none" stroke="rgb(179,179,179)" stroke-linejoin="round" d="M 20171,4638 L 20171,4489"/>
 <path fill="none" stroke="rgb(179,179,179)" stroke-linejoin="round" d="M 20171,4638 L 20171,4489"/>
 <path fill="none" stroke="rgb(179,179,179)" stroke-linejoin="round" d="M 26229,4638 L 26229,4489"/>
 <path fill="none" stroke="rgb(179,179,179)" stroke-linejoin="round" d="M 26229,4638 L 26229,4489"/>
 <path fill="none" stroke="rgb(179,179,179)" stroke-linejoin="round" d="M 32286,4638 L 32286,4489"/>
 <path fill="none" stroke="rgb(179,179,179)" stroke-linejoin="round" d="M 32286,4638 L 32286,4489"/>
 <path fill="none" stroke="rgb(179,179,179)" stroke-linejoin="round" d="M 38344,4638 L 38344,4489"/>
 <path fill="none" stroke="rgb(179,179,179)" stroke-linejoin="round" d="M 38344,4638 L 38344,4489"/>
 <path fill="none" stroke="rgb(179,179,179)" stroke-linejoin="round" d="M 44402,4638 L 44402,4489"/>
 <path fill="none" stroke="rgb(179,179,179)" stroke-linejoin="round" d="M 44402,4638 L 44402,4489"/>
 <path fill="none" stroke="rgb(179,179,179)" stroke-linejoin="round" d="M 50460,4638 L 50460,4489"/>
 <path fill="none" stroke="rgb(179,179,179)" stroke-linejoin="round" d="M 50460,4638 L 50460,4489"/>
 <path fill="none" stroke="rgb(179,179,179)" stroke-linejoin="round" d="M 56518,4638 L 56518,4489"/>
 <path fill="none" stroke="rgb(179,179,179)" stroke-linejoin="round" d="M 56518,4638 L 56518,4489"/>
 <path fill="none" stroke="rgb(179,179,179)" stroke-linejoin="round" d="M 62576,4638 L 62576,4489"/>
 <path fill="none" stroke="rgb(179,179,179)" stroke-linejoin="round" d="M 62576,4638 L 62576,4489"/>
 <path fill="none" stroke="rgb(179,179,179)" stroke-linejoin="round" d="M 1997,4489 L 62576,4489"/>
 <path fill="none" stroke="rgb(179,179,179)" stroke-linejoin="round" d="M 1847,8612 L 1997,8612"/>
 <path fill="none" stroke="rgb(179,179,179)" stroke-linejoin="round" d="M 1847,8612 L 1997,8612"/>
 <path fill="none" stroke="rgb(179,179,179)" stroke-linejoin="round" d="M 1847,7237 L 1997,7237"/>
 <path fill="none" stroke="rgb(179,179,179)" stroke-linejoin="round" d="M 1847,7237 L 1997,7237"/>
 <path fill="none" stroke="rgb(179,179,179)" stroke-linejoin="round" d="M 1847,5862 L 1997,5862"/>
 <path fill="none" stroke="rgb(179,179,179)" stroke-linejoin="round" d="M 1847,5862 L 1997,5862"/>
 <path fill="none" stroke="rgb(179,179,179)" stroke-linejoin="round" d="M 1847,4489 L 1997,4489"/>
 <path fill="none" stroke="rgb(179,179,179)" stroke-linejoin="round" d="M 1847,4489 L 1997,4489"/>
 <path fill="none" stroke="rgb(179,179,179)" stroke-linejoin="round" d="M 1847,3114 L 1997,3114"/>
 <path fill="none" stroke="rgb(179,179,179)" stroke-linejoin="round" d="M 1847,3114 L 1997,3114"/>
 <path fill="none" stroke="rgb(179,179,179)" stroke-linejoin="round" d="M 1847,1739 L 1997,1739"/>
 <path fill="none" stroke="rgb(179,179,179)" stroke-linejoin="round" d="M 1847,1739 L 1997,1739"/>
 <path fill="none" stroke="rgb(179,179,179)" stroke-linejoin="round" d="M 1847,365 L 1997,365"/>
 <path fill="none" stroke="rgb(179,179,179)" stroke-linejoin="round" d="M 1847,365 L 1997,365"/>
 <path fill="none" stroke="rgb(179,179,179)" stroke-linejoin="round" d="M 1997,8612 L 1997,365"/>
 <path fill="none" stroke="rgb(0,69,134)" stroke-width="80" stroke-linejoin="round" d="M 1997,4489 L 2602,4489 3208,4489 3814,4489 4420,7924 5026,4489 5631,4489 6237,4488 6843,4489 7449,4489 8055,4489 8660,4489 9266,4489 9872,4489 10478,4489 11084,4489 11689,4489 12295,4489 12901,4489 13507,4489 14113,4489 14719,4489 15324,4489 15930,4489 16536,4489 17142,4489 17748,4489 18353,4489 18959,4489 19565,4489 20171,4489 20777,4489 21382,4489 21988,4489 22594,4489 23200,4489 23806,4488 24411,4489 25017,4489 25623,4489 26229,4489 26835,4489 27441,4489 28046,4489 28652,4488 29258,4489 29864,4489 30470,4489 31075,4489 31681,4489 32286,4489 32892,4489 33498,4488 34103,4489 34709,4489 35315,4489 35921,4489 36527,4489 37132,4489 37738,4489 38344,4489 38950,4489 39556,4489 40162,4489 40767,4489 41373,4489 41979,4489 42585,4489 43191,4489 43796,4489 44402,4489 45008,4489 45614,4489 46220,4489 46825,4489 47431,4489 48037,4489 48643,4489 49249,4489 49854,4489 50460,4489 51066,4489 51672,4489 52278,4489 52884,4489 53489,4489 54095,4489 54701,4489 55307,4489 55913,4489 56518,4489 57124,4489 57730,4489 58336,4489 58942,4488 59547,4488 60153,1052 60759,4489 61365,4489 61971,4489"/>
 <path fill="rgb(0,69,134)" stroke="none" d="M 1872,4364 L 1872,4613 2122,4613 2122,4364 1872,4364 Z"/>
 <path fill="none" stroke="rgb(0,69,134)" stroke-linejoin="round" d="M 1872,4364 L 1872,4613 2122,4613 2122,4364 1872,4364 Z"/>
 <path fill="rgb(0,69,134)" stroke="none" d="M 2477,4364 L 2477,4613 2727,4613 2727,4364 2477,4364 Z"/>
 <path fill="none" stroke="rgb(0,69,134)" stroke-linejoin="round" d="M 2477,4364 L 2477,4613 2727,4613 2727,4364 2477,4364 Z"/>
 <path fill="rgb(0,69,134)" stroke="none" d="M 3083,4364 L 3083,4613 3333,4613 3333,4364 3083,4364 Z"/>
 <path fill="none" stroke="rgb(0,69,134)" stroke-linejoin="round" d="M 3083,4364 L 3083,4613 3333,4613 3333,4364 3083,4364 Z"/>
 <path fill="rgb(0,69,134)" stroke="none" d="M 3689,4364 L 3689,4613 3939,4613 3939,4364 3689,4364 Z"/>
 <path fill="none" stroke="rgb(0,69,134)" stroke-linejoin="round" d="M 3689,4364 L 3689,4613 3939,4613 3939,4364 3689,4364 Z"/>
 <path fill="rgb(0,69,134)" stroke="none" d="M 4295,7799 L 4295,8049 4545,8049 4545,7799 4295,7799 Z"/>
 <path fill="none" stroke="rgb(0,69,134)" stroke-linejoin="round" d="M 4295,7799 L 4295,8049 4545,8049 4545,7799 4295,7799 Z"/>
 <path fill="rgb(0,69,134)" stroke="none" d="M 4901,4364 L 4901,4613 5151,4613 5151,4364 4901,4364 Z"/>
 <path fill="none" stroke="rgb(0,69,134)" stroke-linejoin="round" d="M 4901,4364 L 4901,4613 5151,4613 5151,4364 4901,4364 Z"/>
 <path fill="rgb(0,69,134)" stroke="none" d="M 5506,4364 L 5506,4613 5756,4613 5756,4364 5506,4364 Z"/>
 <path fill="none" stroke="rgb(0,69,134)" stroke-linejoin="round" d="M 5506,4364 L 5506,4613 5756,4613 5756,4364 5506,4364 Z"/>
 <path fill="rgb(0,69,134)" stroke="none" d="M 6112,4363 L 6112,4612 6362,4612 6362,4363 6112,4363 Z"/>
 <path fill="none" stroke="rgb(0,69,134)" stroke-linejoin="round" d="M 6112,4363 L 6112,4612 6362,4612 6362,4363 6112,4363 Z"/>
 <path fill="rgb(0,69,134)" stroke="none" d="M 6718,4364 L 6718,4613 6968,4613 6968,4364 6718,4364 Z"/>
 <path fill="none" stroke="rgb(0,69,134)" stroke-linejoin="round" d="M 6718,4364 L 6718,4613 6968,4613 6968,4364 6718,4364 Z"/>
 <path fill="rgb(0,69,134)" stroke="none" d="M 7324,4364 L 7324,4613 7574,4613 7574,4364 7324,4364 Z"/>
 <path fill="none" stroke="rgb(0,69,134)" stroke-linejoin="round" d="M 7324,4364 L 7324,4613 7574,4613 7574,4364 7324,4364 Z"/>
 <path fill="rgb(0,69,134)" stroke="none" d="M 7930,4364 L 7930,4613 8180,4613 8180,4364 7930,4364 Z"/>
 <path fill="none" stroke="rgb(0,69,134)" stroke-linejoin="round" d="M 7930,4364 L 7930,4613 8180,4613 8180,4364 7930,4364 Z"/>
 <path fill="rgb(0,69,134)" stroke="none" d="M 8535,4364 L 8535,4613 8785,4613 8785,4364 8535,4364 Z"/>
 <path fill="none" stroke="rgb(0,69,134)" stroke-linejoin="round" d="M 8535,4364 L 8535,4613 8785,4613 8785,4364 8535,4364 Z"/>
 <path fill="rgb(0,69,134)" stroke="none" d="M 9141,4364 L 9141,4613 9391,4613 9391,4364 9141,4364 Z"/>
 <path fill="none" stroke="rgb(0,69,134)" stroke-linejoin="round" d="M 9141,4364 L 9141,4613 9391,4613 9391,4364 9141,4364 Z"/>
 <path fill="rgb(0,69,134)" stroke="none" d="M 9747,4364 L 9747,4613 9997,4613 9997,4364 9747,4364 Z"/>
 <path fill="none" stroke="rgb(0,69,134)" stroke-linejoin="round" d="M 9747,4364 L 9747,4613 9997,4613 9997,4364 9747,4364 Z"/>
 <path fill="rgb(0,69,134)" stroke="none" d="M 10353,4364 L 10353,4613 10603,4613 10603,4364 10353,4364 Z"/>
 <path fill="none" stroke="rgb(0,69,134)" stroke-linejoin="round" d="M 10353,4364 L 10353,4613 10603,4613 10603,4364 10353,4364 Z"/>
 <path fill="rgb(0,69,134)" stroke="none" d="M 10959,4364 L 10959,4613 11209,4613 11209,4364 10959,4364 Z"/>
 <path fill="none" stroke="rgb(0,69,134)" stroke-linejoin="round" d="M 10959,4364 L 10959,4613 11209,4613 11209,4364 10959,4364 Z"/>
 <path fill="rgb(0,69,134)" stroke="none" d="M 11564,4364 L 11564,4613 11814,4613 11814,4364 11564,4364 Z"/>
 <path fill="none" stroke="rgb(0,69,134)" stroke-linejoin="round" d="M 11564,4364 L 11564,4613 11814,4613 11814,4364 11564,4364 Z"/>
 <path fill="rgb(0,69,134)" stroke="none" d="M 12170,4364 L 12170,4613 12420,4613 12420,4364 12170,4364 Z"/>
 <path fill="none" stroke="rgb(0,69,134)" stroke-linejoin="round" d="M 12170,4364 L 12170,4613 12420,4613 12420,4364 12170,4364 Z"/>
 <path fill="rgb(0,69,134)" stroke="none" d="M 12776,4364 L 12776,4613 13026,4613 13026,4364 12776,4364 Z"/>
 <path fill="none" stroke="rgb(0,69,134)" stroke-linejoin="round" d="M 12776,4364 L 12776,4613 13026,4613 13026,4364 12776,4364 Z"/>
 <path fill="rgb(0,69,134)" stroke="none" d="M 13382,4364 L 13382,4613 13632,4613 13632,4364 13382,4364 Z"/>
 <path fill="none" stroke="rgb(0,69,134)" stroke-linejoin="round" d="M 13382,4364 L 13382,4613 13632,4613 13632,4364 13382,4364 Z"/>
 <path fill="rgb(0,69,134)" stroke="none" d="M 13988,4364 L 13988,4613 14238,4613 14238,4364 13988,4364 Z"/>
 <path fill="none" stroke="rgb(0,69,134)" stroke-linejoin="round" d="M 13988,4364 L 13988,4613 14238,4613 14238,4364 13988,4364 Z"/>
 <path fill="rgb(0,69,134)" stroke="none" d="M 14594,4364 L 14594,4613 14844,4613 14844,4364 14594,4364 Z"/>
 <path fill="none" stroke="rgb(0,69,134)" stroke-linejoin="round" d="M 14594,4364 L 14594,4613 14844,4613 14844,4364 14594,4364 Z"/>
 <path fill="rgb(0,69,134)" stroke="none" d="M 15199,4364 L 15199,4613 15449,4613 15449,4364 15199,4364 Z"/>
 <path fill="none" stroke="rgb(0,69,134)" stroke-linejoin="round" d="M 15199,4364 L 15199,4613 15449,4613 15449,4364 15199,4364 Z"/>
 <path fill="rgb(0,69,134)" stroke="none" d="M 15805,4364 L 15805,4613 16055,4613 16055,4364 15805,4364 Z"/>
 <path fill="none" stroke="rgb(0,69,134)" stroke-linejoin="round" d="M 15805,4364 L 15805,4613 16055,4613 16055,4364 15805,4364 Z"/>
 <path fill="rgb(0,69,134)" stroke="none" d="M 16411,4364 L 16411,4613 16661,4613 16661,4364 16411,4364 Z"/>
 <path fill="none" stroke="rgb(0,69,134)" stroke-linejoin="round" d="M 16411,4364 L 16411,4613 16661,4613 16661,4364 16411,4364 Z"/>
 <path fill="rgb(0,69,134)" stroke="none" d="M 17017,4364 L 17017,4613 17267,4613 17267,4364 17017,4364 Z"/>
 <path fill="none" stroke="rgb(0,69,134)" stroke-linejoin="round" d="M 17017,4364 L 17017,4613 17267,4613 17267,4364 17017,4364 Z"/>
 <path fill="rgb(0,69,134)" stroke="none" d="M 17623,4364 L 17623,4613 17873,4613 17873,4364 17623,4364 Z"/>
 <path fill="none" stroke="rgb(0,69,134)" stroke-linejoin="round" d="M 17623,4364 L 17623,4613 17873,4613 17873,4364 17623,4364 Z"/>
 <path fill="rgb(0,69,134)" stroke="none" d="M 18228,4364 L 18228,4613 18478,4613 18478,4364 18228,4364 Z"/>
 <path fill="none" stroke="rgb(0,69,134)" stroke-linejoin="round" d="M 18228,4364 L 18228,4613 18478,4613 18478,4364 18228,4364 Z"/>
 <path fill="rgb(0,69,134)" stroke="none" d="M 18834,4364 L 18834,4613 19084,4613 19084,4364 18834,4364 Z"/>
 <path fill="none" stroke="rgb(0,69,134)" stroke-linejoin="round" d="M 18834,4364 L 18834,4613 19084,4613 19084,4364 18834,4364 Z"/>
 <path fill="rgb(0,69,134)" stroke="none" d="M 19440,4364 L 19440,4613 19690,4613 19690,4364 19440,4364 Z"/>
 <path fill="none" stroke="rgb(0,69,134)" stroke-linejoin="round" d="M 19440,4364 L 19440,4613 19690,4613 19690,4364 19440,4364 Z"/>
 <path fill="rgb(0,69,134)" stroke="none" d="M 20046,4364 L 20046,4613 20296,4613 20296,4364 20046,4364 Z"/>
 <path fill="none" stroke="rgb(0,69,134)" stroke-linejoin="round" d="M 20046,4364 L 20046,4613 20296,4613 20296,4364 20046,4364 Z"/>
 <path fill="rgb(0,69,134)" stroke="none" d="M 20652,4364 L 20652,4613 20902,4613 20902,4364 20652,4364 Z"/>
 <path fill="none" stroke="rgb(0,69,134)" stroke-linejoin="round" d="M 20652,4364 L 20652,4613 20902,4613 20902,4364 20652,4364 Z"/>
 <path fill="rgb(0,69,134)" stroke="none" d="M 21257,4364 L 21257,4613 21507,4613 21507,4364 21257,4364 Z"/>
 <path fill="none" stroke="rgb(0,69,134)" stroke-linejoin="round" d="M 21257,4364 L 21257,4613 21507,4613 21507,4364 21257,4364 Z"/>
 <path fill="rgb(0,69,134)" stroke="none" d="M 21863,4364 L 21863,4613 22113,4613 22113,4364 21863,4364 Z"/>
 <path fill="none" stroke="rgb(0,69,134)" stroke-linejoin="round" d="M 21863,4364 L 21863,4613 22113,4613 22113,4364 21863,4364 Z"/>
 <path fill="rgb(0,69,134)" stroke="none" d="M 22469,4364 L 22469,4613 22719,4613 22719,4364 22469,4364 Z"/>
 <path fill="none" stroke="rgb(0,69,134)" stroke-linejoin="round" d="M 22469,4364 L 22469,4613 22719,4613 22719,4364 22469,4364 Z"/>
 <path fill="rgb(0,69,134)" stroke="none" d="M 23075,4364 L 23075,4613 23325,4613 23325,4364 23075,4364 Z"/>
 <path fill="none" stroke="rgb(0,69,134)" stroke-linejoin="round" d="M 23075,4364 L 23075,4613 23325,4613 23325,4364 23075,4364 Z"/>
 <path fill="rgb(0,69,134)" stroke="none" d="M 23681,4363 L 23681,4612 23931,4612 23931,4363 23681,4363 Z"/>
 <path fill="none" stroke="rgb(0,69,134)" stroke-linejoin="round" d="M 23681,4363 L 23681,4612 23931,4612 23931,4363 23681,4363 Z"/>
 <path fill="rgb(0,69,134)" stroke="none" d="M 24286,4364 L 24286,4613 24536,4613 24536,4364 24286,4364 Z"/>
 <path fill="none" stroke="rgb(0,69,134)" stroke-linejoin="round" d="M 24286,4364 L 24286,4613 24536,4613 24536,4364 24286,4364 Z"/>
 <path fill="rgb(0,69,134)" stroke="none" d="M 24892,4364 L 24892,4613 25142,4613 25142,4364 24892,4364 Z"/>
 <path fill="none" stroke="rgb(0,69,134)" stroke-linejoin="round" d="M 24892,4364 L 24892,4613 25142,4613 25142,4364 24892,4364 Z"/>
 <path fill="rgb(0,69,134)" stroke="none" d="M 25498,4364 L 25498,4613 25748,4613 25748,4364 25498,4364 Z"/>
 <path fill="none" stroke="rgb(0,69,134)" stroke-linejoin="round" d="M 25498,4364 L 25498,4613 25748,4613 25748,4364 25498,4364 Z"/>
 <path fill="rgb(0,69,134)" stroke="none" d="M 26104,4364 L 26104,4613 26354,4613 26354,4364 26104,4364 Z"/>
 <path fill="none" stroke="rgb(0,69,134)" stroke-linejoin="round" d="M 26104,4364 L 26104,4613 26354,4613 26354,4364 26104,4364 Z"/>
 <path fill="rgb(0,69,134)" stroke="none" d="M 26710,4364 L 26710,4613 26960,4613 26960,4364 26710,4364 Z"/>
 <path fill="none" stroke="rgb(0,69,134)" stroke-linejoin="round" d="M 26710,4364 L 26710,4613 26960,4613 26960,4364 26710,4364 Z"/>
 <path fill="rgb(0,69,134)" stroke="none" d="M 27316,4364 L 27316,4613 27566,4613 27566,4364 27316,4364 Z"/>
 <path fill="none" stroke="rgb(0,69,134)" stroke-linejoin="round" d="M 27316,4364 L 27316,4613 27566,4613 27566,4364 27316,4364 Z"/>
 <path fill="rgb(0,69,134)" stroke="none" d="M 27921,4364 L 27921,4613 28171,4613 28171,4364 27921,4364 Z"/>
 <path fill="none" stroke="rgb(0,69,134)" stroke-linejoin="round" d="M 27921,4364 L 27921,4613 28171,4613 28171,4364 27921,4364 Z"/>
 <path fill="rgb(0,69,134)" stroke="none" d="M 28527,4363 L 28527,4612 28777,4612 28777,4363 28527,4363 Z"/>
 <path fill="none" stroke="rgb(0,69,134)" stroke-linejoin="round" d="M 28527,4363 L 28527,4612 28777,4612 28777,4363 28527,4363 Z"/>
 <path fill="rgb(0,69,134)" stroke="none" d="M 29133,4364 L 29133,4613 29383,4613 29383,4364 29133,4364 Z"/>
 <path fill="none" stroke="rgb(0,69,134)" stroke-linejoin="round" d="M 29133,4364 L 29133,4613 29383,4613 29383,4364 29133,4364 Z"/>
 <path fill="rgb(0,69,134)" stroke="none" d="M 29739,4364 L 29739,4613 29989,4613 29989,4364 29739,4364 Z"/>
 <path fill="none" stroke="rgb(0,69,134)" stroke-linejoin="round" d="M 29739,4364 L 29739,4613 29989,4613 29989,4364 29739,4364 Z"/>
 <path fill="rgb(0,69,134)" stroke="none" d="M 30345,4364 L 30345,4613 30595,4613 30595,4364 30345,4364 Z"/>
 <path fill="none" stroke="rgb(0,69,134)" stroke-linejoin="round" d="M 30345,4364 L 30345,4613 30595,4613 30595,4364 30345,4364 Z"/>
 <path fill="rgb(0,69,134)" stroke="none" d="M 30950,4364 L 30950,4613 31200,4613 31200,4364 30950,4364 Z"/>
 <path fill="none" stroke="rgb(0,69,134)" stroke-linejoin="round" d="M 30950,4364 L 30950,4613 31200,4613 31200,4364 30950,4364 Z"/>
 <path fill="rgb(0,69,134)" stroke="none" d="M 31556,4364 L 31556,4613 31806,4613 31806,4364 31556,4364 Z"/>
 <path fill="none" stroke="rgb(0,69,134)" stroke-linejoin="round" d="M 31556,4364 L 31556,4613 31806,4613 31806,4364 31556,4364 Z"/>
 <path fill="rgb(0,69,134)" stroke="none" d="M 32161,4364 L 32161,4613 32411,4613 32411,4364 32161,4364 Z"/>
 <path fill="none" stroke="rgb(0,69,134)" stroke-linejoin="round" d="M 32161,4364 L 32161,4613 32411,4613 32411,4364 32161,4364 Z"/>
 <path fill="rgb(0,69,134)" stroke="none" d="M 32767,4364 L 32767,4613 33017,4613 33017,4364 32767,4364 Z"/>
 <path fill="none" stroke="rgb(0,69,134)" stroke-linejoin="round" d="M 32767,4364 L 32767,4613 33017,4613 33017,4364 32767,4364 Z"/>
 <path fill="rgb(0,69,134)" stroke="none" d="M 33373,4363 L 33373,4612 33623,4612 33623,4363 33373,4363 Z"/>
 <path fill="none" stroke="rgb(0,69,134)" stroke-linejoin="round" d="M 33373,4363 L 33373,4612 33623,4612 33623,4363 33373,4363 Z"/>
 <path fill="rgb(0,69,134)" stroke="none" d="M 33978,4364 L 33978,4613 34228,4613 34228,4364 33978,4364 Z"/>
 <path fill="none" stroke="rgb(0,69,134)" stroke-linejoin="round" d="M 33978,4364 L 33978,4613 34228,4613 34228,4364 33978,4364 Z"/>
 <path fill="rgb(0,69,134)" stroke="none" d="M 34584,4364 L 34584,4613 34834,4613 34834,4364 34584,4364 Z"/>
 <path fill="none" stroke="rgb(0,69,134)" stroke-linejoin="round" d="M 34584,4364 L 34584,4613 34834,4613 34834,4364 34584,4364 Z"/>
 <path fill="rgb(0,69,134)" stroke="none" d="M 35190,4364 L 35190,4613 35440,4613 35440,4364 35190,4364 Z"/>
 <path fill="none" stroke="rgb(0,69,134)" stroke-linejoin="round" d="M 35190,4364 L 35190,4613 35440,4613 35440,4364 35190,4364 Z"/>
 <path fill="rgb(0,69,134)" stroke="none" d="M 35796,4364 L 35796,4613 36046,4613 36046,4364 35796,4364 Z"/>
 <path fill="none" stroke="rgb(0,69,134)" stroke-linejoin="round" d="M 35796,4364 L 35796,4613 36046,4613 36046,4364 35796,4364 Z"/>
 <path fill="rgb(0,69,134)" stroke="none" d="M 36402,4364 L 36402,4613 36652,4613 36652,4364 36402,4364 Z"/>
 <path fill="none" stroke="rgb(0,69,134)" stroke-linejoin="round" d="M 36402,4364 L 36402,4613 36652,4613 36652,4364 36402,4364 Z"/>
 <path fill="rgb(0,69,134)" stroke="none" d="M 37007,4364 L 37007,4613 37257,4613 37257,4364 37007,4364 Z"/>
 <path fill="none" stroke="rgb(0,69,134)" stroke-linejoin="round" d="M 37007,4364 L 37007,4613 37257,4613 37257,4364 37007,4364 Z"/>
 <path fill="rgb(0,69,134)" stroke="none" d="M 37613,4364 L 37613,4613 37863,4613 37863,4364 37613,4364 Z"/>
 <path fill="none" stroke="rgb(0,69,134)" stroke-linejoin="round" d="M 37613,4364 L 37613,4613 37863,4613 37863,4364 37613,4364 Z"/>
 <path fill="rgb(0,69,134)" stroke="none" d="M 38219,4364 L 38219,4613 38469,4613 38469,4364 38219,4364 Z"/>
 <path fill="none" stroke="rgb(0,69,134)" stroke-linejoin="round" d="M 38219,4364 L 38219,4613 38469,4613 38469,4364 38219,4364 Z"/>
 <path fill="rgb(0,69,134)" stroke="none" d="M 38825,4364 L 38825,4613 39075,4613 39075,4364 38825,4364 Z"/>
 <path fill="none" stroke="rgb(0,69,134)" stroke-linejoin="round" d="M 38825,4364 L 38825,4613 39075,4613 39075,4364 38825,4364 Z"/>
 <path fill="rgb(0,69,134)" stroke="none" d="M 39431,4364 L 39431,4613 39681,4613 39681,4364 39431,4364 Z"/>
 <path fill="none" stroke="rgb(0,69,134)" stroke-linejoin="round" d="M 39431,4364 L 39431,4613 39681,4613 39681,4364 39431,4364 Z"/>
 <path fill="rgb(0,69,134)" stroke="none" d="M 40037,4364 L 40037,4613 40287,4613 40287,4364 40037,4364 Z"/>
 <path fill="none" stroke="rgb(0,69,134)" stroke-linejoin="round" d="M 40037,4364 L 40037,4613 40287,4613 40287,4364 40037,4364 Z"/>
 <path fill="rgb(0,69,134)" stroke="none" d="M 40642,4364 L 40642,4613 40892,4613 40892,4364 40642,4364 Z"/>
 <path fill="none" stroke="rgb(0,69,134)" stroke-linejoin="round" d="M 40642,4364 L 40642,4613 40892,4613 40892,4364 40642,4364 Z"/>
 <path fill="rgb(0,69,134)" stroke="none" d="M 41248,4364 L 41248,4613 41498,4613 41498,4364 41248,4364 Z"/>
 <path fill="none" stroke="rgb(0,69,134)" stroke-linejoin="round" d="M 41248,4364 L 41248,4613 41498,4613 41498,4364 41248,4364 Z"/>
 <path fill="rgb(0,69,134)" stroke="none" d="M 41854,4364 L 41854,4613 42104,4613 42104,4364 41854,4364 Z"/>
 <path fill="none" stroke="rgb(0,69,134)" stroke-linejoin="round" d="M 41854,4364 L 41854,4613 42104,4613 42104,4364 41854,4364 Z"/>
 <path fill="rgb(0,69,134)" stroke="none" d="M 42460,4364 L 42460,4613 42710,4613 42710,4364 42460,4364 Z"/>
 <path fill="none" stroke="rgb(0,69,134)" stroke-linejoin="round" d="M 42460,4364 L 42460,4613 42710,4613 42710,4364 42460,4364 Z"/>
 <path fill="rgb(0,69,134)" stroke="none" d="M 43066,4364 L 43066,4613 43316,4613 43316,4364 43066,4364 Z"/>
 <path fill="none" stroke="rgb(0,69,134)" stroke-linejoin="round" d="M 43066,4364 L 43066,4613 43316,4613 43316,4364 43066,4364 Z"/>
 <path fill="rgb(0,69,134)" stroke="none" d="M 43671,4364 L 43671,4613 43921,4613 43921,4364 43671,4364 Z"/>
 <path fill="none" stroke="rgb(0,69,134)" stroke-linejoin="round" d="M 43671,4364 L 43671,4613 43921,4613 43921,4364 43671,4364 Z"/>
 <path fill="rgb(0,69,134)" stroke="none" d="M 44277,4364 L 44277,4613 44527,4613 44527,4364 44277,4364 Z"/>
 <path fill="none" stroke="rgb(0,69,134)" stroke-linejoin="round" d="M 44277,4364 L 44277,4613 44527,4613 44527,4364 44277,4364 Z"/>
 <path fill="rgb(0,69,134)" stroke="none" d="M 44883,4364 L 44883,4613 45133,4613 45133,4364 44883,4364 Z"/>
 <path fill="none" stroke="rgb(0,69,134)" stroke-linejoin="round" d="M 44883,4364 L 44883,4613 45133,4613 45133,4364 44883,4364 Z"/>
 <path fill="rgb(0,69,134)" stroke="none" d="M 45489,4364 L 45489,4613 45739,4613 45739,4364 45489,4364 Z"/>
 <path fill="none" stroke="rgb(0,69,134)" stroke-linejoin="round" d="M 45489,4364 L 45489,4613 45739,4613 45739,4364 45489,4364 Z"/>
 <path fill="rgb(0,69,134)" stroke="none" d="M 46095,4364 L 46095,4613 46345,4613 46345,4364 46095,4364 Z"/>
 <path fill="none" stroke="rgb(0,69,134)" stroke-linejoin="round" d="M 46095,4364 L 46095,4613 46345,4613 46345,4364 46095,4364 Z"/>
 <path fill="rgb(0,69,134)" stroke="none" d="M 46700,4364 L 46700,4613 46950,4613 46950,4364 46700,4364 Z"/>
 <path fill="none" stroke="rgb(0,69,134)" stroke-linejoin="round" d="M 46700,4364 L 46700,4613 46950,4613 46950,4364 46700,4364 Z"/>
 <path fill="rgb(0,69,134)" stroke="none" d="M 47306,4364 L 47306,4613 47556,4613 47556,4364 47306,4364 Z"/>
 <path fill="none" stroke="rgb(0,69,134)" stroke-linejoin="round" d="M 47306,4364 L 47306,4613 47556,4613 47556,4364 47306,4364 Z"/>
 <path fill="rgb(0,69,134)" stroke="none" d="M 47912,4364 L 47912,4613 48162,4613 48162,4364 47912,4364 Z"/>
 <path fill="none" stroke="rgb(0,69,134)" stroke-linejoin="round" d="M 47912,4364 L 47912,4613 48162,4613 48162,4364 47912,4364 Z"/>
 <path fill="rgb(0,69,134)" stroke="none" d="M 48518,4364 L 48518,4613 48768,4613 48768,4364 48518,4364 Z"/>
 <path fill="none" stroke="rgb(0,69,134)" stroke-linejoin="round" d="M 48518,4364 L 48518,4613 48768,4613 48768,4364 48518,4364 Z"/>
 <path fill="rgb(0,69,134)" stroke="none" d="M 49124,4364 L 49124,4613 49374,4613 49374,4364 49124,4364 Z"/>
 <path fill="none" stroke="rgb(0,69,134)" stroke-linejoin="round" d="M 49124,4364 L 49124,4613 49374,4613 49374,4364 49124,4364 Z"/>
 <path fill="rgb(0,69,134)" stroke="none" d="M 49729,4364 L 49729,4613 49979,4613 49979,4364 49729,4364 Z"/>
 <path fill="none" stroke="rgb(0,69,134)" stroke-linejoin="round" d="M 49729,4364 L 49729,4613 49979,4613 49979,4364 49729,4364 Z"/>
 <path fill="rgb(0,69,134)" stroke="none" d="M 50335,4364 L 50335,4613 50585,4613 50585,4364 50335,4364 Z"/>
 <path fill="none" stroke="rgb(0,69,134)" stroke-linejoin="round" d="M 50335,4364 L 50335,4613 50585,4613 50585,4364 50335,4364 Z"/>
 <path fill="rgb(0,69,134)" stroke="none" d="M 50941,4364 L 50941,4613 51191,4613 51191,4364 50941,4364 Z"/>
 <path fill="none" stroke="rgb(0,69,134)" stroke-linejoin="round" d="M 50941,4364 L 50941,4613 51191,4613 51191,4364 50941,4364 Z"/>
 <path fill="rgb(0,69,134)" stroke="none" d="M 51547,4364 L 51547,4613 51797,4613 51797,4364 51547,4364 Z"/>
 <path fill="none" stroke="rgb(0,69,134)" stroke-linejoin="round" d="M 51547,4364 L 51547,4613 51797,4613 51797,4364 51547,4364 Z"/>
 <path fill="rgb(0,69,134)" stroke="none" d="M 52153,4364 L 52153,4613 52403,4613 52403,4364 52153,4364 Z"/>
 <path fill="none" stroke="rgb(0,69,134)" stroke-linejoin="round" d="M 52153,4364 L 52153,4613 52403,4613 52403,4364 52153,4364 Z"/>
 <path fill="rgb(0,69,134)" stroke="none" d="M 52759,4364 L 52759,4613 53009,4613 53009,4364 52759,4364 Z"/>
 <path fill="none" stroke="rgb(0,69,134)" stroke-linejoin="round" d="M 52759,4364 L 52759,4613 53009,4613 53009,4364 52759,4364 Z"/>
 <path fill="rgb(0,69,134)" stroke="none" d="M 53364,4364 L 53364,4613 53614,4613 53614,4364 53364,4364 Z"/>
 <path fill="none" stroke="rgb(0,69,134)" stroke-linejoin="round" d="M 53364,4364 L 53364,4613 53614,4613 53614,4364 53364,4364 Z"/>
 <path fill="rgb(0,69,134)" stroke="none" d="M 53970,4364 L 53970,4613 54220,4613 54220,4364 53970,4364 Z"/>
 <path fill="none" stroke="rgb(0,69,134)" stroke-linejoin="round" d="M 53970,4364 L 53970,4613 54220,4613 54220,4364 53970,4364 Z"/>
 <path fill="rgb(0,69,134)" stroke="none" d="M 54576,4364 L 54576,4613 54826,4613 54826,4364 54576,4364 Z"/>
 <path fill="none" stroke="rgb(0,69,134)" stroke-linejoin="round" d="M 54576,4364 L 54576,4613 54826,4613 54826,4364 54576,4364 Z"/>
 <path fill="rgb(0,69,134)" stroke="none" d="M 55182,4364 L 55182,4613 55432,4613 55432,4364 55182,4364 Z"/>
 <path fill="none" stroke="rgb(0,69,134)" stroke-linejoin="round" d="M 55182,4364 L 55182,4613 55432,4613 55432,4364 55182,4364 Z"/>
 <path fill="rgb(0,69,134)" stroke="none" d="M 55788,4364 L 55788,4613 56038,4613 56038,4364 55788,4364 Z"/>
 <path fill="none" stroke="rgb(0,69,134)" stroke-linejoin="round" d="M 55788,4364 L 55788,4613 56038,4613 56038,4364 55788,4364 Z"/>
 <path fill="rgb(0,69,134)" stroke="none" d="M 56393,4364 L 56393,4613 56643,4613 56643,4364 56393,4364 Z"/>
 <path fill="none" stroke="rgb(0,69,134)" stroke-linejoin="round" d="M 56393,4364 L 56393,4613 56643,4613 56643,4364 56393,4364 Z"/>
 <path fill="rgb(0,69,134)" stroke="none" d="M 56999,4364 L 56999,4613 57249,4613 57249,4364 56999,4364 Z"/>
 <path fill="none" stroke="rgb(0,69,134)" stroke-linejoin="round" d="M 56999,4364 L 56999,4613 57249,4613 57249,4364 56999,4364 Z"/>
 <path fill="rgb(0,69,134)" stroke="none" d="M 57605,4364 L 57605,4613 57855,4613 57855,4364 57605,4364 Z"/>
 <path fill="none" stroke="rgb(0,69,134)" stroke-linejoin="round" d="M 57605,4364 L 57605,4613 57855,4613 57855,4364 57605,4364 Z"/>
 <path fill="rgb(0,69,134)" stroke="none" d="M 58211,4364 L 58211,4613 58461,4613 58461,4364 58211,4364 Z"/>
 <path fill="none" stroke="rgb(0,69,134)" stroke-linejoin="round" d="M 58211,4364 L 58211,4613 58461,4613 58461,4364 58211,4364 Z"/>
 <path fill="rgb(0,69,134)" stroke="none" d="M 58817,4363 L 58817,4612 59067,4612 59067,4363 58817,4363 Z"/>
 <path fill="none" stroke="rgb(0,69,134)" stroke-linejoin="round" d="M 58817,4363 L 58817,4612 59067,4612 59067,4363 58817,4363 Z"/>
 <path fill="rgb(0,69,134)" stroke="none" d="M 59422,4363 L 59422,4612 59672,4612 59672,4363 59422,4363 Z"/>
 <path fill="none" stroke="rgb(0,69,134)" stroke-linejoin="round" d="M 59422,4363 L 59422,4612 59672,4612 59672,4363 59422,4363 Z"/>
 <path fill="rgb(0,69,134)" stroke="none" d="M 60028,927 L 60028,1177 60278,1177 60278,927 60028,927 Z"/>
 <path fill="none" stroke="rgb(0,69,134)" stroke-linejoin="round" d="M 60028,927 L 60028,1177 60278,1177 60278,927 60028,927 Z"/>
 <path fill="rgb(0,69,134)" stroke="none" d="M 60634,4364 L 60634,4613 60884,4613 60884,4364 60634,4364 Z"/>
 <path fill="none" stroke="rgb(0,69,134)" stroke-linejoin="round" d="M 60634,4364 L 60634,4613 60884,4613 60884,4364 60634,4364 Z"/>
 <path fill="rgb(0,69,134)" stroke="none" d="M 61240,4364 L 61240,4613 61490,4613 61490,4364 61240,4364 Z"/>
 <path fill="none" stroke="rgb(0,69,134)" stroke-linejoin="round" d="M 61240,4364 L 61240,4613 61490,4613 61490,4364 61240,4364 Z"/>
 <path fill="rgb(0,69,134)" stroke="none" d="M 61846,4364 L 61846,4613 62096,4613 62096,4364 61846,4364 Z"/>
 <path fill="none" stroke="rgb(0,69,134)" stroke-linejoin="round" d="M 61846,4364 L 61846,4613 62096,4613 62096,4364 61846,4364 Z"/>
 <text class="SVGTextShape"><tspan class="TextParagraph" font-family="Liberation Sans, sans-serif" font-size="353px" font-weight="400"><tspan class="TextPosition" x="1904" y="5056"><tspan fill="rgb(0,0,0)" stroke="none" style="white-space: pre">0</tspan></tspan></tspan></text>
 <text class="SVGTextShape"><tspan class="TextParagraph" font-family="Liberation Sans, sans-serif" font-size="353px" font-weight="400"><tspan class="TextPosition" x="7870" y="5056"><tspan fill="rgb(0,0,0)" stroke="none" style="white-space: pre">10</tspan></tspan></tspan></text>
 <text class="SVGTextShape"><tspan class="TextParagraph" font-family="Liberation Sans, sans-serif" font-size="353px" font-weight="400"><tspan class="TextPosition" x="13928" y="5056"><tspan fill="rgb(0,0,0)" stroke="none" style="white-space: pre">20</tspan></tspan></tspan></text>
 <text class="SVGTextShape"><tspan class="TextParagraph" font-family="Liberation Sans, sans-serif" font-size="353px" font-weight="400"><tspan class="TextPosition" x="19986" y="5056"><tspan fill="rgb(0,0,0)" stroke="none" style="white-space: pre">30</tspan></tspan></tspan></text>
 <text class="SVGTextShape"><tspan class="TextParagraph" font-family="Liberation Sans, sans-serif" font-size="353px" font-weight="400"><tspan class="TextPosition" x="26044" y="5056"><tspan fill="rgb(0,0,0)" stroke="none" style="white-space: pre">40</tspan></tspan></tspan></text>
 <text class="SVGTextShape"><tspan class="TextParagraph" font-family="Liberation Sans, sans-serif" font-size="353px" font-weight="400"><tspan class="TextPosition" x="32102" y="5056"><tspan fill="rgb(0,0,0)" stroke="none" style="white-space: pre">50</tspan></tspan></tspan></text>
 <text class="SVGTextShape"><tspan class="TextParagraph" font-family="Liberation Sans, sans-serif" font-size="353px" font-weight="400"><tspan class="TextPosition" x="38160" y="5056"><tspan fill="rgb(0,0,0)" stroke="none" style="white-space: pre">60</tspan></tspan></tspan></text>
 <text class="SVGTextShape"><tspan class="TextParagraph" font-family="Liberation Sans, sans-serif" font-size="353px" font-weight="400"><tspan class="TextPosition" x="44218" y="5056"><tspan fill="rgb(0,0,0)" stroke="none" style="white-space: pre">70</tspan></tspan></tspan></text>
 <text class="SVGTextShape"><tspan class="TextParagraph" font-family="Liberation Sans, sans-serif" font-size="353px" font-weight="400"><tspan class="TextPosition" x="50276" y="5056"><tspan fill="rgb(0,0,0)" stroke="none" style="white-space: pre">80</tspan></tspan></tspan></text>
 <text class="SVGTextShape"><tspan class="TextParagraph" font-family="Liberation Sans, sans-serif" font-size="353px" font-weight="400"><tspan class="TextPosition" x="56334" y="5056"><tspan fill="rgb(0,0,0)" stroke="none" style="white-space: pre">90</tspan></tspan></tspan></text>
 <text class="SVGTextShape"><tspan class="TextParagraph" font-family="Liberation Sans, sans-serif" font-size="353px" font-weight="400"><tspan class="TextPosition" x="62299" y="5056"><tspan fill="rgb(0,0,0)" stroke="none" style="white-space: pre">100</tspan></tspan></tspan></text>
 <text class="SVGTextShape"><tspan class="TextParagraph" font-family="Liberation Sans, sans-serif" font-size="353px" font-weight="400"><tspan class="TextPosition" x="1271" y="8733"><tspan fill="rgb(0,0,0)" stroke="none" style="white-space: pre">-30</tspan></tspan></tspan></text>
 <text class="SVGTextShape"><tspan class="TextParagraph" font-family="Liberation Sans, sans-serif" font-size="353px" font-weight="400"><tspan class="TextPosition" x="1271" y="7358"><tspan fill="rgb(0,0,0)" stroke="none" style="white-space: pre">-20</tspan></tspan></tspan></text>
 <text class="SVGTextShape"><tspan class="TextParagraph" font-family="Liberation Sans, sans-serif" font-size="353px" font-weight="400"><tspan class="TextPosition" x="1271" y="5983"><tspan fill="rgb(0,0,0)" stroke="none" style="white-space: pre">-10</tspan></tspan></tspan></text>
 <text class="SVGTextShape"><tspan class="TextParagraph" font-family="Liberation Sans, sans-serif" font-size="353px" font-weight="400"><tspan class="TextPosition" x="1562" y="4609"><tspan fill="rgb(0,0,0)" stroke="none" style="white-space: pre">0</tspan></tspan></tspan></text>
 <text class="SVGTextShape"><tspan class="TextParagraph" font-family="Liberation Sans, sans-serif" font-size="353px" font-weight="400"><tspan class="TextPosition" x="1377" y="3234"><tspan fill="rgb(0,0,0)" stroke="none" style="white-space: pre">10</tspan></tspan></tspan></text>
 <text class="SVGTextShape"><tspan class="TextParagraph" font-family="Liberation Sans, sans-serif" font-size="353px" font-weight="400"><tspan class="TextPosition" x="1377" y="1859"><tspan fill="rgb(0,0,0)" stroke="none" style="white-space: pre">20</tspan></tspan></tspan></text>
 <text class="SVGTextShape"><tspan class="TextParagraph" font-family="Liberation Sans, sans-serif" font-size="353px" font-weight="400"><tspan class="TextPosition" x="1377" y="485"><tspan fill="rgb(0,0,0)" stroke="none" style="white-space: pre">30</tspan></tspan></tspan></text>
</svg>