<?xml version="1.0" encoding="UTF-8"?>
<!DOCTYPE svg PUBLIC "-//W3C//DTD SVG 1.1//EN" "http://www.w3.org/Graphics/SVG/1.1/DTD/svg11.dtd">
<svg width="575mm" height="90mm" viewBox="0 0 57500 9000" version="1.1" xmlns="http://www.w3.org/2000/svg" xmlns:xlink="http://www.w3.org/1999/xlink" stroke-width="28.222" stroke-linejoin="round" xml:space="preserve">
 <path fill="rgb(255,255,255)" stroke="none" d="M 28724,8992 L -13,8992 -13,-13 57461,-13 57461,8992 28724,8992 Z"/>
 <path fill="none" stroke="rgb(179,179,179)" stroke-linejoin="round" d="M 29040,8613 L 2048,8613 2048,366 56032,366 56032,8613 29040,8613 Z"/>
 <path fill="none" stroke="rgb(179,179,179)" stroke-linejoin="round" d="M 56032,8612 L 2048,8612"/>
 <path fill="none" stroke="rgb(179,179,179)" stroke-linejoin="round" d="M 56032,7237 L 2048,7237"/>
 <path fill="none" stroke="rgb(179,179,179)" stroke-linejoin="round" d="M 56032,5862 L 2048,5862"/>
 <path fill="none" stroke="rgb(179,179,179)" stroke-linejoin="round" d="M 56032,4489 L 2048,4489"/>
 <path fill="none" stroke="rgb(179,179,179)" stroke-linejoin="round" d="M 56032,3114 L 2048,3114"/>
 <path fill="none" stroke="rgb(179,179,179)" stroke-linejoin="round" d="M 56032,1739 L 2048,1739"/>
 <path fill="none" stroke="rgb(179,179,179)" stroke-linejoin="round" d="M 56032,364 L 2048,364"/>
 <path fill="none" stroke="rgb(179,179,179)" stroke-linejoin="round" d="M 2048,1889 L 2048,1739"/>
 <path fill="none" stroke="rgb(179,179,179)" stroke-linejoin="round" d="M 2048,1889 L 2048,1739"/>
 <path fill="none" stroke="rgb(179,179,179)" stroke-linejoin="round" d="M 7446,1889 L 7446,1739"/>
 <path fill="none" stroke="rgb(179,179,179)" stroke-linejoin="round" d="M 7446,1889 L 7446,1739"/>
 <path fill="none" stroke="rgb(179,179,179)" stroke-linejoin="round" d="M 12845,1889 L 12845,1739"/>
 <path fill="none" stroke="rgb(179,179,179)" stroke-linejoin="round" d="M 12845,1889 L 12845,1739"/>
 <path fill="none" stroke="rgb(179,179,179)" stroke-linejoin="round" d="M 18243,1889 L 18243,1739"/>
 <path fill="none" stroke="rgb(179,179,179)" stroke-linejoin="round" d="M 18243,1889 L 18243,1739"/>
 <path fill="none" stroke="rgb(179,179,179)" stroke-linejoin="round" d="M 23642,1889 L 23642,1739"/>
 <path fill="none" stroke="rgb(179,179,179)" stroke-linejoin="round" d="M 23642,1889 L 23642,1739"/>
 <path fill="none" stroke="rgb(179,179,179)" stroke-linejoin="round" d="M 29039,1889 L 29039,1739"/>
 <path fill="none" stroke="rgb(179,179,179)" stroke-linejoin="round" d="M 29039,1889 L 29039,1739"/>
 <path fill="none" stroke="rgb(179,179,179)" stroke-linejoin="round" d="M 34438,1889 L 34438,1739"/>
 <path fill="none" stroke="rgb(179,179,179)" stroke-linejoin="round" d="M 34438,1889 L 34438,1739"/>
 <path fill="none" stroke="rgb(179,179,179)" stroke-linejoin="round" d="M 39836,1889 L 39836,1739"/>
 <path fill="none" stroke="rgb(179,179,179)" stroke-linejoin="round" d="M 39836,1889 L 39836,1739"/>
 <path fill="none" stroke="rgb(179,179,179)" stroke-linejoin="round" d="M 45235,1889 L 45235,1739"/>
 <path fill="none" stroke="rgb(179,179,179)" stroke-linejoin="round" d="M 45235,1889 L 45235,1739"/>
 <path fill="none" stroke="rgb(179,179,179)" stroke-linejoin="round" d="M 50633,1889 L 50633,1739"/>
 <path fill="none" stroke="rgb(179,179,179)" stroke-linejoin="round" d="M 50633,1889 L 50633,1739"/>
 <path fill="none" stroke="rgb(179,179,179)" stroke-linejoin="round" d="M 56032,1889 L 56032,1739"/>
 <path fill="none" stroke="rgb(179,179,179)" stroke-linejoin="round" d="M 56032,1889 L 56032,1739"/>
 <path fill="none" stroke="rgb(179,179,179)" stroke-linejoin="round" d="M 2048,1739 L 56032,1739"/>
 <path fill="none" stroke="rgb(179,179,179)" stroke-linejoin="round" d="M 1898,8612 L 2048,8612"/>
 <path fill="none" stroke="rgb(179,179,179)" stroke-linejoin="round" d="M 1898,8612 L 2048,8612"/>
 <path fill="none" stroke="rgb(179,179,179)" stroke-linejoin="round" d="M 1898,7237 L 2048,7237"/>
 <path fill="none" stroke="rgb(179,179,179)" stroke-linejoin="round" d="M 1898,7237 L 2048,7237"/>
 <path fill="none" stroke="rgb(179,179,179)" stroke-linejoin="round" d="M 1898,5862 L 2048,5862"/>
 <path fill="none" stroke="rgb(179,179,179)" stroke-linejoin="round" d="M 1898,5862 L 2048,5862"/>
 <path fill="none" stroke="rgb(179,179,179)" stroke-linejoin="round" d="M 1898,4489 L 2048,4489"/>
 <path fill="none" stroke="rgb(179,179,179)" stroke-linejoin="round" d="M 1898,4489 L 2048,4489"/>
 <path fill="none" stroke="rgb(179,179,179)" stroke-linejoin="round" d="M 1898,3114 L 2048,3114"/>
 <path fill="none" stroke="rgb(179,179,179)" stroke-linejoin="round" d="M 1898,3114 L 2048,3114"/>
 <path fill="none" stroke="rgb(179,179,179)" stroke-linejoin="round" d="M 1898,1739 L 2048,1739"/>
 <path fill="none" stroke="rgb(179,179,179)" stroke-linejoin="round" d="M 1898,1739 L 2048,1739"/>
 <path fill="none" stroke="rgb(179,179,179)" stroke-linejoin="round" d="M 1898,365 L 2048,365"/>
 <path fill="none" stroke="rgb(179,179,179)" stroke-linejoin="round" d="M 1898,365 L 2048,365"/>
 <path fill="none" stroke="rgb(179,179,179)" stroke-linejoin="round" d="M 2048,8612 L 2048,364"/>
 <path fill="none" stroke="rgb(0,69,134)" stroke-width="80" stroke-linejoin="round" d="M 2048,1739 L 2587,1739 3127,1739 3667,1739 4207,7237 4747,1739 5287,1739 5826,1739 6366,1739 6906,1739 7446,1739 7986,1739 8526,1739 9066,1739 9605,1739 10145,1739 10685,1739 11225,1739 11765,1739 12305,1739 12845,1739 13384,1739 13924,1739 14464,1739 15004,1739 15544,1739 16084,1739 16623,1739 17163,1739 17703,1739 18243,1739 18783,1739 19323,1739 19863,1739 20402,1739 20942,1739 21482,1739 22022,1739 22562,1739 23102,1739 23642,1739 24181,1739 24721,1739 25261,1739 25801,1739 26341,1739 26881,1739 27420,1739 27960,1739 28500,1739 29039,1739 29579,1739 30119,1739 30659,1739 31198,1739 31738,1739 32278,1739 32818,1739 33358,1739 33898,1739 34438,1739 34977,1739 35517,1739 36057,1739 36597,1739 37137,1739 37677,1739 38216,1739 38756,1739 39296,1739 39836,1739 40376,1739 40916,1739 41456,1739 41995,1739 42535,1739 43075,1739 43615,1739 44155,1739 44695,1739 45235,1739 45774,1739 46314,1739 46854,1739 47394,1739 47934,1739 48474,1739 49013,1739 49553,1739 50093,1739 50633,1739 51173,1739 51713,1739 52253,1739 52792,1739 53332,1739 53872,1739 54412,1739 54952,1739 55492,1739 56032,1739"/>
 <path fill="rgb(0,69,134)" stroke="none" d="M 1923,1614 L 1923,1864 2173,1864 2173,1614 1923,1614 Z"/>
 <path fill="none" stroke="rgb(0,69,134)" stroke-linejoin="round" d="M 1923,1614 L 1923,1864 2173,1864 2173,1614 1923,1614 Z"/>
 <path fill="rgb(0,69,134)" stroke="none" d="M 2462,1614 L 2462,1864 2712,1864 2712,1614 2462,1614 Z"/>
 <path fill="none" stroke="rgb(0,69,134)" stroke-linejoin="round" d="M 2462,1614 L 2462,1864 2712,1864 2712,1614 2462,1614 Z"/>
 <path fill="rgb(0,69,134)" stroke="none" d="M 3002,1614 L 3002,1864 3252,1864 3252,1614 3002,1614 Z"/>
 <path fill="none" stroke="rgb(0,69,134)" stroke-linejoin="round" d="M 3002,1614 L 3002,1864 3252,1864 3252,1614 3002,1614 Z"/>
 <path fill="rgb(0,69,134)" stroke="none" d="M 3542,1614 L 3542,1864 3792,1864 3792,1614 3542,1614 Z"/>
 <path fill="none" stroke="rgb(0,69,134)" stroke-linejoin="round" d="M 3542,1614 L 3542,1864 3792,1864 3792,1614 3542,1614 Z"/>
 <path fill="rgb(0,69,134)" stroke="none" d="M 4082,7112 L 4082,7362 4332,7362 4332,7112 4082,7112 Z"/>
 <path fill="none" stroke="rgb(0,69,134)" stroke-linejoin="round" d="M 4082,7112 L 4082,7362 4332,7362 4332,7112 4082,7112 Z"/>
 <path fill="rgb(0,69,134)" stroke="none" d="M 4622,1614 L 4622,1864 4872,1864 4872,1614 4622,1614 Z"/>
 <path fill="none" stroke="rgb(0,69,134)" stroke-linejoin="round" d="M 4622,1614 L 4622,1864 4872,1864 4872,1614 4622,1614 Z"/>
 <path fill="rgb(0,69,134)" stroke="none" d="M 5162,1614 L 5162,1864 5412,1864 5412,1614 5162,1614 Z"/>
 <path fill="none" stroke="rgb(0,69,134)" stroke-linejoin="round" d="M 5162,1614 L 5162,1864 5412,1864 5412,1614 5162,1614 Z"/>
 <path fill="rgb(0,69,134)" stroke="none" d="M 5701,1614 L 5701,1864 5951,1864 5951,1614 5701,1614 Z"/>
 <path fill="none" stroke="rgb(0,69,134)" stroke-linejoin="round" d="M 5701,1614 L 5701,1864 5951,1864 5951,1614 5701,1614 Z"/>
 <path fill="rgb(0,69,134)" stroke="none" d="M 6241,1614 L 6241,1864 6491,1864 6491,1614 6241,1614 Z"/>
 <path fill="none" stroke="rgb(0,69,134)" stroke-linejoin="round" d="M 6241,1614 L 6241,1864 6491,1864 6491,1614 6241,1614 Z"/>
 <path fill="rgb(0,69,134)" stroke="none" d="M 6781,1614 L 6781,1864 7031,1864 7031,1614 6781,1614 Z"/>
 <path fill="none" stroke="rgb(0,69,134)" stroke-linejoin="round" d="M 6781,1614 L 6781,1864 7031,1864 7031,1614 6781,1614 Z"/>
 <path fill="rgb(0,69,134)" stroke="none" d="M 7321,1614 L 7321,1864 7571,1864 7571,1614 7321,1614 Z"/>
 <path fill="none" stroke="rgb(0,69,134)" stroke-linejoin="round" d="M 7321,1614 L 7321,1864 7571,1864 7571,1614 7321,1614 Z"/>
 <path fill="rgb(0,69,134)" stroke="none" d="M 7861,1614 L 7861,1864 8111,1864 8111,1614 7861,1614 Z"/>
 <path fill="none" stroke="rgb(0,69,134)" stroke-linejoin="round" d="M 7861,1614 L 7861,1864 8111,1864 8111,1614 7861,1614 Z"/>
 <path fill="rgb(0,69,134)" stroke="none" d="M 8401,1614 L 8401,1864 8651,1864 8651,1614 8401,1614 Z"/>
 <path fill="none" stroke="rgb(0,69,134)" stroke-linejoin="round" d="M 8401,1614 L 8401,1864 8651,1864 8651,1614 8401,1614 Z"/>
 <path fill="rgb(0,69,134)" stroke="none" d="M 8941,1614 L 8941,1864 9191,1864 9191,1614 8941,1614 Z"/>
 <path fill="none" stroke="rgb(0,69,134)" stroke-linejoin="round" d="M 8941,1614 L 8941,1864 9191,1864 9191,1614 8941,1614 Z"/>
 <path fill="rgb(0,69,134)" stroke="none" d="M 9480,1614 L 9480,1864 9730,1864 9730,1614 9480,1614 Z"/>
 <path fill="none" stroke="rgb(0,69,134)" stroke-linejoin="round" d="M 9480,1614 L 9480,1864 9730,1864 9730,1614 9480,1614 Z"/>
 <path fill="rgb(0,69,134)" stroke="none" d="M 10020,1614 L 10020,1864 10270,1864 10270,1614 10020,1614 Z"/>
 <path fill="none" stroke="rgb(0,69,134)" stroke-linejoin="round" d="M 10020,1614 L 10020,1864 10270,1864 10270,1614 10020,1614 Z"/>
 <path fill="rgb(0,69,134)" stroke="none" d="M 10560,1614 L 10560,1864 10810,1864 10810,1614 10560,1614 Z"/>
 <path fill="none" stroke="rgb(0,69,134)" stroke-linejoin="round" d="M 10560,1614 L 10560,1864 10810,1864 10810,1614 10560,1614 Z"/>
 <path fill="rgb(0,69,134)" stroke="none" d="M 11100,1614 L 11100,1864 11350,1864 11350,1614 11100,1614 Z"/>
 <path fill="none" stroke="rgb(0,69,134)" stroke-linejoin="round" d="M 11100,1614 L 11100,1864 11350,1864 11350,1614 11100,1614 Z"/>
 <path fill="rgb(0,69,134)" stroke="none" d="M 11640,1614 L 11640,1864 11890,1864 11890,1614 11640,1614 Z"/>
 <path fill="none" stroke="rgb(0,69,134)" stroke-linejoin="round" d="M 11640,1614 L 11640,1864 11890,1864 11890,1614 11640,1614 Z"/>
 <path fill="rgb(0,69,134)" stroke="none" d="M 12180,1614 L 12180,1864 12430,1864 12430,1614 12180,1614 Z"/>
 <path fill="none" stroke="rgb(0,69,134)" stroke-linejoin="round" d="M 12180,1614 L 12180,1864 12430,1864 12430,1614 12180,1614 Z"/>
 <path fill="rgb(0,69,134)" stroke="none" d="M 12720,1614 L 12720,1864 12970,1864 12970,1614 12720,1614 Z"/>
 <path fill="none" stroke="rgb(0,69,134)" stroke-linejoin="round" d="M 12720,1614 L 12720,1864 12970,1864 12970,1614 12720,1614 Z"/>
 <path fill="rgb(0,69,134)" stroke="none" d="M 13259,1614 L 13259,1864 13509,1864 13509,1614 13259,1614 Z"/>
 <path fill="none" stroke="rgb(0,69,134)" stroke-linejoin="round" d="M 13259,1614 L 13259,1864 13509,1864 13509,1614 13259,1614 Z"/>
 <path fill="rgb(0,69,134)" stroke="none" d="M 13799,1614 L 13799,1864 14049,1864 14049,1614 13799,1614 Z"/>
 <path fill="none" stroke="rgb(0,69,134)" stroke-linejoin="round" d="M 13799,1614 L 13799,1864 14049,1864 14049,1614 13799,1614 Z"/>
 <path fill="rgb(0,69,134)" stroke="none" d="M 14339,1614 L 14339,1864 14589,1864 14589,1614 14339,1614 Z"/>
 <path fill="none" stroke="rgb(0,69,134)" stroke-linejoin="round" d="M 14339,1614 L 14339,1864 14589,1864 14589,1614 14339,1614 Z"/>
 <path fill="rgb(0,69,134)" stroke="none" d="M 14879,1614 L 14879,1864 15129,1864 15129,1614 14879,1614 Z"/>
 <path fill="none" stroke="rgb(0,69,134)" stroke-linejoin="round" d="M 14879,1614 L 14879,1864 15129,1864 15129,1614 14879,1614 Z"/>
 <path fill="rgb(0,69,134)" stroke="none" d="M 15419,1614 L 15419,1864 15669,1864 15669,1614 15419,1614 Z"/>
 <path fill="none" stroke="rgb(0,69,134)" stroke-linejoin="round" d="M 15419,1614 L 15419,1864 15669,1864 15669,1614 15419,1614 Z"/>
 <path fill="rgb(0,69,134)" stroke="none" d="M 15959,1614 L 15959,1864 16209,1864 16209,1614 15959,1614 Z"/>
 <path fill="none" stroke="rgb(0,69,134)" stroke-linejoin="round" d="M 15959,1614 L 15959,1864 16209,1864 16209,1614 15959,1614 Z"/>
 <path fill="rgb(0,69,134)" stroke="none" d="M 16498,1614 L 16498,1864 16748,1864 16748,1614 16498,1614 Z"/>
 <path fill="none" stroke="rgb(0,69,134)" stroke-linejoin="round" d="M 16498,1614 L 16498,1864 16748,1864 16748,1614 16498,1614 Z"/>
 <path fill="rgb(0,69,134)" stroke="none" d="M 17038,1614 L 17038,1864 17288,1864 17288,1614 17038,1614 Z"/>
 <path fill="none" stroke="rgb(0,69,134)" stroke-linejoin="round" d="M 17038,1614 L 17038,1864 17288,1864 17288,1614 17038,1614 Z"/>
 <path fill="rgb(0,69,134)" stroke="none" d="M 17578,1614 L 17578,1864 17828,1864 17828,1614 17578,1614 Z"/>
 <path fill="none" stroke="rgb(0,69,134)" stroke-linejoin="round" d="M 17578,1614 L 17578,1864 17828,1864 17828,1614 17578,1614 Z"/>
 <path fill="rgb(0,69,134)" stroke="none" d="M 18118,1614 L 18118,1864 18368,1864 18368,1614 18118,1614 Z"/>
 <path fill="none" stroke="rgb(0,69,134)" stroke-linejoin="round" d="M 18118,1614 L 18118,1864 18368,1864 18368,1614 18118,1614 Z"/>
 <path fill="rgb(0,69,134)" stroke="none" d="M 18658,1614 L 18658,1864 18908,1864 18908,1614 18658,1614 Z"/>
 <path fill="none" stroke="rgb(0,69,134)" stroke-linejoin="round" d="M 18658,1614 L 18658,1864 18908,1864 18908,1614 18658,1614 Z"/>
 <path fill="rgb(0,69,134)" stroke="none" d="M 19198,1614 L 19198,1864 19448,1864 19448,1614 19198,1614 Z"/>
 <path fill="none" stroke="rgb(0,69,134)" stroke-linejoin="round" d="M 19198,1614 L 19198,1864 19448,1864 19448,1614 19198,1614 Z"/>
 <path fill="rgb(0,69,134)" stroke="none" d="M 19738,1614 L 19738,1864 19988,1864 19988,1614 19738,1614 Z"/>
 <path fill="none" stroke="rgb(0,69,134)" stroke-linejoin="round" d="M 19738,1614 L 19738,1864 19988,1864 19988,1614 19738,1614 Z"/>
 <path fill="rgb(0,69,134)" stroke="none" d="M 20277,1614 L 20277,1864 20527,1864 20527,1614 20277,1614 Z"/>
 <path fill="none" stroke="rgb(0,69,134)" stroke-linejoin="round" d="M 20277,1614 L 20277,1864 20527,1864 20527,1614 20277,1614 Z"/>
 <path fill="rgb(0,69,134)" stroke="none" d="M 20817,1614 L 20817,1864 21067,1864 21067,1614 20817,1614 Z"/>
 <path fill="none" stroke="rgb(0,69,134)" stroke-linejoin="round" d="M 20817,1614 L 20817,1864 21067,1864 21067,1614 20817,1614 Z"/>
 <path fill="rgb(0,69,134)" stroke="none" d="M 21357,1614 L 21357,1864 21607,1864 21607,1614 21357,1614 Z"/>
 <path fill="none" stroke="rgb(0,69,134)" stroke-linejoin="round" d="M 21357,1614 L 21357,1864 21607,1864 21607,1614 21357,1614 Z"/>
 <path fill="rgb(0,69,134)" stroke="none" d="M 21897,1614 L 21897,1864 22147,1864 22147,1614 21897,1614 Z"/>
 <path fill="none" stroke="rgb(0,69,134)" stroke-linejoin="round" d="M 21897,1614 L 21897,1864 22147,1864 22147,1614 21897,1614 Z"/>
 <path fill="rgb(0,69,134)" stroke="none" d="M 22437,1614 L 22437,1864 22687,1864 22687,1614 22437,1614 Z"/>
 <path fill="none" stroke="rgb(0,69,134)" stroke-linejoin="round" d="M 22437,1614 L 22437,1864 22687,1864 22687,1614 22437,1614 Z"/>
 <path fill="rgb(0,69,134)" stroke="none" d="M 22977,1614 L 22977,1864 23227,1864 23227,1614 22977,1614 Z"/>
 <path fill="none" stroke="rgb(0,69,134)" stroke-linejoin="round" d="M 22977,1614 L 22977,1864 23227,1864 23227,1614 22977,1614 Z"/>
 <path fill="rgb(0,69,134)" stroke="none" d="M 23517,1614 L 23517,1864 23767,1864 23767,1614 23517,1614 Z"/>
 <path fill="none" stroke="rgb(0,69,134)" stroke-linejoin="round" d="M 23517,1614 L 23517,1864 23767,1864 23767,1614 23517,1614 Z"/>
 <path fill="rgb(0,69,134)" stroke="none" d="M 24056,1614 L 24056,1864 24306,1864 24306,1614 24056,1614 Z"/>
 <path fill="none" stroke="rgb(0,69,134)" stroke-linejoin="round" d="M 24056,1614 L 24056,1864 24306,1864 24306,1614 24056,1614 Z"/>
 <path fill="rgb(0,69,134)" stroke="none" d="M 24596,1614 L 24596,1864 24846,1864 24846,1614 24596,1614 Z"/>
 <path fill="none" stroke="rgb(0,69,134)" stroke-linejoin="round" d="M 24596,1614 L 24596,1864 24846,1864 24846,1614 24596,1614 Z"/>
 <path fill="rgb(0,69,134)" stroke="none" d="M 25136,1614 L 25136,1864 25386,1864 25386,1614 25136,1614 Z"/>
 <path fill="none" stroke="rgb(0,69,134)" stroke-linejoin="round" d="M 25136,1614 L 25136,1864 25386,1864 25386,1614 25136,1614 Z"/>
 <path fill="rgb(0,69,134)" stroke="none" d="M 25676,1614 L 25676,1864 25926,1864 25926,1614 25676,1614 Z"/>
 <path fill="none" stroke="rgb(0,69,134)" stroke-linejoin="round" d="M 25676,1614 L 25676,1864 25926,1864 25926,1614 25676,1614 Z"/>
 <path fill="rgb(0,69,134)" stroke="none" d="M 26216,1614 L 26216,1864 26466,1864 26466,1614 26216,1614 Z"/>
 <path fill="none" stroke="rgb(0,69,134)" stroke-linejoin="round" d="M 26216,1614 L 26216,1864 26466,1864 26466,1614 26216,1614 Z"/>
 <path fill="rgb(0,69,134)" stroke="none" d="M 26756,1614 L 26756,1864 27006,1864 27006,1614 26756,1614 Z"/>
 <path fill="none" stroke="rgb(0,69,134)" stroke-linejoin="round" d="M 26756,1614 L 26756,1864 27006,1864 27006,1614 26756,1614 Z"/>
 <path fill="rgb(0,69,134)" stroke="none" d="M 27295,1614 L 27295,1864 27545,1864 27545,1614 27295,1614 Z"/>
 <path fill="none" stroke="rgb(0,69,134)" stroke-linejoin="round" d="M 27295,1614 L 27295,1864 27545,1864 27545,1614 27295,1614 Z"/>
 <path fill="rgb(0,69,134)" stroke="none" d="M 27835,1614 L 27835,1864 28085,1864 28085,1614 27835,1614 Z"/>
 <path fill="none" stroke="rgb(0,69,134)" stroke-linejoin="round" d="M 27835,1614 L 27835,1864 28085,1864 28085,1614 27835,1614 Z"/>
 <path fill="rgb(0,69,134)" stroke="none" d="M 28375,1614 L 28375,1864 28625,1864 28625,1614 28375,1614 Z"/>
 <path fill="none" stroke="rgb(0,69,134)" stroke-linejoin="round" d="M 28375,1614 L 28375,1864 28625,1864 28625,1614 28375,1614 Z"/>
 <path fill="rgb(0,69,134)" stroke="none" d="M 28914,1614 L 28914,1864 29164,1864 29164,1614 28914,1614 Z"/>
 <path fill="none" stroke="rgb(0,69,134)" stroke-linejoin="round" d="M 28914,1614 L 28914,1864 29164,1864 29164,1614 28914,1614 Z"/>
 <path fill="rgb(0,69,134)" stroke="none" d="M 29454,1614 L 29454,1864 29704,1864 29704,1614 29454,1614 Z"/>
 <path fill="none" stroke="rgb(0,69,134)" stroke-linejoin="round" d="M 29454,1614 L 29454,1864 29704,1864 29704,1614 29454,1614 Z"/>
 <path fill="rgb(0,69,134)" stroke="none" d="M 29994,1614 L 29994,1864 30244,1864 30244,1614 29994,1614 Z"/>
 <path fill="none" stroke="rgb(0,69,134)" stroke-linejoin="round" d="M 29994,1614 L 29994,1864 30244,1864 30244,1614 29994,1614 Z"/>
 <path fill="rgb(0,69,134)" stroke="none" d="M 30534,1614 L 30534,1864 30784,1864 30784,1614 30534,1614 Z"/>
 <path fill="none" stroke="rgb(0,69,134)" stroke-linejoin="round" d="M 30534,1614 L 30534,1864 30784,1864 30784,1614 30534,1614 Z"/>
 <path fill="rgb(0,69,134)" stroke="none" d="M 31073,1614 L 31073,1864 31323,1864 31323,1614 31073,1614 Z"/>
 <path fill="none" stroke="rgb(0,69,134)" stroke-linejoin="round" d="M 31073,1614 L 31073,1864 31323,1864 31323,1614 31073,1614 Z"/>
 <path fill="rgb(0,69,134)" stroke="none" d="M 31613,1614 L 31613,1864 31863,1864 31863,1614 31613,1614 Z"/>
 <path fill="none" stroke="rgb(0,69,134)" stroke-linejoin="round" d="M 31613,1614 L 31613,1864 31863,1864 31863,1614 31613,1614 Z"/>
 <path fill="rgb(0,69,134)" stroke="none" d="M 32153,1614 L 32153,1864 32403,1864 32403,1614 32153,1614 Z"/>
 <path fill="none" stroke="rgb(0,69,134)" stroke-linejoin="round" d="M 32153,1614 L 32153,1864 32403,1864 32403,1614 32153,1614 Z"/>
 <path fill="rgb(0,69,134)" stroke="none" d="M 32693,1614 L 32693,1864 32943,1864 32943,1614 32693,1614 Z"/>
 <path fill="none" stroke="rgb(0,69,134)" stroke-linejoin="round" d="M 32693,1614 L 32693,1864 32943,1864 32943,1614 32693,1614 Z"/>
 <path fill="rgb(0,69,134)" stroke="none" d="M 33233,1614 L 33233,1864 33483,1864 33483,1614 33233,1614 Z"/>
 <path fill="none" stroke="rgb(0,69,134)" stroke-linejoin="round" d="M 33233,1614 L 33233,1864 33483,1864 33483,1614 33233,1614 Z"/>
 <path fill="rgb(0,69,134)" stroke="none" d="M 33773,1614 L 33773,1864 34023,1864 34023,1614 33773,1614 Z"/>
 <path fill="none" stroke="rgb(0,69,134)" stroke-linejoin="round" d="M 33773,1614 L 33773,1864 34023,1864 34023,1614 33773,1614 Z"/>
 <path fill="rgb(0,69,134)" stroke="none" d="M 34313,1614 L 34313,1864 34563,1864 34563,1614 34313,1614 Z"/>
 <path fill="none" stroke="rgb(0,69,134)" stroke-linejoin="round" d="M 34313,1614 L 34313,1864 34563,1864 34563,1614 34313,1614 Z"/>
 <path fill="rgb(0,69,134)" stroke="none" d="M 34852,1614 L 34852,1864 35102,1864 35102,1614 34852,1614 Z"/>
 <path fill="none" stroke="rgb(0,69,134)" stroke-linejoin="round" d="M 34852,1614 L 34852,1864 35102,1864 35102,1614 34852,1614 Z"/>
 <path fill="rgb(0,69,134)" stroke="none" d="M 35392,1614 L 35392,1864 35642,1864 35642,1614 35392,1614 Z"/>
 <path fill="none" stroke="rgb(0,69,134)" stroke-linejoin="round" d="M 35392,1614 L 35392,1864 35642,1864 35642,1614 35392,1614 Z"/>
 <path fill="rgb(0,69,134)" stroke="none" d="M 35932,1614 L 35932,1864 36182,1864 36182,1614 35932,1614 Z"/>
 <path fill="none" stroke="rgb(0,69,134)" stroke-linejoin="round" d="M 35932,1614 L 35932,1864 36182,1864 36182,1614 35932,1614 Z"/>
 <path fill="rgb(0,69,134)" stroke="none" d="M 36472,1614 L 36472,1864 36722,1864 36722,1614 36472,1614 Z"/>
 <path fill="none" stroke="rgb(0,69,134)" stroke-linejoin="round" d="M 36472,1614 L 36472,1864 36722,1864 36722,1614 36472,1614 Z"/>
 <path fill="rgb(0,69,134)" stroke="none" d="M 37012,1614 L 37012,1864 37262,1864 37262,1614 37012,1614 Z"/>
 <path fill="none" stroke="rgb(0,69,134)" stroke-linejoin="round" d="M 37012,1614 L 37012,1864 37262,1864 37262,1614 37012,1614 Z"/>
 <path fill="rgb(0,69,134)" stroke="none" d="M 37552,1614 L 37552,1864 37802,1864 37802,1614 37552,1614 Z"/>
 <path fill="none" stroke="rgb(0,69,134)" stroke-linejoin="round" d="M 37552,1614 L 37552,1864 37802,1864 37802,1614 37552,1614 Z"/>
 <path fill="rgb(0,69,134)" stroke="none" d="M 38091,1614 L 38091,1864 38341,1864 38341,1614 38091,1614 Z"/>
 <path fill="none" stroke="rgb(0,69,134)" stroke-linejoin="round" d="M 38091,1614 L 38091,1864 38341,1864 38341,1614 38091,1614 Z"/>
 <path fill="rgb(0,69,134)" stroke="none" d="M 38631,1614 L 38631,1864 38881,1864 38881,1614 38631,1614 Z"/>
 <path fill="none" stroke="rgb(0,69,134)" stroke-linejoin="round" d="M 38631,1614 L 38631,1864 38881,1864 38881,1614 38631,1614 Z"/>
 <path fill="rgb(0,69,134)" stroke="none" d="M 39171,1614 L 39171,1864 39421,1864 39421,1614 39171,1614 Z"/>
 <path fill="none" stroke="rgb(0,69,134)" stroke-linejoin="round" d="M 39171,1614 L 39171,1864 39421,1864 39421,1614 39171,1614 Z"/>
 <path fill="rgb(0,69,134)" stroke="none" d="M 39711,1614 L 39711,1864 39961,1864 39961,1614 39711,1614 Z"/>
 <path fill="none" stroke="rgb(0,69,134)" stroke-linejoin="round" d="M 39711,1614 L 39711,1864 39961,1864 39961,1614 39711,1614 Z"/>
 <path fill="rgb(0,69,134)" stroke="none" d="M 40251,1614 L 40251,1864 40501,1864 40501,1614 40251,1614 Z"/>
 <path fill="none" stroke="rgb(0,69,134)" stroke-linejoin="round" d="M 40251,1614 L 40251,1864 40501,1864 40501,1614 40251,1614 Z"/>
 <path fill="rgb(0,69,134)" stroke="none" d="M 40791,1614 L 40791,1864 41041,1864 41041,1614 40791,1614 Z"/>
 <path fill="none" stroke="rgb(0,69,134)" stroke-linejoin="round" d="M 40791,1614 L 40791,1864 41041,1864 41041,1614 40791,1614 Z"/>
 <path fill="rgb(0,69,134)" stroke="none" d="M 41331,1614 L 41331,1864 41581,1864 41581,1614 41331,1614 Z"/>
 <path fill="none" stroke="rgb(0,69,134)" stroke-linejoin="round" d="M 41331,1614 L 41331,1864 41581,1864 41581,1614 41331,1614 Z"/>
 <path fill="rgb(0,69,134)" stroke="none" d="M 41870,1614 L 41870,1864 42120,1864 42120,1614 41870,1614 Z"/>
 <path fill="none" stroke="rgb(0,69,134)" stroke-linejoin="round" d="M 41870,1614 L 41870,1864 42120,1864 42120,1614 41870,1614 Z"/>
 <path fill="rgb(0,69,134)" stroke="none" d="M 42410,1614 L 42410,1864 42660,1864 42660,1614 42410,1614 Z"/>
 <path fill="none" stroke="rgb(0,69,134)" stroke-linejoin="round" d="M 42410,1614 L 42410,1864 42660,1864 42660,1614 42410,1614 Z"/>
 <path fill="rgb(0,69,134)" stroke="none" d="M 42950,1614 L 42950,1864 43200,1864 43200,1614 42950,1614 Z"/>
 <path fill="none" stroke="rgb(0,69,134)" stroke-linejoin="round" d="M 42950,1614 L 42950,1864 43200,1864 43200,1614 42950,1614 Z"/>
 <path fill="rgb(0,69,134)" stroke="none" d="M 43490,1614 L 43490,1864 43740,1864 43740,1614 43490,1614 Z"/>
 <path fill="none" stroke="rgb(0,69,134)" stroke-linejoin="round" d="M 43490,1614 L 43490,1864 43740,1864 43740,1614 43490,1614 Z"/>
 <path fill="rgb(0,69,134)" stroke="none" d="M 44030,1614 L 44030,1864 44280,1864 44280,1614 44030,1614 Z"/>
 <path fill="none" stroke="rgb(0,69,134)" stroke-linejoin="round" d="M 44030,1614 L 44030,1864 44280,1864 44280,1614 44030,1614 Z"/>
 <path fill="rgb(0,69,134)" stroke="none" d="M 44570,1614 L 44570,1864 44820,1864 44820,1614 44570,1614 Z"/>
 <path fill="none" stroke="rgb(0,69,134)" stroke-linejoin="round" d="M 44570,1614 L 44570,1864 44820,1864 44820,1614 44570,1614 Z"/>
 <path fill="rgb(0,69,134)" stroke="none" d="M 45110,1614 L 45110,1864 45360,1864 45360,1614 45110,1614 Z"/>
 <path fill="none" stroke="rgb(0,69,134)" stroke-linejoin="round" d="M 45110,1614 L 45110,1864 45360,1864 45360,1614 45110,1614 Z"/>
 <path fill="rgb(0,69,134)" stroke="none" d="M 45649,1614 L 45649,1864 45899,1864 45899,1614 45649,1614 Z"/>
 <path fill="none" stroke="rgb(0,69,134)" stroke-linejoin="round" d="M 45649,1614 L 45649,1864 45899,1864 45899,1614 45649,1614 Z"/>
 <path fill="rgb(0,69,134)" stroke="none" d="M 46189,1614 L 46189,1864 46439,1864 46439,1614 46189,1614 Z"/>
 <path fill="none" stroke="rgb(0,69,134)" stroke-linejoin="round" d="M 46189,1614 L 46189,1864 46439,1864 46439,1614 46189,1614 Z"/>
 <path fill="rgb(0,69,134)" stroke="none" d="M 46729,1614 L 46729,1864 46979,1864 46979,1614 46729,1614 Z"/>
 <path fill="none" stroke="rgb(0,69,134)" stroke-linejoin="round" d="M 46729,1614 L 46729,1864 46979,1864 46979,1614 46729,1614 Z"/>
 <path fill="rgb(0,69,134)" stroke="none" d="M 47269,1614 L 47269,1864 47519,1864 47519,1614 47269,1614 Z"/>
 <path fill="none" stroke="rgb(0,69,134)" stroke-linejoin="round" d="M 47269,1614 L 47269,1864 47519,1864 47519,1614 47269,1614 Z"/>
 <path fill="rgb(0,69,134)" stroke="none" d="M 47809,1614 L 47809,1864 48059,1864 48059,1614 47809,1614 Z"/>
 <path fill="none" stroke="rgb(0,69,134)" stroke-linejoin="round" d="M 47809,1614 L 47809,1864 48059,1864 48059,1614 47809,1614 Z"/>
 <path fill="rgb(0,69,134)" stroke="none" d="M 48349,1614 L 48349,1864 48599,1864 48599,1614 48349,1614 Z"/>
 <path fill="none" stroke="rgb(0,69,134)" stroke-linejoin="round" d="M 48349,1614 L 48349,1864 48599,1864 48599,1614 48349,1614 Z"/>
 <path fill="rgb(0,69,134)" stroke="none" d="M 48888,1614 L 48888,1864 49138,1864 49138,1614 48888,1614 Z"/>
 <path fill="none" stroke="rgb(0,69,134)" stroke-linejoin="round" d="M 48888,1614 L 48888,1864 49138,1864 49138,1614 48888,1614 Z"/>
 <path fill="rgb(0,69,134)" stroke="none" d="M 49428,1614 L 49428,1864 49678,1864 49678,1614 49428,1614 Z"/>
 <path fill="none" stroke="rgb(0,69,134)" stroke-linejoin="round" d="M 49428,1614 L 49428,1864 49678,1864 49678,1614 49428,1614 Z"/>
 <path fill="rgb(0,69,134)" stroke="none" d="M 49968,1614 L 49968,1864 50218,1864 50218,1614 49968,1614 Z"/>
 <path fill="none" stroke="rgb(0,69,134)" stroke-linejoin="round" d="M 49968,1614 L 49968,1864 50218,1864 50218,1614 49968,1614 Z"/>
 <path fill="rgb(0,69,134)" stroke="none" d="M 50508,1614 L 50508,1864 50758,1864 50758,1614 50508,1614 Z"/>
 <path fill="none" stroke="rgb(0,69,134)" stroke-linejoin="round" d="M 50508,1614 L 50508,1864 50758,1864 50758,1614 50508,1614 Z"/>
 <path fill="rgb(0,69,134)" stroke="none" d="M 51048,1614 L 51048,1864 51298,1864 51298,1614 51048,1614 Z"/>
 <path fill="none" stroke="rgb(0,69,134)" stroke-linejoin="round" d="M 51048,1614 L 51048,1864 51298,1864 51298,1614 51048,1614 Z"/>
 <path fill="rgb(0,69,134)" stroke="none" d="M 51588,1614 L 51588,1864 51838,1864 51838,1614 51588,1614 Z"/>
 <path fill="none" stroke="rgb(0,69,134)" stroke-linejoin="round" d="M 51588,1614 L 51588,1864 51838,1864 51838,1614 51588,1614 Z"/>
 <path fill="rgb(0,69,134)" stroke="none" d="M 52128,1614 L 52128,1864 52378,1864 52378,1614 52128,1614 Z"/>
 <path fill="none" stroke="rgb(0,69,134)" stroke-linejoin="round" d="M 52128,1614 L 52128,1864 52378,1864 52378,1614 52128,1614 Z"/>
 <path fill="rgb(0,69,134)" stroke="none" d="M 52667,1614 L 52667,1864 52917,1864 52917,1614 52667,1614 Z"/>
 <path fill="none" stroke="rgb(0,69,134)" stroke-linejoin="round" d="M 52667,1614 L 52667,1864 52917,1864 52917,1614 52667,1614 Z"/>
 <path fill="rgb(0,69,134)" stroke="none" d="M 53207,1614 L 53207,1864 53457,1864 53457,1614 53207,1614 Z"/>
 <path fill="none" stroke="rgb(0,69,134)" stroke-linejoin="round" d="M 53207,1614 L 53207,1864 53457,1864 53457,1614 53207,1614 Z"/>
 <path fill="rgb(0,69,134)" stroke="none" d="M 53747,1614 L 53747,1864 53997,1864 53997,1614 53747,1614 Z"/>
 <path fill="none" stroke="rgb(0,69,134)" stroke-linejoin="round" d="M 53747,1614 L 53747,1864 53997,1864 53997,1614 53747,1614 Z"/>
 <path fill="rgb(0,69,134)" stroke="none" d="M 54287,1614 L 54287,1864 54537,1864 54537,1614 54287,1614 Z"/>
 <path fill="none" stroke="rgb(0,69,134)" stroke-linejoin="round" d="M 54287,1614 L 54287,1864 54537,1864 54537,1614 54287,1614 Z"/>
 <path fill="rgb(0,69,134)" stroke="none" d="M 54827,1614 L 54827,1864 55077,1864 55077,1614 54827,1614 Z"/>
 <path fill="none" stroke="rgb(0,69,134)" stroke-linejoin="round" d="M 54827,1614 L 54827,1864 55077,1864 55077,1614 54827,1614 Z"/>
 <path fill="rgb(0,69,134)" stroke="none" d="M 55367,1614 L 55367,1864 55617,1864 55617,1614 55367,1614 Z"/>
 <path fill="none" stroke="rgb(0,69,134)" stroke-linejoin="round" d="M 55367,1614 L 55367,1864 55617,1864 55617,1614 55367,1614 Z"/>
 <path fill="rgb(0,69,134)" stroke="none" d="M 55907,1614 L 55907,1864 56157,1864 56157,1614 55907,1614 Z"/>
 <path fill="none" stroke="rgb(0,69,134)" stroke-linejoin="round" d="M 55907,1614 L 55907,1864 56157,1864 56157,1614 55907,1614 Z"/>
 <text class="SVGTextShape"><tspan class="TextParagraph" font-family="Liberation Sans, sans-serif" font-size="353px" font-weight="400"><tspan class="TextPosition" x="1955" y="2307"><tspan fill="rgb(0,0,0)" stroke="none" style="white-space: pre">0</tspan></tspan></tspan></text>
 <text class="SVGTextShape"><tspan class="TextParagraph" font-family="Liberation Sans, sans-serif" font-size="353px" font-weight="400"><tspan class="TextPosition" x="7261" y="2307"><tspan fill="rgb(0,0,0)" stroke="none" style="white-space: pre">10</tspan></tspan></tspan></text>
 <text class="SVGTextShape"><tspan class="TextParagraph" font-family="Liberation Sans, sans-serif" font-size="353px" font-weight="400"><tspan class="TextPosition" x="12660" y="2307"><tspan fill="rgb(0,0,0)" stroke="none" style="white-space: pre">20</tspan></tspan></tspan></text>
 <text class="SVGTextShape"><tspan class="TextParagraph" font-family="Liberation Sans, sans-serif" font-size="353px" font-weight="400"><tspan class="TextPosition" x="18058" y="2307"><tspan fill="rgb(0,0,0)" stroke="none" style="white-space: pre">30</tspan></tspan></tspan></text>
 <text class="SVGTextShape"><tspan class="TextParagraph" font-family="Liberation Sans, sans-serif" font-size="353px" font-weight="400"><tspan class="TextPosition" x="23457" y="2307"><tspan fill="rgb(0,0,0)" stroke="none" style="white-space: pre">40</tspan></tspan></tspan></text>
 <text class="SVGTextShape"><tspan class="TextParagraph" font-family="Liberation Sans, sans-serif" font-size="353px" font-weight="400"><tspan class="TextPosition" x="28855" y="2307"><tspan fill="rgb(0,0,0)" stroke="none" style="white-space: pre">50</tspan></tspan></tspan></text>
 <text class="SVGTextShape"><tspan class="TextParagraph" font-family="Liberation Sans, sans-serif" font-size="353px" font-weight="400"><tspan class="TextPosition" x="34254" y="2307"><tspan fill="rgb(0,0,0)" stroke="none" style="white-space: pre">60</tspan></tspan></tspan></text>
 <text class="SVGTextShape"><tspan class="TextParagraph" font-family="Liberation Sans, sans-serif" font-size="353px" font-weight="400"><tspan class="TextPosition" x="39652" y="2307"><tspan fill="rgb(0,0,0)" stroke="none" style="white-space: pre">70</tspan></tspan></tspan></text>
 <text class="SVGTextShape"><tspan class="TextParagraph" font-family="Liberation Sans, sans-serif" font-size="353px" font-weight="400"><tspan class="TextPosition" x="45051" y="2307"><tspan fill="rgb(0,0,0)" stroke="none" style="white-space: pre">80</tspan></tspan></tspan></text>
 <text class="SVGTextShape"><tspan class="TextParagraph" font-family="Liberation Sans, sans-serif" font-size="353px" font-weight="400"><tspan class="TextPosition" x="50449" y="2307"><tspan fill="rgb(0,0,0)" stroke="none" style="white-space: pre">90</tspan></tspan></tspan></text>
 <text class="SVGTextShape"><tspan class="TextParagraph" font-family="Liberation Sans, sans-serif" font-size="353px" font-weight="400"><tspan class="TextPosition" x="55755" y="2307"><tspan fill="rgb(0,0,0)" stroke="none" style="white-space: pre">100</tspan></tspan></tspan></text>
 <text class="SVGTextShape"><tspan class="TextParagraph" font-family="Liberation Sans, sans-serif" font-size="353px" font-weight="400"><tspan class="TextPosition" x="1137" y="8733"><tspan fill="rgb(0,0,0)" stroke="none" style="white-space: pre">-250</tspan></tspan></tspan></text>
 <text class="SVGTextShape"><tspan class="TextParagraph" font-family="Liberation Sans, sans-serif" font-size="353px" font-weight="400"><tspan class="TextPosition" x="1137" y="7358"><tspan fill="rgb(0,0,0)" stroke="none" style="white-space: pre">-200</tspan></tspan></tspan></text>
 <text class="SVGTextShape"><tspan class="TextParagraph" font-family="Liberation Sans, sans-serif" font-size="353px" font-weight="400"><tspan class="TextPosition" x="1137" y="5983"><tspan fill="rgb(0,0,0)" stroke="none" style="white-space: pre">-150</tspan></tspan></tspan></text>
 <text class="SVGTextShape"><tspan class="TextParagraph" font-family="Liberation Sans, sans-serif" font-size="353px" font-weight="400"><tspan class="TextPosition" x="1137" y="4609"><tspan fill="rgb(0,0,0)" stroke="none" style="white-space: pre">-100</tspan></tspan></tspan></text>
 <text class="SVGTextShape"><tspan class="TextParagraph" font-family="Liberation Sans, sans-serif" font-size="353px" font-weight="400"><tspan class="TextPosition" x="1322" y="3234"><tspan fill="rgb(0,0,0)" stroke="none" style="white-space: pre">-50</tspan></tspan></tspan></text>
 <text class="SVGTextShape"><tspan class="TextParagraph" font-family="Liberation Sans, sans-serif" font-size="353px" font-weight="400"><tspan class="TextPosition" x="1613" y="1859"><tspan fill="rgb(0,0,0)" stroke="none" style="white-space: pre">0</tspan></tspan></tspan></text>
 <text class="SVGTextShape"><tspan class="TextParagraph" font-family="Liberation Sans, sans-serif" font-size="353px" font-weight="400"><tspan class="TextPosition" x="1428" y="485"><tspan fill="rgb(0,0,0)" stroke="none" style="white-space: pre">50</tspan></tspan></tspan></text>
</svg>