<?xml version="1.0" encoding="UTF-8"?>
<!DOCTYPE svg PUBLIC "-//W3C//DTD SVG 1.1//EN" "http://www.w3.org/Graphics/SVG/1.1/DTD/svg11.dtd">
<svg width="585mm" height="90mm" viewBox="0 0 58500 9000" version="1.1" xmlns="http://www.w3.org/2000/svg" xmlns:xlink="http://www.w3.org/1999/xlink" stroke-width="28.222" stroke-linejoin="round" xml:space="preserve">
 <path fill="rgb(255,255,255)" stroke="none" d="M 29211,8992 L -13,8992 -13,-13 58434,-13 58434,8992 29211,8992 Z"/>
 <path fill="none" stroke="rgb(179,179,179)" stroke-linejoin="round" d="M 29487,8613 L 1988,8613 1988,366 56986,366 56986,8613 29487,8613 Z"/>
 <path fill="none" stroke="rgb(179,179,179)" stroke-linejoin="round" d="M 56986,8612 L 1988,8612"/>
 <path fill="none" stroke="rgb(179,179,179)" stroke-linejoin="round" d="M 56986,7237 L 1988,7237"/>
 <path fill="none" stroke="rgb(179,179,179)" stroke-linejoin="round" d="M 56986,5862 L 1988,5862"/>
 <path fill="none" stroke="rgb(179,179,179)" stroke-linejoin="round" d="M 56986,4489 L 1988,4489"/>
 <path fill="none" stroke="rgb(179,179,179)" stroke-linejoin="round" d="M 56986,3114 L 1988,3114"/>
 <path fill="none" stroke="rgb(179,179,179)" stroke-linejoin="round" d="M 56986,1739 L 1988,1739"/>
 <path fill="none" stroke="rgb(179,179,179)" stroke-linejoin="round" d="M 56986,365 L 1988,365"/>
 <path fill="none" stroke="rgb(179,179,179)" stroke-linejoin="round" d="M 1988,4638 L 1988,4489"/>
 <path fill="none" stroke="rgb(179,179,179)" stroke-linejoin="round" d="M 1988,4638 L 1988,4489"/>
 <path fill="none" stroke="rgb(179,179,179)" stroke-linejoin="round" d="M 7487,4638 L 7487,4489"/>
 <path fill="none" stroke="rgb(179,179,179)" stroke-linejoin="round" d="M 7487,4638 L 7487,4489"/>
 <path fill="none" stroke="rgb(179,179,179)" stroke-linejoin="round" d="M 12987,4638 L 12987,4489"/>
 <path fill="none" stroke="rgb(179,179,179)" stroke-linejoin="round" d="M 12987,4638 L 12987,4489"/>
 <path fill="none" stroke="rgb(179,179,179)" stroke-linejoin="round" d="M 18487,4638 L 18487,4489"/>
 <path fill="none" stroke="rgb(179,179,179)" stroke-linejoin="round" d="M 18487,4638 L 18487,4489"/>
 <path fill="none" stroke="rgb(179,179,179)" stroke-linejoin="round" d="M 23987,4638 L 23987,4489"/>
 <path fill="none" stroke="rgb(179,179,179)" stroke-linejoin="round" d="M 23987,4638 L 23987,4489"/>
 <path fill="none" stroke="rgb(179,179,179)" stroke-linejoin="round" d="M 29486,4638 L 29486,4489"/>
 <path fill="none" stroke="rgb(179,179,179)" stroke-linejoin="round" d="M 29486,4638 L 29486,4489"/>
 <path fill="none" stroke="rgb(179,179,179)" stroke-linejoin="round" d="M 34986,4638 L 34986,4489"/>
 <path fill="none" stroke="rgb(179,179,179)" stroke-linejoin="round" d="M 34986,4638 L 34986,4489"/>
 <path fill="none" stroke="rgb(179,179,179)" stroke-linejoin="round" d="M 40486,4638 L 40486,4489"/>
 <path fill="none" stroke="rgb(179,179,179)" stroke-linejoin="round" d="M 40486,4638 L 40486,4489"/>
 <path fill="none" stroke="rgb(179,179,179)" stroke-linejoin="round" d="M 45986,4638 L 45986,4489"/>
 <path fill="none" stroke="rgb(179,179,179)" stroke-linejoin="round" d="M 45986,4638 L 45986,4489"/>
 <path fill="none" stroke="rgb(179,179,179)" stroke-linejoin="round" d="M 51486,4638 L 51486,4489"/>
 <path fill="none" stroke="rgb(179,179,179)" stroke-linejoin="round" d="M 51486,4638 L 51486,4489"/>
 <path fill="none" stroke="rgb(179,179,179)" stroke-linejoin="round" d="M 56986,4638 L 56986,4489"/>
 <path fill="none" stroke="rgb(179,179,179)" stroke-linejoin="round" d="M 56986,4638 L 56986,4489"/>
 <path fill="none" stroke="rgb(179,179,179)" stroke-linejoin="round" d="M 1988,4489 L 56986,4489"/>
 <path fill="none" stroke="rgb(179,179,179)" stroke-linejoin="round" d="M 1838,8612 L 1988,8612"/>
 <path fill="none" stroke="rgb(179,179,179)" stroke-linejoin="round" d="M 1838,8612 L 1988,8612"/>
 <path fill="none" stroke="rgb(179,179,179)" stroke-linejoin="round" d="M 1838,7237 L 1988,7237"/>
 <path fill="none" stroke="rgb(179,179,179)" stroke-linejoin="round" d="M 1838,7237 L 1988,7237"/>
 <path fill="none" stroke="rgb(179,179,179)" stroke-linejoin="round" d="M 1838,5862 L 1988,5862"/>
 <path fill="none" stroke="rgb(179,179,179)" stroke-linejoin="round" d="M 1838,5862 L 1988,5862"/>
 <path fill="none" stroke="rgb(179,179,179)" stroke-linejoin="round" d="M 1838,4489 L 1988,4489"/>
 <path fill="none" stroke="rgb(179,179,179)" stroke-linejoin="round" d="M 1838,4489 L 1988,4489"/>
 <path fill="none" stroke="rgb(179,179,179)" stroke-linejoin="round" d="M 1838,3114 L 1988,3114"/>
 <path fill="none" stroke="rgb(179,179,179)" stroke-linejoin="round" d="M 1838,3114 L 1988,3114"/>
 <path fill="none" stroke="rgb(179,179,179)" stroke-linejoin="round" d="M 1838,1739 L 1988,1739"/>
 <path fill="none" stroke="rgb(179,179,179)" stroke-linejoin="round" d="M 1838,1739 L 1988,1739"/>
 <path fill="none" stroke="rgb(179,179,179)" stroke-linejoin="round" d="M 1838,365 L 1988,365"/>
 <path fill="none" stroke="rgb(179,179,179)" stroke-linejoin="round" d="M 1838,365 L 1988,365"/>
 <path fill="none" stroke="rgb(179,179,179)" stroke-linejoin="round" d="M 1988,8612 L 1988,365"/>
 <path fill="none" stroke="rgb(0,69,134)" stroke-width="80" stroke-linejoin="round" d="M 1988,4489 L 2537,3805 3087,3164 3637,2606 4187,2167 4737,1874 5287,1745 5837,1788 6387,2001 6937,2370 7487,2872 8037,3476 8587,4144 9137,4832 9687,5500 10237,6104 10787,6606 11337,6975 11887,7188 12437,7231 12987,7102 13537,6809 14087,6370 14637,5812 15187,5171 15737,4489 16287,3805 16837,3164 17387,2606 17937,2167 18487,1874 19037,1745 19587,1788 20137,2001 20687,2370 21237,2872 21787,3476 22337,4144 22887,4832 23437,5500 23987,6104 24537,6606 25087,6975 25637,7188 26187,7231 26737,7102 27287,6809 27837,6370 28387,5812 28937,5171 29486,4489 30036,3805 30586,3164 31136,2606 31686,2167 32236,1874 32786,1745 33336,1788 33886,2001 34436,2370 34986,2872 35536,3476 36086,4144 36636,4832 37186,5500 37736,6104 38286,6606 38836,6975 39386,7188 39936,7231 40486,7102 41036,6809 41586,6370 42136,5812 42686,5171 43236,4489 43786,3805 44336,3164 44886,2606 45436,2167 45986,1874 46536,1745 47086,1788 47636,2001 48186,2370 48736,2872 49286,3476 49836,4144 50386,4832 50936,5500 51486,6104 52036,6606 52586,6975 53136,7188 53686,7231 54236,7102 54786,6809 55336,6370 55886,5812 56436,5171"/>
 <path fill="rgb(0,69,134)" stroke="none" d="M 1863,4364 L 1863,4613 2113,4613 2113,4364 1863,4364 Z"/>
 <path fill="none" stroke="rgb(0,69,134)" stroke-linejoin="round" d="M 1863,4364 L 1863,4613 2113,4613 2113,4364 1863,4364 Z"/>
 <path fill="rgb(0,69,134)" stroke="none" d="M 2412,3680 L 2412,3930 2662,3930 2662,3680 2412,3680 Z"/>
 <path fill="none" stroke="rgb(0,69,134)" stroke-linejoin="round" d="M 2412,3680 L 2412,3930 2662,3930 2662,3680 2412,3680 Z"/>
 <path fill="rgb(0,69,134)" stroke="none" d="M 2962,3039 L 2962,3289 3212,3289 3212,3039 2962,3039 Z"/>
 <path fill="none" stroke="rgb(0,69,134)" stroke-linejoin="round" d="M 2962,3039 L 2962,3289 3212,3289 3212,3039 2962,3039 Z"/>
 <path fill="rgb(0,69,134)" stroke="none" d="M 3512,2481 L 3512,2731 3762,2731 3762,2481 3512,2481 Z"/>
 <path fill="none" stroke="rgb(0,69,134)" stroke-linejoin="round" d="M 3512,2481 L 3512,2731 3762,2731 3762,2481 3512,2481 Z"/>
 <path fill="rgb(0,69,134)" stroke="none" d="M 4062,2042 L 4062,2292 4312,2292 4312,2042 4062,2042 Z"/>
 <path fill="none" stroke="rgb(0,69,134)" stroke-linejoin="round" d="M 4062,2042 L 4062,2292 4312,2292 4312,2042 4062,2042 Z"/>
 <path fill="rgb(0,69,134)" stroke="none" d="M 4612,1749 L 4612,1999 4862,1999 4862,1749 4612,1749 Z"/>
 <path fill="none" stroke="rgb(0,69,134)" stroke-linejoin="round" d="M 4612,1749 L 4612,1999 4862,1999 4862,1749 4612,1749 Z"/>
 <path fill="rgb(0,69,134)" stroke="none" d="M 5162,1620 L 5162,1870 5412,1870 5412,1620 5162,1620 Z"/>
 <path fill="none" stroke="rgb(0,69,134)" stroke-linejoin="round" d="M 5162,1620 L 5162,1870 5412,1870 5412,1620 5162,1620 Z"/>
 <path fill="rgb(0,69,134)" stroke="none" d="M 5712,1663 L 5712,1913 5962,1913 5962,1663 5712,1663 Z"/>
 <path fill="none" stroke="rgb(0,69,134)" stroke-linejoin="round" d="M 5712,1663 L 5712,1913 5962,1913 5962,1663 5712,1663 Z"/>
 <path fill="rgb(0,69,134)" stroke="none" d="M 6262,1876 L 6262,2126 6512,2126 6512,1876 6262,1876 Z"/>
 <path fill="none" stroke="rgb(0,69,134)" stroke-linejoin="round" d="M 6262,1876 L 6262,2126 6512,2126 6512,1876 6262,1876 Z"/>
 <path fill="rgb(0,69,134)" stroke="none" d="M 6812,2245 L 6812,2495 7062,2495 7062,2245 6812,2245 Z"/>
 <path fill="none" stroke="rgb(0,69,134)" stroke-linejoin="round" d="M 6812,2245 L 6812,2495 7062,2495 7062,2245 6812,2245 Z"/>
 <path fill="rgb(0,69,134)" stroke="none" d="M 7362,2747 L 7362,2997 7612,2997 7612,2747 7362,2747 Z"/>
 <path fill="none" stroke="rgb(0,69,134)" stroke-linejoin="round" d="M 7362,2747 L 7362,2997 7612,2997 7612,2747 7362,2747 Z"/>
 <path fill="rgb(0,69,134)" stroke="none" d="M 7912,3351 L 7912,3601 8162,3601 8162,3351 7912,3351 Z"/>
 <path fill="none" stroke="rgb(0,69,134)" stroke-linejoin="round" d="M 7912,3351 L 7912,3601 8162,3601 8162,3351 7912,3351 Z"/>
 <path fill="rgb(0,69,134)" stroke="none" d="M 8462,4019 L 8462,4269 8712,4269 8712,4019 8462,4019 Z"/>
 <path fill="none" stroke="rgb(0,69,134)" stroke-linejoin="round" d="M 8462,4019 L 8462,4269 8712,4269 8712,4019 8462,4019 Z"/>
 <path fill="rgb(0,69,134)" stroke="none" d="M 9012,4707 L 9012,4957 9262,4957 9262,4707 9012,4707 Z"/>
 <path fill="none" stroke="rgb(0,69,134)" stroke-linejoin="round" d="M 9012,4707 L 9012,4957 9262,4957 9262,4707 9012,4707 Z"/>
 <path fill="rgb(0,69,134)" stroke="none" d="M 9562,5375 L 9562,5625 9812,5625 9812,5375 9562,5375 Z"/>
 <path fill="none" stroke="rgb(0,69,134)" stroke-linejoin="round" d="M 9562,5375 L 9562,5625 9812,5625 9812,5375 9562,5375 Z"/>
 <path fill="rgb(0,69,134)" stroke="none" d="M 10112,5979 L 10112,6229 10362,6229 10362,5979 10112,5979 Z"/>
 <path fill="none" stroke="rgb(0,69,134)" stroke-linejoin="round" d="M 10112,5979 L 10112,6229 10362,6229 10362,5979 10112,5979 Z"/>
 <path fill="rgb(0,69,134)" stroke="none" d="M 10662,6481 L 10662,6731 10912,6731 10912,6481 10662,6481 Z"/>
 <path fill="none" stroke="rgb(0,69,134)" stroke-linejoin="round" d="M 10662,6481 L 10662,6731 10912,6731 10912,6481 10662,6481 Z"/>
 <path fill="rgb(0,69,134)" stroke="none" d="M 11212,6850 L 11212,7100 11462,7100 11462,6850 11212,6850 Z"/>
 <path fill="none" stroke="rgb(0,69,134)" stroke-linejoin="round" d="M 11212,6850 L 11212,7100 11462,7100 11462,6850 11212,6850 Z"/>
 <path fill="rgb(0,69,134)" stroke="none" d="M 11762,7063 L 11762,7313 12012,7313 12012,7063 11762,7063 Z"/>
 <path fill="none" stroke="rgb(0,69,134)" stroke-linejoin="round" d="M 11762,7063 L 11762,7313 12012,7313 12012,7063 11762,7063 Z"/>
 <path fill="rgb(0,69,134)" stroke="none" d="M 12312,7106 L 12312,7356 12562,7356 12562,7106 12312,7106 Z"/>
 <path fill="none" stroke="rgb(0,69,134)" stroke-linejoin="round" d="M 12312,7106 L 12312,7356 12562,7356 12562,7106 12312,7106 Z"/>
 <path fill="rgb(0,69,134)" stroke="none" d="M 12862,6977 L 12862,7227 13112,7227 13112,6977 12862,6977 Z"/>
 <path fill="none" stroke="rgb(0,69,134)" stroke-linejoin="round" d="M 12862,6977 L 12862,7227 13112,7227 13112,6977 12862,6977 Z"/>
 <path fill="rgb(0,69,134)" stroke="none" d="M 13412,6684 L 13412,6934 13662,6934 13662,6684 13412,6684 Z"/>
 <path fill="none" stroke="rgb(0,69,134)" stroke-linejoin="round" d="M 13412,6684 L 13412,6934 13662,6934 13662,6684 13412,6684 Z"/>
 <path fill="rgb(0,69,134)" stroke="none" d="M 13962,6245 L 13962,6495 14212,6495 14212,6245 13962,6245 Z"/>
 <path fill="none" stroke="rgb(0,69,134)" stroke-linejoin="round" d="M 13962,6245 L 13962,6495 14212,6495 14212,6245 13962,6245 Z"/>
 <path fill="rgb(0,69,134)" stroke="none" d="M 14512,5687 L 14512,5937 14762,5937 14762,5687 14512,5687 Z"/>
 <path fill="none" stroke="rgb(0,69,134)" stroke-linejoin="round" d="M 14512,5687 L 14512,5937 14762,5937 14762,5687 14512,5687 Z"/>
 <path fill="rgb(0,69,134)" stroke="none" d="M 15062,5046 L 15062,5296 15312,5296 15312,5046 15062,5046 Z"/>
 <path fill="none" stroke="rgb(0,69,134)" stroke-linejoin="round" d="M 15062,5046 L 15062,5296 15312,5296 15312,5046 15062,5046 Z"/>
 <path fill="rgb(0,69,134)" stroke="none" d="M 15612,4364 L 15612,4613 15862,4613 15862,4364 15612,4364 Z"/>
 <path fill="none" stroke="rgb(0,69,134)" stroke-linejoin="round" d="M 15612,4364 L 15612,4613 15862,4613 15862,4364 15612,4364 Z"/>
 <path fill="rgb(0,69,134)" stroke="none" d="M 16162,3680 L 16162,3930 16412,3930 16412,3680 16162,3680 Z"/>
 <path fill="none" stroke="rgb(0,69,134)" stroke-linejoin="round" d="M 16162,3680 L 16162,3930 16412,3930 16412,3680 16162,3680 Z"/>
 <path fill="rgb(0,69,134)" stroke="none" d="M 16712,3039 L 16712,3289 16962,3289 16962,3039 16712,3039 Z"/>
 <path fill="none" stroke="rgb(0,69,134)" stroke-linejoin="round" d="M 16712,3039 L 16712,3289 16962,3289 16962,3039 16712,3039 Z"/>
 <path fill="rgb(0,69,134)" stroke="none" d="M 17262,2481 L 17262,2731 17512,2731 17512,2481 17262,2481 Z"/>
 <path fill="none" stroke="rgb(0,69,134)" stroke-linejoin="round" d="M 17262,2481 L 17262,2731 17512,2731 17512,2481 17262,2481 Z"/>
 <path fill="rgb(0,69,134)" stroke="none" d="M 17812,2042 L 17812,2292 18062,2292 18062,2042 17812,2042 Z"/>
 <path fill="none" stroke="rgb(0,69,134)" stroke-linejoin="round" d="M 17812,2042 L 17812,2292 18062,2292 18062,2042 17812,2042 Z"/>
 <path fill="rgb(0,69,134)" stroke="none" d="M 18362,1749 L 18362,1999 18612,1999 18612,1749 18362,1749 Z"/>
 <path fill="none" stroke="rgb(0,69,134)" stroke-linejoin="round" d="M 18362,1749 L 18362,1999 18612,1999 18612,1749 18362,1749 Z"/>
 <path fill="rgb(0,69,134)" stroke="none" d="M 18912,1620 L 18912,1870 19162,1870 19162,1620 18912,1620 Z"/>
 <path fill="none" stroke="rgb(0,69,134)" stroke-linejoin="round" d="M 18912,1620 L 18912,1870 19162,1870 19162,1620 18912,1620 Z"/>
 <path fill="rgb(0,69,134)" stroke="none" d="M 19462,1663 L 19462,1913 19712,1913 19712,1663 19462,1663 Z"/>
 <path fill="none" stroke="rgb(0,69,134)" stroke-linejoin="round" d="M 19462,1663 L 19462,1913 19712,1913 19712,1663 19462,1663 Z"/>
 <path fill="rgb(0,69,134)" stroke="none" d="M 20012,1876 L 20012,2126 20262,2126 20262,1876 20012,1876 Z"/>
 <path fill="none" stroke="rgb(0,69,134)" stroke-linejoin="round" d="M 20012,1876 L 20012,2126 20262,2126 20262,1876 20012,1876 Z"/>
 <path fill="rgb(0,69,134)" stroke="none" d="M 20562,2245 L 20562,2495 20812,2495 20812,2245 20562,2245 Z"/>
 <path fill="none" stroke="rgb(0,69,134)" stroke-linejoin="round" d="M 20562,2245 L 20562,2495 20812,2495 20812,2245 20562,2245 Z"/>
 <path fill="rgb(0,69,134)" stroke="none" d="M 21112,2747 L 21112,2997 21362,2997 21362,2747 21112,2747 Z"/>
 <path fill="none" stroke="rgb(0,69,134)" stroke-linejoin="round" d="M 21112,2747 L 21112,2997 21362,2997 21362,2747 21112,2747 Z"/>
 <path fill="rgb(0,69,134)" stroke="none" d="M 21662,3351 L 21662,3601 21912,3601 21912,3351 21662,3351 Z"/>
 <path fill="none" stroke="rgb(0,69,134)" stroke-linejoin="round" d="M 21662,3351 L 21662,3601 21912,3601 21912,3351 21662,3351 Z"/>
 <path fill="rgb(0,69,134)" stroke="none" d="M 22212,4019 L 22212,4269 22462,4269 22462,4019 22212,4019 Z"/>
 <path fill="none" stroke="rgb(0,69,134)" stroke-linejoin="round" d="M 22212,4019 L 22212,4269 22462,4269 22462,4019 22212,4019 Z"/>
 <path fill="rgb(0,69,134)" stroke="none" d="M 22762,4707 L 22762,4957 23012,4957 23012,4707 22762,4707 Z"/>
 <path fill="none" stroke="rgb(0,69,134)" stroke-linejoin="round" d="M 22762,4707 L 22762,4957 23012,4957 23012,4707 22762,4707 Z"/>
 <path fill="rgb(0,69,134)" stroke="none" d="M 23312,5375 L 23312,5625 23562,5625 23562,5375 23312,5375 Z"/>
 <path fill="none" stroke="rgb(0,69,134)" stroke-linejoin="round" d="M 23312,5375 L 23312,5625 23562,5625 23562,5375 23312,5375 Z"/>
 <path fill="rgb(0,69,134)" stroke="none" d="M 23862,5979 L 23862,6229 24112,6229 24112,5979 23862,5979 Z"/>
 <path fill="none" stroke="rgb(0,69,134)" stroke-linejoin="round" d="M 23862,5979 L 23862,6229 24112,6229 24112,5979 23862,5979 Z"/>
 <path fill="rgb(0,69,134)" stroke="none" d="M 24412,6481 L 24412,6731 24662,6731 24662,6481 24412,6481 Z"/>
 <path fill="none" stroke="rgb(0,69,134)" stroke-linejoin="round" d="M 24412,6481 L 24412,6731 24662,6731 24662,6481 24412,6481 Z"/>
 <path fill="rgb(0,69,134)" stroke="none" d="M 24962,6850 L 24962,7100 25212,7100 25212,6850 24962,6850 Z"/>
 <path fill="none" stroke="rgb(0,69,134)" stroke-linejoin="round" d="M 24962,6850 L 24962,7100 25212,7100 25212,6850 24962,6850 Z"/>
 <path fill="rgb(0,69,134)" stroke="none" d="M 25512,7063 L 25512,7313 25762,7313 25762,7063 25512,7063 Z"/>
 <path fill="none" stroke="rgb(0,69,134)" stroke-linejoin="round" d="M 25512,7063 L 25512,7313 25762,7313 25762,7063 25512,7063 Z"/>
 <path fill="rgb(0,69,134)" stroke="none" d="M 26062,7106 L 26062,7356 26312,7356 26312,7106 26062,7106 Z"/>
 <path fill="none" stroke="rgb(0,69,134)" stroke-linejoin="round" d="M 26062,7106 L 26062,7356 26312,7356 26312,7106 26062,7106 Z"/>
 <path fill="rgb(0,69,134)" stroke="none" d="M 26612,6977 L 26612,7227 26862,7227 26862,6977 26612,6977 Z"/>
 <path fill="none" stroke="rgb(0,69,134)" stroke-linejoin="round" d="M 26612,6977 L 26612,7227 26862,7227 26862,6977 26612,6977 Z"/>
 <path fill="rgb(0,69,134)" stroke="none" d="M 27162,6684 L 27162,6934 27412,6934 27412,6684 27162,6684 Z"/>
 <path fill="none" stroke="rgb(0,69,134)" stroke-linejoin="round" d="M 27162,6684 L 27162,6934 27412,6934 27412,6684 27162,6684 Z"/>
 <path fill="rgb(0,69,134)" stroke="none" d="M 27712,6245 L 27712,6495 27962,6495 27962,6245 27712,6245 Z"/>
 <path fill="none" stroke="rgb(0,69,134)" stroke-linejoin="round" d="M 27712,6245 L 27712,6495 27962,6495 27962,6245 27712,6245 Z"/>
 <path fill="rgb(0,69,134)" stroke="none" d="M 28262,5687 L 28262,5937 28512,5937 28512,5687 28262,5687 Z"/>
 <path fill="none" stroke="rgb(0,69,134)" stroke-linejoin="round" d="M 28262,5687 L 28262,5937 28512,5937 28512,5687 28262,5687 Z"/>
 <path fill="rgb(0,69,134)" stroke="none" d="M 28812,5046 L 28812,5296 29062,5296 29062,5046 28812,5046 Z"/>
 <path fill="none" stroke="rgb(0,69,134)" stroke-linejoin="round" d="M 28812,5046 L 28812,5296 29062,5296 29062,5046 28812,5046 Z"/>
 <path fill="rgb(0,69,134)" stroke="none" d="M 29361,4364 L 29361,4613 29611,4613 29611,4364 29361,4364 Z"/>
 <path fill="none" stroke="rgb(0,69,134)" stroke-linejoin="round" d="M 29361,4364 L 29361,4613 29611,4613 29611,4364 29361,4364 Z"/>
 <path fill="rgb(0,69,134)" stroke="none" d="M 29911,3680 L 29911,3930 30161,3930 30161,3680 29911,3680 Z"/>
 <path fill="none" stroke="rgb(0,69,134)" stroke-linejoin="round" d="M 29911,3680 L 29911,3930 30161,3930 30161,3680 29911,3680 Z"/>
 <path fill="rgb(0,69,134)" stroke="none" d="M 30461,3039 L 30461,3289 30711,3289 30711,3039 30461,3039 Z"/>
 <path fill="none" stroke="rgb(0,69,134)" stroke-linejoin="round" d="M 30461,3039 L 30461,3289 30711,3289 30711,3039 30461,3039 Z"/>
 <path fill="rgb(0,69,134)" stroke="none" d="M 31011,2481 L 31011,2731 31261,2731 31261,2481 31011,2481 Z"/>
 <path fill="none" stroke="rgb(0,69,134)" stroke-linejoin="round" d="M 31011,2481 L 31011,2731 31261,2731 31261,2481 31011,2481 Z"/>
 <path fill="rgb(0,69,134)" stroke="none" d="M 31561,2042 L 31561,2292 31811,2292 31811,2042 31561,2042 Z"/>
 <path fill="none" stroke="rgb(0,69,134)" stroke-linejoin="round" d="M 31561,2042 L 31561,2292 31811,2292 31811,2042 31561,2042 Z"/>
 <path fill="rgb(0,69,134)" stroke="none" d="M 32111,1749 L 32111,1999 32361,1999 32361,1749 32111,1749 Z"/>
 <path fill="none" stroke="rgb(0,69,134)" stroke-linejoin="round" d="M 32111,1749 L 32111,1999 32361,1999 32361,1749 32111,1749 Z"/>
 <path fill="rgb(0,69,134)" stroke="none" d="M 32661,1620 L 32661,1870 32911,1870 32911,1620 32661,1620 Z"/>
 <path fill="none" stroke="rgb(0,69,134)" stroke-linejoin="round" d="M 32661,1620 L 32661,1870 32911,1870 32911,1620 32661,1620 Z"/>
 <path fill="rgb(0,69,134)" stroke="none" d="M 33211,1663 L 33211,1913 33461,1913 33461,1663 33211,1663 Z"/>
 <path fill="none" stroke="rgb(0,69,134)" stroke-linejoin="round" d="M 33211,1663 L 33211,1913 33461,1913 33461,1663 33211,1663 Z"/>
 <path fill="rgb(0,69,134)" stroke="none" d="M 33761,1876 L 33761,2126 34011,2126 34011,1876 33761,1876 Z"/>
 <path fill="none" stroke="rgb(0,69,134)" stroke-linejoin="round" d="M 33761,1876 L 33761,2126 34011,2126 34011,1876 33761,1876 Z"/>
 <path fill="rgb(0,69,134)" stroke="none" d="M 34311,2245 L 34311,2495 34561,2495 34561,2245 34311,2245 Z"/>
 <path fill="none" stroke="rgb(0,69,134)" stroke-linejoin="round" d="M 34311,2245 L 34311,2495 34561,2495 34561,2245 34311,2245 Z"/>
 <path fill="rgb(0,69,134)" stroke="none" d="M 34861,2747 L 34861,2997 35111,2997 35111,2747 34861,2747 Z"/>
 <path fill="none" stroke="rgb(0,69,134)" stroke-linejoin="round" d="M 34861,2747 L 34861,2997 35111,2997 35111,2747 34861,2747 Z"/>
 <path fill="rgb(0,69,134)" stroke="none" d="M 35411,3351 L 35411,3601 35661,3601 35661,3351 35411,3351 Z"/>
 <path fill="none" stroke="rgb(0,69,134)" stroke-linejoin="round" d="M 35411,3351 L 35411,3601 35661,3601 35661,3351 35411,3351 Z"/>
 <path fill="rgb(0,69,134)" stroke="none" d="M 35961,4019 L 35961,4269 36211,4269 36211,4019 35961,4019 Z"/>
 <path fill="none" stroke="rgb(0,69,134)" stroke-linejoin="round" d="M 35961,4019 L 35961,4269 36211,4269 36211,4019 35961,4019 Z"/>
 <path fill="rgb(0,69,134)" stroke="none" d="M 36511,4707 L 36511,4957 36761,4957 36761,4707 36511,4707 Z"/>
 <path fill="none" stroke="rgb(0,69,134)" stroke-linejoin="round" d="M 36511,4707 L 36511,4957 36761,4957 36761,4707 36511,4707 Z"/>
 <path fill="rgb(0,69,134)" stroke="none" d="M 37061,5375 L 37061,5625 37311,5625 37311,5375 37061,5375 Z"/>
 <path fill="none" stroke="rgb(0,69,134)" stroke-linejoin="round" d="M 37061,5375 L 37061,5625 37311,5625 37311,5375 37061,5375 Z"/>
 <path fill="rgb(0,69,134)" stroke="none" d="M 37611,5979 L 37611,6229 37861,6229 37861,5979 37611,5979 Z"/>
 <path fill="none" stroke="rgb(0,69,134)" stroke-linejoin="round" d="M 37611,5979 L 37611,6229 37861,6229 37861,5979 37611,5979 Z"/>
 <path fill="rgb(0,69,134)" stroke="none" d="M 38161,6481 L 38161,6731 38411,6731 38411,6481 38161,6481 Z"/>
 <path fill="none" stroke="rgb(0,69,134)" stroke-linejoin="round" d="M 38161,6481 L 38161,6731 38411,6731 38411,6481 38161,6481 Z"/>
 <path fill="rgb(0,69,134)" stroke="none" d="M 38711,6850 L 38711,7100 38961,7100 38961,6850 38711,6850 Z"/>
 <path fill="none" stroke="rgb(0,69,134)" stroke-linejoin="round" d="M 38711,6850 L 38711,7100 38961,7100 38961,6850 38711,6850 Z"/>
 <path fill="rgb(0,69,134)" stroke="none" d="M 39261,7063 L 39261,7313 39511,7313 39511,7063 39261,7063 Z"/>
 <path fill="none" stroke="rgb(0,69,134)" stroke-linejoin="round" d="M 39261,7063 L 39261,7313 39511,7313 39511,7063 39261,7063 Z"/>
 <path fill="rgb(0,69,134)" stroke="none" d="M 39811,7106 L 39811,7356 40061,7356 40061,7106 39811,7106 Z"/>
 <path fill="none" stroke="rgb(0,69,134)" stroke-linejoin="round" d="M 39811,7106 L 39811,7356 40061,7356 40061,7106 39811,7106 Z"/>
 <path fill="rgb(0,69,134)" stroke="none" d="M 40361,6977 L 40361,7227 40611,7227 40611,6977 40361,6977 Z"/>
 <path fill="none" stroke="rgb(0,69,134)" stroke-linejoin="round" d="M 40361,6977 L 40361,7227 40611,7227 40611,6977 40361,6977 Z"/>
 <path fill="rgb(0,69,134)" stroke="none" d="M 40911,6684 L 40911,6934 41161,6934 41161,6684 40911,6684 Z"/>
 <path fill="none" stroke="rgb(0,69,134)" stroke-linejoin="round" d="M 40911,6684 L 40911,6934 41161,6934 41161,6684 40911,6684 Z"/>
 <path fill="rgb(0,69,134)" stroke="none" d="M 41461,6245 L 41461,6495 41711,6495 41711,6245 41461,6245 Z"/>
 <path fill="none" stroke="rgb(0,69,134)" stroke-linejoin="round" d="M 41461,6245 L 41461,6495 41711,6495 41711,6245 41461,6245 Z"/>
 <path fill="rgb(0,69,134)" stroke="none" d="M 42011,5687 L 42011,5937 42261,5937 42261,5687 42011,5687 Z"/>
 <path fill="none" stroke="rgb(0,69,134)" stroke-linejoin="round" d="M 42011,5687 L 42011,5937 42261,5937 42261,5687 42011,5687 Z"/>
 <path fill="rgb(0,69,134)" stroke="none" d="M 42561,5046 L 42561,5296 42811,5296 42811,5046 42561,5046 Z"/>
 <path fill="none" stroke="rgb(0,69,134)" stroke-linejoin="round" d="M 42561,5046 L 42561,5296 42811,5296 42811,5046 42561,5046 Z"/>
 <path fill="rgb(0,69,134)" stroke="none" d="M 43111,4364 L 43111,4613 43361,4613 43361,4364 43111,4364 Z"/>
 <path fill="none" stroke="rgb(0,69,134)" stroke-linejoin="round" d="M 43111,4364 L 43111,4613 43361,4613 43361,4364 43111,4364 Z"/>
 <path fill="rgb(0,69,134)" stroke="none" d="M 43661,3680 L 43661,3930 43911,3930 43911,3680 43661,3680 Z"/>
 <path fill="none" stroke="rgb(0,69,134)" stroke-linejoin="round" d="M 43661,3680 L 43661,3930 43911,3930 43911,3680 43661,3680 Z"/>
 <path fill="rgb(0,69,134)" stroke="none" d="M 44211,3039 L 44211,3289 44461,3289 44461,3039 44211,3039 Z"/>
 <path fill="none" stroke="rgb(0,69,134)" stroke-linejoin="round" d="M 44211,3039 L 44211,3289 44461,3289 44461,3039 44211,3039 Z"/>
 <path fill="rgb(0,69,134)" stroke="none" d="M 44761,2481 L 44761,2731 45011,2731 45011,2481 44761,2481 Z"/>
 <path fill="none" stroke="rgb(0,69,134)" stroke-linejoin="round" d="M 44761,2481 L 44761,2731 45011,2731 45011,2481 44761,2481 Z"/>
 <path fill="rgb(0,69,134)" stroke="none" d="M 45311,2042 L 45311,2292 45561,2292 45561,2042 45311,2042 Z"/>
 <path fill="none" stroke="rgb(0,69,134)" stroke-linejoin="round" d="M 45311,2042 L 45311,2292 45561,2292 45561,2042 45311,2042 Z"/>
 <path fill="rgb(0,69,134)" stroke="none" d="M 45861,1749 L 45861,1999 46111,1999 46111,1749 45861,1749 Z"/>
 <path fill="none" stroke="rgb(0,69,134)" stroke-linejoin="round" d="M 45861,1749 L 45861,1999 46111,1999 46111,1749 45861,1749 Z"/>
 <path fill="rgb(0,69,134)" stroke="none" d="M 46411,1620 L 46411,1870 46661,1870 46661,1620 46411,1620 Z"/>
 <path fill="none" stroke="rgb(0,69,134)" stroke-linejoin="round" d="M 46411,1620 L 46411,1870 46661,1870 46661,1620 46411,1620 Z"/>
 <path fill="rgb(0,69,134)" stroke="none" d="M 46961,1663 L 46961,1913 47211,1913 47211,1663 46961,1663 Z"/>
 <path fill="none" stroke="rgb(0,69,134)" stroke-linejoin="round" d="M 46961,1663 L 46961,1913 47211,1913 47211,1663 46961,1663 Z"/>
 <path fill="rgb(0,69,134)" stroke="none" d="M 47511,1876 L 47511,2126 47761,2126 47761,1876 47511,1876 Z"/>
 <path fill="none" stroke="rgb(0,69,134)" stroke-linejoin="round" d="M 47511,1876 L 47511,2126 47761,2126 47761,1876 47511,1876 Z"/>
 <path fill="rgb(0,69,134)" stroke="none" d="M 48061,2245 L 48061,2495 48311,2495 48311,2245 48061,2245 Z"/>
 <path fill="none" stroke="rgb(0,69,134)" stroke-linejoin="round" d="M 48061,2245 L 48061,2495 48311,2495 48311,2245 48061,2245 Z"/>
 <path fill="rgb(0,69,134)" stroke="none" d="M 48611,2747 L 48611,2997 48861,2997 48861,2747 48611,2747 Z"/>
 <path fill="none" stroke="rgb(0,69,134)" stroke-linejoin="round" d="M 48611,2747 L 48611,2997 48861,2997 48861,2747 48611,2747 Z"/>
 <path fill="rgb(0,69,134)" stroke="none" d="M 49161,3351 L 49161,3601 49411,3601 49411,3351 49161,3351 Z"/>
 <path fill="none" stroke="rgb(0,69,134)" stroke-linejoin="round" d="M 49161,3351 L 49161,3601 49411,3601 49411,3351 49161,3351 Z"/>
 <path fill="rgb(0,69,134)" stroke="none" d="M 49711,4019 L 49711,4269 49961,4269 49961,4019 49711,4019 Z"/>
 <path fill="none" stroke="rgb(0,69,134)" stroke-linejoin="round" d="M 49711,4019 L 49711,4269 49961,4269 49961,4019 49711,4019 Z"/>
 <path fill="rgb(0,69,134)" stroke="none" d="M 50261,4707 L 50261,4957 50511,4957 50511,4707 50261,4707 Z"/>
 <path fill="none" stroke="rgb(0,69,134)" stroke-linejoin="round" d="M 50261,4707 L 50261,4957 50511,4957 50511,4707 50261,4707 Z"/>
 <path fill="rgb(0,69,134)" stroke="none" d="M 50811,5375 L 50811,5625 51061,5625 51061,5375 50811,5375 Z"/>
 <path fill="none" stroke="rgb(0,69,134)" stroke-linejoin="round" d="M 50811,5375 L 50811,5625 51061,5625 51061,5375 50811,5375 Z"/>
 <path fill="rgb(0,69,134)" stroke="none" d="M 51361,5979 L 51361,6229 51611,6229 51611,5979 51361,5979 Z"/>
 <path fill="none" stroke="rgb(0,69,134)" stroke-linejoin="round" d="M 51361,5979 L 51361,6229 51611,6229 51611,5979 51361,5979 Z"/>
 <path fill="rgb(0,69,134)" stroke="none" d="M 51911,6481 L 51911,6731 52161,6731 52161,6481 51911,6481 Z"/>
 <path fill="none" stroke="rgb(0,69,134)" stroke-linejoin="round" d="M 51911,6481 L 51911,6731 52161,6731 52161,6481 51911,6481 Z"/>
 <path fill="rgb(0,69,134)" stroke="none" d="M 52461,6850 L 52461,7100 52711,7100 52711,6850 52461,6850 Z"/>
 <path fill="none" stroke="rgb(0,69,134)" stroke-linejoin="round" d="M 52461,6850 L 52461,7100 52711,7100 52711,6850 52461,6850 Z"/>
 <path fill="rgb(0,69,134)" stroke="none" d="M 53011,7063 L 53011,7313 53261,7313 53261,7063 53011,7063 Z"/>
 <path fill="none" stroke="rgb(0,69,134)" stroke-linejoin="round" d="M 53011,7063 L 53011,7313 53261,7313 53261,7063 53011,7063 Z"/>
 <path fill="rgb(0,69,134)" stroke="none" d="M 53561,7106 L 53561,7356 53811,7356 53811,7106 53561,7106 Z"/>
 <path fill="none" stroke="rgb(0,69,134)" stroke-linejoin="round" d="M 53561,7106 L 53561,7356 53811,7356 53811,7106 53561,7106 Z"/>
 <path fill="rgb(0,69,134)" stroke="none" d="M 54111,6977 L 54111,7227 54361,7227 54361,6977 54111,6977 Z"/>
 <path fill="none" stroke="rgb(0,69,134)" stroke-linejoin="round" d="M 54111,6977 L 54111,7227 54361,7227 54361,6977 54111,6977 Z"/>
 <path fill="rgb(0,69,134)" stroke="none" d="M 54661,6684 L 54661,6934 54911,6934 54911,6684 54661,6684 Z"/>
 <path fill="none" stroke="rgb(0,69,134)" stroke-linejoin="round" d="M 54661,6684 L 54661,6934 54911,6934 54911,6684 54661,6684 Z"/>
 <path fill="rgb(0,69,134)" stroke="none" d="M 55211,6245 L 55211,6495 55461,6495 55461,6245 55211,6245 Z"/>
 <path fill="none" stroke="rgb(0,69,134)" stroke-linejoin="round" d="M 55211,6245 L 55211,6495 55461,6495 55461,6245 55211,6245 Z"/>
 <path fill="rgb(0,69,134)" stroke="none" d="M 55761,5687 L 55761,5937 56011,5937 56011,5687 55761,5687 Z"/>
 <path fill="none" stroke="rgb(0,69,134)" stroke-linejoin="round" d="M 55761,5687 L 55761,5937 56011,5937 56011,5687 55761,5687 Z"/>
 <path fill="rgb(0,69,134)" stroke="none" d="M 56311,5046 L 56311,5296 56561,5296 56561,5046 56311,5046 Z"/>
 <path fill="none" stroke="rgb(0,69,134)" stroke-linejoin="round" d="M 56311,5046 L 56311,5296 56561,5296 56561,5046 56311,5046 Z"/>
 <text class="SVGTextShape"><tspan class="TextParagraph" font-family="Liberation Sans, sans-serif" font-size="353px" font-weight="400"><tspan class="TextPosition" x="1895" y="5056"><tspan fill="rgb(0,0,0)" stroke="none" style="white-space: pre">0</tspan></tspan></tspan></text>
 <text class="SVGTextShape"><tspan class="TextParagraph" font-family="Liberation Sans, sans-serif" font-size="353px" font-weight="400"><tspan class="TextPosition" x="7302" y="5056"><tspan fill="rgb(0,0,0)" stroke="none" style="white-space: pre">10</tspan></tspan></tspan></text>
 <text class="SVGTextShape"><tspan class="TextParagraph" font-family="Liberation Sans, sans-serif" font-size="353px" font-weight="400"><tspan class="TextPosition" x="12802" y="5056"><tspan fill="rgb(0,0,0)" stroke="none" style="white-space: pre">20</tspan></tspan></tspan></text>
 <text class="SVGTextShape"><tspan class="TextParagraph" font-family="Liberation Sans, sans-serif" font-size="353px" font-weight="400"><tspan class="TextPosition" x="18302" y="5056"><tspan fill="rgb(0,0,0)" stroke="none" style="white-space: pre">30</tspan></tspan></tspan></text>
 <text class="SVGTextShape"><tspan class="TextParagraph" font-family="Liberation Sans, sans-serif" font-size="353px" font-weight="400"><tspan class="TextPosition" x="23802" y="5056"><tspan fill="rgb(0,0,0)" stroke="none" style="white-space: pre">40</tspan></tspan></tspan></text>
 <text class="SVGTextShape"><tspan class="TextParagraph" font-family="Liberation Sans, sans-serif" font-size="353px" font-weight="400"><tspan class="TextPosition" x="29302" y="5056"><tspan fill="rgb(0,0,0)" stroke="none" style="white-space: pre">50</tspan></tspan></tspan></text>
 <text class="SVGTextShape"><tspan class="TextParagraph" font-family="Liberation Sans, sans-serif" font-size="353px" font-weight="400"><tspan class="TextPosition" x="34802" y="5056"><tspan fill="rgb(0,0,0)" stroke="none" style="white-space: pre">60</tspan></tspan></tspan></text>
 <text class="SVGTextShape"><tspan class="TextParagraph" font-family="Liberation Sans, sans-serif" font-size="353px" font-weight="400"><tspan class="TextPosition" x="40302" y="5056"><tspan fill="rgb(0,0,0)" stroke="none" style="white-space: pre">70</tspan></tspan></tspan></text>
 <text class="SVGTextShape"><tspan class="TextParagraph" font-family="Liberation Sans, sans-serif" font-size="353px" font-weight="400"><tspan class="TextPosition" x="45802" y="5056"><tspan fill="rgb(0,0,0)" stroke="none" style="white-space: pre">80</tspan></tspan></tspan></text>
 <text class="SVGTextShape"><tspan class="TextParagraph" font-family="Liberation Sans, sans-serif" font-size="353px" font-weight="400"><tspan class="TextPosition" x="51302" y="5056"><tspan fill="rgb(0,0,0)" stroke="none" style="white-space: pre">90</tspan></tspan></tspan></text>
 <text class="SVGTextShape"><tspan class="TextParagraph" font-family="Liberation Sans, sans-serif" font-size="353px" font-weight="400"><tspan class="TextPosition" x="56709" y="5056"><tspan fill="rgb(0,0,0)" stroke="none" style="white-space: pre">100</tspan></tspan></tspan></text>
 <text class="SVGTextShape"><tspan class="TextParagraph" font-family="Liberation Sans, sans-serif" font-size="353px" font-weight="400"><tspan class="TextPosition" x="1156" y="8733"><tspan fill="rgb(0,0,0)" stroke="none" style="white-space: pre">-1.5</tspan></tspan></tspan></text>
 <text class="SVGTextShape"><tspan class="TextParagraph" font-family="Liberation Sans, sans-serif" font-size="353px" font-weight="400"><tspan class="TextPosition" x="1447" y="7358"><tspan fill="rgb(0,0,0)" stroke="none" style="white-space: pre">-1</tspan></tspan></tspan></text>
 <text class="SVGTextShape"><tspan class="TextParagraph" font-family="Liberation Sans, sans-serif" font-size="353px" font-weight="400"><tspan class="TextPosition" x="1156" y="5983"><tspan fill="rgb(0,0,0)" stroke="none" style="white-space: pre">-0.5</tspan></tspan></tspan></text>
 <text class="SVGTextShape"><tspan class="TextParagraph" font-family="Liberation Sans, sans-serif" font-size="353px" font-weight="400"><tspan class="TextPosition" x="1553" y="4609"><tspan fill="rgb(0,0,0)" stroke="none" style="white-space: pre">0</tspan></tspan></tspan></text>
 <text class="SVGTextShape"><tspan class="TextParagraph" font-family="Liberation Sans, sans-serif" font-size="353px" font-weight="400"><tspan class="TextPosition" x="1262" y="3234"><tspan fill="rgb(0,0,0)" stroke="none" style="white-space: pre">0.5</tspan></tspan></tspan></text>
 <text class="SVGTextShape"><tspan class="TextParagraph" font-family="Liberation Sans, sans-serif" font-size="353px" font-weight="400"><tspan class="TextPosition" x="1553" y="1859"><tspan fill="rgb(0,0,0)" stroke="none" style="white-space: pre">1</tspan></tspan></tspan></text>
 <text class="SVGTextShape"><tspan class="TextParagraph" font-family="Liberation Sans, sans-serif" font-size="353px" font-weight="400"><tspan class="TextPosition" x="1262" y="485"><tspan fill="rgb(0,0,0)" stroke="none" style="white-space: pre">1.5</tspan></tspan></tspan></text>
</svg>