<?xml version="1.0" encoding="UTF-8"?>
<!DOCTYPE svg PUBLIC "-//W3C//DTD SVG 1.1//EN" "http://www.w3.org/Graphics/SVG/1.1/DTD/svg11.dtd">
<svg width="536mm" height="90mm" viewBox="0 0 53600 9000" version="1.1" xmlns="http://www.w3.org/2000/svg" xmlns:xlink="http://www.w3.org/1999/xlink" stroke-width="28.222" stroke-linejoin="round" xml:space="preserve">
 <path fill="rgb(255,255,255)" stroke="none" d="M 26780,8992 L -13,8992 -13,-13 53573,-13 53573,8992 26780,8992 Z"/>
 <path fill="none" stroke="rgb(179,179,179)" stroke-linejoin="round" d="M 27096,8613 L 1970,8613 1970,367 52222,367 52222,8613 27096,8613 Z"/>
 <path fill="none" stroke="rgb(179,179,179)" stroke-linejoin="round" d="M 52222,8612 L 1970,8612"/>
 <path fill="none" stroke="rgb(179,179,179)" stroke-linejoin="round" d="M 52222,7433 L 1970,7433"/>
 <path fill="none" stroke="rgb(179,179,179)" stroke-linejoin="round" d="M 52222,6255 L 1970,6255"/>
 <path fill="none" stroke="rgb(179,179,179)" stroke-linejoin="round" d="M 52222,5077 L 1970,5077"/>
 <path fill="none" stroke="rgb(179,179,179)" stroke-linejoin="round" d="M 52222,3900 L 1970,3900"/>
 <path fill="none" stroke="rgb(179,179,179)" stroke-linejoin="round" d="M 52222,2722 L 1970,2722"/>
 <path fill="none" stroke="rgb(179,179,179)" stroke-linejoin="round" d="M 52222,1544 L 1970,1544"/>
 <path fill="none" stroke="rgb(179,179,179)" stroke-linejoin="round" d="M 52222,365 L 1970,365"/>
 <path fill="none" stroke="rgb(179,179,179)" stroke-linejoin="round" d="M 1970,1694 L 1970,1544"/>
 <path fill="none" stroke="rgb(179,179,179)" stroke-linejoin="round" d="M 1970,1694 L 1970,1544"/>
 <path fill="none" stroke="rgb(179,179,179)" stroke-linejoin="round" d="M 6995,1694 L 6995,1544"/>
 <path fill="none" stroke="rgb(179,179,179)" stroke-linejoin="round" d="M 6995,1694 L 6995,1544"/>
 <path fill="none" stroke="rgb(179,179,179)" stroke-linejoin="round" d="M 12020,1694 L 12020,1544"/>
 <path fill="none" stroke="rgb(179,179,179)" stroke-linejoin="round" d="M 12020,1694 L 12020,1544"/>
 <path fill="none" stroke="rgb(179,179,179)" stroke-linejoin="round" d="M 17045,1694 L 17045,1544"/>
 <path fill="none" stroke="rgb(179,179,179)" stroke-linejoin="round" d="M 17045,1694 L 17045,1544"/>
 <path fill="none" stroke="rgb(179,179,179)" stroke-linejoin="round" d="M 22071,1694 L 22071,1544"/>
 <path fill="none" stroke="rgb(179,179,179)" stroke-linejoin="round" d="M 22071,1694 L 22071,1544"/>
 <path fill="none" stroke="rgb(179,179,179)" stroke-linejoin="round" d="M 27095,1694 L 27095,1544"/>
 <path fill="none" stroke="rgb(179,179,179)" stroke-linejoin="round" d="M 27095,1694 L 27095,1544"/>
 <path fill="none" stroke="rgb(179,179,179)" stroke-linejoin="round" d="M 32120,1694 L 32120,1544"/>
 <path fill="none" stroke="rgb(179,179,179)" stroke-linejoin="round" d="M 32120,1694 L 32120,1544"/>
 <path fill="none" stroke="rgb(179,179,179)" stroke-linejoin="round" d="M 37146,1694 L 37146,1544"/>
 <path fill="none" stroke="rgb(179,179,179)" stroke-linejoin="round" d="M 37146,1694 L 37146,1544"/>
 <path fill="none" stroke="rgb(179,179,179)" stroke-linejoin="round" d="M 42171,1694 L 42171,1544"/>
 <path fill="none" stroke="rgb(179,179,179)" stroke-linejoin="round" d="M 42171,1694 L 42171,1544"/>
 <path fill="none" stroke="rgb(179,179,179)" stroke-linejoin="round" d="M 47196,1694 L 47196,1544"/>
 <path fill="none" stroke="rgb(179,179,179)" stroke-linejoin="round" d="M 47196,1694 L 47196,1544"/>
 <path fill="none" stroke="rgb(179,179,179)" stroke-linejoin="round" d="M 52222,1694 L 52222,1544"/>
 <path fill="none" stroke="rgb(179,179,179)" stroke-linejoin="round" d="M 52222,1694 L 52222,1544"/>
 <path fill="none" stroke="rgb(179,179,179)" stroke-linejoin="round" d="M 1970,1544 L 52222,1544"/>
 <path fill="none" stroke="rgb(179,179,179)" stroke-linejoin="round" d="M 1820,8612 L 1970,8612"/>
 <path fill="none" stroke="rgb(179,179,179)" stroke-linejoin="round" d="M 1820,8612 L 1970,8612"/>
 <path fill="none" stroke="rgb(179,179,179)" stroke-linejoin="round" d="M 1820,7433 L 1970,7433"/>
 <path fill="none" stroke="rgb(179,179,179)" stroke-linejoin="round" d="M 1820,7433 L 1970,7433"/>
 <path fill="none" stroke="rgb(179,179,179)" stroke-linejoin="round" d="M 1820,6255 L 1970,6255"/>
 <path fill="none" stroke="rgb(179,179,179)" stroke-linejoin="round" d="M 1820,6255 L 1970,6255"/>
 <path fill="none" stroke="rgb(179,179,179)" stroke-linejoin="round" d="M 1820,5077 L 1970,5077"/>
 <path fill="none" stroke="rgb(179,179,179)" stroke-linejoin="round" d="M 1820,5077 L 1970,5077"/>
 <path fill="none" stroke="rgb(179,179,179)" stroke-linejoin="round" d="M 1820,3900 L 1970,3900"/>
 <path fill="none" stroke="rgb(179,179,179)" stroke-linejoin="round" d="M 1820,3900 L 1970,3900"/>
 <path fill="none" stroke="rgb(179,179,179)" stroke-linejoin="round" d="M 1820,2722 L 1970,2722"/>
 <path fill="none" stroke="rgb(179,179,179)" stroke-linejoin="round" d="M 1820,2722 L 1970,2722"/>
 <path fill="none" stroke="rgb(179,179,179)" stroke-linejoin="round" d="M 1820,1544 L 1970,1544"/>
 <path fill="none" stroke="rgb(179,179,179)" stroke-linejoin="round" d="M 1820,1544 L 1970,1544"/>
 <path fill="none" stroke="rgb(179,179,179)" stroke-linejoin="round" d="M 1820,365 L 1970,365"/>
 <path fill="none" stroke="rgb(179,179,179)" stroke-linejoin="round" d="M 1820,365 L 1970,365"/>
 <path fill="none" stroke="rgb(179,179,179)" stroke-linejoin="round" d="M 1970,8612 L 1970,365"/>
 <path fill="none" stroke="rgb(0,69,134)" stroke-width="80" stroke-linejoin="round" d="M 1970,1544 L 2472,1544 2975,1544 3477,1544 3980,7433 4482,1544 4985,1544 5487,1544 5990,1544 6492,1544 6995,1544 7497,1544 8000,1544 8502,1544 9005,1544 9507,1544 10010,1544 10513,1544 11015,1544 11518,1544 12020,1544 12523,1544 13025,1544 13528,1544 14030,1544 14533,1544 15035,1544 15538,1544 16040,1544 16543,1544 17045,1544 17548,1544 18050,1544 18553,1544 19056,1544 19558,1544 20061,1544 20563,1544 21066,1544 21568,1544 22071,1544 22573,1544 23076,1544 23578,1544 24081,1544 24583,1544 25086,1544 25588,1544 26091,1544 26593,1544 27095,1544 27598,1544 28100,1544 28603,1544 29105,1544 29608,1544 30110,1544 30613,1544 31115,1544 31618,1544 32120,1544 32623,1544 33125,1544 33628,1544 34130,1544 34633,1544 35135,1544 35638,1544 36141,1544 36643,1544 37146,1544 37648,1544 38151,1544 38653,1544 39156,1544 39658,1544 40161,1544 40663,1544 41166,1544 41668,1544 42171,1544 42673,1544 43176,1544 43678,1544 44181,1544 44684,1544 45186,1544 45689,1544 46191,1544 46694,1544 47196,1544 47699,1544 48201,1544 48704,1544 49206,1544 49709,1544 50211,1544 50714,1544 51216,1544 51719,1544 52222,1544"/>
 <path fill="rgb(0,69,134)" stroke="none" d="M 1845,1419 L 1845,1669 2095,1669 2095,1419 1845,1419 Z"/>
 <path fill="none" stroke="rgb(0,69,134)" stroke-linejoin="round" d="M 1845,1419 L 1845,1669 2095,1669 2095,1419 1845,1419 Z"/>
 <path fill="rgb(0,69,134)" stroke="none" d="M 2347,1419 L 2347,1669 2597,1669 2597,1419 2347,1419 Z"/>
 <path fill="none" stroke="rgb(0,69,134)" stroke-linejoin="round" d="M 2347,1419 L 2347,1669 2597,1669 2597,1419 2347,1419 Z"/>
 <path fill="rgb(0,69,134)" stroke="none" d="M 2850,1419 L 2850,1669 3100,1669 3100,1419 2850,1419 Z"/>
 <path fill="none" stroke="rgb(0,69,134)" stroke-linejoin="round" d="M 2850,1419 L 2850,1669 3100,1669 3100,1419 2850,1419 Z"/>
 <path fill="rgb(0,69,134)" stroke="none" d="M 3352,1419 L 3352,1669 3602,1669 3602,1419 3352,1419 Z"/>
 <path fill="none" stroke="rgb(0,69,134)" stroke-linejoin="round" d="M 3352,1419 L 3352,1669 3602,1669 3602,1419 3352,1419 Z"/>
 <path fill="rgb(0,69,134)" stroke="none" d="M 3855,7308 L 3855,7558 4105,7558 4105,7308 3855,7308 Z"/>
 <path fill="none" stroke="rgb(0,69,134)" stroke-linejoin="round" d="M 3855,7308 L 3855,7558 4105,7558 4105,7308 3855,7308 Z"/>
 <path fill="rgb(0,69,134)" stroke="none" d="M 4357,1419 L 4357,1669 4607,1669 4607,1419 4357,1419 Z"/>
 <path fill="none" stroke="rgb(0,69,134)" stroke-linejoin="round" d="M 4357,1419 L 4357,1669 4607,1669 4607,1419 4357,1419 Z"/>
 <path fill="rgb(0,69,134)" stroke="none" d="M 4860,1419 L 4860,1669 5110,1669 5110,1419 4860,1419 Z"/>
 <path fill="none" stroke="rgb(0,69,134)" stroke-linejoin="round" d="M 4860,1419 L 4860,1669 5110,1669 5110,1419 4860,1419 Z"/>
 <path fill="rgb(0,69,134)" stroke="none" d="M 5362,1419 L 5362,1669 5612,1669 5612,1419 5362,1419 Z"/>
 <path fill="none" stroke="rgb(0,69,134)" stroke-linejoin="round" d="M 5362,1419 L 5362,1669 5612,1669 5612,1419 5362,1419 Z"/>
 <path fill="rgb(0,69,134)" stroke="none" d="M 5865,1419 L 5865,1669 6115,1669 6115,1419 5865,1419 Z"/>
 <path fill="none" stroke="rgb(0,69,134)" stroke-linejoin="round" d="M 5865,1419 L 5865,1669 6115,1669 6115,1419 5865,1419 Z"/>
 <path fill="rgb(0,69,134)" stroke="none" d="M 6367,1419 L 6367,1669 6617,1669 6617,1419 6367,1419 Z"/>
 <path fill="none" stroke="rgb(0,69,134)" stroke-linejoin="round" d="M 6367,1419 L 6367,1669 6617,1669 6617,1419 6367,1419 Z"/>
 <path fill="rgb(0,69,134)" stroke="none" d="M 6870,1419 L 6870,1669 7120,1669 7120,1419 6870,1419 Z"/>
 <path fill="none" stroke="rgb(0,69,134)" stroke-linejoin="round" d="M 6870,1419 L 6870,1669 7120,1669 7120,1419 6870,1419 Z"/>
 <path fill="rgb(0,69,134)" stroke="none" d="M 7372,1419 L 7372,1669 7622,1669 7622,1419 7372,1419 Z"/>
 <path fill="none" stroke="rgb(0,69,134)" stroke-linejoin="round" d="M 7372,1419 L 7372,1669 7622,1669 7622,1419 7372,1419 Z"/>
 <path fill="rgb(0,69,134)" stroke="none" d="M 7875,1419 L 7875,1669 8125,1669 8125,1419 7875,1419 Z"/>
 <path fill="none" stroke="rgb(0,69,134)" stroke-linejoin="round" d="M 7875,1419 L 7875,1669 8125,1669 8125,1419 7875,1419 Z"/>
 <path fill="rgb(0,69,134)" stroke="none" d="M 8377,1419 L 8377,1669 8627,1669 8627,1419 8377,1419 Z"/>
 <path fill="none" stroke="rgb(0,69,134)" stroke-linejoin="round" d="M 8377,1419 L 8377,1669 8627,1669 8627,1419 8377,1419 Z"/>
 <path fill="rgb(0,69,134)" stroke="none" d="M 8880,1419 L 8880,1669 9130,1669 9130,1419 8880,1419 Z"/>
 <path fill="none" stroke="rgb(0,69,134)" stroke-linejoin="round" d="M 8880,1419 L 8880,1669 9130,1669 9130,1419 8880,1419 Z"/>
 <path fill="rgb(0,69,134)" stroke="none" d="M 9382,1419 L 9382,1669 9632,1669 9632,1419 9382,1419 Z"/>
 <path fill="none" stroke="rgb(0,69,134)" stroke-linejoin="round" d="M 9382,1419 L 9382,1669 9632,1669 9632,1419 9382,1419 Z"/>
 <path fill="rgb(0,69,134)" stroke="none" d="M 9885,1419 L 9885,1669 10135,1669 10135,1419 9885,1419 Z"/>
 <path fill="none" stroke="rgb(0,69,134)" stroke-linejoin="round" d="M 9885,1419 L 9885,1669 10135,1669 10135,1419 9885,1419 Z"/>
 <path fill="rgb(0,69,134)" stroke="none" d="M 10388,1419 L 10388,1669 10638,1669 10638,1419 10388,1419 Z"/>
 <path fill="none" stroke="rgb(0,69,134)" stroke-linejoin="round" d="M 10388,1419 L 10388,1669 10638,1669 10638,1419 10388,1419 Z"/>
 <path fill="rgb(0,69,134)" stroke="none" d="M 10890,1419 L 10890,1669 11140,1669 11140,1419 10890,1419 Z"/>
 <path fill="none" stroke="rgb(0,69,134)" stroke-linejoin="round" d="M 10890,1419 L 10890,1669 11140,1669 11140,1419 10890,1419 Z"/>
 <path fill="rgb(0,69,134)" stroke="none" d="M 11393,1419 L 11393,1669 11643,1669 11643,1419 11393,1419 Z"/>
 <path fill="none" stroke="rgb(0,69,134)" stroke-linejoin="round" d="M 11393,1419 L 11393,1669 11643,1669 11643,1419 11393,1419 Z"/>
 <path fill="rgb(0,69,134)" stroke="none" d="M 11895,1419 L 11895,1669 12145,1669 12145,1419 11895,1419 Z"/>
 <path fill="none" stroke="rgb(0,69,134)" stroke-linejoin="round" d="M 11895,1419 L 11895,1669 12145,1669 12145,1419 11895,1419 Z"/>
 <path fill="rgb(0,69,134)" stroke="none" d="M 12398,1419 L 12398,1669 12648,1669 12648,1419 12398,1419 Z"/>
 <path fill="none" stroke="rgb(0,69,134)" stroke-linejoin="round" d="M 12398,1419 L 12398,1669 12648,1669 12648,1419 12398,1419 Z"/>
 <path fill="rgb(0,69,134)" stroke="none" d="M 12900,1419 L 12900,1669 13150,1669 13150,1419 12900,1419 Z"/>
 <path fill="none" stroke="rgb(0,69,134)" stroke-linejoin="round" d="M 12900,1419 L 12900,1669 13150,1669 13150,1419 12900,1419 Z"/>
 <path fill="rgb(0,69,134)" stroke="none" d="M 13403,1419 L 13403,1669 13653,1669 13653,1419 13403,1419 Z"/>
 <path fill="none" stroke="rgb(0,69,134)" stroke-linejoin="round" d="M 13403,1419 L 13403,1669 13653,1669 13653,1419 13403,1419 Z"/>
 <path fill="rgb(0,69,134)" stroke="none" d="M 13905,1419 L 13905,1669 14155,1669 14155,1419 13905,1419 Z"/>
 <path fill="none" stroke="rgb(0,69,134)" stroke-linejoin="round" d="M 13905,1419 L 13905,1669 14155,1669 14155,1419 13905,1419 Z"/>
 <path fill="rgb(0,69,134)" stroke="none" d="M 14408,1419 L 14408,1669 14658,1669 14658,1419 14408,1419 Z"/>
 <path fill="none" stroke="rgb(0,69,134)" stroke-linejoin="round" d="M 14408,1419 L 14408,1669 14658,1669 14658,1419 14408,1419 Z"/>
 <path fill="rgb(0,69,134)" stroke="none" d="M 14910,1419 L 14910,1669 15160,1669 15160,1419 14910,1419 Z"/>
 <path fill="none" stroke="rgb(0,69,134)" stroke-linejoin="round" d="M 14910,1419 L 14910,1669 15160,1669 15160,1419 14910,1419 Z"/>
 <path fill="rgb(0,69,134)" stroke="none" d="M 15413,1419 L 15413,1669 15663,1669 15663,1419 15413,1419 Z"/>
 <path fill="none" stroke="rgb(0,69,134)" stroke-linejoin="round" d="M 15413,1419 L 15413,1669 15663,1669 15663,1419 15413,1419 Z"/>
 <path fill="rgb(0,69,134)" stroke="none" d="M 15915,1419 L 15915,1669 16165,1669 16165,1419 15915,1419 Z"/>
 <path fill="none" stroke="rgb(0,69,134)" stroke-linejoin="round" d="M 15915,1419 L 15915,1669 16165,1669 16165,1419 15915,1419 Z"/>
 <path fill="rgb(0,69,134)" stroke="none" d="M 16418,1419 L 16418,1669 16668,1669 16668,1419 16418,1419 Z"/>
 <path fill="none" stroke="rgb(0,69,134)" stroke-linejoin="round" d="M 16418,1419 L 16418,1669 16668,1669 16668,1419 16418,1419 Z"/>
 <path fill="rgb(0,69,134)" stroke="none" d="M 16920,1419 L 16920,1669 17170,1669 17170,1419 16920,1419 Z"/>
 <path fill="none" stroke="rgb(0,69,134)" stroke-linejoin="round" d="M 16920,1419 L 16920,1669 17170,1669 17170,1419 16920,1419 Z"/>
 <path fill="rgb(0,69,134)" stroke="none" d="M 17423,1419 L 17423,1669 17673,1669 17673,1419 17423,1419 Z"/>
 <path fill="none" stroke="rgb(0,69,134)" stroke-linejoin="round" d="M 17423,1419 L 17423,1669 17673,1669 17673,1419 17423,1419 Z"/>
 <path fill="rgb(0,69,134)" stroke="none" d="M 17925,1419 L 17925,1669 18175,1669 18175,1419 17925,1419 Z"/>
 <path fill="none" stroke="rgb(0,69,134)" stroke-linejoin="round" d="M 17925,1419 L 17925,1669 18175,1669 18175,1419 17925,1419 Z"/>
 <path fill="rgb(0,69,134)" stroke="none" d="M 18428,1419 L 18428,1669 18678,1669 18678,1419 18428,1419 Z"/>
 <path fill="none" stroke="rgb(0,69,134)" stroke-linejoin="round" d="M 18428,1419 L 18428,1669 18678,1669 18678,1419 18428,1419 Z"/>
 <path fill="rgb(0,69,134)" stroke="none" d="M 18931,1419 L 18931,1669 19181,1669 19181,1419 18931,1419 Z"/>
 <path fill="none" stroke="rgb(0,69,134)" stroke-linejoin="round" d="M 18931,1419 L 18931,1669 19181,1669 19181,1419 18931,1419 Z"/>
 <path fill="rgb(0,69,134)" stroke="none" d="M 19433,1419 L 19433,1669 19683,1669 19683,1419 19433,1419 Z"/>
 <path fill="none" stroke="rgb(0,69,134)" stroke-linejoin="round" d="M 19433,1419 L 19433,1669 19683,1669 19683,1419 19433,1419 Z"/>
 <path fill="rgb(0,69,134)" stroke="none" d="M 19936,1419 L 19936,1669 20186,1669 20186,1419 19936,1419 Z"/>
 <path fill="none" stroke="rgb(0,69,134)" stroke-linejoin="round" d="M 19936,1419 L 19936,1669 20186,1669 20186,1419 19936,1419 Z"/>
 <path fill="rgb(0,69,134)" stroke="none" d="M 20438,1419 L 20438,1669 20688,1669 20688,1419 20438,1419 Z"/>
 <path fill="none" stroke="rgb(0,69,134)" stroke-linejoin="round" d="M 20438,1419 L 20438,1669 20688,1669 20688,1419 20438,1419 Z"/>
 <path fill="rgb(0,69,134)" stroke="none" d="M 20941,1419 L 20941,1669 21191,1669 21191,1419 20941,1419 Z"/>
 <path fill="none" stroke="rgb(0,69,134)" stroke-linejoin="round" d="M 20941,1419 L 20941,1669 21191,1669 21191,1419 20941,1419 Z"/>
 <path fill="rgb(0,69,134)" stroke="none" d="M 21443,1419 L 21443,1669 21693,1669 21693,1419 21443,1419 Z"/>
 <path fill="none" stroke="rgb(0,69,134)" stroke-linejoin="round" d="M 21443,1419 L 21443,1669 21693,1669 21693,1419 21443,1419 Z"/>
 <path fill="rgb(0,69,134)" stroke="none" d="M 21946,1419 L 21946,1669 22196,1669 22196,1419 21946,1419 Z"/>
 <path fill="none" stroke="rgb(0,69,134)" stroke-linejoin="round" d="M 21946,1419 L 21946,1669 22196,1669 22196,1419 21946,1419 Z"/>
 <path fill="rgb(0,69,134)" stroke="none" d="M 22448,1419 L 22448,1669 22698,1669 22698,1419 22448,1419 Z"/>
 <path fill="none" stroke="rgb(0,69,134)" stroke-linejoin="round" d="M 22448,1419 L 22448,1669 22698,1669 22698,1419 22448,1419 Z"/>
 <path fill="rgb(0,69,134)" stroke="none" d="M 22951,1419 L 22951,1669 23201,1669 23201,1419 22951,1419 Z"/>
 <path fill="none" stroke="rgb(0,69,134)" stroke-linejoin="round" d="M 22951,1419 L 22951,1669 23201,1669 23201,1419 22951,1419 Z"/>
 <path fill="rgb(0,69,134)" stroke="none" d="M 23453,1419 L 23453,1669 23703,1669 23703,1419 23453,1419 Z"/>
 <path fill="none" stroke="rgb(0,69,134)" stroke-linejoin="round" d="M 23453,1419 L 23453,1669 23703,1669 23703,1419 23453,1419 Z"/>
 <path fill="rgb(0,69,134)" stroke="none" d="M 23956,1419 L 23956,1669 24206,1669 24206,1419 23956,1419 Z"/>
 <path fill="none" stroke="rgb(0,69,134)" stroke-linejoin="round" d="M 23956,1419 L 23956,1669 24206,1669 24206,1419 23956,1419 Z"/>
 <path fill="rgb(0,69,134)" stroke="none" d="M 24458,1419 L 24458,1669 24708,1669 24708,1419 24458,1419 Z"/>
 <path fill="none" stroke="rgb(0,69,134)" stroke-linejoin="round" d="M 24458,1419 L 24458,1669 24708,1669 24708,1419 24458,1419 Z"/>
 <path fill="rgb(0,69,134)" stroke="none" d="M 24961,1419 L 24961,1669 25211,1669 25211,1419 24961,1419 Z"/>
 <path fill="none" stroke="rgb(0,69,134)" stroke-linejoin="round" d="M 24961,1419 L 24961,1669 25211,1669 25211,1419 24961,1419 Z"/>
 <path fill="rgb(0,69,134)" stroke="none" d="M 25463,1419 L 25463,1669 25713,1669 25713,1419 25463,1419 Z"/>
 <path fill="none" stroke="rgb(0,69,134)" stroke-linejoin="round" d="M 25463,1419 L 25463,1669 25713,1669 25713,1419 25463,1419 Z"/>
 <path fill="rgb(0,69,134)" stroke="none" d="M 25966,1419 L 25966,1669 26216,1669 26216,1419 25966,1419 Z"/>
 <path fill="none" stroke="rgb(0,69,134)" stroke-linejoin="round" d="M 25966,1419 L 25966,1669 26216,1669 26216,1419 25966,1419 Z"/>
 <path fill="rgb(0,69,134)" stroke="none" d="M 26468,1419 L 26468,1669 26718,1669 26718,1419 26468,1419 Z"/>
 <path fill="none" stroke="rgb(0,69,134)" stroke-linejoin="round" d="M 26468,1419 L 26468,1669 26718,1669 26718,1419 26468,1419 Z"/>
 <path fill="rgb(0,69,134)" stroke="none" d="M 26970,1419 L 26970,1669 27220,1669 27220,1419 26970,1419 Z"/>
 <path fill="none" stroke="rgb(0,69,134)" stroke-linejoin="round" d="M 26970,1419 L 26970,1669 27220,1669 27220,1419 26970,1419 Z"/>
 <path fill="rgb(0,69,134)" stroke="none" d="M 27473,1419 L 27473,1669 27723,1669 27723,1419 27473,1419 Z"/>
 <path fill="none" stroke="rgb(0,69,134)" stroke-linejoin="round" d="M 27473,1419 L 27473,1669 27723,1669 27723,1419 27473,1419 Z"/>
 <path fill="rgb(0,69,134)" stroke="none" d="M 27975,1419 L 27975,1669 28225,1669 28225,1419 27975,1419 Z"/>
 <path fill="none" stroke="rgb(0,69,134)" stroke-linejoin="round" d="M 27975,1419 L 27975,1669 28225,1669 28225,1419 27975,1419 Z"/>
 <path fill="rgb(0,69,134)" stroke="none" d="M 28478,1419 L 28478,1669 28728,1669 28728,1419 28478,1419 Z"/>
 <path fill="none" stroke="rgb(0,69,134)" stroke-linejoin="round" d="M 28478,1419 L 28478,1669 28728,1669 28728,1419 28478,1419 Z"/>
 <path fill="rgb(0,69,134)" stroke="none" d="M 28980,1419 L 28980,1669 29230,1669 29230,1419 28980,1419 Z"/>
 <path fill="none" stroke="rgb(0,69,134)" stroke-linejoin="round" d="M 28980,1419 L 28980,1669 29230,1669 29230,1419 28980,1419 Z"/>
 <path fill="rgb(0,69,134)" stroke="none" d="M 29483,1419 L 29483,1669 29733,1669 29733,1419 29483,1419 Z"/>
 <path fill="none" stroke="rgb(0,69,134)" stroke-linejoin="round" d="M 29483,1419 L 29483,1669 29733,1669 29733,1419 29483,1419 Z"/>
 <path fill="rgb(0,69,134)" stroke="none" d="M 29985,1419 L 29985,1669 30235,1669 30235,1419 29985,1419 Z"/>
 <path fill="none" stroke="rgb(0,69,134)" stroke-linejoin="round" d="M 29985,1419 L 29985,1669 30235,1669 30235,1419 29985,1419 Z"/>
 <path fill="rgb(0,69,134)" stroke="none" d="M 30488,1419 L 30488,1669 30738,1669 30738,1419 30488,1419 Z"/>
 <path fill="none" stroke="rgb(0,69,134)" stroke-linejoin="round" d="M 30488,1419 L 30488,1669 30738,1669 30738,1419 30488,1419 Z"/>
 <path fill="rgb(0,69,134)" stroke="none" d="M 30990,1419 L 30990,1669 31240,1669 31240,1419 30990,1419 Z"/>
 <path fill="none" stroke="rgb(0,69,134)" stroke-linejoin="round" d="M 30990,1419 L 30990,1669 31240,1669 31240,1419 30990,1419 Z"/>
 <path fill="rgb(0,69,134)" stroke="none" d="M 31493,1419 L 31493,1669 31743,1669 31743,1419 31493,1419 Z"/>
 <path fill="none" stroke="rgb(0,69,134)" stroke-linejoin="round" d="M 31493,1419 L 31493,1669 31743,1669 31743,1419 31493,1419 Z"/>
 <path fill="rgb(0,69,134)" stroke="none" d="M 31995,1419 L 31995,1669 32245,1669 32245,1419 31995,1419 Z"/>
 <path fill="none" stroke="rgb(0,69,134)" stroke-linejoin="round" d="M 31995,1419 L 31995,1669 32245,1669 32245,1419 31995,1419 Z"/>
 <path fill="rgb(0,69,134)" stroke="none" d="M 32498,1419 L 32498,1669 32748,1669 32748,1419 32498,1419 Z"/>
 <path fill="none" stroke="rgb(0,69,134)" stroke-linejoin="round" d="M 32498,1419 L 32498,1669 32748,1669 32748,1419 32498,1419 Z"/>
 <path fill="rgb(0,69,134)" stroke="none" d="M 33000,1419 L 33000,1669 33250,1669 33250,1419 33000,1419 Z"/>
 <path fill="none" stroke="rgb(0,69,134)" stroke-linejoin="round" d="M 33000,1419 L 33000,1669 33250,1669 33250,1419 33000,1419 Z"/>
 <path fill="rgb(0,69,134)" stroke="none" d="M 33503,1419 L 33503,1669 33753,1669 33753,1419 33503,1419 Z"/>
 <path fill="none" stroke="rgb(0,69,134)" stroke-linejoin="round" d="M 33503,1419 L 33503,1669 33753,1669 33753,1419 33503,1419 Z"/>
 <path fill="rgb(0,69,134)" stroke="none" d="M 34005,1419 L 34005,1669 34255,1669 34255,1419 34005,1419 Z"/>
 <path fill="none" stroke="rgb(0,69,134)" stroke-linejoin="round" d="M 34005,1419 L 34005,1669 34255,1669 34255,1419 34005,1419 Z"/>
 <path fill="rgb(0,69,134)" stroke="none" d="M 34508,1419 L 34508,1669 34758,1669 34758,1419 34508,1419 Z"/>
 <path fill="none" stroke="rgb(0,69,134)" stroke-linejoin="round" d="M 34508,1419 L 34508,1669 34758,1669 34758,1419 34508,1419 Z"/>
 <path fill="rgb(0,69,134)" stroke="none" d="M 35010,1419 L 35010,1669 35260,1669 35260,1419 35010,1419 Z"/>
 <path fill="none" stroke="rgb(0,69,134)" stroke-linejoin="round" d="M 35010,1419 L 35010,1669 35260,1669 35260,1419 35010,1419 Z"/>
 <path fill="rgb(0,69,134)" stroke="none" d="M 35513,1419 L 35513,1669 35763,1669 35763,1419 35513,1419 Z"/>
 <path fill="none" stroke="rgb(0,69,134)" stroke-linejoin="round" d="M 35513,1419 L 35513,1669 35763,1669 35763,1419 35513,1419 Z"/>
 <path fill="rgb(0,69,134)" stroke="none" d="M 36016,1419 L 36016,1669 36266,1669 36266,1419 36016,1419 Z"/>
 <path fill="none" stroke="rgb(0,69,134)" stroke-linejoin="round" d="M 36016,1419 L 36016,1669 36266,1669 36266,1419 36016,1419 Z"/>
 <path fill="rgb(0,69,134)" stroke="none" d="M 36518,1419 L 36518,1669 36768,1669 36768,1419 36518,1419 Z"/>
 <path fill="none" stroke="rgb(0,69,134)" stroke-linejoin="round" d="M 36518,1419 L 36518,1669 36768,1669 36768,1419 36518,1419 Z"/>
 <path fill="rgb(0,69,134)" stroke="none" d="M 37021,1419 L 37021,1669 37271,1669 37271,1419 37021,1419 Z"/>
 <path fill="none" stroke="rgb(0,69,134)" stroke-linejoin="round" d="M 37021,1419 L 37021,1669 37271,1669 37271,1419 37021,1419 Z"/>
 <path fill="rgb(0,69,134)" stroke="none" d="M 37523,1419 L 37523,1669 37773,1669 37773,1419 37523,1419 Z"/>
 <path fill="none" stroke="rgb(0,69,134)" stroke-linejoin="round" d="M 37523,1419 L 37523,1669 37773,1669 37773,1419 37523,1419 Z"/>
 <path fill="rgb(0,69,134)" stroke="none" d="M 38026,1419 L 38026,1669 38276,1669 38276,1419 38026,1419 Z"/>
 <path fill="none" stroke="rgb(0,69,134)" stroke-linejoin="round" d="M 38026,1419 L 38026,1669 38276,1669 38276,1419 38026,1419 Z"/>
 <path fill="rgb(0,69,134)" stroke="none" d="M 38528,1419 L 38528,1669 38778,1669 38778,1419 38528,1419 Z"/>
 <path fill="none" stroke="rgb(0,69,134)" stroke-linejoin="round" d="M 38528,1419 L 38528,1669 38778,1669 38778,1419 38528,1419 Z"/>
 <path fill="rgb(0,69,134)" stroke="none" d="M 39031,1419 L 39031,1669 39281,1669 39281,1419 39031,1419 Z"/>
 <path fill="none" stroke="rgb(0,69,134)" stroke-linejoin="round" d="M 39031,1419 L 39031,1669 39281,1669 39281,1419 39031,1419 Z"/>
 <path fill="rgb(0,69,134)" stroke="none" d="M 39533,1419 L 39533,1669 39783,1669 39783,1419 39533,1419 Z"/>
 <path fill="none" stroke="rgb(0,69,134)" stroke-linejoin="round" d="M 39533,1419 L 39533,1669 39783,1669 39783,1419 39533,1419 Z"/>
 <path fill="rgb(0,69,134)" stroke="none" d="M 40036,1419 L 40036,1669 40286,1669 40286,1419 40036,1419 Z"/>
 <path fill="none" stroke="rgb(0,69,134)" stroke-linejoin="round" d="M 40036,1419 L 40036,1669 40286,1669 40286,1419 40036,1419 Z"/>
 <path fill="rgb(0,69,134)" stroke="none" d="M 40538,1419 L 40538,1669 40788,1669 40788,1419 40538,1419 Z"/>
 <path fill="none" stroke="rgb(0,69,134)" stroke-linejoin="round" d="M 40538,1419 L 40538,1669 40788,1669 40788,1419 40538,1419 Z"/>
 <path fill="rgb(0,69,134)" stroke="none" d="M 41041,1419 L 41041,1669 41291,1669 41291,1419 41041,1419 Z"/>
 <path fill="none" stroke="rgb(0,69,134)" stroke-linejoin="round" d="M 41041,1419 L 41041,1669 41291,1669 41291,1419 41041,1419 Z"/>
 <path fill="rgb(0,69,134)" stroke="none" d="M 41543,1419 L 41543,1669 41793,1669 41793,1419 41543,1419 Z"/>
 <path fill="none" stroke="rgb(0,69,134)" stroke-linejoin="round" d="M 41543,1419 L 41543,1669 41793,1669 41793,1419 41543,1419 Z"/>
 <path fill="rgb(0,69,134)" stroke="none" d="M 42046,1419 L 42046,1669 42296,1669 42296,1419 42046,1419 Z"/>
 <path fill="none" stroke="rgb(0,69,134)" stroke-linejoin="round" d="M 42046,1419 L 42046,1669 42296,1669 42296,1419 42046,1419 Z"/>
 <path fill="rgb(0,69,134)" stroke="none" d="M 42548,1419 L 42548,1669 42798,1669 42798,1419 42548,1419 Z"/>
 <path fill="none" stroke="rgb(0,69,134)" stroke-linejoin="round" d="M 42548,1419 L 42548,1669 42798,1669 42798,1419 42548,1419 Z"/>
 <path fill="rgb(0,69,134)" stroke="none" d="M 43051,1419 L 43051,1669 43301,1669 43301,1419 43051,1419 Z"/>
 <path fill="none" stroke="rgb(0,69,134)" stroke-linejoin="round" d="M 43051,1419 L 43051,1669 43301,1669 43301,1419 43051,1419 Z"/>
 <path fill="rgb(0,69,134)" stroke="none" d="M 43553,1419 L 43553,1669 43803,1669 43803,1419 43553,1419 Z"/>
 <path fill="none" stroke="rgb(0,69,134)" stroke-linejoin="round" d="M 43553,1419 L 43553,1669 43803,1669 43803,1419 43553,1419 Z"/>
 <path fill="rgb(0,69,134)" stroke="none" d="M 44056,1419 L 44056,1669 44306,1669 44306,1419 44056,1419 Z"/>
 <path fill="none" stroke="rgb(0,69,134)" stroke-linejoin="round" d="M 44056,1419 L 44056,1669 44306,1669 44306,1419 44056,1419 Z"/>
 <path fill="rgb(0,69,134)" stroke="none" d="M 44559,1419 L 44559,1669 44809,1669 44809,1419 44559,1419 Z"/>
 <path fill="none" stroke="rgb(0,69,134)" stroke-linejoin="round" d="M 44559,1419 L 44559,1669 44809,1669 44809,1419 44559,1419 Z"/>
 <path fill="rgb(0,69,134)" stroke="none" d="M 45061,1419 L 45061,1669 45311,1669 45311,1419 45061,1419 Z"/>
 <path fill="none" stroke="rgb(0,69,134)" stroke-linejoin="round" d="M 45061,1419 L 45061,1669 45311,1669 45311,1419 45061,1419 Z"/>
 <path fill="rgb(0,69,134)" stroke="none" d="M 45564,1419 L 45564,1669 45814,1669 45814,1419 45564,1419 Z"/>
 <path fill="none" stroke="rgb(0,69,134)" stroke-linejoin="round" d="M 45564,1419 L 45564,1669 45814,1669 45814,1419 45564,1419 Z"/>
 <path fill="rgb(0,69,134)" stroke="none" d="M 46066,1419 L 46066,1669 46316,1669 46316,1419 46066,1419 Z"/>
 <path fill="none" stroke="rgb(0,69,134)" stroke-linejoin="round" d="M 46066,1419 L 46066,1669 46316,1669 46316,1419 46066,1419 Z"/>
 <path fill="rgb(0,69,134)" stroke="none" d="M 46569,1419 L 46569,1669 46819,1669 46819,1419 46569,1419 Z"/>
 <path fill="none" stroke="rgb(0,69,134)" stroke-linejoin="round" d="M 46569,1419 L 46569,1669 46819,1669 46819,1419 46569,1419 Z"/>
 <path fill="rgb(0,69,134)" stroke="none" d="M 47071,1419 L 47071,1669 47321,1669 47321,1419 47071,1419 Z"/>
 <path fill="none" stroke="rgb(0,69,134)" stroke-linejoin="round" d="M 47071,1419 L 47071,1669 47321,1669 47321,1419 47071,1419 Z"/>
 <path fill="rgb(0,69,134)" stroke="none" d="M 47574,1419 L 47574,1669 47824,1669 47824,1419 47574,1419 Z"/>
 <path fill="none" stroke="rgb(0,69,134)" stroke-linejoin="round" d="M 47574,1419 L 47574,1669 47824,1669 47824,1419 47574,1419 Z"/>
 <path fill="rgb(0,69,134)" stroke="none" d="M 48076,1419 L 48076,1669 48326,1669 48326,1419 48076,1419 Z"/>
 <path fill="none" stroke="rgb(0,69,134)" stroke-linejoin="round" d="M 48076,1419 L 48076,1669 48326,1669 48326,1419 48076,1419 Z"/>
 <path fill="rgb(0,69,134)" stroke="none" d="M 48579,1419 L 48579,1669 48829,1669 48829,1419 48579,1419 Z"/>
 <path fill="none" stroke="rgb(0,69,134)" stroke-linejoin="round" d="M 48579,1419 L 48579,1669 48829,1669 48829,1419 48579,1419 Z"/>
 <path fill="rgb(0,69,134)" stroke="none" d="M 49081,1419 L 49081,1669 49331,1669 49331,1419 49081,1419 Z"/>
 <path fill="none" stroke="rgb(0,69,134)" stroke-linejoin="round" d="M 49081,1419 L 49081,1669 49331,1669 49331,1419 49081,1419 Z"/>
 <path fill="rgb(0,69,134)" stroke="none" d="M 49584,1419 L 49584,1669 49834,1669 49834,1419 49584,1419 Z"/>
 <path fill="none" stroke="rgb(0,69,134)" stroke-linejoin="round" d="M 49584,1419 L 49584,1669 49834,1669 49834,1419 49584,1419 Z"/>
 <path fill="rgb(0,69,134)" stroke="none" d="M 50086,1419 L 50086,1669 50336,1669 50336,1419 50086,1419 Z"/>
 <path fill="none" stroke="rgb(0,69,134)" stroke-linejoin="round" d="M 50086,1419 L 50086,1669 50336,1669 50336,1419 50086,1419 Z"/>
 <path fill="rgb(0,69,134)" stroke="none" d="M 50589,1419 L 50589,1669 50839,1669 50839,1419 50589,1419 Z"/>
 <path fill="none" stroke="rgb(0,69,134)" stroke-linejoin="round" d="M 50589,1419 L 50589,1669 50839,1669 50839,1419 50589,1419 Z"/>
 <path fill="rgb(0,69,134)" stroke="none" d="M 51091,1419 L 51091,1669 51341,1669 51341,1419 51091,1419 Z"/>
 <path fill="none" stroke="rgb(0,69,134)" stroke-linejoin="round" d="M 51091,1419 L 51091,1669 51341,1669 51341,1419 51091,1419 Z"/>
 <path fill="rgb(0,69,134)" stroke="none" d="M 51594,1419 L 51594,1669 51844,1669 51844,1419 51594,1419 Z"/>
 <path fill="none" stroke="rgb(0,69,134)" stroke-linejoin="round" d="M 51594,1419 L 51594,1669 51844,1669 51844,1419 51594,1419 Z"/>
 <path fill="rgb(0,69,134)" stroke="none" d="M 52097,1419 L 52097,1669 52347,1669 52347,1419 52097,1419 Z"/>
 <path fill="none" stroke="rgb(0,69,134)" stroke-linejoin="round" d="M 52097,1419 L 52097,1669 52347,1669 52347,1419 52097,1419 Z"/>
 <text class="SVGTextShape"><tspan class="TextParagraph" font-family="Liberation Sans, sans-serif" font-size="353px" font-weight="400"><tspan class="TextPosition" x="1877" y="2112"><tspan fill="rgb(0,0,0)" stroke="none" style="white-space: pre">0</tspan></tspan></tspan></text>
 <text class="SVGTextShape"><tspan class="TextParagraph" font-family="Liberation Sans, sans-serif" font-size="353px" font-weight="400"><tspan class="TextPosition" x="6810" y="2112"><tspan fill="rgb(0,0,0)" stroke="none" style="white-space: pre">10</tspan></tspan></tspan></text>
 <text class="SVGTextShape"><tspan class="TextParagraph" font-family="Liberation Sans, sans-serif" font-size="353px" font-weight="400"><tspan class="TextPosition" x="11835" y="2112"><tspan fill="rgb(0,0,0)" stroke="none" style="white-space: pre">20</tspan></tspan></tspan></text>
 <text class="SVGTextShape"><tspan class="TextParagraph" font-family="Liberation Sans, sans-serif" font-size="353px" font-weight="400"><tspan class="TextPosition" x="16860" y="2112"><tspan fill="rgb(0,0,0)" stroke="none" style="white-space: pre">30</tspan></tspan></tspan></text>
 <text class="SVGTextShape"><tspan class="TextParagraph" font-family="Liberation Sans, sans-serif" font-size="353px" font-weight="400"><tspan class="TextPosition" x="21886" y="2112"><tspan fill="rgb(0,0,0)" stroke="none" style="white-space: pre">40</tspan></tspan></tspan></text>
 <text class="SVGTextShape"><tspan class="TextParagraph" font-family="Liberation Sans, sans-serif" font-size="353px" font-weight="400"><tspan class="TextPosition" x="26911" y="2112"><tspan fill="rgb(0,0,0)" stroke="none" style="white-space: pre">50</tspan></tspan></tspan></text>
 <text class="SVGTextShape"><tspan class="TextParagraph" font-family="Liberation Sans, sans-serif" font-size="353px" font-weight="400"><tspan class="TextPosition" x="31936" y="2112"><tspan fill="rgb(0,0,0)" stroke="none" style="white-space: pre">60</tspan></tspan></tspan></text>
 <text class="SVGTextShape"><tspan class="TextParagraph" font-family="Liberation Sans, sans-serif" font-size="353px" font-weight="400"><tspan class="TextPosition" x="36962" y="2112"><tspan fill="rgb(0,0,0)" stroke="none" style="white-space: pre">70</tspan></tspan></tspan></text>
 <text class="SVGTextShape"><tspan class="TextParagraph" font-family="Liberation Sans, sans-serif" font-size="353px" font-weight="400"><tspan class="TextPosition" x="41987" y="2112"><tspan fill="rgb(0,0,0)" stroke="none" style="white-space: pre">80</tspan></tspan></tspan></text>
 <text class="SVGTextShape"><tspan class="TextParagraph" font-family="Liberation Sans, sans-serif" font-size="353px" font-weight="400"><tspan class="TextPosition" x="47012" y="2112"><tspan fill="rgb(0,0,0)" stroke="none" style="white-space: pre">90</tspan></tspan></tspan></text>
 <text class="SVGTextShape"><tspan class="TextParagraph" font-family="Liberation Sans, sans-serif" font-size="353px" font-weight="400"><tspan class="TextPosition" x="51945" y="2112"><tspan fill="rgb(0,0,0)" stroke="none" style="white-space: pre">100</tspan></tspan></tspan></text>
 <text class="SVGTextShape"><tspan class="TextParagraph" font-family="Liberation Sans, sans-serif" font-size="353px" font-weight="400"><tspan class="TextPosition" x="1059" y="8733"><tspan fill="rgb(0,0,0)" stroke="none" style="white-space: pre">-120</tspan></tspan></tspan></text>
 <text class="SVGTextShape"><tspan class="TextParagraph" font-family="Liberation Sans, sans-serif" font-size="353px" font-weight="400"><tspan class="TextPosition" x="1059" y="7554"><tspan fill="rgb(0,0,0)" stroke="none" style="white-space: pre">-100</tspan></tspan></tspan></text>
 <text class="SVGTextShape"><tspan class="TextParagraph" font-family="Liberation Sans, sans-serif" font-size="353px" font-weight="400"><tspan class="TextPosition" x="1244" y="6376"><tspan fill="rgb(0,0,0)" stroke="none" style="white-space: pre">-80</tspan></tspan></tspan></text>
 <text class="SVGTextShape"><tspan class="TextParagraph" font-family="Liberation Sans, sans-serif" font-size="353px" font-weight="400"><tspan class="TextPosition" x="1244" y="5198"><tspan fill="rgb(0,0,0)" stroke="none" style="white-space: pre">-60</tspan></tspan></tspan></text>
 <text class="SVGTextShape"><tspan class="TextParagraph" font-family="Liberation Sans, sans-serif" font-size="353px" font-weight="400"><tspan class="TextPosition" x="1244" y="4020"><tspan fill="rgb(0,0,0)" stroke="none" style="white-space: pre">-40</tspan></tspan></tspan></text>
 <text class="SVGTextShape"><tspan class="TextParagraph" font-family="Liberation Sans, sans-serif" font-size="353px" font-weight="400"><tspan class="TextPosition" x="1244" y="2842"><tspan fill="rgb(0,0,0)" stroke="none" style="white-space: pre">-20</tspan></tspan></tspan></text>
 <text class="SVGTextShape"><tspan class="TextParagraph" font-family="Liberation Sans, sans-serif" font-size="353px" font-weight="400"><tspan class="TextPosition" x="1535" y="1664"><tspan fill="rgb(0,0,0)" stroke="none" style="white-space: pre">0</tspan></tspan></tspan></text>
 <text class="SVGTextShape"><tspan class="TextParagraph" font-family="Liberation Sans, sans-serif" font-size="353px" font-weight="400"><tspan class="TextPosition" x="1350" y="485"><tspan fill="rgb(0,0,0)" stroke="none" style="white-space: pre">20</tspan></tspan></tspan></text>
</svg>