<?xml version="1.0" encoding="UTF-8"?>
<!DOCTYPE svg PUBLIC "-//W3C//DTD SVG 1.1//EN" "http://www.w3.org/Graphics/SVG/1.1/DTD/svg11.dtd">
<svg width="599mm" height="90mm" viewBox="0 0 59900 9000" version="1.1" xmlns="http://www.w3.org/2000/svg" xmlns:xlink="http://www.w3.org/1999/xlink" stroke-width="28.222" stroke-linejoin="round" xml:space="preserve">
 <path fill="rgb(255,255,255)" stroke="none" d="M 29907,8992 L -13,8992 -13,-13 59827,-13 59827,8992 29907,8992 Z"/>
 <path fill="none" stroke="rgb(179,179,179)" stroke-linejoin="round" d="M 30131,8613 L 1910,8613 1910,366 58352,366 58352,8613 30131,8613 Z"/>
 <path fill="none" stroke="rgb(179,179,179)" stroke-linejoin="round" d="M 58352,8612 L 1910,8612"/>
 <path fill="none" stroke="rgb(179,179,179)" stroke-linejoin="round" d="M 58352,7237 L 1910,7237"/>
 <path fill="none" stroke="rgb(179,179,179)" stroke-linejoin="round" d="M 58352,5862 L 1910,5862"/>
 <path fill="none" stroke="rgb(179,179,179)" stroke-linejoin="round" d="M 58352,4489 L 1910,4489"/>
 <path fill="none" stroke="rgb(179,179,179)" stroke-linejoin="round" d="M 58352,3114 L 1910,3114"/>
 <path fill="none" stroke="rgb(179,179,179)" stroke-linejoin="round" d="M 58352,1739 L 1910,1739"/>
 <path fill="none" stroke="rgb(179,179,179)" stroke-linejoin="round" d="M 58352,365 L 1910,365"/>
 <path fill="none" stroke="rgb(179,179,179)" stroke-linejoin="round" d="M 1910,4638 L 1910,4489"/>
 <path fill="none" stroke="rgb(179,179,179)" stroke-linejoin="round" d="M 1910,4638 L 1910,4489"/>
 <path fill="none" stroke="rgb(179,179,179)" stroke-linejoin="round" d="M 7554,4638 L 7554,4489"/>
 <path fill="none" stroke="rgb(179,179,179)" stroke-linejoin="round" d="M 7554,4638 L 7554,4489"/>
 <path fill="none" stroke="rgb(179,179,179)" stroke-linejoin="round" d="M 13198,4638 L 13198,4489"/>
 <path fill="none" stroke="rgb(179,179,179)" stroke-linejoin="round" d="M 13198,4638 L 13198,4489"/>
 <path fill="none" stroke="rgb(179,179,179)" stroke-linejoin="round" d="M 18842,4638 L 18842,4489"/>
 <path fill="none" stroke="rgb(179,179,179)" stroke-linejoin="round" d="M 18842,4638 L 18842,4489"/>
 <path fill="none" stroke="rgb(179,179,179)" stroke-linejoin="round" d="M 24487,4638 L 24487,4489"/>
 <path fill="none" stroke="rgb(179,179,179)" stroke-linejoin="round" d="M 24487,4638 L 24487,4489"/>
 <path fill="none" stroke="rgb(179,179,179)" stroke-linejoin="round" d="M 30130,4638 L 30130,4489"/>
 <path fill="none" stroke="rgb(179,179,179)" stroke-linejoin="round" d="M 30130,4638 L 30130,4489"/>
 <path fill="none" stroke="rgb(179,179,179)" stroke-linejoin="round" d="M 35774,4638 L 35774,4489"/>
 <path fill="none" stroke="rgb(179,179,179)" stroke-linejoin="round" d="M 35774,4638 L 35774,4489"/>
 <path fill="none" stroke="rgb(179,179,179)" stroke-linejoin="round" d="M 41419,4638 L 41419,4489"/>
 <path fill="none" stroke="rgb(179,179,179)" stroke-linejoin="round" d="M 41419,4638 L 41419,4489"/>
 <path fill="none" stroke="rgb(179,179,179)" stroke-linejoin="round" d="M 47063,4638 L 47063,4489"/>
 <path fill="none" stroke="rgb(179,179,179)" stroke-linejoin="round" d="M 47063,4638 L 47063,4489"/>
 <path fill="none" stroke="rgb(179,179,179)" stroke-linejoin="round" d="M 52707,4638 L 52707,4489"/>
 <path fill="none" stroke="rgb(179,179,179)" stroke-linejoin="round" d="M 52707,4638 L 52707,4489"/>
 <path fill="none" stroke="rgb(179,179,179)" stroke-linejoin="round" d="M 58352,4638 L 58352,4489"/>
 <path fill="none" stroke="rgb(179,179,179)" stroke-linejoin="round" d="M 58352,4638 L 58352,4489"/>
 <path fill="none" stroke="rgb(179,179,179)" stroke-linejoin="round" d="M 1910,4489 L 58352,4489"/>
 <path fill="none" stroke="rgb(179,179,179)" stroke-linejoin="round" d="M 1760,8612 L 1910,8612"/>
 <path fill="none" stroke="rgb(179,179,179)" stroke-linejoin="round" d="M 1760,8612 L 1910,8612"/>
 <path fill="none" stroke="rgb(179,179,179)" stroke-linejoin="round" d="M 1760,7237 L 1910,7237"/>
 <path fill="none" stroke="rgb(179,179,179)" stroke-linejoin="round" d="M 1760,7237 L 1910,7237"/>
 <path fill="none" stroke="rgb(179,179,179)" stroke-linejoin="round" d="M 1760,5862 L 1910,5862"/>
 <path fill="none" stroke="rgb(179,179,179)" stroke-linejoin="round" d="M 1760,5862 L 1910,5862"/>
 <path fill="none" stroke="rgb(179,179,179)" stroke-linejoin="round" d="M 1760,4489 L 1910,4489"/>
 <path fill="none" stroke="rgb(179,179,179)" stroke-linejoin="round" d="M 1760,4489 L 1910,4489"/>
 <path fill="none" stroke="rgb(179,179,179)" stroke-linejoin="round" d="M 1760,3114 L 1910,3114"/>
 <path fill="none" stroke="rgb(179,179,179)" stroke-linejoin="round" d="M 1760,3114 L 1910,3114"/>
 <path fill="none" stroke="rgb(179,179,179)" stroke-linejoin="round" d="M 1760,1739 L 1910,1739"/>
 <path fill="none" stroke="rgb(179,179,179)" stroke-linejoin="round" d="M 1760,1739 L 1910,1739"/>
 <path fill="none" stroke="rgb(179,179,179)" stroke-linejoin="round" d="M 1760,365 L 1910,365"/>
 <path fill="none" stroke="rgb(179,179,179)" stroke-linejoin="round" d="M 1760,365 L 1910,365"/>
 <path fill="none" stroke="rgb(179,179,179)" stroke-linejoin="round" d="M 1910,8612 L 1910,365"/>
 <path fill="none" stroke="rgb(0,69,134)" stroke-width="80" stroke-linejoin="round" d="M 1910,4489 L 2474,4489 3038,4489 3603,7924 4167,4489 4732,4489 5296,4489 5861,4489 6425,4489 6989,4489 7554,4489 8118,4489 8683,4489 9247,4489 9812,4489 10376,4489 10940,4489 11505,4489 12069,4489 12634,4489 13198,4489 13763,4489 14327,4489 14891,4489 15456,4489 16020,4489 16585,4489 17149,4489 17714,4489 18278,4489 18842,4489 19407,4489 19971,4489 20536,4489 21100,4488 21665,4489 22229,4488 22793,4489 23358,4489 23922,4489 24487,4489 25051,4489 25616,4489 26180,4489 26744,4489 27309,4489 27873,4489 28438,4489 29002,4489 29567,4489 30130,4489 30694,4489 31259,4489 31823,4489 32388,4489 32952,4489 33517,4489 34081,4489 34645,4489 35210,4489 35774,4489 36339,4489 36903,4489 37468,4489 38032,4489 38596,4489 39161,4489 39725,4489 40290,4489 40854,4489 41419,4489 41983,4489 42547,4489 43112,4489 43676,4489 44241,4489 44805,4489 45370,4489 45934,4489 46498,4489 47063,4489 47627,4489 48192,4489 48756,4489 49321,4489 49885,4489 50449,4489 51014,4489 51578,4489 52143,4488 52707,4489 53272,4489 53836,4489 54400,4489 54965,4489 55529,4488 56094,4488 56658,1052 57223,4489 57787,4489"/>
 <path fill="rgb(0,69,134)" stroke="none" d="M 1785,4364 L 1785,4613 2035,4613 2035,4364 1785,4364 Z"/>
 <path fill="none" stroke="rgb(0,69,134)" stroke-linejoin="round" d="M 1785,4364 L 1785,4613 2035,4613 2035,4364 1785,4364 Z"/>
 <path fill="rgb(0,69,134)" stroke="none" d="M 2349,4364 L 2349,4613 2599,4613 2599,4364 2349,4364 Z"/>
 <path fill="none" stroke="rgb(0,69,134)" stroke-linejoin="round" d="M 2349,4364 L 2349,4613 2599,4613 2599,4364 2349,4364 Z"/>
 <path fill="rgb(0,69,134)" stroke="none" d="M 2913,4364 L 2913,4613 3163,4613 3163,4364 2913,4364 Z"/>
 <path fill="none" stroke="rgb(0,69,134)" stroke-linejoin="round" d="M 2913,4364 L 2913,4613 3163,4613 3163,4364 2913,4364 Z"/>
 <path fill="rgb(0,69,134)" stroke="none" d="M 3478,7799 L 3478,8049 3728,8049 3728,7799 3478,7799 Z"/>
 <path fill="none" stroke="rgb(0,69,134)" stroke-linejoin="round" d="M 3478,7799 L 3478,8049 3728,8049 3728,7799 3478,7799 Z"/>
 <path fill="rgb(0,69,134)" stroke="none" d="M 4042,4364 L 4042,4613 4292,4613 4292,4364 4042,4364 Z"/>
 <path fill="none" stroke="rgb(0,69,134)" stroke-linejoin="round" d="M 4042,4364 L 4042,4613 4292,4613 4292,4364 4042,4364 Z"/>
 <path fill="rgb(0,69,134)" stroke="none" d="M 4607,4364 L 4607,4613 4857,4613 4857,4364 4607,4364 Z"/>
 <path fill="none" stroke="rgb(0,69,134)" stroke-linejoin="round" d="M 4607,4364 L 4607,4613 4857,4613 4857,4364 4607,4364 Z"/>
 <path fill="rgb(0,69,134)" stroke="none" d="M 5171,4364 L 5171,4613 5421,4613 5421,4364 5171,4364 Z"/>
 <path fill="none" stroke="rgb(0,69,134)" stroke-linejoin="round" d="M 5171,4364 L 5171,4613 5421,4613 5421,4364 5171,4364 Z"/>
 <path fill="rgb(0,69,134)" stroke="none" d="M 5736,4364 L 5736,4613 5986,4613 5986,4364 5736,4364 Z"/>
 <path fill="none" stroke="rgb(0,69,134)" stroke-linejoin="round" d="M 5736,4364 L 5736,4613 5986,4613 5986,4364 5736,4364 Z"/>
 <path fill="rgb(0,69,134)" stroke="none" d="M 6300,4364 L 6300,4613 6550,4613 6550,4364 6300,4364 Z"/>
 <path fill="none" stroke="rgb(0,69,134)" stroke-linejoin="round" d="M 6300,4364 L 6300,4613 6550,4613 6550,4364 6300,4364 Z"/>
 <path fill="rgb(0,69,134)" stroke="none" d="M 6864,4364 L 6864,4613 7114,4613 7114,4364 6864,4364 Z"/>
 <path fill="none" stroke="rgb(0,69,134)" stroke-linejoin="round" d="M 6864,4364 L 6864,4613 7114,4613 7114,4364 6864,4364 Z"/>
 <path fill="rgb(0,69,134)" stroke="none" d="M 7429,4364 L 7429,4613 7679,4613 7679,4364 7429,4364 Z"/>
 <path fill="none" stroke="rgb(0,69,134)" stroke-linejoin="round" d="M 7429,4364 L 7429,4613 7679,4613 7679,4364 7429,4364 Z"/>
 <path fill="rgb(0,69,134)" stroke="none" d="M 7993,4364 L 7993,4613 8243,4613 8243,4364 7993,4364 Z"/>
 <path fill="none" stroke="rgb(0,69,134)" stroke-linejoin="round" d="M 7993,4364 L 7993,4613 8243,4613 8243,4364 7993,4364 Z"/>
 <path fill="rgb(0,69,134)" stroke="none" d="M 8558,4364 L 8558,4613 8808,4613 8808,4364 8558,4364 Z"/>
 <path fill="none" stroke="rgb(0,69,134)" stroke-linejoin="round" d="M 8558,4364 L 8558,4613 8808,4613 8808,4364 8558,4364 Z"/>
 <path fill="rgb(0,69,134)" stroke="none" d="M 9122,4364 L 9122,4613 9372,4613 9372,4364 9122,4364 Z"/>
 <path fill="none" stroke="rgb(0,69,134)" stroke-linejoin="round" d="M 9122,4364 L 9122,4613 9372,4613 9372,4364 9122,4364 Z"/>
 <path fill="rgb(0,69,134)" stroke="none" d="M 9687,4364 L 9687,4613 9937,4613 9937,4364 9687,4364 Z"/>
 <path fill="none" stroke="rgb(0,69,134)" stroke-linejoin="round" d="M 9687,4364 L 9687,4613 9937,4613 9937,4364 9687,4364 Z"/>
 <path fill="rgb(0,69,134)" stroke="none" d="M 10251,4364 L 10251,4613 10501,4613 10501,4364 10251,4364 Z"/>
 <path fill="none" stroke="rgb(0,69,134)" stroke-linejoin="round" d="M 10251,4364 L 10251,4613 10501,4613 10501,4364 10251,4364 Z"/>
 <path fill="rgb(0,69,134)" stroke="none" d="M 10815,4364 L 10815,4613 11065,4613 11065,4364 10815,4364 Z"/>
 <path fill="none" stroke="rgb(0,69,134)" stroke-linejoin="round" d="M 10815,4364 L 10815,4613 11065,4613 11065,4364 10815,4364 Z"/>
 <path fill="rgb(0,69,134)" stroke="none" d="M 11380,4364 L 11380,4613 11630,4613 11630,4364 11380,4364 Z"/>
 <path fill="none" stroke="rgb(0,69,134)" stroke-linejoin="round" d="M 11380,4364 L 11380,4613 11630,4613 11630,4364 11380,4364 Z"/>
 <path fill="rgb(0,69,134)" stroke="none" d="M 11944,4364 L 11944,4613 12194,4613 12194,4364 11944,4364 Z"/>
 <path fill="none" stroke="rgb(0,69,134)" stroke-linejoin="round" d="M 11944,4364 L 11944,4613 12194,4613 12194,4364 11944,4364 Z"/>
 <path fill="rgb(0,69,134)" stroke="none" d="M 12509,4364 L 12509,4613 12759,4613 12759,4364 12509,4364 Z"/>
 <path fill="none" stroke="rgb(0,69,134)" stroke-linejoin="round" d="M 12509,4364 L 12509,4613 12759,4613 12759,4364 12509,4364 Z"/>
 <path fill="rgb(0,69,134)" stroke="none" d="M 13073,4364 L 13073,4613 13323,4613 13323,4364 13073,4364 Z"/>
 <path fill="none" stroke="rgb(0,69,134)" stroke-linejoin="round" d="M 13073,4364 L 13073,4613 13323,4613 13323,4364 13073,4364 Z"/>
 <path fill="rgb(0,69,134)" stroke="none" d="M 13638,4364 L 13638,4613 13888,4613 13888,4364 13638,4364 Z"/>
 <path fill="none" stroke="rgb(0,69,134)" stroke-linejoin="round" d="M 13638,4364 L 13638,4613 13888,4613 13888,4364 13638,4364 Z"/>
 <path fill="rgb(0,69,134)" stroke="none" d="M 14202,4364 L 14202,4613 14452,4613 14452,4364 14202,4364 Z"/>
 <path fill="none" stroke="rgb(0,69,134)" stroke-linejoin="round" d="M 14202,4364 L 14202,4613 14452,4613 14452,4364 14202,4364 Z"/>
 <path fill="rgb(0,69,134)" stroke="none" d="M 14766,4364 L 14766,4613 15016,4613 15016,4364 14766,4364 Z"/>
 <path fill="none" stroke="rgb(0,69,134)" stroke-linejoin="round" d="M 14766,4364 L 14766,4613 15016,4613 15016,4364 14766,4364 Z"/>
 <path fill="rgb(0,69,134)" stroke="none" d="M 15331,4364 L 15331,4613 15581,4613 15581,4364 15331,4364 Z"/>
 <path fill="none" stroke="rgb(0,69,134)" stroke-linejoin="round" d="M 15331,4364 L 15331,4613 15581,4613 15581,4364 15331,4364 Z"/>
 <path fill="rgb(0,69,134)" stroke="none" d="M 15895,4364 L 15895,4613 16145,4613 16145,4364 15895,4364 Z"/>
 <path fill="none" stroke="rgb(0,69,134)" stroke-linejoin="round" d="M 15895,4364 L 15895,4613 16145,4613 16145,4364 15895,4364 Z"/>
 <path fill="rgb(0,69,134)" stroke="none" d="M 16460,4364 L 16460,4613 16710,4613 16710,4364 16460,4364 Z"/>
 <path fill="none" stroke="rgb(0,69,134)" stroke-linejoin="round" d="M 16460,4364 L 16460,4613 16710,4613 16710,4364 16460,4364 Z"/>
 <path fill="rgb(0,69,134)" stroke="none" d="M 17024,4364 L 17024,4613 17274,4613 17274,4364 17024,4364 Z"/>
 <path fill="none" stroke="rgb(0,69,134)" stroke-linejoin="round" d="M 17024,4364 L 17024,4613 17274,4613 17274,4364 17024,4364 Z"/>
 <path fill="rgb(0,69,134)" stroke="none" d="M 17589,4364 L 17589,4613 17839,4613 17839,4364 17589,4364 Z"/>
 <path fill="none" stroke="rgb(0,69,134)" stroke-linejoin="round" d="M 17589,4364 L 17589,4613 17839,4613 17839,4364 17589,4364 Z"/>
 <path fill="rgb(0,69,134)" stroke="none" d="M 18153,4364 L 18153,4613 18403,4613 18403,4364 18153,4364 Z"/>
 <path fill="none" stroke="rgb(0,69,134)" stroke-linejoin="round" d="M 18153,4364 L 18153,4613 18403,4613 18403,4364 18153,4364 Z"/>
 <path fill="rgb(0,69,134)" stroke="none" d="M 18717,4364 L 18717,4613 18967,4613 18967,4364 18717,4364 Z"/>
 <path fill="none" stroke="rgb(0,69,134)" stroke-linejoin="round" d="M 18717,4364 L 18717,4613 18967,4613 18967,4364 18717,4364 Z"/>
 <path fill="rgb(0,69,134)" stroke="none" d="M 19282,4364 L 19282,4613 19532,4613 19532,4364 19282,4364 Z"/>
 <path fill="none" stroke="rgb(0,69,134)" stroke-linejoin="round" d="M 19282,4364 L 19282,4613 19532,4613 19532,4364 19282,4364 Z"/>
 <path fill="rgb(0,69,134)" stroke="none" d="M 19846,4364 L 19846,4613 20096,4613 20096,4364 19846,4364 Z"/>
 <path fill="none" stroke="rgb(0,69,134)" stroke-linejoin="round" d="M 19846,4364 L 19846,4613 20096,4613 20096,4364 19846,4364 Z"/>
 <path fill="rgb(0,69,134)" stroke="none" d="M 20411,4364 L 20411,4613 20661,4613 20661,4364 20411,4364 Z"/>
 <path fill="none" stroke="rgb(0,69,134)" stroke-linejoin="round" d="M 20411,4364 L 20411,4613 20661,4613 20661,4364 20411,4364 Z"/>
 <path fill="rgb(0,69,134)" stroke="none" d="M 20975,4363 L 20975,4612 21225,4612 21225,4363 20975,4363 Z"/>
 <path fill="none" stroke="rgb(0,69,134)" stroke-linejoin="round" d="M 20975,4363 L 20975,4612 21225,4612 21225,4363 20975,4363 Z"/>
 <path fill="rgb(0,69,134)" stroke="none" d="M 21540,4364 L 21540,4613 21790,4613 21790,4364 21540,4364 Z"/>
 <path fill="none" stroke="rgb(0,69,134)" stroke-linejoin="round" d="M 21540,4364 L 21540,4613 21790,4613 21790,4364 21540,4364 Z"/>
 <path fill="rgb(0,69,134)" stroke="none" d="M 22104,4363 L 22104,4612 22354,4612 22354,4363 22104,4363 Z"/>
 <path fill="none" stroke="rgb(0,69,134)" stroke-linejoin="round" d="M 22104,4363 L 22104,4612 22354,4612 22354,4363 22104,4363 Z"/>
 <path fill="rgb(0,69,134)" stroke="none" d="M 22668,4364 L 22668,4613 22918,4613 22918,4364 22668,4364 Z"/>
 <path fill="none" stroke="rgb(0,69,134)" stroke-linejoin="round" d="M 22668,4364 L 22668,4613 22918,4613 22918,4364 22668,4364 Z"/>
 <path fill="rgb(0,69,134)" stroke="none" d="M 23233,4364 L 23233,4613 23483,4613 23483,4364 23233,4364 Z"/>
 <path fill="none" stroke="rgb(0,69,134)" stroke-linejoin="round" d="M 23233,4364 L 23233,4613 23483,4613 23483,4364 23233,4364 Z"/>
 <path fill="rgb(0,69,134)" stroke="none" d="M 23797,4364 L 23797,4613 24047,4613 24047,4364 23797,4364 Z"/>
 <path fill="none" stroke="rgb(0,69,134)" stroke-linejoin="round" d="M 23797,4364 L 23797,4613 24047,4613 24047,4364 23797,4364 Z"/>
 <path fill="rgb(0,69,134)" stroke="none" d="M 24362,4364 L 24362,4613 24612,4613 24612,4364 24362,4364 Z"/>
 <path fill="none" stroke="rgb(0,69,134)" stroke-linejoin="round" d="M 24362,4364 L 24362,4613 24612,4613 24612,4364 24362,4364 Z"/>
 <path fill="rgb(0,69,134)" stroke="none" d="M 24926,4364 L 24926,4613 25176,4613 25176,4364 24926,4364 Z"/>
 <path fill="none" stroke="rgb(0,69,134)" stroke-linejoin="round" d="M 24926,4364 L 24926,4613 25176,4613 25176,4364 24926,4364 Z"/>
 <path fill="rgb(0,69,134)" stroke="none" d="M 25491,4364 L 25491,4613 25741,4613 25741,4364 25491,4364 Z"/>
 <path fill="none" stroke="rgb(0,69,134)" stroke-linejoin="round" d="M 25491,4364 L 25491,4613 25741,4613 25741,4364 25491,4364 Z"/>
 <path fill="rgb(0,69,134)" stroke="none" d="M 26055,4364 L 26055,4613 26305,4613 26305,4364 26055,4364 Z"/>
 <path fill="none" stroke="rgb(0,69,134)" stroke-linejoin="round" d="M 26055,4364 L 26055,4613 26305,4613 26305,4364 26055,4364 Z"/>
 <path fill="rgb(0,69,134)" stroke="none" d="M 26619,4364 L 26619,4613 26869,4613 26869,4364 26619,4364 Z"/>
 <path fill="none" stroke="rgb(0,69,134)" stroke-linejoin="round" d="M 26619,4364 L 26619,4613 26869,4613 26869,4364 26619,4364 Z"/>
 <path fill="rgb(0,69,134)" stroke="none" d="M 27184,4364 L 27184,4613 27434,4613 27434,4364 27184,4364 Z"/>
 <path fill="none" stroke="rgb(0,69,134)" stroke-linejoin="round" d="M 27184,4364 L 27184,4613 27434,4613 27434,4364 27184,4364 Z"/>
 <path fill="rgb(0,69,134)" stroke="none" d="M 27748,4364 L 27748,4613 27998,4613 27998,4364 27748,4364 Z"/>
 <path fill="none" stroke="rgb(0,69,134)" stroke-linejoin="round" d="M 27748,4364 L 27748,4613 27998,4613 27998,4364 27748,4364 Z"/>
 <path fill="rgb(0,69,134)" stroke="none" d="M 28313,4364 L 28313,4613 28563,4613 28563,4364 28313,4364 Z"/>
 <path fill="none" stroke="rgb(0,69,134)" stroke-linejoin="round" d="M 28313,4364 L 28313,4613 28563,4613 28563,4364 28313,4364 Z"/>
 <path fill="rgb(0,69,134)" stroke="none" d="M 28877,4364 L 28877,4613 29127,4613 29127,4364 28877,4364 Z"/>
 <path fill="none" stroke="rgb(0,69,134)" stroke-linejoin="round" d="M 28877,4364 L 28877,4613 29127,4613 29127,4364 28877,4364 Z"/>
 <path fill="rgb(0,69,134)" stroke="none" d="M 29442,4364 L 29442,4613 29692,4613 29692,4364 29442,4364 Z"/>
 <path fill="none" stroke="rgb(0,69,134)" stroke-linejoin="round" d="M 29442,4364 L 29442,4613 29692,4613 29692,4364 29442,4364 Z"/>
 <path fill="rgb(0,69,134)" stroke="none" d="M 30005,4364 L 30005,4613 30255,4613 30255,4364 30005,4364 Z"/>
 <path fill="none" stroke="rgb(0,69,134)" stroke-linejoin="round" d="M 30005,4364 L 30005,4613 30255,4613 30255,4364 30005,4364 Z"/>
 <path fill="rgb(0,69,134)" stroke="none" d="M 30569,4364 L 30569,4613 30819,4613 30819,4364 30569,4364 Z"/>
 <path fill="none" stroke="rgb(0,69,134)" stroke-linejoin="round" d="M 30569,4364 L 30569,4613 30819,4613 30819,4364 30569,4364 Z"/>
 <path fill="rgb(0,69,134)" stroke="none" d="M 31134,4364 L 31134,4613 31384,4613 31384,4364 31134,4364 Z"/>
 <path fill="none" stroke="rgb(0,69,134)" stroke-linejoin="round" d="M 31134,4364 L 31134,4613 31384,4613 31384,4364 31134,4364 Z"/>
 <path fill="rgb(0,69,134)" stroke="none" d="M 31698,4364 L 31698,4613 31948,4613 31948,4364 31698,4364 Z"/>
 <path fill="none" stroke="rgb(0,69,134)" stroke-linejoin="round" d="M 31698,4364 L 31698,4613 31948,4613 31948,4364 31698,4364 Z"/>
 <path fill="rgb(0,69,134)" stroke="none" d="M 32263,4364 L 32263,4613 32513,4613 32513,4364 32263,4364 Z"/>
 <path fill="none" stroke="rgb(0,69,134)" stroke-linejoin="round" d="M 32263,4364 L 32263,4613 32513,4613 32513,4364 32263,4364 Z"/>
 <path fill="rgb(0,69,134)" stroke="none" d="M 32827,4364 L 32827,4613 33077,4613 33077,4364 32827,4364 Z"/>
 <path fill="none" stroke="rgb(0,69,134)" stroke-linejoin="round" d="M 32827,4364 L 32827,4613 33077,4613 33077,4364 32827,4364 Z"/>
 <path fill="rgb(0,69,134)" stroke="none" d="M 33392,4364 L 33392,4613 33642,4613 33642,4364 33392,4364 Z"/>
 <path fill="none" stroke="rgb(0,69,134)" stroke-linejoin="round" d="M 33392,4364 L 33392,4613 33642,4613 33642,4364 33392,4364 Z"/>
 <path fill="rgb(0,69,134)" stroke="none" d="M 33956,4364 L 33956,4613 34206,4613 34206,4364 33956,4364 Z"/>
 <path fill="none" stroke="rgb(0,69,134)" stroke-linejoin="round" d="M 33956,4364 L 33956,4613 34206,4613 34206,4364 33956,4364 Z"/>
 <path fill="rgb(0,69,134)" stroke="none" d="M 34520,4364 L 34520,4613 34770,4613 34770,4364 34520,4364 Z"/>
 <path fill="none" stroke="rgb(0,69,134)" stroke-linejoin="round" d="M 34520,4364 L 34520,4613 34770,4613 34770,4364 34520,4364 Z"/>
 <path fill="rgb(0,69,134)" stroke="none" d="M 35085,4364 L 35085,4613 35335,4613 35335,4364 35085,4364 Z"/>
 <path fill="none" stroke="rgb(0,69,134)" stroke-linejoin="round" d="M 35085,4364 L 35085,4613 35335,4613 35335,4364 35085,4364 Z"/>
 <path fill="rgb(0,69,134)" stroke="none" d="M 35649,4364 L 35649,4613 35899,4613 35899,4364 35649,4364 Z"/>
 <path fill="none" stroke="rgb(0,69,134)" stroke-linejoin="round" d="M 35649,4364 L 35649,4613 35899,4613 35899,4364 35649,4364 Z"/>
 <path fill="rgb(0,69,134)" stroke="none" d="M 36214,4364 L 36214,4613 36464,4613 36464,4364 36214,4364 Z"/>
 <path fill="none" stroke="rgb(0,69,134)" stroke-linejoin="round" d="M 36214,4364 L 36214,4613 36464,4613 36464,4364 36214,4364 Z"/>
 <path fill="rgb(0,69,134)" stroke="none" d="M 36778,4364 L 36778,4613 37028,4613 37028,4364 36778,4364 Z"/>
 <path fill="none" stroke="rgb(0,69,134)" stroke-linejoin="round" d="M 36778,4364 L 36778,4613 37028,4613 37028,4364 36778,4364 Z"/>
 <path fill="rgb(0,69,134)" stroke="none" d="M 37343,4364 L 37343,4613 37593,4613 37593,4364 37343,4364 Z"/>
 <path fill="none" stroke="rgb(0,69,134)" stroke-linejoin="round" d="M 37343,4364 L 37343,4613 37593,4613 37593,4364 37343,4364 Z"/>
 <path fill="rgb(0,69,134)" stroke="none" d="M 37907,4364 L 37907,4613 38157,4613 38157,4364 37907,4364 Z"/>
 <path fill="none" stroke="rgb(0,69,134)" stroke-linejoin="round" d="M 37907,4364 L 37907,4613 38157,4613 38157,4364 37907,4364 Z"/>
 <path fill="rgb(0,69,134)" stroke="none" d="M 38471,4364 L 38471,4613 38721,4613 38721,4364 38471,4364 Z"/>
 <path fill="none" stroke="rgb(0,69,134)" stroke-linejoin="round" d="M 38471,4364 L 38471,4613 38721,4613 38721,4364 38471,4364 Z"/>
 <path fill="rgb(0,69,134)" stroke="none" d="M 39036,4364 L 39036,4613 39286,4613 39286,4364 39036,4364 Z"/>
 <path fill="none" stroke="rgb(0,69,134)" stroke-linejoin="round" d="M 39036,4364 L 39036,4613 39286,4613 39286,4364 39036,4364 Z"/>
 <path fill="rgb(0,69,134)" stroke="none" d="M 39600,4364 L 39600,4613 39850,4613 39850,4364 39600,4364 Z"/>
 <path fill="none" stroke="rgb(0,69,134)" stroke-linejoin="round" d="M 39600,4364 L 39600,4613 39850,4613 39850,4364 39600,4364 Z"/>
 <path fill="rgb(0,69,134)" stroke="none" d="M 40165,4364 L 40165,4613 40415,4613 40415,4364 40165,4364 Z"/>
 <path fill="none" stroke="rgb(0,69,134)" stroke-linejoin="round" d="M 40165,4364 L 40165,4613 40415,4613 40415,4364 40165,4364 Z"/>
 <path fill="rgb(0,69,134)" stroke="none" d="M 40729,4364 L 40729,4613 40979,4613 40979,4364 40729,4364 Z"/>
 <path fill="none" stroke="rgb(0,69,134)" stroke-linejoin="round" d="M 40729,4364 L 40729,4613 40979,4613 40979,4364 40729,4364 Z"/>
 <path fill="rgb(0,69,134)" stroke="none" d="M 41294,4364 L 41294,4613 41544,4613 41544,4364 41294,4364 Z"/>
 <path fill="none" stroke="rgb(0,69,134)" stroke-linejoin="round" d="M 41294,4364 L 41294,4613 41544,4613 41544,4364 41294,4364 Z"/>
 <path fill="rgb(0,69,134)" stroke="none" d="M 41858,4364 L 41858,4613 42108,4613 42108,4364 41858,4364 Z"/>
 <path fill="none" stroke="rgb(0,69,134)" stroke-linejoin="round" d="M 41858,4364 L 41858,4613 42108,4613 42108,4364 41858,4364 Z"/>
 <path fill="rgb(0,69,134)" stroke="none" d="M 42422,4364 L 42422,4613 42672,4613 42672,4364 42422,4364 Z"/>
 <path fill="none" stroke="rgb(0,69,134)" stroke-linejoin="round" d="M 42422,4364 L 42422,4613 42672,4613 42672,4364 42422,4364 Z"/>
 <path fill="rgb(0,69,134)" stroke="none" d="M 42987,4364 L 42987,4613 43237,4613 43237,4364 42987,4364 Z"/>
 <path fill="none" stroke="rgb(0,69,134)" stroke-linejoin="round" d="M 42987,4364 L 42987,4613 43237,4613 43237,4364 42987,4364 Z"/>
 <path fill="rgb(0,69,134)" stroke="none" d="M 43551,4364 L 43551,4613 43801,4613 43801,4364 43551,4364 Z"/>
 <path fill="none" stroke="rgb(0,69,134)" stroke-linejoin="round" d="M 43551,4364 L 43551,4613 43801,4613 43801,4364 43551,4364 Z"/>
 <path fill="rgb(0,69,134)" stroke="none" d="M 44116,4364 L 44116,4613 44366,4613 44366,4364 44116,4364 Z"/>
 <path fill="none" stroke="rgb(0,69,134)" stroke-linejoin="round" d="M 44116,4364 L 44116,4613 44366,4613 44366,4364 44116,4364 Z"/>
 <path fill="rgb(0,69,134)" stroke="none" d="M 44680,4364 L 44680,4613 44930,4613 44930,4364 44680,4364 Z"/>
 <path fill="none" stroke="rgb(0,69,134)" stroke-linejoin="round" d="M 44680,4364 L 44680,4613 44930,4613 44930,4364 44680,4364 Z"/>
 <path fill="rgb(0,69,134)" stroke="none" d="M 45245,4364 L 45245,4613 45495,4613 45495,4364 45245,4364 Z"/>
 <path fill="none" stroke="rgb(0,69,134)" stroke-linejoin="round" d="M 45245,4364 L 45245,4613 45495,4613 45495,4364 45245,4364 Z"/>
 <path fill="rgb(0,69,134)" stroke="none" d="M 45809,4364 L 45809,4613 46059,4613 46059,4364 45809,4364 Z"/>
 <path fill="none" stroke="rgb(0,69,134)" stroke-linejoin="round" d="M 45809,4364 L 45809,4613 46059,4613 46059,4364 45809,4364 Z"/>
 <path fill="rgb(0,69,134)" stroke="none" d="M 46373,4364 L 46373,4613 46623,4613 46623,4364 46373,4364 Z"/>
 <path fill="none" stroke="rgb(0,69,134)" stroke-linejoin="round" d="M 46373,4364 L 46373,4613 46623,4613 46623,4364 46373,4364 Z"/>
 <path fill="rgb(0,69,134)" stroke="none" d="M 46938,4364 L 46938,4613 47188,4613 47188,4364 46938,4364 Z"/>
 <path fill="none" stroke="rgb(0,69,134)" stroke-linejoin="round" d="M 46938,4364 L 46938,4613 47188,4613 47188,4364 46938,4364 Z"/>
 <path fill="rgb(0,69,134)" stroke="none" d="M 47502,4364 L 47502,4613 47752,4613 47752,4364 47502,4364 Z"/>
 <path fill="none" stroke="rgb(0,69,134)" stroke-linejoin="round" d="M 47502,4364 L 47502,4613 47752,4613 47752,4364 47502,4364 Z"/>
 <path fill="rgb(0,69,134)" stroke="none" d="M 48067,4364 L 48067,4613 48317,4613 48317,4364 48067,4364 Z"/>
 <path fill="none" stroke="rgb(0,69,134)" stroke-linejoin="round" d="M 48067,4364 L 48067,4613 48317,4613 48317,4364 48067,4364 Z"/>
 <path fill="rgb(0,69,134)" stroke="none" d="M 48631,4364 L 48631,4613 48881,4613 48881,4364 48631,4364 Z"/>
 <path fill="none" stroke="rgb(0,69,134)" stroke-linejoin="round" d="M 48631,4364 L 48631,4613 48881,4613 48881,4364 48631,4364 Z"/>
 <path fill="rgb(0,69,134)" stroke="none" d="M 49196,4364 L 49196,4613 49446,4613 49446,4364 49196,4364 Z"/>
 <path fill="none" stroke="rgb(0,69,134)" stroke-linejoin="round" d="M 49196,4364 L 49196,4613 49446,4613 49446,4364 49196,4364 Z"/>
 <path fill="rgb(0,69,134)" stroke="none" d="M 49760,4364 L 49760,4613 50010,4613 50010,4364 49760,4364 Z"/>
 <path fill="none" stroke="rgb(0,69,134)" stroke-linejoin="round" d="M 49760,4364 L 49760,4613 50010,4613 50010,4364 49760,4364 Z"/>
 <path fill="rgb(0,69,134)" stroke="none" d="M 50324,4364 L 50324,4613 50574,4613 50574,4364 50324,4364 Z"/>
 <path fill="none" stroke="rgb(0,69,134)" stroke-linejoin="round" d="M 50324,4364 L 50324,4613 50574,4613 50574,4364 50324,4364 Z"/>
 <path fill="rgb(0,69,134)" stroke="none" d="M 50889,4364 L 50889,4613 51139,4613 51139,4364 50889,4364 Z"/>
 <path fill="none" stroke="rgb(0,69,134)" stroke-linejoin="round" d="M 50889,4364 L 50889,4613 51139,4613 51139,4364 50889,4364 Z"/>
 <path fill="rgb(0,69,134)" stroke="none" d="M 51453,4364 L 51453,4613 51703,4613 51703,4364 51453,4364 Z"/>
 <path fill="none" stroke="rgb(0,69,134)" stroke-linejoin="round" d="M 51453,4364 L 51453,4613 51703,4613 51703,4364 51453,4364 Z"/>
 <path fill="rgb(0,69,134)" stroke="none" d="M 52018,4363 L 52018,4612 52268,4612 52268,4363 52018,4363 Z"/>
 <path fill="none" stroke="rgb(0,69,134)" stroke-linejoin="round" d="M 52018,4363 L 52018,4612 52268,4612 52268,4363 52018,4363 Z"/>
 <path fill="rgb(0,69,134)" stroke="none" d="M 52582,4364 L 52582,4613 52832,4613 52832,4364 52582,4364 Z"/>
 <path fill="none" stroke="rgb(0,69,134)" stroke-linejoin="round" d="M 52582,4364 L 52582,4613 52832,4613 52832,4364 52582,4364 Z"/>
 <path fill="rgb(0,69,134)" stroke="none" d="M 53147,4364 L 53147,4613 53397,4613 53397,4364 53147,4364 Z"/>
 <path fill="none" stroke="rgb(0,69,134)" stroke-linejoin="round" d="M 53147,4364 L 53147,4613 53397,4613 53397,4364 53147,4364 Z"/>
 <path fill="rgb(0,69,134)" stroke="none" d="M 53711,4364 L 53711,4613 53961,4613 53961,4364 53711,4364 Z"/>
 <path fill="none" stroke="rgb(0,69,134)" stroke-linejoin="round" d="M 53711,4364 L 53711,4613 53961,4613 53961,4364 53711,4364 Z"/>
 <path fill="rgb(0,69,134)" stroke="none" d="M 54275,4364 L 54275,4613 54525,4613 54525,4364 54275,4364 Z"/>
 <path fill="none" stroke="rgb(0,69,134)" stroke-linejoin="round" d="M 54275,4364 L 54275,4613 54525,4613 54525,4364 54275,4364 Z"/>
 <path fill="rgb(0,69,134)" stroke="none" d="M 54840,4364 L 54840,4613 55090,4613 55090,4364 54840,4364 Z"/>
 <path fill="none" stroke="rgb(0,69,134)" stroke-linejoin="round" d="M 54840,4364 L 54840,4613 55090,4613 55090,4364 54840,4364 Z"/>
 <path fill="rgb(0,69,134)" stroke="none" d="M 55404,4363 L 55404,4612 55654,4612 55654,4363 55404,4363 Z"/>
 <path fill="none" stroke="rgb(0,69,134)" stroke-linejoin="round" d="M 55404,4363 L 55404,4612 55654,4612 55654,4363 55404,4363 Z"/>
 <path fill="rgb(0,69,134)" stroke="none" d="M 55969,4363 L 55969,4612 56219,4612 56219,4363 55969,4363 Z"/>
 <path fill="none" stroke="rgb(0,69,134)" stroke-linejoin="round" d="M 55969,4363 L 55969,4612 56219,4612 56219,4363 55969,4363 Z"/>
 <path fill="rgb(0,69,134)" stroke="none" d="M 56533,927 L 56533,1177 56783,1177 56783,927 56533,927 Z"/>
 <path fill="none" stroke="rgb(0,69,134)" stroke-linejoin="round" d="M 56533,927 L 56533,1177 56783,1177 56783,927 56533,927 Z"/>
 <path fill="rgb(0,69,134)" stroke="none" d="M 57098,4364 L 57098,4613 57348,4613 57348,4364 57098,4364 Z"/>
 <path fill="none" stroke="rgb(0,69,134)" stroke-linejoin="round" d="M 57098,4364 L 57098,4613 57348,4613 57348,4364 57098,4364 Z"/>
 <path fill="rgb(0,69,134)" stroke="none" d="M 57662,4364 L 57662,4613 57912,4613 57912,4364 57662,4364 Z"/>
 <path fill="none" stroke="rgb(0,69,134)" stroke-linejoin="round" d="M 57662,4364 L 57662,4613 57912,4613 57912,4364 57662,4364 Z"/>
 <text class="SVGTextShape"><tspan class="TextParagraph" font-family="Liberation Sans, sans-serif" font-size="353px" font-weight="400"><tspan class="TextPosition" x="1817" y="5056"><tspan fill="rgb(0,0,0)" stroke="none" style="white-space: pre">0</tspan></tspan></tspan></text>
 <text class="SVGTextShape"><tspan class="TextParagraph" font-family="Liberation Sans, sans-serif" font-size="353px" font-weight="400"><tspan class="TextPosition" x="7369" y="5056"><tspan fill="rgb(0,0,0)" stroke="none" style="white-space: pre">10</tspan></tspan></tspan></text>
 <text class="SVGTextShape"><tspan class="TextParagraph" font-family="Liberation Sans, sans-serif" font-size="353px" font-weight="400"><tspan class="TextPosition" x="13013" y="5056"><tspan fill="rgb(0,0,0)" stroke="none" style="white-space: pre">20</tspan></tspan></tspan></text>
 <text class="SVGTextShape"><tspan class="TextParagraph" font-family="Liberation Sans, sans-serif" font-size="353px" font-weight="400"><tspan class="TextPosition" x="18657" y="5056"><tspan fill="rgb(0,0,0)" stroke="none" style="white-space: pre">30</tspan></tspan></tspan></text>
 <text class="SVGTextShape"><tspan class="TextParagraph" font-family="Liberation Sans, sans-serif" font-size="353px" font-weight="400"><tspan class="TextPosition" x="24302" y="5056"><tspan fill="rgb(0,0,0)" stroke="none" style="white-space: pre">40</tspan></tspan></tspan></text>
 <text class="SVGTextShape"><tspan class="TextParagraph" font-family="Liberation Sans, sans-serif" font-size="353px" font-weight="400"><tspan class="TextPosition" x="29946" y="5056"><tspan fill="rgb(0,0,0)" stroke="none" style="white-space: pre">50</tspan></tspan></tspan></text>
 <text class="SVGTextShape"><tspan class="TextParagraph" font-family="Liberation Sans, sans-serif" font-size="353px" font-weight="400"><tspan class="TextPosition" x="35590" y="5056"><tspan fill="rgb(0,0,0)" stroke="none" style="white-space: pre">60</tspan></tspan></tspan></text>
 <text class="SVGTextShape"><tspan class="TextParagraph" font-family="Liberation Sans, sans-serif" font-size="353px" font-weight="400"><tspan class="TextPosition" x="41235" y="5056"><tspan fill="rgb(0,0,0)" stroke="none" style="white-space: pre">70</tspan></tspan></tspan></text>
 <text class="SVGTextShape"><tspan class="TextParagraph" font-family="Liberation Sans, sans-serif" font-size="353px" font-weight="400"><tspan class="TextPosition" x="46879" y="5056"><tspan fill="rgb(0,0,0)" stroke="none" style="white-space: pre">80</tspan></tspan></tspan></text>
 <text class="SVGTextShape"><tspan class="TextParagraph" font-family="Liberation Sans, sans-serif" font-size="353px" font-weight="400"><tspan class="TextPosition" x="52523" y="5056"><tspan fill="rgb(0,0,0)" stroke="none" style="white-space: pre">90</tspan></tspan></tspan></text>
 <text class="SVGTextShape"><tspan class="TextParagraph" font-family="Liberation Sans, sans-serif" font-size="353px" font-weight="400"><tspan class="TextPosition" x="58075" y="5056"><tspan fill="rgb(0,0,0)" stroke="none" style="white-space: pre">100</tspan></tspan></tspan></text>
 <text class="SVGTextShape"><tspan class="TextParagraph" font-family="Liberation Sans, sans-serif" font-size="353px" font-weight="400"><tspan class="TextPosition" x="1184" y="8733"><tspan fill="rgb(0,0,0)" stroke="none" style="white-space: pre">-60</tspan></tspan></tspan></text>
 <text class="SVGTextShape"><tspan class="TextParagraph" font-family="Liberation Sans, sans-serif" font-size="353px" font-weight="400"><tspan class="TextPosition" x="1184" y="7358"><tspan fill="rgb(0,0,0)" stroke="none" style="white-space: pre">-40</tspan></tspan></tspan></text>
 <text class="SVGTextShape"><tspan class="TextParagraph" font-family="Liberation Sans, sans-serif" font-size="353px" font-weight="400"><tspan class="TextPosition" x="1184" y="5983"><tspan fill="rgb(0,0,0)" stroke="none" style="white-space: pre">-20</tspan></tspan></tspan></text>
 <text class="SVGTextShape"><tspan class="TextParagraph" font-family="Liberation Sans, sans-serif" font-size="353px" font-weight="400"><tspan class="TextPosition" x="1475" y="4609"><tspan fill="rgb(0,0,0)" stroke="none" style="white-space: pre">0</tspan></tspan></tspan></text>
 <text class="SVGTextShape"><tspan class="TextParagraph" font-family="Liberation Sans, sans-serif" font-size="353px" font-weight="400"><tspan class="TextPosition" x="1290" y="3234"><tspan fill="rgb(0,0,0)" stroke="none" style="white-space: pre">20</tspan></tspan></tspan></text>
 <text class="SVGTextShape"><tspan class="TextParagraph" font-family="Liberation Sans, sans-serif" font-size="353px" font-weight="400"><tspan class="TextPosition" x="1290" y="1859"><tspan fill="rgb(0,0,0)" stroke="none" style="white-space: pre">40</tspan></tspan></tspan></text>
 <text class="SVGTextShape"><tspan class="TextParagraph" font-family="Liberation Sans, sans-serif" font-size="353px" font-weight="400"><tspan class="TextPosition" x="1290" y="485"><tspan fill="rgb(0,0,0)" stroke="none" style="white-space: pre">60</tspan></tspan></tspan></text>
</svg>