<?xml version="1.0" encoding="UTF-8"?>
<!DOCTYPE svg PUBLIC "-//W3C//DTD SVG 1.1//EN" "http://www.w3.org/Graphics/SVG/1.1/DTD/svg11.dtd">
<svg width="586mm" height="90mm" viewBox="0 0 58600 9000" version="1.1" xmlns="http://www.w3.org/2000/svg" xmlns:xlink="http://www.w3.org/1999/xlink" stroke-width="28.222" stroke-linejoin="round" xml:space="preserve">
 <path fill="rgb(255,255,255)" stroke="none" d="M 29261,8991 L -13,8991 -13,-13 58534,-13 58534,8991 29261,8991 Z"/>
 <path fill="none" stroke="rgb(179,179,179)" stroke-linejoin="round" d="M 29619,8134 L 2079,8134 2079,881 57159,881 57159,8134 29619,8134 Z"/>
 <path fill="none" stroke="rgb(179,179,179)" stroke-linejoin="round" d="M 57158,8133 L 2079,8133"/>
 <path fill="none" stroke="rgb(179,179,179)" stroke-linejoin="round" d="M 57158,6924 L 2079,6924"/>
 <path fill="none" stroke="rgb(179,179,179)" stroke-linejoin="round" d="M 57158,5715 L 2079,5715"/>
 <path fill="none" stroke="rgb(179,179,179)" stroke-linejoin="round" d="M 57158,4506 L 2079,4506"/>
 <path fill="none" stroke="rgb(179,179,179)" stroke-linejoin="round" d="M 57158,3298 L 2079,3298"/>
 <path fill="none" stroke="rgb(179,179,179)" stroke-linejoin="round" d="M 57158,2089 L 2079,2089"/>
 <path fill="none" stroke="rgb(179,179,179)" stroke-linejoin="round" d="M 57158,880 L 2079,880"/>
 <path fill="none" stroke="rgb(179,179,179)" stroke-linejoin="round" d="M 2079,4656 L 2079,4506"/>
 <path fill="none" stroke="rgb(179,179,179)" stroke-linejoin="round" d="M 2079,4656 L 2079,4506"/>
 <path fill="none" stroke="rgb(179,179,179)" stroke-linejoin="round" d="M 7587,4656 L 7587,4506"/>
 <path fill="none" stroke="rgb(179,179,179)" stroke-linejoin="round" d="M 7587,4656 L 7587,4506"/>
 <path fill="none" stroke="rgb(179,179,179)" stroke-linejoin="round" d="M 13095,4656 L 13095,4506"/>
 <path fill="none" stroke="rgb(179,179,179)" stroke-linejoin="round" d="M 13095,4656 L 13095,4506"/>
 <path fill="none" stroke="rgb(179,179,179)" stroke-linejoin="round" d="M 18603,4656 L 18603,4506"/>
 <path fill="none" stroke="rgb(179,179,179)" stroke-linejoin="round" d="M 18603,4656 L 18603,4506"/>
 <path fill="none" stroke="rgb(179,179,179)" stroke-linejoin="round" d="M 24111,4656 L 24111,4506"/>
 <path fill="none" stroke="rgb(179,179,179)" stroke-linejoin="round" d="M 24111,4656 L 24111,4506"/>
 <path fill="none" stroke="rgb(179,179,179)" stroke-linejoin="round" d="M 29618,4656 L 29618,4506"/>
 <path fill="none" stroke="rgb(179,179,179)" stroke-linejoin="round" d="M 29618,4656 L 29618,4506"/>
 <path fill="none" stroke="rgb(179,179,179)" stroke-linejoin="round" d="M 35126,4656 L 35126,4506"/>
 <path fill="none" stroke="rgb(179,179,179)" stroke-linejoin="round" d="M 35126,4656 L 35126,4506"/>
 <path fill="none" stroke="rgb(179,179,179)" stroke-linejoin="round" d="M 40634,4656 L 40634,4506"/>
 <path fill="none" stroke="rgb(179,179,179)" stroke-linejoin="round" d="M 40634,4656 L 40634,4506"/>
 <path fill="none" stroke="rgb(179,179,179)" stroke-linejoin="round" d="M 46142,4656 L 46142,4506"/>
 <path fill="none" stroke="rgb(179,179,179)" stroke-linejoin="round" d="M 46142,4656 L 46142,4506"/>
 <path fill="none" stroke="rgb(179,179,179)" stroke-linejoin="round" d="M 51650,4656 L 51650,4506"/>
 <path fill="none" stroke="rgb(179,179,179)" stroke-linejoin="round" d="M 51650,4656 L 51650,4506"/>
 <path fill="none" stroke="rgb(179,179,179)" stroke-linejoin="round" d="M 57158,4656 L 57158,4506"/>
 <path fill="none" stroke="rgb(179,179,179)" stroke-linejoin="round" d="M 57158,4656 L 57158,4506"/>
 <path fill="none" stroke="rgb(179,179,179)" stroke-linejoin="round" d="M 2079,4506 L 57158,4506"/>
 <path fill="none" stroke="rgb(179,179,179)" stroke-linejoin="round" d="M 1929,8133 L 2079,8133"/>
 <path fill="none" stroke="rgb(179,179,179)" stroke-linejoin="round" d="M 1929,8133 L 2079,8133"/>
 <path fill="none" stroke="rgb(179,179,179)" stroke-linejoin="round" d="M 1929,6924 L 2079,6924"/>
 <path fill="none" stroke="rgb(179,179,179)" stroke-linejoin="round" d="M 1929,6924 L 2079,6924"/>
 <path fill="none" stroke="rgb(179,179,179)" stroke-linejoin="round" d="M 1929,5715 L 2079,5715"/>
 <path fill="none" stroke="rgb(179,179,179)" stroke-linejoin="round" d="M 1929,5715 L 2079,5715"/>
 <path fill="none" stroke="rgb(179,179,179)" stroke-linejoin="round" d="M 1929,4506 L 2079,4506"/>
 <path fill="none" stroke="rgb(179,179,179)" stroke-linejoin="round" d="M 1929,4506 L 2079,4506"/>
 <path fill="none" stroke="rgb(179,179,179)" stroke-linejoin="round" d="M 1929,3298 L 2079,3298"/>
 <path fill="none" stroke="rgb(179,179,179)" stroke-linejoin="round" d="M 1929,3298 L 2079,3298"/>
 <path fill="none" stroke="rgb(179,179,179)" stroke-linejoin="round" d="M 1929,2089 L 2079,2089"/>
 <path fill="none" stroke="rgb(179,179,179)" stroke-linejoin="round" d="M 1929,2089 L 2079,2089"/>
 <path fill="none" stroke="rgb(179,179,179)" stroke-linejoin="round" d="M 1929,880 L 2079,880"/>
 <path fill="none" stroke="rgb(179,179,179)" stroke-linejoin="round" d="M 1929,880 L 2079,880"/>
 <path fill="none" stroke="rgb(179,179,179)" stroke-linejoin="round" d="M 2079,8133 L 2079,880"/>
 <path fill="none" stroke="rgb(0,69,134)" stroke-width="80" stroke-linejoin="round" d="M 2079,4506 L 2629,4506 3180,4505 3731,4505 4282,7528 4833,4506 5383,4506 5934,4506 6485,4506 7036,4506 7587,4506 8137,4506 8688,4506 9239,4506 9790,4506 10341,4506 10891,4506 11442,4506 11993,4506 12544,4506 13095,4506 13646,4506 14196,4506 14747,4506 15298,4506 15849,4506 16400,4506 16950,4506 17501,4506 18052,4506 18603,4506 19154,4506 19704,4506 20255,4506 20806,4506 21357,4506 21908,4506 22458,4506 23009,4506 23560,4506 24111,4505 24662,4506 25213,4506 25763,4506 26314,4506 26865,4506 27416,4506 27967,4506 28517,4506 29068,4506 29618,4506 30169,4506 30720,4506 31270,4506 31821,4506 32372,4506 32923,4506 33474,4506 34024,4506 34575,4506 35126,4506 35677,4506 36228,4506 36779,4506 37329,4506 37880,4506 38431,4506 38982,4506 39533,4506 40083,4506 40634,4506 41185,4506 41736,4506 42287,4506 42837,4506 43388,4506 43939,4506 44490,4506 45041,4506 45591,4506 46142,4505 46693,4506 47244,4506 47795,4506 48346,4506 48896,4506 49447,4506 49998,4506 50549,4505 51100,4506 51650,4506 52201,4506 52752,4506 53303,4506 53854,4505 54404,4506 54955,1484 55506,4506 56057,4506 56608,4506"/>
 <path fill="rgb(0,69,134)" stroke="none" d="M 1954,4382 L 1954,4631 2204,4631 2204,4382 1954,4382 Z"/>
 <path fill="none" stroke="rgb(0,69,134)" stroke-linejoin="round" d="M 1954,4382 L 1954,4631 2204,4631 2204,4382 1954,4382 Z"/>
 <path fill="rgb(0,69,134)" stroke="none" d="M 2504,4382 L 2504,4631 2754,4631 2754,4382 2504,4382 Z"/>
 <path fill="none" stroke="rgb(0,69,134)" stroke-linejoin="round" d="M 2504,4382 L 2504,4631 2754,4631 2754,4382 2504,4382 Z"/>
 <path fill="rgb(0,69,134)" stroke="none" d="M 3055,4381 L 3055,4630 3305,4630 3305,4381 3055,4381 Z"/>
 <path fill="none" stroke="rgb(0,69,134)" stroke-linejoin="round" d="M 3055,4381 L 3055,4630 3305,4630 3305,4381 3055,4381 Z"/>
 <path fill="rgb(0,69,134)" stroke="none" d="M 3606,4381 L 3606,4630 3856,4630 3856,4381 3606,4381 Z"/>
 <path fill="none" stroke="rgb(0,69,134)" stroke-linejoin="round" d="M 3606,4381 L 3606,4630 3856,4630 3856,4381 3606,4381 Z"/>
 <path fill="rgb(0,69,134)" stroke="none" d="M 4157,7403 L 4157,7653 4407,7653 4407,7403 4157,7403 Z"/>
 <path fill="none" stroke="rgb(0,69,134)" stroke-linejoin="round" d="M 4157,7403 L 4157,7653 4407,7653 4407,7403 4157,7403 Z"/>
 <path fill="rgb(0,69,134)" stroke="none" d="M 4708,4382 L 4708,4631 4958,4631 4958,4382 4708,4382 Z"/>
 <path fill="none" stroke="rgb(0,69,134)" stroke-linejoin="round" d="M 4708,4382 L 4708,4631 4958,4631 4958,4382 4708,4382 Z"/>
 <path fill="rgb(0,69,134)" stroke="none" d="M 5258,4382 L 5258,4631 5508,4631 5508,4382 5258,4382 Z"/>
 <path fill="none" stroke="rgb(0,69,134)" stroke-linejoin="round" d="M 5258,4382 L 5258,4631 5508,4631 5508,4382 5258,4382 Z"/>
 <path fill="rgb(0,69,134)" stroke="none" d="M 5809,4382 L 5809,4631 6059,4631 6059,4382 5809,4382 Z"/>
 <path fill="none" stroke="rgb(0,69,134)" stroke-linejoin="round" d="M 5809,4382 L 5809,4631 6059,4631 6059,4382 5809,4382 Z"/>
 <path fill="rgb(0,69,134)" stroke="none" d="M 6360,4382 L 6360,4631 6610,4631 6610,4382 6360,4382 Z"/>
 <path fill="none" stroke="rgb(0,69,134)" stroke-linejoin="round" d="M 6360,4382 L 6360,4631 6610,4631 6610,4382 6360,4382 Z"/>
 <path fill="rgb(0,69,134)" stroke="none" d="M 6911,4382 L 6911,4631 7161,4631 7161,4382 6911,4382 Z"/>
 <path fill="none" stroke="rgb(0,69,134)" stroke-linejoin="round" d="M 6911,4382 L 6911,4631 7161,4631 7161,4382 6911,4382 Z"/>
 <path fill="rgb(0,69,134)" stroke="none" d="M 7462,4382 L 7462,4631 7712,4631 7712,4382 7462,4382 Z"/>
 <path fill="none" stroke="rgb(0,69,134)" stroke-linejoin="round" d="M 7462,4382 L 7462,4631 7712,4631 7712,4382 7462,4382 Z"/>
 <path fill="rgb(0,69,134)" stroke="none" d="M 8012,4382 L 8012,4631 8262,4631 8262,4382 8012,4382 Z"/>
 <path fill="none" stroke="rgb(0,69,134)" stroke-linejoin="round" d="M 8012,4382 L 8012,4631 8262,4631 8262,4382 8012,4382 Z"/>
 <path fill="rgb(0,69,134)" stroke="none" d="M 8563,4382 L 8563,4631 8813,4631 8813,4382 8563,4382 Z"/>
 <path fill="none" stroke="rgb(0,69,134)" stroke-linejoin="round" d="M 8563,4382 L 8563,4631 8813,4631 8813,4382 8563,4382 Z"/>
 <path fill="rgb(0,69,134)" stroke="none" d="M 9114,4382 L 9114,4631 9364,4631 9364,4382 9114,4382 Z"/>
 <path fill="none" stroke="rgb(0,69,134)" stroke-linejoin="round" d="M 9114,4382 L 9114,4631 9364,4631 9364,4382 9114,4382 Z"/>
 <path fill="rgb(0,69,134)" stroke="none" d="M 9665,4382 L 9665,4631 9915,4631 9915,4382 9665,4382 Z"/>
 <path fill="none" stroke="rgb(0,69,134)" stroke-linejoin="round" d="M 9665,4382 L 9665,4631 9915,4631 9915,4382 9665,4382 Z"/>
 <path fill="rgb(0,69,134)" stroke="none" d="M 10216,4382 L 10216,4631 10466,4631 10466,4382 10216,4382 Z"/>
 <path fill="none" stroke="rgb(0,69,134)" stroke-linejoin="round" d="M 10216,4382 L 10216,4631 10466,4631 10466,4382 10216,4382 Z"/>
 <path fill="rgb(0,69,134)" stroke="none" d="M 10766,4382 L 10766,4631 11016,4631 11016,4382 10766,4382 Z"/>
 <path fill="none" stroke="rgb(0,69,134)" stroke-linejoin="round" d="M 10766,4382 L 10766,4631 11016,4631 11016,4382 10766,4382 Z"/>
 <path fill="rgb(0,69,134)" stroke="none" d="M 11317,4382 L 11317,4631 11567,4631 11567,4382 11317,4382 Z"/>
 <path fill="none" stroke="rgb(0,69,134)" stroke-linejoin="round" d="M 11317,4382 L 11317,4631 11567,4631 11567,4382 11317,4382 Z"/>
 <path fill="rgb(0,69,134)" stroke="none" d="M 11868,4382 L 11868,4631 12118,4631 12118,4382 11868,4382 Z"/>
 <path fill="none" stroke="rgb(0,69,134)" stroke-linejoin="round" d="M 11868,4382 L 11868,4631 12118,4631 12118,4382 11868,4382 Z"/>
 <path fill="rgb(0,69,134)" stroke="none" d="M 12419,4382 L 12419,4631 12669,4631 12669,4382 12419,4382 Z"/>
 <path fill="none" stroke="rgb(0,69,134)" stroke-linejoin="round" d="M 12419,4382 L 12419,4631 12669,4631 12669,4382 12419,4382 Z"/>
 <path fill="rgb(0,69,134)" stroke="none" d="M 12970,4382 L 12970,4631 13220,4631 13220,4382 12970,4382 Z"/>
 <path fill="none" stroke="rgb(0,69,134)" stroke-linejoin="round" d="M 12970,4382 L 12970,4631 13220,4631 13220,4382 12970,4382 Z"/>
 <path fill="rgb(0,69,134)" stroke="none" d="M 13521,4382 L 13521,4631 13771,4631 13771,4382 13521,4382 Z"/>
 <path fill="none" stroke="rgb(0,69,134)" stroke-linejoin="round" d="M 13521,4382 L 13521,4631 13771,4631 13771,4382 13521,4382 Z"/>
 <path fill="rgb(0,69,134)" stroke="none" d="M 14071,4382 L 14071,4631 14321,4631 14321,4382 14071,4382 Z"/>
 <path fill="none" stroke="rgb(0,69,134)" stroke-linejoin="round" d="M 14071,4382 L 14071,4631 14321,4631 14321,4382 14071,4382 Z"/>
 <path fill="rgb(0,69,134)" stroke="none" d="M 14622,4382 L 14622,4631 14872,4631 14872,4382 14622,4382 Z"/>
 <path fill="none" stroke="rgb(0,69,134)" stroke-linejoin="round" d="M 14622,4382 L 14622,4631 14872,4631 14872,4382 14622,4382 Z"/>
 <path fill="rgb(0,69,134)" stroke="none" d="M 15173,4382 L 15173,4631 15423,4631 15423,4382 15173,4382 Z"/>
 <path fill="none" stroke="rgb(0,69,134)" stroke-linejoin="round" d="M 15173,4382 L 15173,4631 15423,4631 15423,4382 15173,4382 Z"/>
 <path fill="rgb(0,69,134)" stroke="none" d="M 15724,4382 L 15724,4631 15974,4631 15974,4382 15724,4382 Z"/>
 <path fill="none" stroke="rgb(0,69,134)" stroke-linejoin="round" d="M 15724,4382 L 15724,4631 15974,4631 15974,4382 15724,4382 Z"/>
 <path fill="rgb(0,69,134)" stroke="none" d="M 16275,4382 L 16275,4631 16525,4631 16525,4382 16275,4382 Z"/>
 <path fill="none" stroke="rgb(0,69,134)" stroke-linejoin="round" d="M 16275,4382 L 16275,4631 16525,4631 16525,4382 16275,4382 Z"/>
 <path fill="rgb(0,69,134)" stroke="none" d="M 16825,4382 L 16825,4631 17075,4631 17075,4382 16825,4382 Z"/>
 <path fill="none" stroke="rgb(0,69,134)" stroke-linejoin="round" d="M 16825,4382 L 16825,4631 17075,4631 17075,4382 16825,4382 Z"/>
 <path fill="rgb(0,69,134)" stroke="none" d="M 17376,4382 L 17376,4631 17626,4631 17626,4382 17376,4382 Z"/>
 <path fill="none" stroke="rgb(0,69,134)" stroke-linejoin="round" d="M 17376,4382 L 17376,4631 17626,4631 17626,4382 17376,4382 Z"/>
 <path fill="rgb(0,69,134)" stroke="none" d="M 17927,4382 L 17927,4631 18177,4631 18177,4382 17927,4382 Z"/>
 <path fill="none" stroke="rgb(0,69,134)" stroke-linejoin="round" d="M 17927,4382 L 17927,4631 18177,4631 18177,4382 17927,4382 Z"/>
 <path fill="rgb(0,69,134)" stroke="none" d="M 18478,4382 L 18478,4631 18728,4631 18728,4382 18478,4382 Z"/>
 <path fill="none" stroke="rgb(0,69,134)" stroke-linejoin="round" d="M 18478,4382 L 18478,4631 18728,4631 18728,4382 18478,4382 Z"/>
 <path fill="rgb(0,69,134)" stroke="none" d="M 19029,4382 L 19029,4631 19279,4631 19279,4382 19029,4382 Z"/>
 <path fill="none" stroke="rgb(0,69,134)" stroke-linejoin="round" d="M 19029,4382 L 19029,4631 19279,4631 19279,4382 19029,4382 Z"/>
 <path fill="rgb(0,69,134)" stroke="none" d="M 19579,4382 L 19579,4631 19829,4631 19829,4382 19579,4382 Z"/>
 <path fill="none" stroke="rgb(0,69,134)" stroke-linejoin="round" d="M 19579,4382 L 19579,4631 19829,4631 19829,4382 19579,4382 Z"/>
 <path fill="rgb(0,69,134)" stroke="none" d="M 20130,4382 L 20130,4631 20380,4631 20380,4382 20130,4382 Z"/>
 <path fill="none" stroke="rgb(0,69,134)" stroke-linejoin="round" d="M 20130,4382 L 20130,4631 20380,4631 20380,4382 20130,4382 Z"/>
 <path fill="rgb(0,69,134)" stroke="none" d="M 20681,4382 L 20681,4631 20931,4631 20931,4382 20681,4382 Z"/>
 <path fill="none" stroke="rgb(0,69,134)" stroke-linejoin="round" d="M 20681,4382 L 20681,4631 20931,4631 20931,4382 20681,4382 Z"/>
 <path fill="rgb(0,69,134)" stroke="none" d="M 21232,4382 L 21232,4631 21482,4631 21482,4382 21232,4382 Z"/>
 <path fill="none" stroke="rgb(0,69,134)" stroke-linejoin="round" d="M 21232,4382 L 21232,4631 21482,4631 21482,4382 21232,4382 Z"/>
 <path fill="rgb(0,69,134)" stroke="none" d="M 21783,4382 L 21783,4631 22033,4631 22033,4382 21783,4382 Z"/>
 <path fill="none" stroke="rgb(0,69,134)" stroke-linejoin="round" d="M 21783,4382 L 21783,4631 22033,4631 22033,4382 21783,4382 Z"/>
 <path fill="rgb(0,69,134)" stroke="none" d="M 22333,4382 L 22333,4631 22583,4631 22583,4382 22333,4382 Z"/>
 <path fill="none" stroke="rgb(0,69,134)" stroke-linejoin="round" d="M 22333,4382 L 22333,4631 22583,4631 22583,4382 22333,4382 Z"/>
 <path fill="rgb(0,69,134)" stroke="none" d="M 22884,4382 L 22884,4631 23134,4631 23134,4382 22884,4382 Z"/>
 <path fill="none" stroke="rgb(0,69,134)" stroke-linejoin="round" d="M 22884,4382 L 22884,4631 23134,4631 23134,4382 22884,4382 Z"/>
 <path fill="rgb(0,69,134)" stroke="none" d="M 23435,4382 L 23435,4631 23685,4631 23685,4382 23435,4382 Z"/>
 <path fill="none" stroke="rgb(0,69,134)" stroke-linejoin="round" d="M 23435,4382 L 23435,4631 23685,4631 23685,4382 23435,4382 Z"/>
 <path fill="rgb(0,69,134)" stroke="none" d="M 23986,4381 L 23986,4630 24236,4630 24236,4381 23986,4381 Z"/>
 <path fill="none" stroke="rgb(0,69,134)" stroke-linejoin="round" d="M 23986,4381 L 23986,4630 24236,4630 24236,4381 23986,4381 Z"/>
 <path fill="rgb(0,69,134)" stroke="none" d="M 24537,4382 L 24537,4631 24787,4631 24787,4382 24537,4382 Z"/>
 <path fill="none" stroke="rgb(0,69,134)" stroke-linejoin="round" d="M 24537,4382 L 24537,4631 24787,4631 24787,4382 24537,4382 Z"/>
 <path fill="rgb(0,69,134)" stroke="none" d="M 25088,4382 L 25088,4631 25338,4631 25338,4382 25088,4382 Z"/>
 <path fill="none" stroke="rgb(0,69,134)" stroke-linejoin="round" d="M 25088,4382 L 25088,4631 25338,4631 25338,4382 25088,4382 Z"/>
 <path fill="rgb(0,69,134)" stroke="none" d="M 25638,4382 L 25638,4631 25888,4631 25888,4382 25638,4382 Z"/>
 <path fill="none" stroke="rgb(0,69,134)" stroke-linejoin="round" d="M 25638,4382 L 25638,4631 25888,4631 25888,4382 25638,4382 Z"/>
 <path fill="rgb(0,69,134)" stroke="none" d="M 26189,4382 L 26189,4631 26439,4631 26439,4382 26189,4382 Z"/>
 <path fill="none" stroke="rgb(0,69,134)" stroke-linejoin="round" d="M 26189,4382 L 26189,4631 26439,4631 26439,4382 26189,4382 Z"/>
 <path fill="rgb(0,69,134)" stroke="none" d="M 26740,4382 L 26740,4631 26990,4631 26990,4382 26740,4382 Z"/>
 <path fill="none" stroke="rgb(0,69,134)" stroke-linejoin="round" d="M 26740,4382 L 26740,4631 26990,4631 26990,4382 26740,4382 Z"/>
 <path fill="rgb(0,69,134)" stroke="none" d="M 27291,4382 L 27291,4631 27541,4631 27541,4382 27291,4382 Z"/>
 <path fill="none" stroke="rgb(0,69,134)" stroke-linejoin="round" d="M 27291,4382 L 27291,4631 27541,4631 27541,4382 27291,4382 Z"/>
 <path fill="rgb(0,69,134)" stroke="none" d="M 27842,4382 L 27842,4631 28092,4631 28092,4382 27842,4382 Z"/>
 <path fill="none" stroke="rgb(0,69,134)" stroke-linejoin="round" d="M 27842,4382 L 27842,4631 28092,4631 28092,4382 27842,4382 Z"/>
 <path fill="rgb(0,69,134)" stroke="none" d="M 28392,4382 L 28392,4631 28642,4631 28642,4382 28392,4382 Z"/>
 <path fill="none" stroke="rgb(0,69,134)" stroke-linejoin="round" d="M 28392,4382 L 28392,4631 28642,4631 28642,4382 28392,4382 Z"/>
 <path fill="rgb(0,69,134)" stroke="none" d="M 28943,4382 L 28943,4631 29193,4631 29193,4382 28943,4382 Z"/>
 <path fill="none" stroke="rgb(0,69,134)" stroke-linejoin="round" d="M 28943,4382 L 28943,4631 29193,4631 29193,4382 28943,4382 Z"/>
 <path fill="rgb(0,69,134)" stroke="none" d="M 29493,4382 L 29493,4631 29743,4631 29743,4382 29493,4382 Z"/>
 <path fill="none" stroke="rgb(0,69,134)" stroke-linejoin="round" d="M 29493,4382 L 29493,4631 29743,4631 29743,4382 29493,4382 Z"/>
 <path fill="rgb(0,69,134)" stroke="none" d="M 30044,4382 L 30044,4631 30294,4631 30294,4382 30044,4382 Z"/>
 <path fill="none" stroke="rgb(0,69,134)" stroke-linejoin="round" d="M 30044,4382 L 30044,4631 30294,4631 30294,4382 30044,4382 Z"/>
 <path fill="rgb(0,69,134)" stroke="none" d="M 30595,4382 L 30595,4631 30845,4631 30845,4382 30595,4382 Z"/>
 <path fill="none" stroke="rgb(0,69,134)" stroke-linejoin="round" d="M 30595,4382 L 30595,4631 30845,4631 30845,4382 30595,4382 Z"/>
 <path fill="rgb(0,69,134)" stroke="none" d="M 31145,4382 L 31145,4631 31395,4631 31395,4382 31145,4382 Z"/>
 <path fill="none" stroke="rgb(0,69,134)" stroke-linejoin="round" d="M 31145,4382 L 31145,4631 31395,4631 31395,4382 31145,4382 Z"/>
 <path fill="rgb(0,69,134)" stroke="none" d="M 31696,4382 L 31696,4631 31946,4631 31946,4382 31696,4382 Z"/>
 <path fill="none" stroke="rgb(0,69,134)" stroke-linejoin="round" d="M 31696,4382 L 31696,4631 31946,4631 31946,4382 31696,4382 Z"/>
 <path fill="rgb(0,69,134)" stroke="none" d="M 32247,4382 L 32247,4631 32497,4631 32497,4382 32247,4382 Z"/>
 <path fill="none" stroke="rgb(0,69,134)" stroke-linejoin="round" d="M 32247,4382 L 32247,4631 32497,4631 32497,4382 32247,4382 Z"/>
 <path fill="rgb(0,69,134)" stroke="none" d="M 32798,4382 L 32798,4631 33048,4631 33048,4382 32798,4382 Z"/>
 <path fill="none" stroke="rgb(0,69,134)" stroke-linejoin="round" d="M 32798,4382 L 32798,4631 33048,4631 33048,4382 32798,4382 Z"/>
 <path fill="rgb(0,69,134)" stroke="none" d="M 33349,4382 L 33349,4631 33599,4631 33599,4382 33349,4382 Z"/>
 <path fill="none" stroke="rgb(0,69,134)" stroke-linejoin="round" d="M 33349,4382 L 33349,4631 33599,4631 33599,4382 33349,4382 Z"/>
 <path fill="rgb(0,69,134)" stroke="none" d="M 33899,4382 L 33899,4631 34149,4631 34149,4382 33899,4382 Z"/>
 <path fill="none" stroke="rgb(0,69,134)" stroke-linejoin="round" d="M 33899,4382 L 33899,4631 34149,4631 34149,4382 33899,4382 Z"/>
 <path fill="rgb(0,69,134)" stroke="none" d="M 34450,4382 L 34450,4631 34700,4631 34700,4382 34450,4382 Z"/>
 <path fill="none" stroke="rgb(0,69,134)" stroke-linejoin="round" d="M 34450,4382 L 34450,4631 34700,4631 34700,4382 34450,4382 Z"/>
 <path fill="rgb(0,69,134)" stroke="none" d="M 35001,4382 L 35001,4631 35251,4631 35251,4382 35001,4382 Z"/>
 <path fill="none" stroke="rgb(0,69,134)" stroke-linejoin="round" d="M 35001,4382 L 35001,4631 35251,4631 35251,4382 35001,4382 Z"/>
 <path fill="rgb(0,69,134)" stroke="none" d="M 35552,4382 L 35552,4631 35802,4631 35802,4382 35552,4382 Z"/>
 <path fill="none" stroke="rgb(0,69,134)" stroke-linejoin="round" d="M 35552,4382 L 35552,4631 35802,4631 35802,4382 35552,4382 Z"/>
 <path fill="rgb(0,69,134)" stroke="none" d="M 36103,4382 L 36103,4631 36353,4631 36353,4382 36103,4382 Z"/>
 <path fill="none" stroke="rgb(0,69,134)" stroke-linejoin="round" d="M 36103,4382 L 36103,4631 36353,4631 36353,4382 36103,4382 Z"/>
 <path fill="rgb(0,69,134)" stroke="none" d="M 36654,4382 L 36654,4631 36904,4631 36904,4382 36654,4382 Z"/>
 <path fill="none" stroke="rgb(0,69,134)" stroke-linejoin="round" d="M 36654,4382 L 36654,4631 36904,4631 36904,4382 36654,4382 Z"/>
 <path fill="rgb(0,69,134)" stroke="none" d="M 37204,4382 L 37204,4631 37454,4631 37454,4382 37204,4382 Z"/>
 <path fill="none" stroke="rgb(0,69,134)" stroke-linejoin="round" d="M 37204,4382 L 37204,4631 37454,4631 37454,4382 37204,4382 Z"/>
 <path fill="rgb(0,69,134)" stroke="none" d="M 37755,4382 L 37755,4631 38005,4631 38005,4382 37755,4382 Z"/>
 <path fill="none" stroke="rgb(0,69,134)" stroke-linejoin="round" d="M 37755,4382 L 37755,4631 38005,4631 38005,4382 37755,4382 Z"/>
 <path fill="rgb(0,69,134)" stroke="none" d="M 38306,4382 L 38306,4631 38556,4631 38556,4382 38306,4382 Z"/>
 <path fill="none" stroke="rgb(0,69,134)" stroke-linejoin="round" d="M 38306,4382 L 38306,4631 38556,4631 38556,4382 38306,4382 Z"/>
 <path fill="rgb(0,69,134)" stroke="none" d="M 38857,4382 L 38857,4631 39107,4631 39107,4382 38857,4382 Z"/>
 <path fill="none" stroke="rgb(0,69,134)" stroke-linejoin="round" d="M 38857,4382 L 38857,4631 39107,4631 39107,4382 38857,4382 Z"/>
 <path fill="rgb(0,69,134)" stroke="none" d="M 39408,4382 L 39408,4631 39658,4631 39658,4382 39408,4382 Z"/>
 <path fill="none" stroke="rgb(0,69,134)" stroke-linejoin="round" d="M 39408,4382 L 39408,4631 39658,4631 39658,4382 39408,4382 Z"/>
 <path fill="rgb(0,69,134)" stroke="none" d="M 39958,4382 L 39958,4631 40208,4631 40208,4382 39958,4382 Z"/>
 <path fill="none" stroke="rgb(0,69,134)" stroke-linejoin="round" d="M 39958,4382 L 39958,4631 40208,4631 40208,4382 39958,4382 Z"/>
 <path fill="rgb(0,69,134)" stroke="none" d="M 40509,4382 L 40509,4631 40759,4631 40759,4382 40509,4382 Z"/>
 <path fill="none" stroke="rgb(0,69,134)" stroke-linejoin="round" d="M 40509,4382 L 40509,4631 40759,4631 40759,4382 40509,4382 Z"/>
 <path fill="rgb(0,69,134)" stroke="none" d="M 41060,4382 L 41060,4631 41310,4631 41310,4382 41060,4382 Z"/>
 <path fill="none" stroke="rgb(0,69,134)" stroke-linejoin="round" d="M 41060,4382 L 41060,4631 41310,4631 41310,4382 41060,4382 Z"/>
 <path fill="rgb(0,69,134)" stroke="none" d="M 41611,4382 L 41611,4631 41861,4631 41861,4382 41611,4382 Z"/>
 <path fill="none" stroke="rgb(0,69,134)" stroke-linejoin="round" d="M 41611,4382 L 41611,4631 41861,4631 41861,4382 41611,4382 Z"/>
 <path fill="rgb(0,69,134)" stroke="none" d="M 42162,4382 L 42162,4631 42412,4631 42412,4382 42162,4382 Z"/>
 <path fill="none" stroke="rgb(0,69,134)" stroke-linejoin="round" d="M 42162,4382 L 42162,4631 42412,4631 42412,4382 42162,4382 Z"/>
 <path fill="rgb(0,69,134)" stroke="none" d="M 42712,4382 L 42712,4631 42962,4631 42962,4382 42712,4382 Z"/>
 <path fill="none" stroke="rgb(0,69,134)" stroke-linejoin="round" d="M 42712,4382 L 42712,4631 42962,4631 42962,4382 42712,4382 Z"/>
 <path fill="rgb(0,69,134)" stroke="none" d="M 43263,4382 L 43263,4631 43513,4631 43513,4382 43263,4382 Z"/>
 <path fill="none" stroke="rgb(0,69,134)" stroke-linejoin="round" d="M 43263,4382 L 43263,4631 43513,4631 43513,4382 43263,4382 Z"/>
 <path fill="rgb(0,69,134)" stroke="none" d="M 43814,4382 L 43814,4631 44064,4631 44064,4382 43814,4382 Z"/>
 <path fill="none" stroke="rgb(0,69,134)" stroke-linejoin="round" d="M 43814,4382 L 43814,4631 44064,4631 44064,4382 43814,4382 Z"/>
 <path fill="rgb(0,69,134)" stroke="none" d="M 44365,4382 L 44365,4631 44615,4631 44615,4382 44365,4382 Z"/>
 <path fill="none" stroke="rgb(0,69,134)" stroke-linejoin="round" d="M 44365,4382 L 44365,4631 44615,4631 44615,4382 44365,4382 Z"/>
 <path fill="rgb(0,69,134)" stroke="none" d="M 44916,4382 L 44916,4631 45166,4631 45166,4382 44916,4382 Z"/>
 <path fill="none" stroke="rgb(0,69,134)" stroke-linejoin="round" d="M 44916,4382 L 44916,4631 45166,4631 45166,4382 44916,4382 Z"/>
 <path fill="rgb(0,69,134)" stroke="none" d="M 45466,4382 L 45466,4631 45716,4631 45716,4382 45466,4382 Z"/>
 <path fill="none" stroke="rgb(0,69,134)" stroke-linejoin="round" d="M 45466,4382 L 45466,4631 45716,4631 45716,4382 45466,4382 Z"/>
 <path fill="rgb(0,69,134)" stroke="none" d="M 46017,4381 L 46017,4630 46267,4630 46267,4381 46017,4381 Z"/>
 <path fill="none" stroke="rgb(0,69,134)" stroke-linejoin="round" d="M 46017,4381 L 46017,4630 46267,4630 46267,4381 46017,4381 Z"/>
 <path fill="rgb(0,69,134)" stroke="none" d="M 46568,4382 L 46568,4631 46818,4631 46818,4382 46568,4382 Z"/>
 <path fill="none" stroke="rgb(0,69,134)" stroke-linejoin="round" d="M 46568,4382 L 46568,4631 46818,4631 46818,4382 46568,4382 Z"/>
 <path fill="rgb(0,69,134)" stroke="none" d="M 47119,4382 L 47119,4631 47369,4631 47369,4382 47119,4382 Z"/>
 <path fill="none" stroke="rgb(0,69,134)" stroke-linejoin="round" d="M 47119,4382 L 47119,4631 47369,4631 47369,4382 47119,4382 Z"/>
 <path fill="rgb(0,69,134)" stroke="none" d="M 47670,4382 L 47670,4631 47920,4631 47920,4382 47670,4382 Z"/>
 <path fill="none" stroke="rgb(0,69,134)" stroke-linejoin="round" d="M 47670,4382 L 47670,4631 47920,4631 47920,4382 47670,4382 Z"/>
 <path fill="rgb(0,69,134)" stroke="none" d="M 48221,4382 L 48221,4631 48471,4631 48471,4382 48221,4382 Z"/>
 <path fill="none" stroke="rgb(0,69,134)" stroke-linejoin="round" d="M 48221,4382 L 48221,4631 48471,4631 48471,4382 48221,4382 Z"/>
 <path fill="rgb(0,69,134)" stroke="none" d="M 48771,4382 L 48771,4631 49021,4631 49021,4382 48771,4382 Z"/>
 <path fill="none" stroke="rgb(0,69,134)" stroke-linejoin="round" d="M 48771,4382 L 48771,4631 49021,4631 49021,4382 48771,4382 Z"/>
 <path fill="rgb(0,69,134)" stroke="none" d="M 49322,4382 L 49322,4631 49572,4631 49572,4382 49322,4382 Z"/>
 <path fill="none" stroke="rgb(0,69,134)" stroke-linejoin="round" d="M 49322,4382 L 49322,4631 49572,4631 49572,4382 49322,4382 Z"/>
 <path fill="rgb(0,69,134)" stroke="none" d="M 49873,4382 L 49873,4631 50123,4631 50123,4382 49873,4382 Z"/>
 <path fill="none" stroke="rgb(0,69,134)" stroke-linejoin="round" d="M 49873,4382 L 49873,4631 50123,4631 50123,4382 49873,4382 Z"/>
 <path fill="rgb(0,69,134)" stroke="none" d="M 50424,4381 L 50424,4630 50674,4630 50674,4381 50424,4381 Z"/>
 <path fill="none" stroke="rgb(0,69,134)" stroke-linejoin="round" d="M 50424,4381 L 50424,4630 50674,4630 50674,4381 50424,4381 Z"/>
 <path fill="rgb(0,69,134)" stroke="none" d="M 50975,4382 L 50975,4631 51225,4631 51225,4382 50975,4382 Z"/>
 <path fill="none" stroke="rgb(0,69,134)" stroke-linejoin="round" d="M 50975,4382 L 50975,4631 51225,4631 51225,4382 50975,4382 Z"/>
 <path fill="rgb(0,69,134)" stroke="none" d="M 51525,4382 L 51525,4631 51775,4631 51775,4382 51525,4382 Z"/>
 <path fill="none" stroke="rgb(0,69,134)" stroke-linejoin="round" d="M 51525,4382 L 51525,4631 51775,4631 51775,4382 51525,4382 Z"/>
 <path fill="rgb(0,69,134)" stroke="none" d="M 52076,4382 L 52076,4631 52326,4631 52326,4382 52076,4382 Z"/>
 <path fill="none" stroke="rgb(0,69,134)" stroke-linejoin="round" d="M 52076,4382 L 52076,4631 52326,4631 52326,4382 52076,4382 Z"/>
 <path fill="rgb(0,69,134)" stroke="none" d="M 52627,4382 L 52627,4631 52877,4631 52877,4382 52627,4382 Z"/>
 <path fill="none" stroke="rgb(0,69,134)" stroke-linejoin="round" d="M 52627,4382 L 52627,4631 52877,4631 52877,4382 52627,4382 Z"/>
 <path fill="rgb(0,69,134)" stroke="none" d="M 53178,4382 L 53178,4631 53428,4631 53428,4382 53178,4382 Z"/>
 <path fill="none" stroke="rgb(0,69,134)" stroke-linejoin="round" d="M 53178,4382 L 53178,4631 53428,4631 53428,4382 53178,4382 Z"/>
 <path fill="rgb(0,69,134)" stroke="none" d="M 53729,4381 L 53729,4630 53979,4630 53979,4381 53729,4381 Z"/>
 <path fill="none" stroke="rgb(0,69,134)" stroke-linejoin="round" d="M 53729,4381 L 53729,4630 53979,4630 53979,4381 53729,4381 Z"/>
 <path fill="rgb(0,69,134)" stroke="none" d="M 54279,4382 L 54279,4631 54529,4631 54529,4382 54279,4382 Z"/>
 <path fill="none" stroke="rgb(0,69,134)" stroke-linejoin="round" d="M 54279,4382 L 54279,4631 54529,4631 54529,4382 54279,4382 Z"/>
 <path fill="rgb(0,69,134)" stroke="none" d="M 54830,1359 L 54830,1609 55080,1609 55080,1359 54830,1359 Z"/>
 <path fill="none" stroke="rgb(0,69,134)" stroke-linejoin="round" d="M 54830,1359 L 54830,1609 55080,1609 55080,1359 54830,1359 Z"/>
 <path fill="rgb(0,69,134)" stroke="none" d="M 55381,4382 L 55381,4631 55631,4631 55631,4382 55381,4382 Z"/>
 <path fill="none" stroke="rgb(0,69,134)" stroke-linejoin="round" d="M 55381,4382 L 55381,4631 55631,4631 55631,4382 55381,4382 Z"/>
 <path fill="rgb(0,69,134)" stroke="none" d="M 55932,4382 L 55932,4631 56182,4631 56182,4382 55932,4382 Z"/>
 <path fill="none" stroke="rgb(0,69,134)" stroke-linejoin="round" d="M 55932,4382 L 55932,4631 56182,4631 56182,4382 55932,4382 Z"/>
 <path fill="rgb(0,69,134)" stroke="none" d="M 56483,4382 L 56483,4631 56733,4631 56733,4382 56483,4382 Z"/>
 <path fill="none" stroke="rgb(0,69,134)" stroke-linejoin="round" d="M 56483,4382 L 56483,4631 56733,4631 56733,4382 56483,4382 Z"/>
 <text class="SVGTextShape"><tspan class="TextParagraph" font-family="Liberation Sans, sans-serif" font-size="353px" font-weight="400"><tspan class="TextPosition" x="1986" y="5074"><tspan fill="rgb(0,0,0)" stroke="none" style="white-space: pre">0</tspan></tspan></tspan></text>
 <text class="SVGTextShape"><tspan class="TextParagraph" font-family="Liberation Sans, sans-serif" font-size="353px" font-weight="400"><tspan class="TextPosition" x="7402" y="5074"><tspan fill="rgb(0,0,0)" stroke="none" style="white-space: pre">10</tspan></tspan></tspan></text>
 <text class="SVGTextShape"><tspan class="TextParagraph" font-family="Liberation Sans, sans-serif" font-size="353px" font-weight="400"><tspan class="TextPosition" x="12910" y="5074"><tspan fill="rgb(0,0,0)" stroke="none" style="white-space: pre">20</tspan></tspan></tspan></text>
 <text class="SVGTextShape"><tspan class="TextParagraph" font-family="Liberation Sans, sans-serif" font-size="353px" font-weight="400"><tspan class="TextPosition" x="18418" y="5074"><tspan fill="rgb(0,0,0)" stroke="none" style="white-space: pre">30</tspan></tspan></tspan></text>
 <text class="SVGTextShape"><tspan class="TextParagraph" font-family="Liberation Sans, sans-serif" font-size="353px" font-weight="400"><tspan class="TextPosition" x="23926" y="5074"><tspan fill="rgb(0,0,0)" stroke="none" style="white-space: pre">40</tspan></tspan></tspan></text>
 <text class="SVGTextShape"><tspan class="TextParagraph" font-family="Liberation Sans, sans-serif" font-size="353px" font-weight="400"><tspan class="TextPosition" x="29434" y="5074"><tspan fill="rgb(0,0,0)" stroke="none" style="white-space: pre">50</tspan></tspan></tspan></text>
 <text class="SVGTextShape"><tspan class="TextParagraph" font-family="Liberation Sans, sans-serif" font-size="353px" font-weight="400"><tspan class="TextPosition" x="34942" y="5074"><tspan fill="rgb(0,0,0)" stroke="none" style="white-space: pre">60</tspan></tspan></tspan></text>
 <text class="SVGTextShape"><tspan class="TextParagraph" font-family="Liberation Sans, sans-serif" font-size="353px" font-weight="400"><tspan class="TextPosition" x="40450" y="5074"><tspan fill="rgb(0,0,0)" stroke="none" style="white-space: pre">70</tspan></tspan></tspan></text>
 <text class="SVGTextShape"><tspan class="TextParagraph" font-family="Liberation Sans, sans-serif" font-size="353px" font-weight="400"><tspan class="TextPosition" x="45958" y="5074"><tspan fill="rgb(0,0,0)" stroke="none" style="white-space: pre">80</tspan></tspan></tspan></text>
 <text class="SVGTextShape"><tspan class="TextParagraph" font-family="Liberation Sans, sans-serif" font-size="353px" font-weight="400"><tspan class="TextPosition" x="51466" y="5074"><tspan fill="rgb(0,0,0)" stroke="none" style="white-space: pre">90</tspan></tspan></tspan></text>
 <text class="SVGTextShape"><tspan class="TextParagraph" font-family="Liberation Sans, sans-serif" font-size="353px" font-weight="400"><tspan class="TextPosition" x="56881" y="5074"><tspan fill="rgb(0,0,0)" stroke="none" style="white-space: pre">100</tspan></tspan></tspan></text>
 <text class="SVGTextShape"><tspan class="TextParagraph" font-family="Liberation Sans, sans-serif" font-size="353px" font-weight="400"><tspan class="TextPosition" x="1353" y="8254"><tspan fill="rgb(0,0,0)" stroke="none" style="white-space: pre">-60</tspan></tspan></tspan></text>
 <text class="SVGTextShape"><tspan class="TextParagraph" font-family="Liberation Sans, sans-serif" font-size="353px" font-weight="400"><tspan class="TextPosition" x="1353" y="7045"><tspan fill="rgb(0,0,0)" stroke="none" style="white-space: pre">-40</tspan></tspan></tspan></text>
 <text class="SVGTextShape"><tspan class="TextParagraph" font-family="Liberation Sans, sans-serif" font-size="353px" font-weight="400"><tspan class="TextPosition" x="1353" y="5836"><tspan fill="rgb(0,0,0)" stroke="none" style="white-space: pre">-20</tspan></tspan></tspan></text>
 <text class="SVGTextShape"><tspan class="TextParagraph" font-family="Liberation Sans, sans-serif" font-size="353px" font-weight="400"><tspan class="TextPosition" x="1644" y="4627"><tspan fill="rgb(0,0,0)" stroke="none" style="white-space: pre">0</tspan></tspan></tspan></text>
 <text class="SVGTextShape"><tspan class="TextParagraph" font-family="Liberation Sans, sans-serif" font-size="353px" font-weight="400"><tspan class="TextPosition" x="1459" y="3418"><tspan fill="rgb(0,0,0)" stroke="none" style="white-space: pre">20</tspan></tspan></tspan></text>
 <text class="SVGTextShape"><tspan class="TextParagraph" font-family="Liberation Sans, sans-serif" font-size="353px" font-weight="400"><tspan class="TextPosition" x="1459" y="2209"><tspan fill="rgb(0,0,0)" stroke="none" style="white-space: pre">40</tspan></tspan></tspan></text>
 <text class="SVGTextShape"><tspan class="TextParagraph" font-family="Liberation Sans, sans-serif" font-size="353px" font-weight="400"><tspan class="TextPosition" x="1459" y="1000"><tspan fill="rgb(0,0,0)" stroke="none" style="white-space: pre">60</tspan></tspan></tspan></text>
</svg>